<svg width="129" height="136" viewBox="0 0 129 136" fill="none" xmlns="http://www.w3.org/2000/svg">
<path d="M118.609 50.2958L118.353 48.9598L119.597 48.1948L120.25 49.0828L118.609 50.2958Z" fill="#A8A8A8"/>
<path d="M118.609 50.2958L118.353 48.9598L117.796 49.3798L117.475 51.0788L118.609 50.2958Z" fill="#494949"/>
<path d="M121.554 48.5648C121.817 48.6928 122.046 48.8978 122.203 49.1698C122.224 49.2058 122.242 49.2428 122.259 49.2798C122.255 49.2738 122.249 49.2688 122.244 49.2628C122.593 49.9738 122.343 50.8428 121.646 51.2448L111.979 56.8258C111.283 57.2278 110.405 57.0108 109.964 56.3528C109.967 56.3598 109.969 56.3668 109.972 56.3738C109.949 56.3398 109.926 56.3058 109.905 56.2698C109.748 55.9978 109.684 55.6968 109.705 55.4048C109.739 54.9188 110.007 54.4578 110.461 54.1958L120.128 48.6148C120.583 48.3518 121.116 48.3508 121.554 48.5648Z" fill="#494949"/>
<path d="M120.713 48.6328L111.046 54.2138C110.32 54.6328 110.071 55.5618 110.49 56.2878C110.909 57.0138 111.838 57.2628 112.564 56.8438L122.231 51.2628C122.957 50.8438 123.206 49.9148 122.787 49.1888C122.367 48.4628 121.439 48.2138 120.713 48.6328Z" fill="#686868"/>
<path d="M120.836 48.8469L111.169 54.4279C110.479 54.8259 110.221 55.6849 110.557 56.3919C110.534 56.3579 110.511 56.3239 110.49 56.2879C110.071 55.5619 110.319 54.6329 111.046 54.2139L120.713 48.6329C121.439 48.2139 122.368 48.4619 122.787 49.1889C122.808 49.2249 122.826 49.2619 122.843 49.2989C122.398 48.6539 121.526 48.4489 120.836 48.8469Z" fill="#A8A8A8"/>
<path d="M122.063 50.9719L112.396 56.5529C112.088 56.7309 111.743 56.7889 111.417 56.7399C110.827 56.6529 110.466 56.0279 110.686 55.4739C110.808 55.1669 111.03 54.8969 111.338 54.7199L121.005 49.1389C121.313 48.9609 121.658 48.9029 121.984 48.9519C122.574 49.0389 122.935 49.6639 122.715 50.2189C122.593 50.5249 122.371 50.7939 122.063 50.9719Z" fill="#A8A8A8"/>
<path d="M107.208 30.5518L108.237 31.4408L109.522 30.7458L109.08 29.7368L107.208 30.5518Z" fill="#A8A8A8"/>
<path d="M107.209 30.5519L108.238 31.4409L107.596 31.7139L105.964 31.1419L107.209 30.5519Z" fill="#494949"/>
<path d="M110.182 28.8669C110.203 28.5749 110.139 28.2739 109.982 28.0019C109.961 27.9659 109.938 27.9319 109.915 27.8979C109.918 27.9049 109.92 27.9119 109.923 27.9189C109.482 27.2609 108.604 27.0439 107.908 27.4459L98.2406 33.0269C97.5446 33.4289 97.2936 34.2969 97.6426 35.0089C97.6386 35.0029 97.6326 34.9979 97.6276 34.9919C97.6446 35.0289 97.6626 35.0659 97.6836 35.1019C97.8406 35.3739 98.0696 35.5799 98.3326 35.7079C98.7706 35.9209 99.3036 35.9199 99.7576 35.6579L109.425 30.0769C109.88 29.8139 110.147 29.3529 110.182 28.8669Z" fill="#494949"/>
<path d="M109.701 29.5609L100.034 35.1419C99.3075 35.5609 98.3785 35.3129 97.9595 34.5859C97.5405 33.8599 97.7885 32.9309 98.5155 32.5119L108.183 26.9309C108.909 26.5119 109.838 26.7609 110.257 27.4869C110.676 28.2129 110.428 29.1419 109.701 29.5609Z" fill="#686868"/>
<path d="M109.578 29.3468L99.9108 34.9278C99.2208 35.3258 98.3488 35.1208 97.9038 34.4758C97.9218 34.5128 97.9388 34.5498 97.9598 34.5858C98.3788 35.3118 99.3078 35.5608 100.034 35.1418L109.701 29.5608C110.427 29.1418 110.676 28.2128 110.257 27.4868C110.236 27.4508 110.213 27.4168 110.19 27.3828C110.526 28.0908 110.268 28.9488 109.578 29.3468Z" fill="#A8A8A8"/>
<path d="M108.351 27.2218L98.6839 32.8028C98.3759 32.9808 98.1539 33.2508 98.0319 33.5568C97.8119 34.1118 98.1729 34.7358 98.7629 34.8228C99.0899 34.8708 99.4339 34.8138 99.7419 34.6358L109.409 29.0548C109.717 28.8768 109.939 28.6078 110.061 28.3008C110.281 27.7458 109.92 27.1208 109.33 27.0338C109.004 26.9868 108.659 27.0438 108.351 27.2218Z" fill="#A8A8A8"/>
<path d="M110.067 30.2649L120.326 48.0339L106.715 55.6609C105.883 56.1409 104.819 55.8559 104.339 55.0239L95.9197 40.4419C95.4397 39.6099 95.7247 38.5459 96.5557 38.0649L110.067 30.2649Z" fill="#686868"/>
<path d="M97.1259 39.7448L105.545 54.3268C106.025 55.1588 106.687 55.6758 107.519 55.1958C106.687 55.6758 105.623 55.3909 105.143 54.5589L96.7239 39.9769C96.2439 39.1449 96.5289 38.0809 97.3599 37.5999C96.5279 38.0819 96.6459 38.9128 97.1259 39.7448Z" fill="#A8A8A8"/>
<path d="M96.7237 39.9768L105.143 54.5588C105.623 55.3908 106.687 55.6758 107.519 55.1958L106.715 55.6608C105.883 56.1408 104.819 55.8558 104.339 55.0238L95.9197 40.4418C95.4397 39.6098 95.7247 38.5458 96.5557 38.0648L97.3607 37.6008C96.5277 38.0818 96.2427 39.1448 96.7237 39.9768Z" fill="#494949"/>
<path d="M110.539 33.5819L117.649 45.8969C118.363 47.1329 117.996 48.6809 116.83 49.3539L109.123 53.8039C107.957 54.4769 106.433 54.0209 105.719 52.7849L98.6087 40.4699C97.8947 39.2339 98.2617 37.6859 99.4277 37.0129L107.135 32.5629C108.301 31.8889 109.825 32.3459 110.539 33.5819Z" fill="#A9A9A9"/>
<path d="M98.6087 40.4699L105.719 52.7849C106.433 54.0209 107.956 54.4769 109.123 53.8039L109.769 53.4309C108.603 54.1039 107.079 53.6479 106.365 52.4119L99.2547 40.0969C98.5407 38.8609 98.9077 37.3129 100.074 36.6399L99.4277 37.0129C98.2617 37.6859 97.8947 39.2339 98.6087 40.4699Z" fill="#D4D4D4"/>
<path d="M110.539 33.5819L117.649 45.8969C118.363 47.1329 117.996 48.6809 116.83 49.3539L116.184 49.7269C117.35 49.0539 117.717 47.5059 117.003 46.2699L109.893 33.9549C109.179 32.7189 107.656 32.2629 106.489 32.9359L107.135 32.5629C108.301 31.8889 109.825 32.3459 110.539 33.5819Z" fill="#494949"/>
<path d="M125.364 47.8749C123.889 48.0109 120.019 48.8229 119.476 47.8829L109.738 31.0139C109.215 30.1079 111.828 27.2769 112.695 26.0509L125.364 47.8749Z" fill="#494949"/>
<path d="M112.959 28.3149L123.46 46.5049C124.249 47.8719 125.997 48.3399 127.364 47.5509C128.731 46.7619 129.199 45.0149 128.41 43.6479L117.907 25.4579C117.118 24.0909 115.372 23.6229 114.005 24.4119C112.638 25.2009 112.17 26.9479 112.959 28.3149Z" fill="#686868"/>
<path d="M113.36 28.0819L123.863 46.2719C124.613 47.5709 126.227 48.0559 127.558 47.4239C127.495 47.4679 127.432 47.5109 127.364 47.5499C125.997 48.3389 124.249 47.8709 123.46 46.5039L112.959 28.3139C112.17 26.9469 112.638 25.1999 114.005 24.4109C114.073 24.3719 114.142 24.3379 114.212 24.3049C112.999 25.1429 112.61 26.7839 113.36 28.0819Z" fill="#A8A8A8"/>
<path d="M117.359 25.7739L127.861 43.9639C128.196 44.5439 128.304 45.1919 128.213 45.8069C128.049 46.9179 126.874 47.5959 125.83 47.1829C125.253 46.9539 124.745 46.5359 124.41 45.9569L113.908 27.7669C113.573 27.1869 113.465 26.5389 113.556 25.9239C113.72 24.8129 114.895 24.1349 115.939 24.5479C116.516 24.7759 117.024 25.1939 117.359 25.7739Z" fill="#A8A8A8"/>
<path d="M113.741 26.1389C113.235 26.4309 125.26 47.2588 125.766 46.9668C125.997 45.8258 126.738 44.6518 128.045 45.0768L126.872 42.9478C127.361 44.6138 126.272 44.3888 125.943 44.5618C125.499 44.7958 115.484 27.4579 115.912 27.1879C116.226 26.9899 116.576 25.9338 117.775 27.1908L116.517 25.1108C116.233 26.4548 114.845 26.5089 113.741 26.1389Z" fill="#D4D4D4"/>
<path d="M22.315 105.891L21.287 105.001L20.001 105.697L20.444 106.706L22.315 105.891Z" fill="#A8A8A8"/>
<path d="M22.3151 105.891L21.2871 105.001L21.9291 104.729L23.5611 105.301L22.3151 105.891Z" fill="#494949"/>
<path d="M19.3427 107.576C19.3217 107.868 19.3857 108.169 19.5427 108.441C19.5637 108.477 19.5867 108.511 19.6097 108.545C19.6067 108.538 19.6047 108.531 19.6017 108.524C20.0427 109.182 20.9207 109.399 21.6167 108.997L31.2837 103.416C31.9797 103.014 32.2307 102.146 31.8817 101.434C31.8857 101.44 31.8917 101.445 31.8967 101.451C31.8787 101.414 31.8617 101.377 31.8407 101.341C31.6837 101.069 31.4547 100.864 31.1917 100.735C30.7537 100.522 30.2207 100.523 29.7667 100.785L20.0997 106.366C19.6447 106.629 19.3767 107.09 19.3427 107.576Z" fill="#494949"/>
<path d="M19.8229 106.882L29.4899 101.301C30.2159 100.882 31.1449 101.13 31.5639 101.857C31.9829 102.583 31.7349 103.512 31.0079 103.931L21.3409 109.512C20.6149 109.931 19.6859 109.682 19.2669 108.956C18.8479 108.23 19.0969 107.301 19.8229 106.882Z" fill="#686868"/>
<path d="M19.9469 107.095L29.6139 101.514C30.3039 101.116 31.1759 101.321 31.6209 101.966C31.6029 101.929 31.5859 101.892 31.5649 101.856C31.1459 101.13 30.2169 100.881 29.4909 101.3L19.8239 106.881C19.0979 107.3 18.8489 108.229 19.2679 108.955C19.2889 108.991 19.3119 109.025 19.3349 109.059C18.9989 108.352 19.2569 107.494 19.9469 107.095Z" fill="#A8A8A8"/>
<path d="M21.174 109.22L30.841 103.639C31.149 103.461 31.371 103.192 31.493 102.885C31.713 102.33 31.352 101.706 30.762 101.618C30.435 101.57 30.091 101.627 29.783 101.805L20.116 107.386C19.808 107.564 19.586 107.834 19.464 108.14C19.244 108.695 19.605 109.319 20.195 109.406C20.521 109.456 20.865 109.398 21.174 109.22Z" fill="#A8A8A8"/>
<path d="M10.9154 86.147L11.1714 87.482L9.92644 88.248L9.27344 87.36L10.9154 86.147Z" fill="#A8A8A8"/>
<path d="M10.9155 86.147L11.1715 87.482L11.7285 87.062L12.0495 85.364L10.9155 86.147Z" fill="#494949"/>
<path d="M7.96954 87.8779C7.70654 87.7499 7.47753 87.5449 7.32053 87.2729C7.29953 87.2369 7.28153 87.1999 7.26453 87.1629C7.26853 87.1689 7.27453 87.1739 7.27953 87.1799C6.93053 86.4689 7.18054 85.5999 7.87754 85.1979L17.5445 79.6169C18.2405 79.2149 19.1185 79.4319 19.5595 80.0899C19.5565 80.0829 19.5555 80.0759 19.5515 80.0689C19.5745 80.1029 19.5975 80.1369 19.6185 80.1729C19.7755 80.4449 19.8385 80.7459 19.8185 81.0379C19.7845 81.5239 19.5165 81.9849 19.0625 82.2469L9.39553 87.8279C8.94153 88.0899 8.40854 88.0919 7.96954 87.8779Z" fill="#494949"/>
<path d="M8.81161 87.809L18.4786 82.228C19.2046 81.809 19.4536 80.88 19.0346 80.154C18.6156 79.428 17.6866 79.179 16.9606 79.598L7.29362 85.179C6.56762 85.598 6.31862 86.527 6.73762 87.253C7.15662 87.98 8.08561 88.229 8.81161 87.809Z" fill="#686868"/>
<path d="M8.68863 87.596L18.3556 82.015C19.0456 81.617 19.3036 80.758 18.9676 80.051C18.9906 80.085 19.0136 80.119 19.0346 80.155C19.4536 80.881 19.2056 81.81 18.4786 82.229L8.81163 87.81C8.08563 88.229 7.15664 87.981 6.73764 87.254C6.71664 87.218 6.69864 87.181 6.68164 87.144C7.12564 87.788 7.99763 87.994 8.68863 87.596Z" fill="#A8A8A8"/>
<path d="M7.46174 85.471L17.1287 79.89C17.4367 79.712 17.7817 79.655 18.1077 79.703C18.6977 79.79 19.0587 80.415 18.8387 80.97C18.7167 81.277 18.4947 81.546 18.1867 81.724L8.51974 87.305C8.21174 87.483 7.86673 87.541 7.54073 87.492C6.95073 87.405 6.58973 86.78 6.80973 86.226C6.93173 85.918 7.15374 85.649 7.46174 85.471Z" fill="#A8A8A8"/>
<path d="M9.23877 88.4779L19.4978 106.247L32.9088 98.2729C33.7408 97.7919 34.0258 96.7289 33.5448 95.8969L25.1258 81.3149C24.6458 80.4829 23.5818 80.1979 22.7498 80.6779L9.23877 88.4779Z" fill="#686868"/>
<path d="M23.9188 82.0109L32.3378 96.5929C32.8178 97.4249 32.9358 98.2569 32.1038 98.7369C32.9358 98.2559 33.2208 97.1919 32.7398 96.3599L24.3208 81.7779C23.8408 80.9459 22.7768 80.6609 21.9448 81.1409C22.7768 80.6619 23.4388 81.1789 23.9188 82.0109Z" fill="#A8A8A8"/>
<path d="M24.3218 81.7789L32.7408 96.3609C33.2208 97.1929 32.9358 98.2569 32.1048 98.7379L32.9098 98.2729C33.7418 97.7919 34.0268 96.7289 33.5458 95.8969L25.1268 81.3149C24.6468 80.4829 23.5828 80.1979 22.7508 80.6779L21.9458 81.1429C22.7768 80.6619 23.8408 80.9469 24.3218 81.7789Z" fill="#494949"/>
<path d="M11.8749 90.545L18.9849 102.86C19.6989 104.096 21.2229 104.552 22.3889 103.879L30.0959 99.429C31.2619 98.756 31.6289 97.208 30.9149 95.972L23.8049 83.657C23.0909 82.421 21.5679 81.965 20.4009 82.638L12.6939 87.088C11.5279 87.761 11.1619 89.309 11.8749 90.545Z" fill="#A9A9A9"/>
<path d="M23.8059 83.657L30.9159 95.972C31.6299 97.208 31.2629 98.756 30.0969 99.429L29.4509 99.802C30.6169 99.129 30.9839 97.581 30.2699 96.345L23.1599 84.03C22.4459 82.794 20.9219 82.338 19.7559 83.011L20.4019 82.638C21.5679 81.965 23.0919 82.421 23.8059 83.657Z" fill="#D4D4D4"/>
<path d="M11.8749 90.545L18.9849 102.86C19.6989 104.096 21.2229 104.552 22.3889 103.879L23.0349 103.506C21.8689 104.179 20.3449 103.723 19.6309 102.487L12.5209 90.172C11.8069 88.936 12.1739 87.388 13.3399 86.715L12.6939 87.088C11.5279 87.761 11.1619 89.309 11.8749 90.545Z" fill="#494949"/>
<path d="M16.8409 110.531C17.6969 109.322 20.3339 106.377 19.7909 105.436L10.0519 88.567C9.52891 87.661 5.7699 88.508 4.2749 88.646L16.8409 110.531Z" fill="#494949"/>
<path d="M6.1038 90.007L16.6058 108.197C17.3948 109.564 16.9268 111.311 15.5598 112.1C14.1928 112.889 12.4458 112.421 11.6568 111.054L1.1548 92.864C0.365798 91.497 0.833804 89.75 2.2008 88.961C3.5668 88.173 5.3148 88.641 6.1038 90.007Z" fill="#686868"/>
<path d="M5.70186 90.2401L16.2039 108.43C16.9539 109.729 16.5659 111.37 15.3529 112.207C15.4229 112.174 15.4919 112.14 15.5599 112.101C16.9269 111.312 17.3949 109.565 16.6059 108.198L6.10387 90.008C5.31487 88.641 3.56787 88.1731 2.20087 88.9621C2.13287 89.0011 2.06886 89.045 2.00586 89.088C3.33686 88.456 4.95186 88.9411 5.70186 90.2401Z" fill="#A8A8A8"/>
<path d="M1.70271 92.548L12.2047 110.738C12.5397 111.318 13.0467 111.736 13.6247 111.965C14.6687 112.378 15.8437 111.7 16.0077 110.589C16.0987 109.974 15.9897 109.326 15.6557 108.746L5.15372 90.556C4.81872 89.976 4.3117 89.558 3.7337 89.33C2.6897 88.917 1.51471 89.595 1.35071 90.706C1.25971 91.32 1.36771 91.968 1.70271 92.548Z" fill="#A8A8A8"/>
<path d="M3.82785 89.598C4.33385 89.306 16.3588 110.134 15.8528 110.426C14.7488 110.056 13.3619 110.11 13.0759 111.454L11.8178 109.374C13.0158 110.63 13.3658 109.575 13.6808 109.377C14.1048 109.11 4.09684 91.767 3.64984 92.003C3.32084 92.176 2.23184 91.951 2.72084 93.617L1.54785 91.488C2.85585 91.913 3.59685 90.738 3.82785 89.598Z" fill="#D4D4D4"/>
<path d="M107.209 105.891L108.238 105.001L109.523 105.697L109.081 106.706L107.209 105.891Z" fill="#A8A8A8"/>
<path d="M107.209 105.891L108.238 105.001L107.596 104.729L105.964 105.301L107.209 105.891Z" fill="#494949"/>
<path d="M110.182 107.576C110.203 107.868 110.139 108.169 109.982 108.441C109.961 108.477 109.938 108.511 109.915 108.545C109.918 108.538 109.92 108.531 109.923 108.524C109.482 109.182 108.604 109.399 107.908 108.997L98.2411 103.416C97.5451 103.014 97.2941 102.146 97.6431 101.434C97.6391 101.44 97.6331 101.445 97.6281 101.451C97.6451 101.414 97.6631 101.377 97.6841 101.341C97.8411 101.069 98.0701 100.864 98.3331 100.735C98.7711 100.522 99.3041 100.523 99.7581 100.785L109.425 106.366C109.88 106.629 110.147 107.09 110.182 107.576Z" fill="#494949"/>
<path d="M109.701 106.882L100.034 101.301C99.308 100.882 98.379 101.13 97.96 101.857C97.541 102.583 97.789 103.512 98.516 103.931L108.183 109.512C108.909 109.931 109.838 109.682 110.257 108.956C110.676 108.23 110.428 107.301 109.701 106.882Z" fill="#686868"/>
<path d="M109.578 107.095L99.9113 101.514C99.2213 101.116 98.3493 101.321 97.9043 101.966C97.9223 101.929 97.9393 101.892 97.9603 101.856C98.3793 101.13 99.3083 100.881 100.034 101.3L109.701 106.881C110.427 107.3 110.676 108.229 110.257 108.955C110.236 108.991 110.213 109.025 110.19 109.059C110.526 108.352 110.268 107.494 109.578 107.095Z" fill="#A8A8A8"/>
<path d="M108.351 109.22L98.6839 103.639C98.3759 103.461 98.1539 103.192 98.0319 102.885C97.8119 102.33 98.1729 101.706 98.7629 101.618C99.0899 101.57 99.4339 101.627 99.7419 101.805L109.409 107.386C109.717 107.564 109.939 107.834 110.061 108.14C110.281 108.695 109.92 109.319 109.33 109.406C109.004 109.456 108.659 109.398 108.351 109.22Z" fill="#A8A8A8"/>
<path d="M118.609 86.147L118.353 87.482L119.597 88.248L120.25 87.36L118.609 86.147Z" fill="#A8A8A8"/>
<path d="M118.609 86.147L118.353 87.482L117.796 87.062L117.475 85.364L118.609 86.147Z" fill="#494949"/>
<path d="M121.554 87.8779C121.817 87.7499 122.046 87.5449 122.203 87.2729C122.224 87.2369 122.242 87.1999 122.259 87.1629C122.255 87.1689 122.249 87.1739 122.244 87.1799C122.593 86.4689 122.343 85.5999 121.646 85.1979L111.979 79.6169C111.283 79.2149 110.405 79.4319 109.964 80.0899C109.967 80.0829 109.969 80.0759 109.972 80.0689C109.949 80.1029 109.926 80.1369 109.905 80.1729C109.748 80.4449 109.684 80.7459 109.705 81.0379C109.739 81.5239 110.007 81.9849 110.461 82.2469L120.128 87.8279C120.583 88.0899 121.116 88.0919 121.554 87.8779Z" fill="#494949"/>
<path d="M120.713 87.809L111.046 82.228C110.32 81.809 110.071 80.88 110.49 80.154C110.909 79.428 111.838 79.179 112.564 79.598L122.231 85.179C122.957 85.598 123.206 86.527 122.787 87.253C122.367 87.98 121.439 88.229 120.713 87.809Z" fill="#686868"/>
<path d="M120.836 87.596L111.169 82.015C110.479 81.617 110.221 80.758 110.557 80.051C110.534 80.085 110.511 80.119 110.49 80.155C110.071 80.881 110.319 81.81 111.046 82.229L120.713 87.81C121.439 88.229 122.368 87.981 122.787 87.254C122.808 87.218 122.826 87.181 122.843 87.144C122.398 87.788 121.526 87.994 120.836 87.596Z" fill="#A8A8A8"/>
<path d="M122.063 85.471L112.396 79.89C112.088 79.712 111.743 79.655 111.417 79.703C110.827 79.79 110.466 80.415 110.686 80.97C110.808 81.277 111.03 81.546 111.338 81.724L121.005 87.305C121.313 87.483 121.658 87.541 121.984 87.492C122.574 87.405 122.935 86.78 122.715 86.226C122.593 85.918 122.371 85.649 122.063 85.471Z" fill="#A8A8A8"/>
<path d="M120.286 88.4779L110.027 106.247L96.6159 98.2729C95.7839 97.7919 95.4989 96.7289 95.9799 95.8969L104.399 81.3149C104.879 80.4829 105.943 80.1979 106.775 80.6779L120.286 88.4779Z" fill="#686868"/>
<path d="M105.605 82.0109L97.1861 96.5929C96.7061 97.4249 96.5881 98.2569 97.4201 98.7369C96.5881 98.2559 96.3031 97.1919 96.7841 96.3599L105.203 81.7779C105.683 80.9459 106.747 80.6609 107.579 81.1409C106.747 80.6619 106.086 81.1789 105.605 82.0109Z" fill="#A8A8A8"/>
<path d="M105.203 81.7789L96.7839 96.3609C96.3039 97.1929 96.5889 98.2569 97.4199 98.7379L96.6149 98.2729C95.7829 97.7919 95.4979 96.7289 95.9789 95.8969L104.398 81.3149C104.878 80.4829 105.942 80.1979 106.774 80.6779L107.579 81.1429C106.747 80.6619 105.683 80.9469 105.203 81.7789Z" fill="#494949"/>
<path d="M117.649 90.545L110.539 102.86C109.825 104.096 108.301 104.552 107.135 103.879L99.4277 99.429C98.2617 98.756 97.8947 97.208 98.6087 95.972L105.719 83.657C106.433 82.421 107.957 81.965 109.123 82.638L116.83 87.088C117.996 87.761 118.363 89.309 117.649 90.545Z" fill="#A9A9A9"/>
<path d="M105.719 83.657L98.6087 95.972C97.8947 97.208 98.2617 98.756 99.4277 99.429L100.074 99.802C98.9077 99.129 98.5407 97.581 99.2547 96.345L106.365 84.03C107.079 82.794 108.603 82.338 109.769 83.011L109.123 82.638C107.957 81.965 106.433 82.421 105.719 83.657Z" fill="#D4D4D4"/>
<path d="M117.649 90.545L110.539 102.86C109.825 104.096 108.301 104.552 107.135 103.879L106.489 103.506C107.655 104.179 109.179 103.723 109.893 102.487L117.003 90.172C117.717 88.936 117.35 87.388 116.184 86.715L116.83 87.088C117.996 87.761 118.363 89.309 117.649 90.545Z" fill="#494949"/>
<path d="M112.684 110.531C111.828 109.322 109.191 106.377 109.734 105.436L119.473 88.567C119.996 87.661 123.754 88.508 125.25 88.646L112.684 110.531Z" fill="#494949"/>
<path d="M123.421 90.007L112.919 108.197C112.13 109.564 112.598 111.311 113.965 112.1C115.332 112.889 117.079 112.421 117.868 111.054L128.37 92.864C129.159 91.497 128.691 89.75 127.324 88.961C125.957 88.173 124.21 88.641 123.421 90.007Z" fill="#686868"/>
<path d="M123.823 90.2401L113.321 108.43C112.571 109.729 112.959 111.37 114.172 112.207C114.102 112.174 114.033 112.14 113.965 112.101C112.598 111.312 112.13 109.565 112.919 108.198L123.421 90.008C124.21 88.641 125.957 88.1731 127.324 88.9621C127.392 89.0011 127.456 89.045 127.519 89.088C126.188 88.456 124.573 88.9411 123.823 90.2401Z" fill="#A8A8A8"/>
<path d="M127.822 92.548L117.32 110.738C116.985 111.318 116.478 111.736 115.901 111.965C114.857 112.378 113.682 111.7 113.518 110.589C113.427 109.974 113.536 109.326 113.87 108.746L124.372 90.556C124.707 89.976 125.214 89.558 125.792 89.33C126.836 88.917 128.011 89.595 128.175 90.706C128.265 91.32 128.156 91.968 127.822 92.548Z" fill="#A8A8A8"/>
<path d="M125.696 89.598C125.19 89.306 113.165 110.134 113.671 110.426C114.775 110.056 116.162 110.11 116.448 111.454L117.706 109.374C116.508 110.63 116.158 109.575 115.843 109.377C115.419 109.11 125.427 91.767 125.874 92.003C126.203 92.176 127.292 91.951 126.803 93.617L127.976 91.488C126.668 91.913 125.927 90.738 125.696 89.598Z" fill="#D4D4D4"/>
<path d="M10.9154 50.2958L11.1714 48.9598L9.92644 48.1948L9.27344 49.0828L10.9154 50.2958Z" fill="#A8A8A8"/>
<path d="M10.9155 50.2958L11.1715 48.9598L11.7285 49.3798L12.0495 51.0788L10.9155 50.2958Z" fill="#494949"/>
<path d="M7.96954 48.5648C7.70654 48.6928 7.47753 48.8978 7.32053 49.1698C7.29953 49.2058 7.28153 49.2428 7.26453 49.2798C7.26853 49.2738 7.27453 49.2688 7.27953 49.2628C6.93053 49.9738 7.18054 50.8428 7.87754 51.2448L17.5445 56.8258C18.2405 57.2278 19.1185 57.0108 19.5595 56.3528C19.5565 56.3598 19.5555 56.3668 19.5515 56.3738C19.5745 56.3398 19.5975 56.3058 19.6185 56.2698C19.7755 55.9978 19.8385 55.6968 19.8185 55.4048C19.7845 54.9188 19.5165 54.4578 19.0625 54.1958L9.39553 48.6148C8.94153 48.3518 8.40854 48.3508 7.96954 48.5648Z" fill="#494949"/>
<path d="M8.81161 48.6328L18.4786 54.2138C19.2046 54.6328 19.4536 55.5618 19.0346 56.2878C18.6156 57.0138 17.6866 57.2628 16.9606 56.8438L7.29362 51.2628C6.56762 50.8438 6.31862 49.9148 6.73762 49.1888C7.15662 48.4628 8.08561 48.2138 8.81161 48.6328Z" fill="#686868"/>
<path d="M8.68863 48.8469L18.3556 54.4279C19.0456 54.8259 19.3036 55.6849 18.9676 56.3919C18.9906 56.3579 19.0136 56.3239 19.0346 56.2879C19.4536 55.5619 19.2056 54.6329 18.4786 54.2139L8.81163 48.6329C8.08563 48.2139 7.15664 48.4619 6.73764 49.1889C6.71664 49.2249 6.69864 49.2619 6.68164 49.2989C7.12564 48.6539 7.99763 48.4489 8.68863 48.8469Z" fill="#A8A8A8"/>
<path d="M7.46174 50.9719L17.1287 56.5529C17.4367 56.7309 17.7817 56.7889 18.1077 56.7399C18.6977 56.6529 19.0587 56.0279 18.8387 55.4739C18.7167 55.1669 18.4947 54.8969 18.1867 54.7199L8.51974 49.1389C8.21174 48.9609 7.86673 48.9029 7.54073 48.9519C6.95073 49.0389 6.58973 49.6639 6.80973 50.2189C6.93173 50.5249 7.15374 50.7939 7.46174 50.9719Z" fill="#A8A8A8"/>
<path d="M22.315 30.5518L21.287 31.4408L20.001 30.7458L20.444 29.7368L22.315 30.5518Z" fill="#A8A8A8"/>
<path d="M22.3151 30.5519L21.2871 31.4409L21.9291 31.7139L23.5611 31.1419L22.3151 30.5519Z" fill="#494949"/>
<path d="M19.3427 28.8669C19.3217 28.5749 19.3857 28.2739 19.5427 28.0019C19.5637 27.9659 19.5867 27.9319 19.6097 27.8979C19.6067 27.9049 19.6047 27.9119 19.6017 27.9189C20.0427 27.2609 20.9207 27.0439 21.6167 27.4459L31.2837 33.0269C31.9797 33.4289 32.2307 34.2969 31.8817 35.0089C31.8857 35.0029 31.8917 34.9979 31.8967 34.9919C31.8787 35.0289 31.8617 35.0659 31.8407 35.1019C31.6837 35.3739 31.4547 35.5799 31.1917 35.7079C30.7537 35.9209 30.2207 35.9199 29.7667 35.6579L20.0997 30.0769C19.6447 29.8139 19.3767 29.3529 19.3427 28.8669Z" fill="#494949"/>
<path d="M19.8229 29.5609L29.4899 35.1419C30.2159 35.5609 31.1449 35.3129 31.5639 34.5859C31.9829 33.8599 31.7349 32.9309 31.0079 32.5119L21.3409 26.9309C20.6149 26.5119 19.6859 26.7609 19.2669 27.4869C18.8479 28.2129 19.0969 29.1419 19.8229 29.5609Z" fill="#686868"/>
<path d="M19.9469 29.3468L29.6139 34.9278C30.3039 35.3258 31.1759 35.1208 31.6209 34.4758C31.6029 34.5128 31.5859 34.5498 31.5649 34.5858C31.1459 35.3118 30.2169 35.5608 29.4909 35.1418L19.8239 29.5608C19.0979 29.1418 18.8489 28.2128 19.2679 27.4868C19.2889 27.4508 19.3119 27.4168 19.3349 27.3828C18.9989 28.0908 19.2569 28.9488 19.9469 29.3468Z" fill="#A8A8A8"/>
<path d="M21.174 27.2218L30.841 32.8028C31.149 32.9808 31.371 33.2508 31.493 33.5568C31.713 34.1118 31.352 34.7358 30.762 34.8228C30.435 34.8708 30.091 34.8138 29.783 34.6358L20.116 29.0548C19.808 28.8768 19.586 28.6078 19.464 28.3008C19.244 27.7458 19.605 27.1208 20.195 27.0338C20.521 26.9868 20.865 27.0438 21.174 27.2218Z" fill="#A8A8A8"/>
<path d="M19.4577 30.2649L9.19873 48.0339L22.8097 55.6609C23.6417 56.1409 24.7057 55.8559 25.1857 55.0239L33.6047 40.4419C34.0847 39.6099 33.7997 38.5459 32.9687 38.0649L19.4577 30.2649Z" fill="#686868"/>
<path d="M32.3989 39.7448L23.9799 54.3268C23.4999 55.1588 22.8379 55.6758 22.0059 55.1958C22.8379 55.6758 23.9019 55.3909 24.3819 54.5589L32.8009 39.9769C33.2809 39.1449 32.9959 38.0809 32.1649 37.5999C32.9959 38.0819 32.8789 38.9128 32.3989 39.7448Z" fill="#A8A8A8"/>
<path d="M32.8009 39.9768L24.3819 54.5588C23.9019 55.3908 22.8379 55.6758 22.0059 55.1958L22.8099 55.6608C23.6419 56.1408 24.7059 55.8558 25.1859 55.0238L33.6049 40.4418C34.0849 39.6098 33.7999 38.5458 32.9689 38.0648L32.1639 37.6008C32.9959 38.0818 33.2809 39.1448 32.8009 39.9768Z" fill="#494949"/>
<path d="M18.9858 33.5819L11.8758 45.8969C11.1618 47.1329 11.5288 48.6809 12.6948 49.3539L20.4018 53.8039C21.5678 54.4769 23.0918 54.0209 23.8058 52.7849L30.9158 40.4699C31.6298 39.2339 31.2628 37.6859 30.0968 37.0129L22.3898 32.5629C21.2228 31.8889 19.6988 32.3459 18.9858 33.5819Z" fill="#A9A9A9"/>
<path d="M30.9159 40.4699L23.8059 52.7849C23.0919 54.0209 21.5679 54.4769 20.4019 53.8039L19.7559 53.4309C20.9219 54.1039 22.4459 53.6479 23.1599 52.4119L30.2699 40.0969C30.9839 38.8609 30.6169 37.3129 29.4509 36.6399L30.0969 37.0129C31.2629 37.6859 31.6299 39.2339 30.9159 40.4699Z" fill="#D4D4D4"/>
<path d="M18.9858 33.5819L11.8758 45.8969C11.1618 47.1329 11.5288 48.6809 12.6948 49.3539L13.3408 49.7269C12.1748 49.0539 11.8078 47.5059 12.5218 46.2699L19.6318 33.9549C20.3458 32.7189 21.8698 32.2629 23.0358 32.9359L22.3898 32.5629C21.2228 31.8889 19.6988 32.3459 18.9858 33.5819Z" fill="#494949"/>
<path d="M4.16064 47.8749C5.63564 48.0109 9.50465 48.8229 10.0477 47.8829L19.7867 31.0139C20.3097 30.1079 17.6967 27.2769 16.8297 26.0509L4.16064 47.8749Z" fill="#494949"/>
<path d="M16.5658 28.3149L6.06375 46.5049C5.27475 47.8719 3.52775 48.3399 2.16075 47.5509C0.793753 46.7619 0.325763 45.0149 1.11476 43.6479L11.6168 25.4579C12.4058 24.0909 14.1528 23.6229 15.5198 24.4119C16.8868 25.2009 17.3548 26.9479 16.5658 28.3149Z" fill="#686868"/>
<path d="M16.1638 28.0819L5.66182 46.2719C4.91182 47.5709 3.29682 48.0559 1.96582 47.4239C2.02882 47.4679 2.09281 47.5109 2.16081 47.5499C3.52781 48.3389 5.27481 47.8709 6.06381 46.5039L16.5658 28.3139C17.3548 26.9469 16.8868 25.1999 15.5198 24.4109C15.4518 24.3719 15.3828 24.3379 15.3128 24.3049C16.5258 25.1429 16.9128 26.7839 16.1638 28.0819Z" fill="#A8A8A8"/>
<path d="M12.1647 25.7739L1.66266 43.9639C1.32766 44.5439 1.21967 45.1919 1.31067 45.8069C1.47467 46.9179 2.64966 47.5959 3.69367 47.1829C4.27167 46.9539 4.77866 46.5359 5.11366 45.9569L15.6157 27.7669C15.9507 27.1869 16.0587 26.5389 15.9677 25.9239C15.8037 24.8129 14.6287 24.1349 13.5847 24.5479C13.0067 24.7759 12.4997 25.1939 12.1647 25.7739Z" fill="#A8A8A8"/>
<path d="M15.7825 26.1389C16.2885 26.4309 4.26351 47.2588 3.75751 46.9668C3.52651 45.8258 2.78552 44.6518 1.47852 45.0768L2.6515 42.9478C2.1625 44.6138 3.25151 44.3888 3.58051 44.5618C4.02351 44.7958 14.0395 27.4579 13.6115 27.1879C13.2975 26.9899 12.9475 25.9338 11.7485 27.1908L13.0065 25.1108C13.2915 26.4548 14.6785 26.5089 15.7825 26.1389Z" fill="#D4D4D4"/>
<path d="M53.3628 123.816L54.6478 124.263L54.6878 125.723L53.5928 125.845L53.3628 123.816Z" fill="#A8A8A8"/>
<path d="M53.363 123.816L54.6479 124.263L54.562 123.57L53.252 122.443L53.363 123.816Z" fill="#494949"/>
<path d="M53.39 127.233C53.148 127.397 52.855 127.492 52.541 127.492C52.499 127.492 52.459 127.489 52.418 127.486C52.426 127.485 52.433 127.483 52.44 127.482C51.649 127.429 51.0229 126.778 51.0229 125.974V114.812C51.0229 114.008 51.65 113.357 52.44 113.304C52.432 113.303 52.425 113.301 52.418 113.3C52.459 113.297 52.5 113.294 52.541 113.294C52.855 113.294 53.148 113.39 53.39 113.553C53.794 113.826 54.06 114.288 54.06 114.812V125.974C54.059 126.498 53.793 126.96 53.39 127.233Z" fill="#494949"/>
<path d="M53.7509 126.47V115.308C53.7509 114.469 53.0709 113.789 52.2319 113.789C51.3929 113.789 50.7139 114.469 50.7139 115.308V126.47C50.7139 127.309 51.3939 127.989 52.2319 127.989C53.0709 127.988 53.7509 127.308 53.7509 126.47Z" fill="#686868"/>
<path d="M53.5039 126.47V115.308C53.5039 114.511 52.8899 113.859 52.1089 113.796C52.1499 113.793 52.1909 113.79 52.2319 113.79C53.0709 113.79 53.7509 114.47 53.7509 115.309V126.471C53.7509 127.31 53.0709 127.99 52.2319 127.99C52.1899 127.99 52.1489 127.987 52.1089 127.984C52.8899 127.919 53.5039 127.267 53.5039 126.47Z" fill="#A8A8A8"/>
<path d="M51.0498 126.47V115.308C51.0498 114.952 51.1718 114.625 51.3768 114.366C51.7468 113.898 52.4688 113.898 52.8388 114.366C53.0438 114.625 53.1658 114.952 53.1658 115.308V126.47C53.1658 126.826 53.0428 127.153 52.8388 127.412C52.4678 127.88 51.7468 127.88 51.3768 127.412C51.1728 127.153 51.0498 126.826 51.0498 126.47Z" fill="#A8A8A8"/>
<path d="M76.1619 123.816L74.8769 124.263L74.8359 125.723L75.9319 125.845L76.1619 123.816Z" fill="#A8A8A8"/>
<path d="M76.162 123.816L74.877 124.263L74.962 123.57L76.2729 122.443L76.162 123.816Z" fill="#494949"/>
<path d="M76.1348 127.233C76.3768 127.397 76.6698 127.492 76.9838 127.492C77.0258 127.492 77.0668 127.489 77.1068 127.486C77.0988 127.485 77.0918 127.483 77.0848 127.482C77.8758 127.429 78.5018 126.778 78.5018 125.974V114.812C78.5018 114.008 77.8748 113.357 77.0848 113.304C77.0928 113.303 77.0998 113.301 77.1068 113.3C77.0658 113.297 77.0248 113.294 76.9838 113.294C76.6698 113.294 76.3768 113.39 76.1348 113.553C75.7308 113.826 75.4658 114.288 75.4658 114.812V125.974C75.4648 126.498 75.7308 126.96 76.1348 127.233Z" fill="#494949"/>
<path d="M75.7739 126.47V115.308C75.7739 114.469 76.4539 113.789 77.2929 113.789C78.1319 113.789 78.8109 114.469 78.8109 115.308V126.47C78.8109 127.309 78.1309 127.989 77.2929 127.989C76.4529 127.988 75.7739 127.308 75.7739 126.47Z" fill="#686868"/>
<path d="M76.02 126.47V115.308C76.02 114.511 76.6339 113.859 77.4149 113.796C77.3739 113.793 77.333 113.79 77.292 113.79C76.453 113.79 75.7729 114.47 75.7729 115.309V126.471C75.7729 127.31 76.453 127.99 77.292 127.99C77.334 127.99 77.3749 127.987 77.4149 127.984C76.6349 127.919 76.02 127.267 76.02 126.47Z" fill="#A8A8A8"/>
<path d="M78.4739 126.47V115.308C78.4739 114.952 78.3519 114.625 78.1469 114.366C77.7759 113.898 77.0549 113.898 76.6849 114.366C76.4799 114.625 76.3579 114.952 76.3579 115.308V126.47C76.3579 126.826 76.4799 127.153 76.6849 127.412C77.0559 127.88 77.7769 127.88 78.1469 127.412C78.3519 127.153 78.4739 126.826 78.4739 126.47Z" fill="#A8A8A8"/>
<path d="M74.9819 126.435H54.4639L54.6639 110.834C54.6639 109.873 55.4429 109.095 56.4039 109.095H73.2419C74.2029 109.095 74.9819 109.874 74.9819 110.834V126.435Z" fill="#686868"/>
<path d="M73.2421 110.487H56.4041C55.4431 110.487 54.6641 110.801 54.6641 111.762C54.6641 110.801 55.4431 110.023 56.4041 110.023H73.2421C74.2031 110.023 74.9821 110.802 74.9821 111.762C74.9811 110.801 74.2021 110.487 73.2421 110.487Z" fill="#A8A8A8"/>
<path d="M73.2421 110.023H56.4041C55.4431 110.023 54.6641 110.802 54.6641 111.762V110.833C54.6641 109.872 55.4431 109.094 56.4041 109.094H73.2421C74.2031 109.094 74.9821 109.873 74.9821 110.833V111.762C74.9811 110.801 74.2021 110.023 73.2421 110.023Z" fill="#494949"/>
<path d="M71.8728 125.185H57.6528C56.2258 125.185 55.0688 124.093 55.0688 122.747V113.847C55.0688 112.501 56.2258 111.409 57.6528 111.409H71.8728C73.2998 111.409 74.4568 112.501 74.4568 113.847V122.747C74.4568 124.093 73.2998 125.185 71.8728 125.185Z" fill="#A9A9A9"/>
<path d="M71.8728 111.409H57.6528C56.2258 111.409 55.0688 112.501 55.0688 113.847V114.593C55.0688 113.246 56.2258 112.155 57.6528 112.155H71.8728C73.2998 112.155 74.4568 113.247 74.4568 114.593V113.847C74.4568 112.501 73.2998 111.409 71.8728 111.409Z" fill="#D4D4D4"/>
<path d="M71.8728 125.185H57.6528C56.2258 125.185 55.0688 124.093 55.0688 122.747V122.001C55.0688 123.347 56.2258 124.439 57.6528 124.439H71.8728C73.2998 124.439 74.4568 123.347 74.4568 122.001V122.747C74.4568 124.093 73.2998 125.185 71.8728 125.185Z" fill="#494949"/>
<path d="M52.082 130.877C52.701 129.531 53.933 125.774 55.019 125.774H74.498C75.544 125.774 76.689 129.453 77.318 130.817L52.082 130.877Z" fill="#494949"/>
<path d="M75.2238 129.914H54.2198C52.6418 129.914 51.3628 131.193 51.3628 132.771C51.3628 134.349 52.6418 135.628 54.2198 135.628H75.2238C76.8018 135.628 78.0808 134.349 78.0808 132.771C78.0818 131.193 76.8018 129.914 75.2238 129.914Z" fill="#686868"/>
<path d="M75.2238 130.379H54.2198C52.7198 130.379 51.4928 131.535 51.3738 133.004C51.3678 132.927 51.3618 132.85 51.3618 132.772C51.3618 131.194 52.6408 129.915 54.2188 129.915H75.2228C76.8008 129.915 78.0798 131.194 78.0798 132.772C78.0798 132.85 78.0738 132.927 78.0678 133.004C77.9508 131.535 76.7238 130.379 75.2238 130.379Z" fill="#A8A8A8"/>
<path d="M75.2236 134.996H54.2196C53.5506 134.996 52.9346 134.766 52.4476 134.38C51.5676 133.683 51.5676 132.325 52.4476 131.628C52.9346 131.242 53.5496 131.012 54.2196 131.012H75.2236C75.8936 131.012 76.5086 131.242 76.9956 131.628C77.8756 132.325 77.8756 133.683 76.9956 134.38C76.5086 134.765 75.8936 134.996 75.2236 134.996Z" fill="#A8A8A8"/>
<path d="M76.717 131.68C76.717 131.096 52.667 131.096 52.667 131.68C53.539 132.451 54.186 133.68 53.165 134.599L55.595 134.648C53.908 134.238 54.647 133.408 54.661 133.036C54.68 132.535 74.703 132.531 74.723 133.036C74.738 133.407 75.477 134.238 73.789 134.648L76.219 134.599C75.198 133.679 75.845 132.451 76.717 131.68Z" fill="#D4D4D4"/>
<path d="M53.3628 12.6259L54.6478 12.1799L54.6878 10.7199L53.5928 10.5979L53.3628 12.6259Z" fill="#A8A8A8"/>
<path d="M53.363 12.6259L54.6479 12.1799L54.562 12.8729L53.252 13.9999L53.363 12.6259Z" fill="#494949"/>
<path d="M53.39 9.20993C53.148 9.04593 52.855 8.95093 52.541 8.95093C52.499 8.95093 52.459 8.95392 52.418 8.95692C52.426 8.95792 52.433 8.95992 52.44 8.96092C51.649 9.01392 51.0229 9.66492 51.0229 10.4689V21.6309C51.0229 22.4349 51.65 23.0859 52.44 23.1389C52.432 23.1399 52.425 23.1419 52.418 23.1429C52.459 23.1459 52.5 23.1489 52.541 23.1489C52.855 23.1489 53.148 23.0529 53.39 22.8899C53.794 22.6169 54.06 22.1549 54.06 21.6309V10.4689C54.059 9.94492 53.793 9.48193 53.39 9.20993Z" fill="#494949"/>
<path d="M53.7509 9.97287V21.1349C53.7509 21.9739 53.0709 22.6539 52.2319 22.6539C51.3929 22.6539 50.7139 21.9739 50.7139 21.1349V9.97287C50.7139 9.13387 51.3939 8.45386 52.2319 8.45386C53.0709 8.45386 53.7509 9.13387 53.7509 9.97287Z" fill="#686868"/>
<path d="M53.5039 9.97289V21.1349C53.5039 21.9319 52.8899 22.5839 52.1089 22.6469C52.1499 22.6499 52.1909 22.6529 52.2319 22.6529C53.0709 22.6529 53.7509 21.9729 53.7509 21.1339V9.97188C53.7509 9.13288 53.0709 8.45288 52.2319 8.45288C52.1899 8.45288 52.1489 8.45588 52.1089 8.45888C52.8899 8.52388 53.5039 9.17589 53.5039 9.97289Z" fill="#A8A8A8"/>
<path d="M51.0498 9.97293V21.1349C51.0498 21.4909 51.1718 21.8179 51.3768 22.0769C51.7468 22.5449 52.4688 22.5449 52.8388 22.0769C53.0438 21.8179 53.1658 21.4909 53.1658 21.1349V9.97293C53.1658 9.61693 53.0428 9.28993 52.8388 9.03093C52.4678 8.56293 51.7468 8.56293 51.3768 9.03093C51.1728 9.28993 51.0498 9.61693 51.0498 9.97293Z" fill="#A8A8A8"/>
<path d="M76.1619 12.6259L74.8769 12.1799L74.8359 10.7199L75.9319 10.5979L76.1619 12.6259Z" fill="#A8A8A8"/>
<path d="M76.162 12.6259L74.877 12.1799L74.962 12.8729L76.2729 13.9999L76.162 12.6259Z" fill="#494949"/>
<path d="M76.1348 9.20993C76.3768 9.04593 76.6698 8.95093 76.9838 8.95093C77.0258 8.95093 77.0668 8.95392 77.1068 8.95692C77.0988 8.95792 77.0918 8.95992 77.0848 8.96092C77.8758 9.01392 78.5018 9.66492 78.5018 10.4689V21.6309C78.5018 22.4349 77.8748 23.0859 77.0848 23.1389C77.0928 23.1399 77.0998 23.1419 77.1068 23.1429C77.0658 23.1459 77.0248 23.1489 76.9838 23.1489C76.6698 23.1489 76.3768 23.0529 76.1348 22.8899C75.7308 22.6169 75.4658 22.1549 75.4658 21.6309V10.4689C75.4648 9.94492 75.7308 9.48193 76.1348 9.20993Z" fill="#494949"/>
<path d="M75.7739 9.97287V21.1349C75.7739 21.9739 76.4539 22.6539 77.2929 22.6539C78.1319 22.6539 78.8109 21.9739 78.8109 21.1349V9.97287C78.8109 9.13387 78.1309 8.45386 77.2929 8.45386C76.4529 8.45386 75.7739 9.13387 75.7739 9.97287Z" fill="#686868"/>
<path d="M76.02 9.97289V21.1349C76.02 21.9319 76.6339 22.5839 77.4149 22.6469C77.3739 22.6499 77.333 22.6529 77.292 22.6529C76.453 22.6529 75.7729 21.9729 75.7729 21.1339V9.97188C75.7729 9.13288 76.453 8.45288 77.292 8.45288C77.334 8.45288 77.3749 8.45588 77.4149 8.45888C76.6349 8.52388 76.02 9.17589 76.02 9.97289Z" fill="#A8A8A8"/>
<path d="M78.4739 9.97293V21.1349C78.4739 21.4909 78.3519 21.8179 78.1469 22.0769C77.7759 22.5449 77.0549 22.5449 76.6849 22.0769C76.4799 21.8179 76.3579 21.4909 76.3579 21.1349V9.97293C76.3579 9.61693 76.4799 9.28993 76.6849 9.03093C77.0559 8.56293 77.7769 8.56293 78.1469 9.03093C78.3519 9.28993 78.4739 9.61693 78.4739 9.97293Z" fill="#A8A8A8"/>
<path d="M74.9819 10.0079H54.4639L54.6639 25.6089C54.6639 26.5699 55.4429 27.3479 56.4039 27.3479H73.2419C74.2029 27.3479 74.9819 26.5689 74.9819 25.6089V10.0079Z" fill="#686868"/>
<path d="M73.2421 25.9559H56.4041C55.4431 25.9559 54.6641 25.6419 54.6641 24.6809C54.6641 25.6419 55.4431 26.4199 56.4041 26.4199H73.2421C74.2031 26.4199 74.9821 25.6409 74.9821 24.6809C74.9811 25.6409 74.2021 25.9559 73.2421 25.9559Z" fill="#A8A8A8"/>
<path d="M73.2421 26.4199H56.4041C55.4431 26.4199 54.6641 25.6409 54.6641 24.6809V25.6099C54.6641 26.5709 55.4431 27.3489 56.4041 27.3489H73.2421C74.2031 27.3489 74.9821 26.5699 74.9821 25.6099V24.6809C74.9811 25.6409 74.2021 26.4199 73.2421 26.4199Z" fill="#494949"/>
<path d="M71.8728 11.2579H57.6528C56.2258 11.2579 55.0688 12.3499 55.0688 13.6959V22.5959C55.0688 23.9429 56.2258 25.0339 57.6528 25.0339H71.8728C73.2998 25.0339 74.4568 23.9419 74.4568 22.5959V13.6959C74.4568 12.3499 73.2998 11.2579 71.8728 11.2579Z" fill="#A9A9A9"/>
<path d="M71.8728 25.034H57.6528C56.2258 25.034 55.0688 23.942 55.0688 22.596V21.85C55.0688 23.197 56.2258 24.288 57.6528 24.288H71.8728C73.2998 24.288 74.4568 23.196 74.4568 21.85V22.596C74.4568 23.942 73.2998 25.034 71.8728 25.034Z" fill="#D4D4D4"/>
<path d="M71.8728 11.2579H57.6528C56.2258 11.2579 55.0688 12.3499 55.0688 13.6959V14.4419C55.0688 13.0959 56.2258 12.0039 57.6528 12.0039H71.8728C73.2998 12.0039 74.4568 13.0959 74.4568 14.4419V13.6959C74.4568 12.3499 73.2998 11.2579 71.8728 11.2579Z" fill="#494949"/>
<path d="M52.082 5.56494C52.701 6.91094 53.933 10.6669 55.019 10.6669H74.498C75.544 10.6669 76.689 6.98793 77.318 5.62393L52.082 5.56494Z" fill="#494949"/>
<path d="M75.2238 6.52895H54.2198C52.6418 6.52895 51.3628 5.24994 51.3628 3.67194C51.3628 2.09394 52.6418 0.814941 54.2198 0.814941H75.2238C76.8018 0.814941 78.0808 2.09394 78.0808 3.67194C78.0818 5.24894 76.8018 6.52895 75.2238 6.52895Z" fill="#686868"/>
<path d="M75.2238 6.06396H54.2198C52.7198 6.06396 51.4928 4.90796 51.3738 3.43896C51.3678 3.51596 51.3618 3.59297 51.3618 3.67097C51.3618 5.24897 52.6408 6.52797 54.2188 6.52797H75.2228C76.8008 6.52797 78.0798 5.24897 78.0798 3.67097C78.0798 3.59297 78.0738 3.51596 78.0678 3.43896C77.9508 4.90796 76.7238 6.06396 75.2238 6.06396Z" fill="#A8A8A8"/>
<path d="M75.2236 1.4469H54.2196C53.5506 1.4469 52.9346 1.6769 52.4476 2.0629C51.5676 2.7599 51.5676 4.1179 52.4476 4.8149C52.9346 5.2009 53.5496 5.43089 54.2196 5.43089H75.2236C75.8936 5.43089 76.5086 5.2009 76.9956 4.8149C77.8756 4.1179 77.8756 2.7599 76.9956 2.0629C76.5086 1.6779 75.8936 1.4469 75.2236 1.4469Z" fill="#A8A8A8"/>
<path d="M76.717 4.76292C76.717 5.34692 52.667 5.34692 52.667 4.76292C53.539 3.99192 54.186 2.76392 53.165 1.84392L55.595 1.79492C53.908 2.20492 54.647 3.03492 54.661 3.40692C54.68 3.90792 74.703 3.91192 74.723 3.40692C74.738 3.03592 75.477 2.20492 73.789 1.79492L76.219 1.84392C75.198 2.76392 75.845 3.99192 76.717 4.76292Z" fill="#D4D4D4"/>
<path d="M64.8616 112.974C40.1456 112.974 20.0366 92.865 20.0366 68.149C20.0366 43.433 40.1456 23.324 64.8616 23.324C89.5776 23.324 109.687 43.433 109.687 68.149C109.687 92.866 89.5786 112.974 64.8616 112.974ZM64.8616 60.091C60.4176 60.091 56.8026 63.706 56.8026 68.15C56.8026 72.594 60.4176 76.208 64.8616 76.208C69.3056 76.208 72.9206 72.593 72.9206 68.15C72.9206 63.706 69.3056 60.091 64.8616 60.091Z" fill="#984626"/>
<path d="M64.8618 24.8149C40.9678 24.8149 21.5278 44.2549 21.5278 68.1489C21.5278 92.0429 40.9678 111.483 64.8618 111.483C88.7568 111.483 108.196 92.0429 108.196 68.1489C108.197 44.2549 88.7568 24.8149 64.8618 24.8149ZM64.8618 77.6989C59.5958 77.6989 55.3128 73.4149 55.3128 68.1499C55.3128 62.8839 59.5968 58.6009 64.8618 58.6009C70.1278 58.6009 74.4108 62.8849 74.4108 68.1499C74.4118 73.4149 70.1278 77.6989 64.8618 77.6989Z" fill="#BF5F3D"/>
<path d="M64.8614 25.933C42.6714 25.933 24.4944 43.147 22.8374 64.919C25.0224 43.678 43.0534 27.051 64.8614 27.051C86.6704 27.051 104.701 43.678 106.885 64.919C105.228 43.147 87.0514 25.933 64.8614 25.933Z" fill="#984626"/>
<path d="M64.8618 78.817C60.2938 78.817 56.2288 75.923 54.7158 71.877C55.8838 76.499 59.8818 79.935 64.8618 79.935C69.8418 79.935 73.8398 76.499 75.0078 71.877C73.4948 75.922 69.4308 78.817 64.8618 78.817Z" fill="#984626"/>
<path d="M64.8614 110.238C42.6714 110.238 24.4944 93.024 22.8374 71.252C25.0224 92.493 43.0534 109.12 64.8614 109.12C86.6704 109.12 104.701 92.493 106.885 71.252C105.228 93.024 87.0514 110.238 64.8614 110.238Z" fill="#FFC2AD"/>
<path d="M64.8618 57.354C60.2938 57.354 56.2288 60.248 54.7158 64.294C55.8838 59.672 59.8818 56.236 64.8618 56.236C69.8418 56.236 73.8398 59.672 75.0078 64.294C73.4948 60.249 69.4308 57.354 64.8618 57.354Z" fill="#FFC2AD"/>
</svg>
