<svg width="148" height="188" viewBox="0 0 148 188" fill="none" xmlns="http://www.w3.org/2000/svg">
<path d="M119.034 31.2449L118.257 30.1289L119.083 28.924L120.041 29.4689L119.034 31.2449Z" fill="#A8A8A8"/>
<path d="M119.034 31.2449L118.257 30.1289L117.919 30.7399L118.317 32.4219L119.034 31.2449Z" fill="#494949"/>
<path d="M121.021 28.4649C121.313 28.4749 121.606 28.5689 121.86 28.7539C121.894 28.7789 121.925 28.8049 121.956 28.8319C121.949 28.8279 121.942 28.8259 121.936 28.8219C122.544 29.3299 122.669 30.2249 122.196 30.8749L115.635 39.9049C115.162 40.5549 114.273 40.7139 113.602 40.2919C113.608 40.2969 113.612 40.303 113.618 40.308C113.583 40.287 113.548 40.2649 113.514 40.2399C113.26 40.0549 113.079 39.8059 112.98 39.5309C112.814 39.0729 112.87 38.5429 113.178 38.1189L119.739 29.0889C120.047 28.6669 120.534 28.4489 121.021 28.4649Z" fill="#494949"/>
<path d="M120.28 28.8709L113.719 37.9009C113.226 38.5789 113.376 39.5289 114.055 40.0219C114.733 40.5149 115.683 40.3639 116.176 39.6859L122.737 30.6559C123.23 29.9779 123.079 29.0279 122.401 28.5349C121.723 28.0419 120.773 28.1919 120.28 28.8709Z" fill="#686868"/>
<path d="M120.48 29.0158L113.919 38.0469C113.451 38.6919 113.564 39.5808 114.159 40.0898C114.124 40.0688 114.089 40.0469 114.056 40.0219C113.378 39.5289 113.227 38.5789 113.72 37.9009L120.281 28.8709C120.774 28.1929 121.724 28.0419 122.402 28.5349C122.436 28.5599 122.467 28.5859 122.498 28.6129C121.829 28.2039 120.948 28.3708 120.48 29.0158Z" fill="#A8A8A8"/>
<path d="M122.465 30.458L115.904 39.489C115.695 39.777 115.403 39.969 115.085 40.058C114.51 40.219 113.927 39.795 113.902 39.199C113.888 38.869 113.981 38.532 114.191 38.245L120.752 29.215C120.961 28.927 121.252 28.734 121.571 28.646C122.146 28.485 122.729 28.909 122.754 29.506C122.767 29.833 122.674 30.17 122.465 30.458Z" fill="#A8A8A8"/>
<path d="M100.59 17.8449L101.891 18.2389L102.783 17.0809L101.968 16.3389L100.59 17.8449Z" fill="#A8A8A8"/>
<path d="M100.59 17.8448L101.891 18.2388L101.415 18.7488L99.6919 18.8898L100.59 17.8448Z" fill="#494949"/>
<path d="M102.62 15.0958C102.52 14.8208 102.34 14.5718 102.086 14.3868C102.052 14.3618 102.017 14.3408 101.982 14.3188C101.988 14.3238 101.992 14.3299 101.998 14.3349C101.327 13.9129 100.437 14.0718 99.9649 14.7218L93.4039 23.7529C92.9309 24.4029 93.0559 25.2988 93.6639 25.8058C93.6569 25.8018 93.6499 25.7999 93.6439 25.7959C93.6749 25.8229 93.7069 25.8488 93.7399 25.8738C93.9939 26.0588 94.2869 26.1528 94.5789 26.1628C95.0659 26.1798 95.5529 25.9618 95.8609 25.5378L102.422 16.5078C102.729 16.0838 102.786 15.5538 102.62 15.0958Z" fill="#494949"/>
<path d="M102.463 15.9259L95.9018 24.9559C95.4088 25.6339 94.4588 25.7849 93.7808 25.2919C93.1028 24.7989 92.9518 23.8489 93.4448 23.1709L100.006 14.1399C100.499 13.4619 101.449 13.3109 102.127 13.8039C102.806 14.2979 102.956 15.2469 102.463 15.9259Z" fill="#686868"/>
<path d="M102.264 15.7809L95.7031 24.8119C95.2351 25.4569 94.3541 25.6229 93.6851 25.2149C93.7161 25.2419 93.7481 25.2679 93.7811 25.2929C94.4591 25.7859 95.4091 25.6349 95.9021 24.9569L102.463 15.9269C102.956 15.2489 102.805 14.2989 102.127 13.8059C102.093 13.7819 102.058 13.7599 102.023 13.7389C102.619 14.2469 102.732 15.1359 102.264 15.7809Z" fill="#A8A8A8"/>
<path d="M100.279 14.3389L93.7179 23.3699C93.5089 23.6579 93.4159 23.9949 93.4289 24.3239C93.4539 24.9199 94.0369 25.3439 94.6119 25.1839C94.9299 25.0949 95.2209 24.9029 95.4299 24.6149L101.991 15.5839C102.2 15.2959 102.293 14.9599 102.28 14.6299C102.255 14.0339 101.672 13.6099 101.097 13.7699C100.779 13.8579 100.488 14.0509 100.279 14.3389Z" fill="#A8A8A8"/>
<path d="M103.083 16.4199L119.683 28.4799L110.351 40.9839C109.786 41.7609 108.698 41.9329 107.921 41.3679L94.2989 31.4709C93.5219 30.9059 93.3489 29.8189 93.9139 29.0409L103.083 16.4199Z" fill="#686868"/>
<path d="M95.1168 30.3449L108.739 40.2419C109.516 40.8069 110.331 41.0099 110.896 40.2329C110.331 41.0099 109.243 41.1819 108.466 40.6169L94.8438 30.7199C94.0668 30.1549 93.8938 29.0679 94.4588 28.2899C93.8948 29.0679 94.3398 29.7799 95.1168 30.3449Z" fill="#A8A8A8"/>
<path d="M94.8439 30.7199L108.466 40.6169C109.243 41.1819 110.331 41.0089 110.896 40.2329L110.35 40.9849C109.785 41.7619 108.697 41.9339 107.92 41.3689L94.2979 31.4719C93.5209 30.9069 93.3479 29.8199 93.9129 29.0419L94.4589 28.2909C93.8949 29.0679 94.0669 30.1549 94.8439 30.7199Z" fill="#494949"/>
<path d="M104.864 19.2579L116.368 27.6159C117.523 28.4549 117.817 30.0179 117.026 31.1079L111.795 38.3079C111.004 39.3969 109.426 39.5999 108.271 38.7609L96.767 30.4029C95.612 29.5639 95.3181 28.0009 96.1091 26.9109L101.34 19.7109C102.132 18.6219 103.709 18.4189 104.864 19.2579Z" fill="#A9A9A9"/>
<path d="M96.767 30.4029L108.271 38.7609C109.426 39.5999 111.003 39.3969 111.795 38.3079L112.233 37.7039C111.442 38.7929 109.864 38.9959 108.709 38.1569L97.205 29.7989C96.05 28.9599 95.756 27.3969 96.547 26.3069L96.1091 26.9109C95.3181 28.0009 95.612 29.5639 96.767 30.4029Z" fill="#D4D4D4"/>
<path d="M104.864 19.258L116.368 27.616C117.523 28.455 117.817 30.018 117.026 31.108L116.587 31.712C117.379 30.623 117.084 29.06 115.929 28.221L104.425 19.863C103.27 19.024 101.693 19.227 100.901 20.316L101.34 19.712C102.132 18.622 103.709 18.419 104.864 19.258Z" fill="#494949"/>
<path d="M124.221 26.286C122.929 27.011 119.724 29.326 118.846 28.687L103.088 17.238C102.242 16.623 103.477 12.974 103.771 11.501L124.221 26.286Z" fill="#494949"/>
<path d="M104.932 13.462L121.924 25.808C123.201 26.736 124.988 26.453 125.915 25.176C126.843 23.899 126.56 22.113 125.283 21.185L108.291 8.83896C107.014 7.91096 105.227 8.19395 104.3 9.47095C103.373 10.7479 103.656 12.535 104.932 13.462Z" fill="#686868"/>
<path d="M105.205 13.087L122.197 25.433C123.41 26.314 125.083 26.101 126.042 24.982C126.002 25.048 125.961 25.113 125.915 25.177C124.988 26.454 123.201 26.737 121.924 25.809L104.932 13.463C103.655 12.536 103.372 10.749 104.3 9.47202C104.346 9.40902 104.396 9.35002 104.446 9.29102C103.679 10.548 103.992 12.205 105.205 13.087Z" fill="#A8A8A8"/>
<path d="M107.919 9.35093L124.911 21.6969C125.453 22.0899 125.815 22.6389 125.982 23.2369C126.284 24.3179 125.486 25.4159 124.365 25.4629C123.744 25.4889 123.111 25.3129 122.569 24.9199L105.577 12.5739C105.035 12.1799 104.673 11.6319 104.506 11.0339C104.204 9.95292 105.002 8.85493 106.123 8.80793C106.744 8.78193 107.378 8.95793 107.919 9.35093Z" fill="#A8A8A8"/>
<path d="M104.762 11.1569C104.419 11.6299 123.876 25.7659 124.219 25.2929C123.966 24.1569 124.165 22.7829 125.532 22.6389L123.595 21.1709C124.719 22.4939 123.633 22.7319 123.403 23.0239C123.093 23.4179 106.892 11.6519 107.173 11.2319C107.38 10.9229 107.27 9.8169 108.876 10.4769L106.881 9.08789C107.167 10.4319 105.921 11.0459 104.762 11.1569Z" fill="#D4D4D4"/>
<path d="M135.712 66.1869L135.74 64.8269L137.116 64.3369L137.57 65.3409L135.712 66.1869Z" fill="#A8A8A8"/>
<path d="M135.711 66.1869L135.739 64.8269L135.107 65.1219L134.44 66.7169L135.711 66.1869Z" fill="#494949"/>
<path d="M138.954 65.1049C139.185 65.2849 139.366 65.5329 139.463 65.8319C139.476 65.8719 139.486 65.9109 139.495 65.9509C139.492 65.9439 139.487 65.9379 139.484 65.9309C139.678 66.6989 139.252 67.4969 138.488 67.7449L127.872 71.1939C127.107 71.4419 126.294 71.0469 126 70.3119C126.002 70.3199 126.001 70.3269 126.003 70.3349C125.987 70.2969 125.972 70.2589 125.959 70.2199C125.862 69.9209 125.862 69.6139 125.943 69.3319C126.078 68.8639 126.435 68.4679 126.934 68.3059L137.55 64.8569C138.048 64.6959 138.569 64.8059 138.954 65.1049Z" fill="#494949"/>
<path d="M138.116 64.997L127.5 68.446C126.702 68.705 126.266 69.562 126.525 70.359C126.784 71.157 127.641 71.593 128.438 71.334L139.054 67.885C139.852 67.626 140.288 66.769 140.029 65.972C139.77 65.175 138.914 64.738 138.116 64.997Z" fill="#686868"/>
<path d="M138.192 65.2319L127.576 68.6809C126.818 68.9269 126.387 69.7129 126.569 70.4749C126.553 70.4369 126.538 70.3989 126.525 70.3599C126.266 69.5619 126.702 68.7059 127.5 68.4469L138.116 64.9979C138.914 64.7389 139.77 65.1749 140.029 65.9729C140.042 66.0129 140.052 66.0519 140.061 66.0919C139.76 65.3689 138.95 64.9859 138.192 65.2319Z" fill="#A8A8A8"/>
<path d="M138.95 67.5659L128.334 71.0149C127.996 71.1249 127.647 71.1099 127.337 70.9949C126.778 70.7869 126.555 70.1009 126.885 69.6039C127.068 69.3289 127.341 69.1119 127.679 69.0019L138.295 65.5529C138.633 65.4429 138.982 65.4579 139.292 65.5739C139.851 65.7819 140.074 66.4679 139.744 66.9649C139.561 67.2379 139.288 67.4559 138.95 67.5659Z" fill="#A8A8A8"/>
<path d="M128.667 44.504L129.488 45.588L130.89 45.175L130.667 44.095L128.667 44.504Z" fill="#A8A8A8"/>
<path d="M128.667 44.504L129.488 45.588L128.804 45.72L127.326 44.822L128.667 44.504Z" fill="#494949"/>
<path d="M131.925 43.4731C132.006 43.1921 132.006 42.8841 131.909 42.5851C131.896 42.5451 131.881 42.5071 131.865 42.4701C131.867 42.4771 131.866 42.4851 131.868 42.4921C131.573 41.7561 130.76 41.3621 129.996 41.6101L119.38 45.0591C118.615 45.3081 118.19 46.1051 118.384 46.8731C118.381 46.8661 118.376 46.8601 118.373 46.8531C118.382 46.8931 118.392 46.9331 118.405 46.9721C118.502 47.2711 118.683 47.5191 118.914 47.6991C119.298 47.9991 119.82 48.1091 120.318 47.9471L130.934 44.4981C131.433 44.3371 131.79 43.9421 131.925 43.4731Z" fill="#494949"/>
<path d="M131.311 44.053L120.695 47.502C119.897 47.761 119.041 47.325 118.782 46.527C118.523 45.729 118.959 44.873 119.757 44.614L130.373 41.165C131.17 40.906 132.027 41.342 132.286 42.14C132.545 42.937 132.108 43.794 131.311 44.053Z" fill="#686868"/>
<path d="M131.234 43.8181L120.618 47.2671C119.86 47.5131 119.05 47.1301 118.749 46.4081C118.758 46.4481 118.768 46.4881 118.781 46.5271C119.04 47.3251 119.897 47.7611 120.694 47.5021L131.31 44.0531C132.108 43.7941 132.544 42.9371 132.285 42.1401C132.272 42.1001 132.257 42.062 132.241 42.024C132.423 42.786 131.992 43.5721 131.234 43.8181Z" fill="#A8A8A8"/>
<path d="M130.476 41.4841L119.86 44.9331C119.522 45.0431 119.248 45.2611 119.066 45.5351C118.736 46.0321 118.959 46.718 119.518 46.926C119.828 47.041 120.176 47.0561 120.515 46.9461L131.131 43.4971C131.469 43.3871 131.743 43.169 131.925 42.895C132.255 42.398 132.032 41.712 131.473 41.504C131.163 41.39 130.814 41.3751 130.476 41.4841Z" fill="#A8A8A8"/>
<path d="M131.522 44.8169L137.863 64.3309L122.963 68.9619C122.049 69.2579 121.068 68.7579 120.771 67.8449L115.568 51.8309C115.271 50.9169 115.771 49.9359 116.684 49.6389L131.522 44.8169Z" fill="#686868"/>
<path d="M116.892 51.3999L122.095 67.4139C122.392 68.3279 122.931 68.9709 123.845 68.6749C122.931 68.9709 121.95 68.471 121.653 67.558L116.45 51.5439C116.153 50.6299 116.653 49.6489 117.566 49.3519C116.653 49.6479 116.595 50.4859 116.892 51.3999Z" fill="#A8A8A8"/>
<path d="M116.451 51.5429L121.654 67.5569C121.951 68.4709 122.932 68.971 123.846 68.674L122.962 68.9609C122.048 69.2569 121.067 68.7569 120.77 67.8439L115.567 51.8299C115.27 50.9159 115.77 49.9349 116.683 49.6379L117.567 49.351C116.654 49.648 116.154 50.6299 116.451 51.5429Z" fill="#494949"/>
<path d="M131.294 48.1599L135.688 61.6839C136.129 63.0409 135.448 64.4789 134.168 64.8949L125.704 67.6449C124.423 68.0609 123.028 67.2979 122.587 65.9409L118.193 52.4169C117.752 51.0589 118.433 49.6219 119.713 49.2059L128.177 46.4559C129.457 46.0389 130.853 46.8019 131.294 48.1599Z" fill="#A9A9A9"/>
<path d="M118.191 52.4169L122.585 65.9409C123.026 67.2979 124.422 68.0619 125.702 67.6449L126.412 67.4149C125.131 67.8309 123.736 67.0679 123.295 65.7109L118.901 52.187C118.46 50.829 119.141 49.392 120.421 48.976L119.711 49.2059C118.431 49.6219 117.75 51.0589 118.191 52.4169Z" fill="#D4D4D4"/>
<path d="M131.294 48.16L135.688 61.684C136.129 63.041 135.448 64.479 134.168 64.895L133.458 65.126C134.739 64.71 135.419 63.272 134.978 61.915L130.584 48.391C130.143 47.034 128.747 46.27 127.467 46.687L128.177 46.457C129.457 46.039 130.853 46.802 131.294 48.16Z" fill="#494949"/>
<path d="M142.823 65.223C141.352 65.05 137.398 65.039 137.063 64.006L131.044 45.481C130.721 44.486 133.865 42.26 134.968 41.241L142.823 65.223Z" fill="#494949"/>
<path d="M134.755 43.5109L141.245 63.487C141.733 64.988 143.345 65.809 144.845 65.322C146.346 64.834 147.167 63.2219 146.68 61.7219L140.19 41.746C139.702 40.245 138.09 39.424 136.59 39.911C135.089 40.398 134.267 42.0099 134.755 43.5109Z" fill="#686868"/>
<path d="M135.198 43.367L141.689 63.343C142.152 64.769 143.631 65.579 145.065 65.238C144.994 65.268 144.922 65.297 144.848 65.321C143.347 65.809 141.735 64.987 141.248 63.487L134.758 43.511C134.27 42.01 135.092 40.398 136.592 39.911C136.667 39.887 136.742 39.868 136.817 39.85C135.455 40.417 134.734 41.941 135.198 43.367Z" fill="#A8A8A8"/>
<path d="M139.589 41.94L146.08 61.916C146.287 62.553 146.258 63.209 146.042 63.792C145.651 64.844 144.36 65.264 143.425 64.642C142.908 64.298 142.498 63.784 142.291 63.147L135.801 43.171C135.594 42.534 135.623 41.878 135.839 41.295C136.23 40.243 137.521 39.823 138.456 40.445C138.973 40.79 139.382 41.304 139.589 41.94Z" fill="#A8A8A8"/>
<path d="M135.974 41.5459C135.418 41.7269 142.85 64.5999 143.406 64.4189C143.869 63.3509 144.838 62.3559 146.028 63.0439L145.324 60.7169C145.456 62.4479 144.437 62.0019 144.08 62.1029C143.598 62.2389 137.406 43.1979 137.881 43.0229C138.23 42.8949 138.791 41.9349 139.702 43.4129L138.904 41.1169C138.345 42.3729 136.977 42.1369 135.974 41.5459Z" fill="#D4D4D4"/>
<path d="M11.4957 66.1869L11.4687 64.8269L10.0917 64.3369L9.6377 65.3409L11.4957 66.1869Z" fill="#A8A8A8"/>
<path d="M11.4958 66.1869L11.4688 64.8269L12.1008 65.1219L12.7678 66.7169L11.4958 66.1869Z" fill="#494949"/>
<path d="M8.25489 65.1049C8.02389 65.2849 7.84289 65.5329 7.74589 65.8319C7.73289 65.8719 7.72288 65.9109 7.71388 65.9509C7.71688 65.9439 7.72189 65.9379 7.72489 65.9309C7.53089 66.6989 7.95689 67.4969 8.72089 67.7449L19.3369 71.1939C20.1019 71.4419 20.9149 71.0469 21.2089 70.3119C21.2069 70.3199 21.2079 70.3269 21.2059 70.3349C21.2219 70.2969 21.2369 70.2589 21.2499 70.2199C21.3469 69.9209 21.3459 69.6139 21.2659 69.3319C21.1309 68.8639 20.7739 68.4679 20.2749 68.3059L9.65888 64.8569C9.16088 64.6959 8.63889 64.8059 8.25489 65.1049Z" fill="#494949"/>
<path d="M9.09268 64.997L19.7087 68.446C20.5067 68.705 20.9427 69.562 20.6837 70.359C20.4247 71.157 19.5677 71.593 18.7707 71.334L8.15469 67.885C7.35669 67.626 6.92068 66.769 7.17968 65.972C7.43768 65.175 8.29468 64.738 9.09268 64.997Z" fill="#686868"/>
<path d="M9.01547 65.2319L19.6315 68.6809C20.3895 68.9269 20.8195 69.7129 20.6385 70.4749C20.6545 70.4369 20.6695 70.3989 20.6825 70.3599C20.9415 69.5619 20.5055 68.7059 19.7075 68.4469L9.09149 64.9979C8.29349 64.7389 7.43747 65.1749 7.17847 65.9729C7.16547 66.0129 7.15548 66.0519 7.14648 66.0919C7.44748 65.3689 8.25747 64.9859 9.01547 65.2319Z" fill="#A8A8A8"/>
<path d="M8.25761 67.5659L18.8736 71.0149C19.2116 71.1249 19.5606 71.1099 19.8706 70.9949C20.4296 70.7869 20.6526 70.1009 20.3226 69.6039C20.1396 69.3289 19.8666 69.1119 19.5286 69.0019L8.91261 65.5529C8.57461 65.4429 8.2256 65.4579 7.9156 65.5739C7.3566 65.7819 7.1336 66.4679 7.4636 66.9649C7.6456 67.2379 7.91961 67.4559 8.25761 67.5659Z" fill="#A8A8A8"/>
<path d="M18.5414 44.504L17.7194 45.588L16.3184 45.175L16.5403 44.095L18.5414 44.504Z" fill="#A8A8A8"/>
<path d="M18.5412 44.504L17.7192 45.588L18.4042 45.72L19.8812 44.822L18.5412 44.504Z" fill="#494949"/>
<path d="M15.2835 43.4731C15.2025 43.1921 15.2025 42.8841 15.2995 42.5851C15.3125 42.5451 15.3275 42.5071 15.3435 42.4701C15.3415 42.4771 15.3425 42.4851 15.3405 42.4921C15.6355 41.7561 16.4485 41.3621 17.2125 41.6101L27.8285 45.0591C28.5935 45.3081 29.0185 46.1051 28.8245 46.8731C28.8275 46.8661 28.8325 46.8601 28.8355 46.8531C28.8265 46.8931 28.8165 46.9331 28.8035 46.9721C28.7065 47.2711 28.5255 47.5191 28.2945 47.6991C27.9105 47.9991 27.3885 48.1091 26.8905 47.9471L16.2745 44.4981C15.7755 44.3371 15.4175 43.9421 15.2835 43.4731Z" fill="#494949"/>
<path d="M15.8974 44.053L26.5134 47.502C27.3114 47.761 28.1674 47.325 28.4264 46.527C28.6854 45.729 28.2494 44.873 27.4514 44.614L16.8354 41.165C16.0374 40.906 15.1814 41.342 14.9224 42.14C14.6634 42.937 15.0994 43.794 15.8974 44.053Z" fill="#686868"/>
<path d="M15.9733 43.8181L26.5893 47.2671C27.3473 47.5131 28.1573 47.1301 28.4583 46.4081C28.4493 46.4481 28.4393 46.4881 28.4263 46.5271C28.1673 47.3251 27.3103 47.7611 26.5133 47.5021L15.8973 44.0531C15.1003 43.7941 14.6633 42.9371 14.9223 42.1401C14.9353 42.1001 14.9503 42.062 14.9663 42.024C14.7853 42.786 15.2153 43.5721 15.9733 43.8181Z" fill="#A8A8A8"/>
<path d="M16.7315 41.4841L27.3475 44.9331C27.6855 45.0431 27.9595 45.2611 28.1415 45.5351C28.4715 46.0321 28.2485 46.718 27.6895 46.926C27.3805 47.041 27.0315 47.0561 26.6925 46.9461L16.0765 43.4971C15.7385 43.3871 15.4645 43.169 15.2825 42.895C14.9525 42.398 15.1754 41.712 15.7344 41.504C16.0444 41.39 16.3935 41.3751 16.7315 41.4841Z" fill="#A8A8A8"/>
<path d="M15.6867 44.8169L9.3457 64.3309L24.2457 68.9619C25.1597 69.2579 26.1407 68.7579 26.4377 67.8449L31.6407 51.8309C31.9377 50.9169 31.4377 49.9359 30.5247 49.6389L15.6867 44.8169Z" fill="#686868"/>
<path d="M30.3158 51.3999L25.1128 67.4139C24.8158 68.3279 24.2768 68.9709 23.3628 68.6749C24.2768 68.9709 25.2578 68.471 25.5548 67.558L30.7578 51.5439C31.0548 50.6299 30.5548 49.6489 29.6408 49.3519C30.5548 49.6479 30.6128 50.4859 30.3158 51.3999Z" fill="#A8A8A8"/>
<path d="M30.7578 51.5429L25.5548 67.5569C25.2578 68.4709 24.2768 68.971 23.3628 68.674L24.2458 68.9609C25.1598 69.2569 26.1408 68.7569 26.4378 67.8439L31.6408 51.8299C31.9378 50.9159 31.4378 49.9349 30.5248 49.6379L29.6408 49.351C30.5548 49.648 31.0548 50.6299 30.7578 51.5429Z" fill="#494949"/>
<path d="M15.9135 48.1599L11.5195 61.6839C11.0785 63.0409 11.7595 64.4789 13.0395 64.8949L21.5035 67.6449C22.7845 68.0609 24.1795 67.2979 24.6205 65.9409L29.0145 52.4169C29.4555 51.0589 28.7745 49.6219 27.4945 49.2059L19.0305 46.4559C17.7505 46.0389 16.3555 46.8019 15.9135 48.1599Z" fill="#A9A9A9"/>
<path d="M29.0159 52.4169L24.6219 65.9409C24.1809 67.2979 22.7849 68.0619 21.5049 67.6449L20.7949 67.4149C22.0759 67.8309 23.4709 67.0679 23.9119 65.7109L28.3059 52.187C28.7469 50.829 28.0659 49.392 26.7859 48.976L27.4959 49.2059C28.7769 49.6219 29.4569 51.0589 29.0159 52.4169Z" fill="#D4D4D4"/>
<path d="M15.9135 48.16L11.5195 61.684C11.0785 63.041 11.7595 64.479 13.0395 64.895L13.7495 65.126C12.4685 64.71 11.7885 63.272 12.2295 61.915L16.6235 48.391C17.0645 47.034 18.4605 46.27 19.7405 46.687L19.0305 46.457C17.7505 46.039 16.3555 46.802 15.9135 48.16Z" fill="#494949"/>
<path d="M4.38477 65.223C5.85577 65.05 9.80974 65.039 10.1447 64.006L16.1638 45.481C16.4868 44.486 13.3427 42.26 12.2397 41.241L4.38477 65.223Z" fill="#494949"/>
<path d="M12.4516 43.5109L5.96059 63.487C5.47259 64.988 3.86159 65.809 2.36059 65.322C0.859588 64.834 0.0385966 63.2219 0.525597 61.7219L7.01559 41.746C7.50359 40.245 9.11559 39.424 10.6156 39.911C12.1186 40.398 12.9396 42.0099 12.4516 43.5109Z" fill="#686868"/>
<path d="M12.0105 43.367L5.52054 63.343C5.05754 64.769 3.57853 65.579 2.14453 65.238C2.21553 65.268 2.28754 65.297 2.36154 65.321C3.86254 65.809 5.47455 64.987 5.96155 63.487L12.4525 43.511C12.9405 42.01 12.1186 40.398 10.6176 39.911C10.5436 39.887 10.4676 39.868 10.3936 39.85C11.7536 40.417 12.4735 41.941 12.0105 43.367Z" fill="#A8A8A8"/>
<path d="M7.61941 41.94L1.12841 61.916C0.921412 62.553 0.950407 63.209 1.16641 63.792C1.55741 64.844 2.84841 65.264 3.78341 64.642C4.30041 64.298 4.71041 63.784 4.91741 63.147L11.4084 43.171C11.6154 42.534 11.5864 41.878 11.3694 41.295C10.9784 40.243 9.68741 39.823 8.75241 40.445C8.23541 40.79 7.82641 41.304 7.61941 41.94Z" fill="#A8A8A8"/>
<path d="M11.2337 41.5459C11.7897 41.7269 4.3577 64.5999 3.8017 64.4189C3.3377 63.3509 2.36969 62.3559 1.17969 63.0439L1.8837 60.7169C1.7517 62.4479 2.77069 62.0019 3.12769 62.1029C3.60969 62.2389 9.80169 43.1979 9.32669 43.0229C8.97769 42.8949 8.41671 41.9349 7.50571 43.4129L8.30368 41.1169C8.86268 42.3729 10.2317 42.1369 11.2337 41.5459Z" fill="#D4D4D4"/>
<path d="M28.174 31.2449L28.951 30.1289L28.126 28.924L27.168 29.4689L28.174 31.2449Z" fill="#A8A8A8"/>
<path d="M28.1738 31.2449L28.9508 30.1289L29.2888 30.7399L28.8908 32.4219L28.1738 31.2449Z" fill="#494949"/>
<path d="M26.1877 28.4649C25.8957 28.4749 25.6028 28.5689 25.3488 28.7539C25.3148 28.7789 25.2837 28.8049 25.2527 28.8319C25.2597 28.8279 25.2668 28.8259 25.2728 28.8219C24.6648 29.3299 24.5398 30.2249 25.0128 30.8749L31.5738 39.9049C32.0468 40.5549 32.9357 40.7139 33.6067 40.2919C33.6007 40.2969 33.5968 40.303 33.5908 40.308C33.6258 40.287 33.6608 40.2649 33.6938 40.2399C33.9478 40.0549 34.1278 39.8059 34.2278 39.5309C34.3938 39.0729 34.3377 38.5429 34.0287 38.1189L27.4677 29.0889C27.1607 28.6669 26.6747 28.4489 26.1877 28.4649Z" fill="#494949"/>
<path d="M26.9279 28.8709L33.4889 37.9009C33.9819 38.5789 33.8309 39.5289 33.1529 40.0219C32.4749 40.5149 31.5249 40.3639 31.0319 39.6859L24.4709 30.6559C23.9779 29.9779 24.1279 29.0279 24.8069 28.5349C25.4859 28.0419 26.4359 28.1919 26.9279 28.8709Z" fill="#686868"/>
<path d="M26.7289 29.0158L33.2899 38.0469C33.7589 38.6919 33.6449 39.5808 33.0499 40.0898C33.0849 40.0688 33.1199 40.0469 33.1539 40.0219C33.8319 39.5289 33.9829 38.5789 33.4899 37.9009L26.9289 28.8709C26.4359 28.1929 25.4859 28.0419 24.8079 28.5349C24.7739 28.5599 24.7429 28.5859 24.7119 28.6129C25.3799 28.2039 26.2599 28.3708 26.7289 29.0158Z" fill="#A8A8A8"/>
<path d="M24.744 30.458L31.305 39.489C31.514 39.777 31.806 39.969 32.123 40.058C32.698 40.219 33.281 39.795 33.306 39.199C33.32 38.869 33.227 38.532 33.017 38.245L26.456 29.215C26.247 28.927 25.956 28.734 25.638 28.646C25.063 28.485 24.48 28.909 24.455 29.506C24.441 29.833 24.535 30.17 24.744 30.458Z" fill="#A8A8A8"/>
<path d="M46.6188 17.8449L45.3168 18.2389L44.4258 17.0809L45.2398 16.3389L46.6188 17.8449Z" fill="#A8A8A8"/>
<path d="M46.6189 17.8448L45.3169 18.2388L45.7929 18.7488L47.5159 18.8898L46.6189 17.8448Z" fill="#494949"/>
<path d="M44.5886 15.0958C44.6886 14.8208 44.8686 14.5718 45.1226 14.3868C45.1566 14.3618 45.1916 14.3408 45.2266 14.3188C45.2206 14.3238 45.2166 14.3299 45.2106 14.3349C45.8816 13.9129 46.7716 14.0718 47.2436 14.7218L53.8046 23.7529C54.2776 24.4029 54.1526 25.2988 53.5446 25.8058C53.5516 25.8018 53.5586 25.7999 53.5646 25.7959C53.5336 25.8229 53.5016 25.8488 53.4686 25.8738C53.2146 26.0588 52.9216 26.1528 52.6296 26.1628C52.1426 26.1798 51.6556 25.9618 51.3476 25.5378L44.7866 16.5078C44.4786 16.0838 44.4216 15.5538 44.5886 15.0958Z" fill="#494949"/>
<path d="M44.7446 15.9259L51.3056 24.9559C51.7986 25.6339 52.7486 25.7849 53.4266 25.2919C54.1046 24.7989 54.2556 23.8489 53.7626 23.1709L47.2016 14.1399C46.7086 13.4619 45.7586 13.3109 45.0806 13.8039C44.4026 14.2979 44.2516 15.2469 44.7446 15.9259Z" fill="#686868"/>
<path d="M44.9446 15.7809L51.5056 24.8119C51.9736 25.4569 52.8546 25.6229 53.5226 25.2149C53.4916 25.2419 53.4596 25.2679 53.4266 25.2929C52.7486 25.7859 51.7986 25.6349 51.3056 24.9569L44.7446 15.9269C44.2516 15.2489 44.4026 14.2989 45.0806 13.8059C45.1146 13.7819 45.1496 13.7599 45.1846 13.7389C44.5896 14.2469 44.4756 15.1359 44.9446 15.7809Z" fill="#A8A8A8"/>
<path d="M46.9299 14.3389L53.4909 23.3699C53.6999 23.6579 53.7929 23.9949 53.7799 24.3239C53.7549 24.9199 53.1709 25.3439 52.5969 25.1839C52.2789 25.0949 51.9879 24.9029 51.7789 24.6149L45.2179 15.5839C45.0089 15.2959 44.9159 14.9599 44.9289 14.6299C44.9539 14.0339 45.5369 13.6099 46.1119 13.7699C46.4299 13.8579 46.7209 14.0509 46.9299 14.3389Z" fill="#A8A8A8"/>
<path d="M44.1249 16.4199L27.5249 28.4799L36.8569 40.9839C37.4219 41.7609 38.5099 41.9329 39.2869 41.3679L52.9089 31.4709C53.6859 30.9059 53.8589 29.8189 53.2939 29.0409L44.1249 16.4199Z" fill="#686868"/>
<path d="M52.091 30.3449L38.469 40.2419C37.692 40.8069 36.877 41.0099 36.312 40.2329C36.877 41.0099 37.965 41.1819 38.742 40.6169L52.364 30.7199C53.141 30.1549 53.314 29.0679 52.749 28.2899C53.314 29.0679 52.868 29.7799 52.091 30.3449Z" fill="#A8A8A8"/>
<path d="M52.364 30.7199L38.742 40.6169C37.965 41.1819 36.877 41.0089 36.312 40.2329L36.858 40.9849C37.423 41.7619 38.511 41.9339 39.288 41.3689L52.91 31.4719C53.687 30.9069 53.86 29.8199 53.295 29.0419L52.749 28.2909C53.314 29.0679 53.141 30.1549 52.364 30.7199Z" fill="#494949"/>
<path d="M42.3438 19.2579L30.8398 27.6159C29.6848 28.4549 29.3908 30.0179 30.1818 31.1079L35.4128 38.3079C36.2038 39.3969 37.7818 39.5999 38.9368 38.7609L50.4408 30.4029C51.5958 29.5639 51.8898 28.0009 51.0988 26.9109L45.8678 19.7109C45.0768 18.6219 43.4988 18.4189 42.3438 19.2579Z" fill="#A9A9A9"/>
<path d="M50.4421 30.4029L38.9381 38.7609C37.7831 39.5999 36.2061 39.3969 35.4141 38.3079L34.9751 37.7039C35.7661 38.7929 37.3441 38.9959 38.4991 38.1569L50.0031 29.7989C51.1581 28.9599 51.4521 27.3969 50.6611 26.3069L51.0991 26.9109C51.8911 28.0009 51.5971 29.5639 50.4421 30.4029Z" fill="#D4D4D4"/>
<path d="M42.3448 19.258L30.8408 27.616C29.6858 28.455 29.3918 30.018 30.1828 31.108L30.6218 31.712C29.8298 30.623 30.1248 29.06 31.2798 28.221L42.7838 19.863C43.9388 19.024 45.5158 19.227 46.3078 20.316L45.8688 19.712C45.0768 18.622 43.4988 18.419 42.3448 19.258Z" fill="#494949"/>
<path d="M22.9878 26.286C24.2798 27.011 27.4848 29.326 28.3628 28.687L44.1208 17.238C44.9668 16.623 43.7318 12.974 43.4378 11.501L22.9878 26.286Z" fill="#494949"/>
<path d="M42.2758 13.462L25.2838 25.808C24.0068 26.736 22.2198 26.453 21.2928 25.176C20.3648 23.899 20.6478 22.113 21.9248 21.185L38.9168 8.83896C40.1938 7.91096 41.9808 8.19395 42.9078 9.47095C43.8358 10.7479 43.5528 12.535 42.2758 13.462Z" fill="#686868"/>
<path d="M42.003 13.087L25.011 25.433C23.798 26.314 22.125 26.101 21.166 24.982C21.206 25.048 21.247 25.113 21.293 25.177C22.221 26.454 24.007 26.737 25.284 25.809L42.276 13.463C43.553 12.536 43.836 10.749 42.908 9.47202C42.862 9.40902 42.812 9.35002 42.762 9.29102C43.53 10.548 43.216 12.205 42.003 13.087Z" fill="#A8A8A8"/>
<path d="M39.289 9.35093L22.297 21.6969C21.755 22.0899 21.393 22.6389 21.226 23.2369C20.924 24.3179 21.722 25.4159 22.843 25.4629C23.464 25.4889 24.097 25.3129 24.639 24.9199L41.631 12.5739C42.173 12.1799 42.535 11.6319 42.702 11.0339C43.004 9.95292 42.206 8.85493 41.085 8.80793C40.464 8.78193 39.831 8.95793 39.289 9.35093Z" fill="#A8A8A8"/>
<path d="M42.4458 11.1569C42.7888 11.6299 23.3318 25.7659 22.9888 25.2929C23.2418 24.1569 23.0428 22.7829 21.6758 22.6389L23.6128 21.1709C22.4888 22.4939 23.5748 22.7319 23.8048 23.0239C24.1148 23.4179 40.3158 11.6519 40.0348 11.2319C39.8278 10.9229 39.9378 9.8169 38.3318 10.4769L40.3268 9.08789C40.0418 10.4319 41.2868 11.0459 42.4458 11.1569Z" fill="#D4D4D4"/>
<path d="M62.2046 12.7801L63.4896 12.3341L63.5296 10.8741L62.4346 10.7521L62.2046 12.7801Z" fill="#A8A8A8"/>
<path d="M62.2047 12.7801L63.4897 12.3341L63.4037 13.0271L62.0938 14.1541L62.2047 12.7801Z" fill="#494949"/>
<path d="M62.2318 9.36301C61.9898 9.19901 61.6968 9.104 61.3828 9.104C61.3408 9.104 61.2998 9.107 61.2598 9.11C61.2678 9.111 61.2748 9.113 61.2818 9.114C60.4908 9.167 59.8647 9.81799 59.8647 10.622V21.784C59.8647 22.588 60.4918 23.239 61.2818 23.292C61.2738 23.293 61.2668 23.295 61.2598 23.296C61.3008 23.299 61.3418 23.302 61.3828 23.302C61.6968 23.302 61.9898 23.206 62.2318 23.043C62.6358 22.77 62.9008 22.308 62.9008 21.784V10.622C62.9008 10.098 62.6348 9.63601 62.2318 9.36301Z" fill="#494949"/>
<path d="M62.5926 10.127V21.289C62.5926 22.128 61.9126 22.808 61.0746 22.808C60.2356 22.808 59.5566 22.128 59.5566 21.289V10.127C59.5566 9.28803 60.2366 8.60803 61.0746 8.60803C61.9126 8.60803 62.5926 9.28803 62.5926 10.127Z" fill="#686868"/>
<path d="M62.3457 10.1271V21.2891C62.3457 22.0861 61.7317 22.7381 60.9507 22.8011C60.9917 22.8041 61.0327 22.8071 61.0737 22.8071C61.9127 22.8071 62.5917 22.1271 62.5917 21.2881V10.1261C62.5917 9.28707 61.9117 8.60706 61.0737 8.60706C61.0317 8.60706 60.9907 8.61007 60.9507 8.61307C61.7317 8.67807 62.3457 9.33006 62.3457 10.1271Z" fill="#A8A8A8"/>
<path d="M59.8916 10.1271V21.2891C59.8916 21.6451 60.0136 21.9721 60.2186 22.2311C60.5896 22.6991 61.3106 22.6991 61.6806 22.2311C61.8856 21.9721 62.0076 21.6451 62.0076 21.2891V10.1271C62.0076 9.77111 61.8856 9.44411 61.6806 9.18511C61.3096 8.71711 60.5886 8.71711 60.2186 9.18511C60.0146 9.44411 59.8916 9.77111 59.8916 10.1271Z" fill="#A8A8A8"/>
<path d="M85.0037 12.7801L83.7187 12.3341L83.6777 10.8741L84.7737 10.7521L85.0037 12.7801Z" fill="#A8A8A8"/>
<path d="M85.0038 12.7801L83.7188 12.3341L83.8037 13.0271L85.1147 14.1541L85.0038 12.7801Z" fill="#494949"/>
<path d="M84.9766 9.36301C85.2186 9.19901 85.5116 9.104 85.8256 9.104C85.8676 9.104 85.9086 9.107 85.9486 9.11C85.9406 9.111 85.9336 9.113 85.9266 9.114C86.7166 9.167 87.3436 9.81799 87.3436 10.622V21.784C87.3436 22.588 86.7166 23.239 85.9266 23.292C85.9346 23.293 85.9416 23.295 85.9486 23.296C85.9076 23.299 85.8666 23.302 85.8256 23.302C85.5116 23.302 85.2186 23.206 84.9766 23.043C84.5726 22.77 84.3076 22.308 84.3076 21.784V10.622C84.3066 10.098 84.5726 9.63601 84.9766 9.36301Z" fill="#494949"/>
<path d="M84.6157 10.127V21.289C84.6157 22.128 85.2957 22.808 86.1337 22.808C86.9727 22.808 87.6517 22.128 87.6517 21.289V10.127C87.6517 9.28803 86.9717 8.60803 86.1337 8.60803C85.2947 8.60803 84.6157 9.28803 84.6157 10.127Z" fill="#686868"/>
<path d="M84.8617 10.1271V21.2891C84.8617 22.0861 85.4757 22.7381 86.2567 22.8011C86.2157 22.8041 86.1747 22.8071 86.1337 22.8071C85.2947 22.8071 84.6157 22.1271 84.6157 21.2881V10.1261C84.6157 9.28707 85.2957 8.60706 86.1337 8.60706C86.1757 8.60706 86.2167 8.61007 86.2567 8.61307C85.4767 8.67807 84.8617 9.33006 84.8617 10.1271Z" fill="#A8A8A8"/>
<path d="M87.3157 10.1271V21.2891C87.3157 21.6451 87.1937 21.9721 86.9877 22.2311C86.6177 22.6991 85.8957 22.6991 85.5257 22.2311C85.3207 21.9721 85.1987 21.6451 85.1987 21.2891V10.1271C85.1987 9.77111 85.3207 9.44411 85.5257 9.18511C85.8967 8.71711 86.6177 8.71711 86.9877 9.18511C87.1937 9.44411 87.3157 9.77111 87.3157 10.1271Z" fill="#A8A8A8"/>
<path d="M83.8237 10.162H63.3057L63.5057 25.763C63.5067 26.724 64.2847 27.502 65.2457 27.502H82.0837C83.0447 27.502 83.8237 26.723 83.8237 25.763V10.162Z" fill="#686868"/>
<path d="M82.0829 26.1099H65.2449C64.2839 26.1099 63.5059 25.796 63.5049 24.835C63.5059 25.796 64.2839 26.574 65.2449 26.574H82.0829C83.0439 26.574 83.8229 25.795 83.8229 24.835C83.8229 25.795 83.0439 26.1099 82.0829 26.1099Z" fill="#A8A8A8"/>
<path d="M82.0829 26.574H65.2449C64.2839 26.574 63.5059 25.795 63.5049 24.835V25.764C63.5059 26.725 64.2839 27.5029 65.2449 27.5029H82.0829C83.0439 27.5029 83.8229 26.724 83.8229 25.764V24.835C83.8229 25.795 83.0439 26.574 82.0829 26.574Z" fill="#494949"/>
<path d="M80.7146 11.412H66.4946C65.0676 11.412 63.9106 12.504 63.9106 13.85V22.75C63.9106 24.097 65.0676 25.188 66.4946 25.188H80.7146C82.1416 25.188 83.2986 24.096 83.2986 22.75V13.85C83.2986 12.503 82.1416 11.412 80.7146 11.412Z" fill="#A9A9A9"/>
<path d="M80.7146 25.188H66.4946C65.0676 25.188 63.9106 24.096 63.9106 22.75V22.004C63.9106 23.351 65.0676 24.442 66.4946 24.442H80.7146C82.1416 24.442 83.2986 23.351 83.2986 22.004V22.75C83.2986 24.096 82.1416 25.188 80.7146 25.188Z" fill="#D4D4D4"/>
<path d="M80.7146 11.412H66.4946C65.0676 11.412 63.9106 12.504 63.9106 13.85V14.596C63.9106 13.25 65.0676 12.158 66.4946 12.158H80.7146C82.1416 12.158 83.2986 13.25 83.2986 14.596V13.85C83.2986 12.503 82.1416 11.412 80.7146 11.412Z" fill="#494949"/>
<path d="M60.9238 5.71899C61.5428 7.06499 62.7748 10.821 63.8608 10.821H83.3398C84.3858 10.821 85.5318 7.14301 86.1598 5.77901L60.9238 5.71899Z" fill="#494949"/>
<path d="M84.0656 6.68202H63.0616C61.4836 6.68202 60.2046 5.40301 60.2046 3.82501C60.2046 2.24701 61.4836 0.968018 63.0616 0.968018H84.0656C85.6436 0.968018 86.9226 2.24701 86.9226 3.82501C86.9226 5.40301 85.6436 6.68202 84.0656 6.68202Z" fill="#686868"/>
<path d="M84.0656 6.21802H63.0616C61.5616 6.21802 60.3346 5.06202 60.2156 3.59302C60.2096 3.67002 60.2036 3.74701 60.2036 3.82501C60.2036 5.40301 61.4826 6.68202 63.0606 6.68202H84.0646C85.6426 6.68202 86.9216 5.40301 86.9216 3.82501C86.9216 3.74701 86.9166 3.67002 86.9096 3.59302C86.7926 5.06202 85.5656 6.21802 84.0656 6.21802Z" fill="#A8A8A8"/>
<path d="M84.0654 1.60107H63.0614C62.3924 1.60107 61.7764 1.83107 61.2894 2.21707C60.4094 2.91407 60.4094 4.27207 61.2894 4.96907C61.7764 5.35507 62.3924 5.58508 63.0614 5.58508H84.0654C84.7344 5.58508 85.3504 5.35507 85.8374 4.96907C86.7174 4.27207 86.7174 2.91407 85.8374 2.21707C85.3504 1.83107 84.7354 1.60107 84.0654 1.60107Z" fill="#A8A8A8"/>
<path d="M85.5588 4.91698C85.5588 5.50098 61.5088 5.50098 61.5088 4.91698C62.3808 4.14598 63.0278 2.91797 62.0068 1.99797L64.4368 1.94897C62.7498 2.35897 63.4888 3.18897 63.5028 3.56097C63.5218 4.06197 83.5448 4.06597 83.5648 3.56097C83.5788 3.18997 84.3188 2.35897 82.6308 1.94897L85.0608 1.99797C84.0398 2.91697 84.6868 4.14598 85.5588 4.91698Z" fill="#D4D4D4"/>
<path d="M135.726 83.168L136.172 84.453L137.633 84.494L137.754 83.398L135.726 83.168Z" fill="#A8A8A8"/>
<path d="M135.726 83.168L136.172 84.453L135.48 84.368L134.353 83.057L135.726 83.168Z" fill="#494949"/>
<path d="M139.143 83.195C139.307 82.953 139.402 82.661 139.402 82.346C139.402 82.304 139.399 82.263 139.396 82.223C139.395 82.231 139.393 82.238 139.392 82.245C139.339 81.454 138.688 80.828 137.884 80.828H126.722C125.918 80.828 125.267 81.455 125.214 82.245C125.213 82.237 125.211 82.23 125.21 82.223C125.207 82.264 125.204 82.305 125.204 82.346C125.204 82.661 125.3 82.953 125.463 83.195C125.736 83.599 126.198 83.864 126.722 83.864H137.884C138.408 83.865 138.87 83.599 139.143 83.195Z" fill="#494949"/>
<path d="M138.379 83.557H127.217C126.378 83.557 125.699 82.877 125.699 82.038C125.699 81.199 126.379 80.52 127.217 80.52H138.379C139.218 80.52 139.898 81.2 139.898 82.038C139.898 82.877 139.218 83.557 138.379 83.557Z" fill="#686868"/>
<path d="M138.379 83.31H127.217C126.42 83.31 125.768 82.696 125.705 81.915C125.702 81.956 125.699 81.997 125.699 82.038C125.699 82.877 126.379 83.557 127.217 83.557H138.379C139.218 83.557 139.898 82.877 139.898 82.038C139.898 81.996 139.895 81.955 139.892 81.915C139.829 82.695 139.176 83.31 138.379 83.31Z" fill="#A8A8A8"/>
<path d="M138.379 80.856H127.217C126.861 80.856 126.534 80.978 126.275 81.184C125.807 81.554 125.807 82.276 126.275 82.646C126.534 82.851 126.861 82.973 127.217 82.973H138.379C138.735 82.973 139.062 82.851 139.321 82.646C139.789 82.275 139.789 81.554 139.321 81.184C139.063 80.978 138.735 80.856 138.379 80.856Z" fill="#A8A8A8"/>
<path d="M135.726 105.967L136.172 104.682L137.633 104.642L137.754 105.737L135.726 105.967Z" fill="#A8A8A8"/>
<path d="M135.726 105.967L136.172 104.682L135.48 104.768L134.353 106.079L135.726 105.967Z" fill="#494949"/>
<path d="M139.143 105.941C139.307 106.183 139.402 106.475 139.402 106.79C139.402 106.832 139.399 106.873 139.396 106.913C139.395 106.905 139.393 106.898 139.392 106.891C139.339 107.682 138.688 108.308 137.884 108.308H126.722C125.918 108.308 125.267 107.681 125.214 106.891C125.213 106.899 125.211 106.906 125.21 106.913C125.207 106.872 125.204 106.831 125.204 106.79C125.204 106.475 125.3 106.183 125.463 105.941C125.736 105.537 126.198 105.271 126.722 105.271H137.884C138.408 105.271 138.87 105.537 139.143 105.941Z" fill="#494949"/>
<path d="M138.379 105.579H127.217C126.378 105.579 125.699 106.259 125.699 107.097C125.699 107.936 126.379 108.615 127.217 108.615H138.379C139.218 108.615 139.898 107.935 139.898 107.097C139.898 106.259 139.218 105.579 138.379 105.579Z" fill="#686868"/>
<path d="M138.379 105.826H127.217C126.42 105.826 125.768 106.44 125.705 107.221C125.702 107.18 125.699 107.139 125.699 107.098C125.699 106.259 126.379 105.58 127.217 105.58H138.379C139.218 105.58 139.898 106.26 139.898 107.098C139.898 107.14 139.895 107.181 139.892 107.221C139.829 106.44 139.176 105.826 138.379 105.826Z" fill="#A8A8A8"/>
<path d="M138.379 108.28H127.217C126.861 108.28 126.534 108.158 126.275 107.953C125.807 107.582 125.807 106.861 126.275 106.491C126.534 106.286 126.861 106.164 127.217 106.164H138.379C138.735 106.164 139.062 106.286 139.321 106.491C139.789 106.862 139.789 107.583 139.321 107.953C139.063 108.157 138.735 108.28 138.379 108.28Z" fill="#A8A8A8"/>
<path d="M138.344 104.787V84.269L122.743 84.469C121.782 84.47 121.004 85.248 121.004 86.209V103.047C121.004 104.008 121.783 104.787 122.743 104.787H138.344Z" fill="#686868"/>
<path d="M122.397 103.047V86.209C122.397 85.248 122.711 84.469 123.672 84.469C122.711 84.47 121.933 85.248 121.933 86.209V103.047C121.933 104.008 122.712 104.787 123.672 104.787C122.711 104.787 122.397 104.008 122.397 103.047Z" fill="#A8A8A8"/>
<path d="M121.932 103.047V86.209C121.932 85.248 122.711 84.469 123.671 84.469H122.742C121.781 84.47 121.003 85.248 121.003 86.209V103.047C121.003 104.008 121.782 104.787 122.742 104.787H123.671C122.711 104.787 121.932 104.008 121.932 103.047Z" fill="#494949"/>
<path d="M137.095 101.678V87.458C137.095 86.031 136.003 84.874 134.657 84.874H125.757C124.41 84.874 123.319 86.031 123.319 87.458V101.678C123.319 103.105 124.411 104.262 125.757 104.262H134.657C136.003 104.263 137.095 103.106 137.095 101.678Z" fill="#A9A9A9"/>
<path d="M123.319 101.678V87.458C123.319 86.031 124.411 84.874 125.757 84.874H126.503C125.156 84.874 124.065 86.031 124.065 87.458V101.678C124.065 103.105 125.156 104.262 126.503 104.262H125.757C124.41 104.263 123.319 103.106 123.319 101.678Z" fill="#D4D4D4"/>
<path d="M137.095 101.678V87.458C137.095 86.031 136.003 84.874 134.657 84.874H133.911C135.257 84.874 136.349 86.031 136.349 87.458V101.678C136.349 103.105 135.257 104.262 133.911 104.262H134.657C136.003 104.263 137.095 103.106 137.095 101.678Z" fill="#494949"/>
<path d="M142.787 81.8879C141.441 82.5069 137.685 83.739 137.685 84.825V104.303C137.685 105.349 141.363 106.495 142.728 107.123L142.787 81.8879Z" fill="#494949"/>
<path d="M141.824 105.03V84.0259C141.824 82.4479 143.103 81.1689 144.681 81.1689C146.259 81.1689 147.538 82.4479 147.538 84.0259V105.03C147.538 106.608 146.259 107.887 144.681 107.887C143.103 107.887 141.824 106.608 141.824 105.03Z" fill="#686868"/>
<path d="M142.288 105.03V84.026C142.288 82.526 143.444 81.299 144.913 81.18C144.836 81.174 144.759 81.168 144.681 81.168C143.103 81.168 141.824 82.447 141.824 84.025V105.029C141.824 106.607 143.103 107.886 144.681 107.886C144.759 107.886 144.836 107.881 144.913 107.874C143.444 107.757 142.288 106.53 142.288 105.03Z" fill="#A8A8A8"/>
<path d="M146.905 105.03V84.026C146.905 83.356 146.675 82.741 146.289 82.254C145.592 81.374 144.235 81.374 143.537 82.254C143.151 82.741 142.921 83.356 142.921 84.026V105.03C142.921 105.699 143.151 106.315 143.537 106.802C144.234 107.682 145.592 107.682 146.289 106.802C146.675 106.315 146.905 105.699 146.905 105.03Z" fill="#A8A8A8"/>
<path d="M143.589 106.522C143.005 106.522 143.005 82.472 143.589 82.472C144.36 83.344 145.588 83.9911 146.508 82.9701L146.557 85.4001C146.147 83.7131 145.317 84.4521 144.945 84.4661C144.444 84.4851 144.44 104.508 144.945 104.528C145.316 104.542 146.147 105.282 146.557 103.594L146.508 106.024C145.589 105.003 144.36 105.65 143.589 106.522Z" fill="#D4D4D4"/>
<path d="M12.154 83.168L11.707 84.453L10.247 84.494L10.125 83.398L12.154 83.168Z" fill="#A8A8A8"/>
<path d="M12.154 83.168L11.707 84.453L12.4 84.368L13.527 83.057L12.154 83.168Z" fill="#494949"/>
<path d="M8.73703 83.195C8.57303 82.953 8.47803 82.661 8.47803 82.346C8.47803 82.304 8.48104 82.263 8.48404 82.223C8.48504 82.231 8.48704 82.238 8.48804 82.245C8.54104 81.454 9.19203 80.828 9.99603 80.828H21.158C21.962 80.828 22.613 81.455 22.666 82.245C22.667 82.237 22.669 82.23 22.67 82.223C22.673 82.264 22.676 82.305 22.676 82.346C22.676 82.661 22.58 82.953 22.417 83.195C22.144 83.599 21.682 83.864 21.158 83.864H9.99603C9.47203 83.865 9.01003 83.599 8.73703 83.195Z" fill="#494949"/>
<path d="M9.49994 83.557H20.6619C21.5009 83.557 22.1799 82.877 22.1799 82.038C22.1799 81.199 21.4999 80.52 20.6619 80.52H9.49994C8.66094 80.52 7.98193 81.2 7.98193 82.038C7.98193 82.877 8.66194 83.557 9.49994 83.557Z" fill="#686868"/>
<path d="M9.49994 83.31H20.6619C21.4589 83.31 22.111 82.696 22.174 81.915C22.177 81.956 22.1799 81.997 22.1799 82.038C22.1799 82.877 21.4999 83.557 20.6619 83.557H9.49994C8.66094 83.557 7.98193 82.877 7.98193 82.038C7.98193 81.996 7.98495 81.955 7.98795 81.915C8.05095 82.695 8.70294 83.31 9.49994 83.31Z" fill="#A8A8A8"/>
<path d="M9.50002 80.856H20.662C21.018 80.856 21.345 80.978 21.604 81.184C22.072 81.554 22.072 82.276 21.604 82.646C21.345 82.851 21.018 82.973 20.662 82.973H9.50002C9.14402 82.973 8.81703 82.851 8.55803 82.646C8.09003 82.275 8.09003 81.554 8.55803 81.184C8.81703 80.978 9.14402 80.856 9.50002 80.856Z" fill="#A8A8A8"/>
<path d="M12.154 105.967L11.707 104.682L10.247 104.642L10.125 105.737L12.154 105.967Z" fill="#A8A8A8"/>
<path d="M12.154 105.967L11.707 104.682L12.4 104.768L13.527 106.079L12.154 105.967Z" fill="#494949"/>
<path d="M8.73703 105.941C8.57303 106.183 8.47803 106.475 8.47803 106.79C8.47803 106.832 8.48104 106.873 8.48404 106.913C8.48504 106.905 8.48704 106.898 8.48804 106.891C8.54104 107.682 9.19203 108.308 9.99603 108.308H21.158C21.962 108.308 22.613 107.681 22.666 106.891C22.667 106.899 22.669 106.906 22.67 106.913C22.673 106.872 22.676 106.831 22.676 106.79C22.676 106.475 22.58 106.183 22.417 105.941C22.144 105.537 21.682 105.271 21.158 105.271H9.99603C9.47203 105.271 9.01003 105.537 8.73703 105.941Z" fill="#494949"/>
<path d="M9.49994 105.579H20.6619C21.5009 105.579 22.1799 106.259 22.1799 107.097C22.1799 107.936 21.4999 108.615 20.6619 108.615H9.49994C8.66094 108.615 7.98193 107.935 7.98193 107.097C7.98193 106.259 8.66194 105.579 9.49994 105.579Z" fill="#686868"/>
<path d="M9.49994 105.826H20.6619C21.4589 105.826 22.111 106.44 22.174 107.221C22.177 107.18 22.1799 107.139 22.1799 107.098C22.1799 106.259 21.4999 105.58 20.6619 105.58H9.49994C8.66094 105.58 7.98193 106.26 7.98193 107.098C7.98193 107.14 7.98495 107.181 7.98795 107.221C8.05095 106.44 8.70294 105.826 9.49994 105.826Z" fill="#A8A8A8"/>
<path d="M9.50002 108.28H20.662C21.018 108.28 21.345 108.158 21.604 107.953C22.072 107.582 22.072 106.861 21.604 106.491C21.345 106.286 21.018 106.164 20.662 106.164H9.50002C9.14402 106.164 8.81703 106.286 8.55803 106.491C8.09003 106.862 8.09003 107.583 8.55803 107.953C8.81703 108.157 9.14402 108.28 9.50002 108.28Z" fill="#A8A8A8"/>
<path d="M9.53467 104.787V84.269L25.1357 84.469C26.0967 84.47 26.8747 85.248 26.8747 86.209V103.047C26.8747 104.008 26.0957 104.787 25.1357 104.787H9.53467Z" fill="#686868"/>
<path d="M25.4825 103.047V86.209C25.4825 85.248 25.1685 84.469 24.2075 84.469C25.1685 84.47 25.9465 85.248 25.9465 86.209V103.047C25.9465 104.008 25.1675 104.787 24.2075 104.787C25.1685 104.787 25.4825 104.008 25.4825 103.047Z" fill="#A8A8A8"/>
<path d="M25.9465 103.047V86.209C25.9465 85.248 25.1675 84.469 24.2075 84.469H25.1365C26.0975 84.47 26.8755 85.248 26.8755 86.209V103.047C26.8755 104.008 26.0965 104.787 25.1365 104.787H24.2075C25.1685 104.787 25.9465 104.008 25.9465 103.047Z" fill="#494949"/>
<path d="M10.7847 101.678V87.458C10.7847 86.031 11.8767 84.874 13.2227 84.874H22.1227C23.4687 84.874 24.5607 86.031 24.5607 87.458V101.678C24.5607 103.105 23.4687 104.262 22.1227 104.262H13.2227C11.8767 104.263 10.7847 103.106 10.7847 101.678Z" fill="#A9A9A9"/>
<path d="M24.5605 101.678V87.458C24.5605 86.031 23.4684 84.874 22.1224 84.874H21.3765C22.7225 84.874 23.8145 86.031 23.8145 87.458V101.678C23.8145 103.105 22.7225 104.262 21.3765 104.262H22.1224C23.4684 104.263 24.5605 103.106 24.5605 101.678Z" fill="#D4D4D4"/>
<path d="M10.7847 101.678V87.458C10.7847 86.031 11.8767 84.874 13.2227 84.874H13.9687C12.6217 84.874 11.5307 86.031 11.5307 87.458V101.678C11.5307 103.105 12.6227 104.262 13.9687 104.262H13.2227C11.8767 104.263 10.7847 103.106 10.7847 101.678Z" fill="#494949"/>
<path d="M5.09277 81.8879C6.43877 82.5069 10.1958 83.739 10.1958 84.825V104.303C10.1958 105.349 6.5168 106.495 5.1528 107.123L5.09277 81.8879Z" fill="#494949"/>
<path d="M6.05579 105.03V84.0259C6.05579 82.4479 4.77679 81.1689 3.19879 81.1689C1.62079 81.1689 0.341797 82.4479 0.341797 84.0259V105.03C0.341797 106.608 1.62079 107.887 3.19879 107.887C4.77679 107.887 6.05579 106.608 6.05579 105.03Z" fill="#686868"/>
<path d="M5.59082 105.03V84.026C5.59082 82.526 4.43482 81.299 2.96582 81.18C3.04282 81.174 3.11981 81.168 3.19781 81.168C4.77581 81.168 6.05481 82.447 6.05481 84.025V105.029C6.05481 106.607 4.77581 107.886 3.19781 107.886C3.11981 107.886 3.04282 107.881 2.96582 107.874C4.43482 107.757 5.59082 106.53 5.59082 105.03Z" fill="#A8A8A8"/>
<path d="M0.973633 105.03V84.026C0.973633 83.356 1.20363 82.741 1.58963 82.254C2.28663 81.374 3.64464 81.374 4.34164 82.254C4.72764 82.741 4.95764 83.356 4.95764 84.026V105.03C4.95764 105.699 4.72764 106.315 4.34164 106.802C3.64464 107.682 2.28663 107.682 1.58963 106.802C1.20463 106.315 0.973633 105.699 0.973633 105.03Z" fill="#A8A8A8"/>
<path d="M4.28979 106.522C4.87379 106.522 4.87379 82.472 4.28979 82.472C3.51879 83.344 2.29079 83.9911 1.37079 82.9701L1.32178 85.4001C1.73178 83.7131 2.56178 84.4521 2.93378 84.4661C3.43478 84.4851 3.43878 104.508 2.93378 104.528C2.56278 104.542 1.73178 105.282 1.32178 103.594L1.37079 106.024C2.29079 105.003 3.51979 105.65 4.28979 106.522Z" fill="#D4D4D4"/>
<path d="M119.034 157.169L118.257 158.286L119.083 159.491L120.041 158.946L119.034 157.169Z" fill="#A8A8A8"/>
<path d="M119.034 157.169L118.257 158.286L117.919 157.675L118.317 155.993L119.034 157.169Z" fill="#494949"/>
<path d="M121.021 159.949C121.313 159.939 121.606 159.845 121.86 159.66C121.894 159.636 121.925 159.609 121.956 159.583C121.949 159.587 121.942 159.589 121.936 159.593C122.544 159.085 122.669 158.19 122.196 157.54L115.635 148.509C115.162 147.859 114.273 147.7 113.602 148.122C113.608 148.117 113.612 148.111 113.618 148.106C113.583 148.127 113.548 148.149 113.514 148.174C113.26 148.359 113.079 148.608 112.98 148.883C112.814 149.341 112.87 149.871 113.178 150.295L119.739 159.325C120.047 159.748 120.534 159.966 121.021 159.949Z" fill="#494949"/>
<path d="M120.28 159.544L113.719 150.514C113.226 149.836 113.376 148.886 114.055 148.393C114.733 147.9 115.683 148.051 116.176 148.729L122.737 157.76C123.23 158.438 123.079 159.388 122.401 159.881C121.723 160.373 120.773 160.223 120.28 159.544Z" fill="#686868"/>
<path d="M120.48 159.399L113.919 150.369C113.451 149.724 113.564 148.835 114.159 148.326C114.124 148.347 114.089 148.369 114.056 148.394C113.378 148.887 113.227 149.836 113.72 150.515L120.281 159.545C120.774 160.223 121.724 160.374 122.402 159.881C122.436 159.856 122.467 159.83 122.498 159.803C121.829 160.211 120.948 160.044 120.48 159.399Z" fill="#A8A8A8"/>
<path d="M122.465 157.957L115.904 148.927C115.695 148.639 115.403 148.447 115.085 148.358C114.51 148.198 113.927 148.622 113.902 149.218C113.888 149.548 113.981 149.885 114.191 150.172L120.752 159.202C120.961 159.49 121.252 159.683 121.571 159.771C122.146 159.931 122.729 159.507 122.754 158.911C122.767 158.582 122.674 158.245 122.465 157.957Z" fill="#A8A8A8"/>
<path d="M100.59 170.57L101.891 170.176L102.783 171.334L101.968 172.076L100.59 170.57Z" fill="#A8A8A8"/>
<path d="M100.59 170.57L101.891 170.176L101.415 169.666L99.6919 169.525L100.59 170.57Z" fill="#494949"/>
<path d="M102.62 173.319C102.52 173.594 102.34 173.843 102.086 174.028C102.052 174.052 102.017 174.074 101.982 174.096C101.988 174.091 101.992 174.085 101.998 174.08C101.327 174.502 100.437 174.343 99.9649 173.693L93.4039 164.662C92.9309 164.012 93.0559 163.116 93.6639 162.609C93.6569 162.613 93.6499 162.615 93.6439 162.619C93.6749 162.592 93.7069 162.566 93.7399 162.541C93.9939 162.356 94.2869 162.262 94.5789 162.252C95.0659 162.235 95.5529 162.453 95.8609 162.877L102.422 171.908C102.729 172.331 102.786 172.861 102.62 173.319Z" fill="#494949"/>
<path d="M102.463 172.489L95.9018 163.459C95.4088 162.781 94.4588 162.63 93.7808 163.123C93.1028 163.616 92.9518 164.566 93.4448 165.244L100.006 174.274C100.499 174.952 101.449 175.103 102.127 174.61C102.806 174.117 102.956 173.167 102.463 172.489Z" fill="#686868"/>
<path d="M102.264 172.634L95.7031 163.603C95.2351 162.958 94.3541 162.792 93.6851 163.2C93.7161 163.173 93.7481 163.147 93.7811 163.122C94.4591 162.629 95.4091 162.78 95.9021 163.458L102.463 172.488C102.956 173.166 102.805 174.116 102.127 174.609C102.093 174.634 102.058 174.655 102.023 174.677C102.619 174.168 102.732 173.279 102.264 172.634Z" fill="#A8A8A8"/>
<path d="M100.279 174.076L93.7179 165.046C93.5089 164.758 93.4159 164.421 93.4289 164.092C93.4539 163.496 94.0369 163.072 94.6119 163.232C94.9299 163.321 95.2209 163.513 95.4299 163.801L101.991 172.831C102.2 173.119 102.293 173.456 102.28 173.785C102.255 174.381 101.672 174.805 101.097 174.644C100.779 174.557 100.488 174.364 100.279 174.076Z" fill="#A8A8A8"/>
<path d="M103.083 171.995L119.683 159.935L110.351 147.431C109.786 146.654 108.698 146.482 107.921 147.047L94.2989 156.944C93.5219 157.509 93.3489 158.596 93.9139 159.374L103.083 171.995Z" fill="#686868"/>
<path d="M95.1168 158.07L108.739 148.173C109.516 147.608 110.331 147.405 110.896 148.182C110.331 147.405 109.243 147.233 108.466 147.798L94.8438 157.695C94.0668 158.26 93.8938 159.347 94.4588 160.125C93.8948 159.347 94.3398 158.635 95.1168 158.07Z" fill="#A8A8A8"/>
<path d="M94.8439 157.695L108.466 147.798C109.243 147.233 110.331 147.406 110.896 148.182L110.35 147.431C109.785 146.654 108.697 146.482 107.92 147.047L94.2979 156.944C93.5209 157.509 93.3479 158.596 93.9129 159.374L94.4589 160.126C93.8949 159.347 94.0669 158.259 94.8439 157.695Z" fill="#494949"/>
<path d="M104.864 169.157L116.368 160.799C117.523 159.96 117.817 158.397 117.026 157.308L111.795 150.108C111.004 149.019 109.426 148.816 108.271 149.655L96.767 158.013C95.612 158.852 95.3181 160.415 96.1091 161.505L101.34 168.705C102.132 169.793 103.709 169.996 104.864 169.157Z" fill="#A9A9A9"/>
<path d="M96.767 158.012L108.271 149.654C109.426 148.815 111.003 149.018 111.795 150.107L112.233 150.711C111.442 149.622 109.864 149.419 108.709 150.258L97.205 158.616C96.05 159.455 95.756 161.018 96.547 162.107L96.1091 161.503C95.3181 160.414 95.612 158.85 96.767 158.012Z" fill="#D4D4D4"/>
<path d="M104.864 169.157L116.368 160.799C117.523 159.96 117.817 158.397 117.026 157.308L116.587 156.704C117.379 157.793 117.084 159.357 115.929 160.196L104.425 168.554C103.27 169.393 101.693 169.19 100.901 168.101L101.34 168.704C102.132 169.793 103.709 169.996 104.864 169.157Z" fill="#494949"/>
<path d="M124.221 162.129C122.929 161.404 119.724 159.089 118.846 159.727L103.088 171.176C102.242 171.791 103.477 175.44 103.771 176.913L124.221 162.129Z" fill="#494949"/>
<path d="M104.932 174.953L121.924 162.607C123.201 161.68 124.988 161.962 125.915 163.239C126.843 164.516 126.56 166.302 125.283 167.23L108.291 179.576C107.014 180.504 105.227 180.221 104.3 178.944C103.373 177.667 103.656 175.88 104.932 174.953Z" fill="#686868"/>
<path d="M105.205 175.328L122.197 162.982C123.41 162.1 125.083 162.314 126.042 163.433C126.002 163.367 125.961 163.302 125.915 163.238C124.988 161.961 123.201 161.678 121.924 162.606L104.932 174.952C103.655 175.879 103.372 177.666 104.3 178.943C104.346 179.006 104.396 179.065 104.446 179.124C103.679 177.866 103.992 176.21 105.205 175.328Z" fill="#A8A8A8"/>
<path d="M107.919 179.064L124.911 166.718C125.453 166.324 125.815 165.776 125.982 165.178C126.284 164.097 125.486 162.999 124.365 162.952C123.744 162.926 123.111 163.101 122.569 163.495L105.577 175.841C105.035 176.234 104.673 176.783 104.506 177.381C104.204 178.462 105.002 179.56 106.123 179.607C106.744 179.633 107.378 179.457 107.919 179.064Z" fill="#A8A8A8"/>
<path d="M104.762 177.258C104.419 176.785 123.876 162.649 124.219 163.122C123.966 164.258 124.165 165.632 125.532 165.776L123.595 167.244C124.719 165.921 123.633 165.683 123.403 165.391C123.093 164.997 106.892 176.763 107.173 177.183C107.38 177.492 107.27 178.598 108.876 177.938L106.881 179.327C107.167 177.983 105.921 177.369 104.762 177.258Z" fill="#D4D4D4"/>
<path d="M135.712 122.228L135.74 123.588L137.116 124.078L137.57 123.074L135.712 122.228Z" fill="#A8A8A8"/>
<path d="M135.711 122.228L135.739 123.588L135.107 123.293L134.44 121.698L135.711 122.228Z" fill="#494949"/>
<path d="M138.954 123.31C139.185 123.13 139.366 122.882 139.463 122.583C139.476 122.543 139.486 122.504 139.495 122.464C139.492 122.471 139.487 122.477 139.484 122.484C139.678 121.716 139.252 120.918 138.488 120.67L127.872 117.221C127.107 116.973 126.294 117.367 126 118.103C126.002 118.095 126.001 118.088 126.003 118.081C125.987 118.119 125.972 118.157 125.959 118.196C125.862 118.495 125.862 118.803 125.943 119.084C126.078 119.553 126.435 119.948 126.934 120.11L137.55 123.559C138.048 123.719 138.569 123.609 138.954 123.31Z" fill="#494949"/>
<path d="M138.116 123.417L127.5 119.968C126.702 119.709 126.266 118.852 126.525 118.055C126.784 117.257 127.641 116.821 128.438 117.08L139.054 120.529C139.852 120.788 140.288 121.645 140.029 122.442C139.77 123.24 138.914 123.677 138.116 123.417Z" fill="#686868"/>
<path d="M138.192 123.183L127.576 119.734C126.818 119.488 126.387 118.702 126.569 117.94C126.553 117.978 126.538 118.016 126.525 118.055C126.266 118.853 126.702 119.709 127.5 119.968L138.116 123.417C138.914 123.676 139.77 123.24 140.029 122.442C140.042 122.402 140.052 122.363 140.061 122.323C139.76 123.046 138.95 123.429 138.192 123.183Z" fill="#A8A8A8"/>
<path d="M138.95 120.849L128.334 117.4C127.996 117.29 127.647 117.305 127.337 117.42C126.778 117.628 126.555 118.314 126.885 118.811C127.068 119.086 127.341 119.303 127.679 119.413L138.295 122.862C138.633 122.972 138.982 122.957 139.292 122.842C139.851 122.634 140.074 121.948 139.744 121.451C139.561 121.176 139.288 120.959 138.95 120.849Z" fill="#A8A8A8"/>
<path d="M128.667 143.911L129.488 142.827L130.89 143.24L130.667 144.319L128.667 143.911Z" fill="#A8A8A8"/>
<path d="M128.667 143.911L129.488 142.827L128.804 142.694L127.326 143.593L128.667 143.911Z" fill="#494949"/>
<path d="M131.925 144.942C132.006 145.223 132.006 145.531 131.909 145.829C131.896 145.869 131.881 145.907 131.865 145.944C131.867 145.936 131.866 145.929 131.868 145.922C131.573 146.658 130.76 147.052 129.996 146.804L119.38 143.355C118.615 143.107 118.19 142.309 118.384 141.541C118.381 141.548 118.376 141.554 118.373 141.561C118.382 141.521 118.392 141.481 118.405 141.442C118.502 141.143 118.683 140.895 118.914 140.715C119.298 140.415 119.82 140.305 120.318 140.467L130.934 143.916C131.433 144.078 131.79 144.473 131.925 144.942Z" fill="#494949"/>
<path d="M131.311 144.362L120.695 140.913C119.897 140.654 119.041 141.09 118.782 141.888C118.523 142.686 118.959 143.542 119.757 143.801L130.373 147.25C131.17 147.509 132.027 147.073 132.286 146.275C132.545 145.478 132.108 144.621 131.311 144.362Z" fill="#686868"/>
<path d="M131.234 144.597L120.618 141.148C119.86 140.902 119.05 141.284 118.749 142.007C118.758 141.967 118.768 141.927 118.781 141.888C119.04 141.09 119.897 140.654 120.694 140.913L131.31 144.362C132.108 144.621 132.544 145.478 132.285 146.275C132.272 146.315 132.257 146.353 132.241 146.39C132.423 145.629 131.992 144.843 131.234 144.597Z" fill="#A8A8A8"/>
<path d="M130.476 146.931L119.86 143.482C119.522 143.372 119.248 143.155 119.066 142.88C118.736 142.383 118.959 141.697 119.518 141.489C119.828 141.374 120.176 141.359 120.515 141.469L131.131 144.918C131.469 145.028 131.743 145.245 131.925 145.52C132.255 146.017 132.032 146.703 131.473 146.911C131.163 147.025 130.814 147.04 130.476 146.931Z" fill="#A8A8A8"/>
<path d="M131.522 143.598L137.863 124.084L122.963 119.453C122.049 119.157 121.068 119.657 120.771 120.57L115.568 136.584C115.271 137.498 115.771 138.479 116.684 138.776L131.522 143.598Z" fill="#686868"/>
<path d="M116.892 137.015L122.095 121.001C122.392 120.087 122.931 119.444 123.845 119.74C122.931 119.443 121.95 119.944 121.653 120.857L116.45 136.871C116.153 137.785 116.653 138.766 117.566 139.063C116.653 138.767 116.595 137.929 116.892 137.015Z" fill="#A8A8A8"/>
<path d="M116.451 136.871L121.654 120.857C121.951 119.943 122.932 119.443 123.846 119.74L122.962 119.453C122.048 119.157 121.067 119.657 120.77 120.57L115.567 136.584C115.27 137.498 115.77 138.479 116.683 138.776L117.567 139.063C116.654 138.767 116.154 137.785 116.451 136.871Z" fill="#494949"/>
<path d="M131.294 140.255L135.688 126.731C136.129 125.373 135.448 123.936 134.168 123.52L125.704 120.77C124.423 120.354 123.028 121.117 122.587 122.474L118.193 135.998C117.752 137.355 118.433 138.793 119.713 139.209L128.177 141.959C129.457 142.376 130.853 141.613 131.294 140.255Z" fill="#A9A9A9"/>
<path d="M118.191 135.998L122.585 122.474C123.026 121.117 124.422 120.353 125.702 120.77L126.412 121C125.131 120.584 123.736 121.347 123.295 122.704L118.901 136.228C118.46 137.585 119.141 139.023 120.421 139.439L119.711 139.209C118.431 138.793 117.75 137.355 118.191 135.998Z" fill="#D4D4D4"/>
<path d="M131.294 140.255L135.688 126.731C136.129 125.373 135.448 123.936 134.168 123.52L133.458 123.289C134.739 123.705 135.419 125.143 134.978 126.5L130.584 140.024C130.143 141.381 128.747 142.145 127.467 141.728L128.177 141.959C129.457 142.376 130.853 141.613 131.294 140.255Z" fill="#494949"/>
<path d="M142.823 123.192C141.352 123.365 137.398 123.376 137.063 124.409L131.044 142.934C130.721 143.929 133.865 146.155 134.968 147.174L142.823 123.192Z" fill="#494949"/>
<path d="M134.755 144.904L141.245 124.928C141.733 123.427 143.345 122.606 144.845 123.093C146.346 123.581 147.167 125.193 146.68 126.693L140.19 146.669C139.702 148.17 138.09 148.991 136.59 148.504C135.089 148.017 134.267 146.405 134.755 144.904Z" fill="#686868"/>
<path d="M135.198 145.048L141.689 125.072C142.152 123.646 143.631 122.836 145.065 123.177C144.994 123.147 144.922 123.118 144.848 123.094C143.347 122.606 141.735 123.428 141.248 124.928L134.758 144.904C134.27 146.405 135.092 148.017 136.592 148.504C136.667 148.528 136.742 148.547 136.817 148.565C135.455 147.998 134.734 146.474 135.198 145.048Z" fill="#A8A8A8"/>
<path d="M139.589 146.474L146.08 126.498C146.287 125.861 146.258 125.205 146.042 124.622C145.651 123.57 144.36 123.15 143.425 123.772C142.908 124.116 142.498 124.63 142.291 125.267L135.801 145.243C135.594 145.88 135.623 146.536 135.839 147.119C136.23 148.171 137.521 148.591 138.456 147.969C138.973 147.625 139.382 147.111 139.589 146.474Z" fill="#A8A8A8"/>
<path d="M135.974 146.869C135.418 146.688 142.85 123.815 143.406 123.996C143.869 125.064 144.838 126.059 146.028 125.371L145.324 127.698C145.456 125.967 144.437 126.413 144.08 126.312C143.598 126.176 137.406 145.217 137.881 145.392C138.23 145.52 138.791 146.48 139.702 145.002L138.904 147.298C138.345 146.042 136.977 146.278 135.974 146.869Z" fill="#D4D4D4"/>
<path d="M11.4957 122.228L11.4687 123.588L10.0917 124.078L9.6377 123.074L11.4957 122.228Z" fill="#A8A8A8"/>
<path d="M11.4958 122.228L11.4688 123.588L12.1008 123.293L12.7678 121.698L11.4958 122.228Z" fill="#494949"/>
<path d="M8.25489 123.31C8.02389 123.13 7.84289 122.882 7.74589 122.583C7.73289 122.543 7.72288 122.504 7.71388 122.464C7.71688 122.471 7.72189 122.477 7.72489 122.484C7.53089 121.716 7.95689 120.918 8.72089 120.67L19.3369 117.221C20.1019 116.973 20.9149 117.367 21.2089 118.103C21.2069 118.095 21.2079 118.088 21.2059 118.081C21.2219 118.119 21.2369 118.157 21.2499 118.196C21.3469 118.495 21.3459 118.803 21.2659 119.084C21.1309 119.553 20.7739 119.948 20.2749 120.11L9.65888 123.559C9.16088 123.719 8.63889 123.609 8.25489 123.31Z" fill="#494949"/>
<path d="M9.09268 123.417L19.7087 119.968C20.5067 119.709 20.9427 118.852 20.6837 118.055C20.4247 117.257 19.5677 116.821 18.7707 117.08L8.15469 120.529C7.35669 120.788 6.92068 121.645 7.17968 122.442C7.43768 123.24 8.29468 123.677 9.09268 123.417Z" fill="#686868"/>
<path d="M9.01547 123.183L19.6315 119.734C20.3895 119.488 20.8195 118.702 20.6385 117.94C20.6545 117.978 20.6695 118.016 20.6825 118.055C20.9415 118.853 20.5055 119.709 19.7075 119.968L9.09149 123.417C8.29349 123.676 7.43747 123.24 7.17847 122.442C7.16547 122.402 7.15548 122.363 7.14648 122.323C7.44748 123.046 8.25747 123.429 9.01547 123.183Z" fill="#A8A8A8"/>
<path d="M8.25761 120.849L18.8736 117.4C19.2116 117.29 19.5606 117.305 19.8706 117.42C20.4296 117.628 20.6526 118.314 20.3226 118.811C20.1396 119.086 19.8666 119.303 19.5286 119.413L8.91261 122.862C8.57461 122.972 8.2256 122.957 7.9156 122.842C7.3566 122.634 7.1336 121.948 7.4636 121.451C7.6456 121.176 7.91961 120.959 8.25761 120.849Z" fill="#A8A8A8"/>
<path d="M18.5414 143.911L17.7194 142.827L16.3184 143.24L16.5403 144.319L18.5414 143.911Z" fill="#A8A8A8"/>
<path d="M18.5412 143.911L17.7192 142.827L18.4042 142.694L19.8812 143.593L18.5412 143.911Z" fill="#494949"/>
<path d="M15.2835 144.942C15.2025 145.223 15.2025 145.531 15.2995 145.829C15.3125 145.869 15.3275 145.907 15.3435 145.944C15.3415 145.936 15.3425 145.929 15.3405 145.922C15.6355 146.658 16.4485 147.052 17.2125 146.804L27.8285 143.355C28.5935 143.107 29.0185 142.309 28.8245 141.541C28.8275 141.548 28.8325 141.554 28.8355 141.561C28.8265 141.521 28.8165 141.481 28.8035 141.442C28.7065 141.143 28.5255 140.895 28.2945 140.715C27.9105 140.415 27.3885 140.305 26.8905 140.467L16.2745 143.916C15.7755 144.078 15.4175 144.473 15.2835 144.942Z" fill="#494949"/>
<path d="M15.8974 144.362L26.5134 140.913C27.3114 140.654 28.1674 141.09 28.4264 141.888C28.6854 142.686 28.2494 143.542 27.4514 143.801L16.8354 147.25C16.0374 147.509 15.1814 147.073 14.9224 146.275C14.6634 145.478 15.0994 144.621 15.8974 144.362Z" fill="#686868"/>
<path d="M15.9733 144.597L26.5893 141.148C27.3473 140.902 28.1573 141.284 28.4583 142.007C28.4493 141.967 28.4393 141.927 28.4263 141.888C28.1673 141.09 27.3103 140.654 26.5133 140.913L15.8973 144.362C15.1003 144.621 14.6633 145.478 14.9223 146.275C14.9353 146.315 14.9503 146.353 14.9663 146.39C14.7853 145.629 15.2153 144.843 15.9733 144.597Z" fill="#A8A8A8"/>
<path d="M16.7315 146.931L27.3475 143.482C27.6855 143.372 27.9595 143.155 28.1415 142.88C28.4715 142.383 28.2485 141.697 27.6895 141.489C27.3805 141.374 27.0315 141.359 26.6925 141.469L16.0765 144.918C15.7385 145.028 15.4645 145.245 15.2825 145.52C14.9525 146.017 15.1754 146.703 15.7344 146.911C16.0444 147.025 16.3935 147.04 16.7315 146.931Z" fill="#A8A8A8"/>
<path d="M15.6867 143.598L9.3457 124.084L24.2457 119.453C25.1597 119.157 26.1407 119.657 26.4377 120.57L31.6407 136.584C31.9377 137.498 31.4377 138.479 30.5247 138.776L15.6867 143.598Z" fill="#686868"/>
<path d="M30.3158 137.015L25.1128 121.001C24.8158 120.087 24.2768 119.444 23.3628 119.74C24.2768 119.443 25.2578 119.944 25.5548 120.857L30.7578 136.871C31.0548 137.785 30.5548 138.766 29.6408 139.063C30.5548 138.767 30.6128 137.929 30.3158 137.015Z" fill="#A8A8A8"/>
<path d="M30.7578 136.871L25.5548 120.857C25.2578 119.943 24.2768 119.443 23.3628 119.74L24.2458 119.453C25.1598 119.157 26.1408 119.657 26.4378 120.57L31.6408 136.584C31.9378 137.498 31.4378 138.479 30.5248 138.776L29.6408 139.063C30.5548 138.767 31.0548 137.785 30.7578 136.871Z" fill="#494949"/>
<path d="M15.9135 140.255L11.5195 126.731C11.0785 125.373 11.7595 123.936 13.0395 123.52L21.5035 120.77C22.7845 120.354 24.1795 121.117 24.6205 122.474L29.0145 135.998C29.4555 137.355 28.7745 138.793 27.4945 139.209L19.0305 141.959C17.7505 142.376 16.3555 141.613 15.9135 140.255Z" fill="#A9A9A9"/>
<path d="M29.0159 135.998L24.6219 122.474C24.1809 121.117 22.7849 120.353 21.5049 120.77L20.7949 121C22.0759 120.584 23.4709 121.347 23.9119 122.704L28.3059 136.228C28.7469 137.585 28.0659 139.023 26.7859 139.439L27.4959 139.209C28.7769 138.793 29.4569 137.355 29.0159 135.998Z" fill="#D4D4D4"/>
<path d="M15.9135 140.255L11.5195 126.731C11.0785 125.373 11.7595 123.936 13.0395 123.52L13.7495 123.289C12.4685 123.705 11.7885 125.143 12.2295 126.5L16.6235 140.024C17.0645 141.381 18.4605 142.145 19.7405 141.728L19.0305 141.959C17.7505 142.376 16.3555 141.613 15.9135 140.255Z" fill="#494949"/>
<path d="M4.38477 123.192C5.85577 123.365 9.80974 123.376 10.1447 124.409L16.1638 142.934C16.4868 143.929 13.3427 146.155 12.2397 147.174L4.38477 123.192Z" fill="#494949"/>
<path d="M12.4516 144.904L5.96059 124.928C5.47259 123.427 3.86159 122.606 2.36059 123.093C0.859588 123.581 0.0385966 125.193 0.525597 126.693L7.01559 146.669C7.50359 148.17 9.11559 148.991 10.6156 148.504C12.1186 148.017 12.9396 146.405 12.4516 144.904Z" fill="#686868"/>
<path d="M12.0105 145.048L5.52054 125.072C5.05754 123.646 3.57853 122.836 2.14453 123.177C2.21553 123.147 2.28754 123.118 2.36154 123.094C3.86254 122.606 5.47455 123.428 5.96155 124.928L12.4525 144.904C12.9405 146.405 12.1186 148.017 10.6176 148.504C10.5436 148.528 10.4676 148.547 10.3936 148.565C11.7536 147.998 12.4735 146.474 12.0105 145.048Z" fill="#A8A8A8"/>
<path d="M7.61941 146.474L1.12841 126.498C0.921412 125.861 0.950407 125.205 1.16641 124.622C1.55741 123.57 2.84841 123.15 3.78341 123.772C4.30041 124.116 4.71041 124.63 4.91741 125.267L11.4084 145.243C11.6154 145.88 11.5864 146.536 11.3694 147.119C10.9784 148.171 9.68741 148.591 8.75241 147.969C8.23541 147.625 7.82641 147.111 7.61941 146.474Z" fill="#A8A8A8"/>
<path d="M11.2337 146.869C11.7897 146.688 4.3577 123.815 3.8017 123.996C3.3377 125.064 2.36969 126.059 1.17969 125.371L1.8837 127.698C1.7517 125.967 2.77069 126.413 3.12769 126.312C3.60969 126.176 9.80169 145.217 9.32669 145.392C8.97769 145.52 8.41671 146.48 7.50571 145.002L8.30368 147.298C8.86268 146.042 10.2317 146.278 11.2337 146.869Z" fill="#D4D4D4"/>
<path d="M28.174 157.169L28.951 158.286L28.126 159.491L27.168 158.946L28.174 157.169Z" fill="#A8A8A8"/>
<path d="M28.1738 157.169L28.9508 158.286L29.2888 157.675L28.8908 155.993L28.1738 157.169Z" fill="#494949"/>
<path d="M26.1877 159.949C25.8957 159.939 25.6028 159.845 25.3488 159.66C25.3148 159.636 25.2837 159.609 25.2527 159.583C25.2597 159.587 25.2668 159.589 25.2728 159.593C24.6648 159.085 24.5398 158.19 25.0128 157.54L31.5738 148.509C32.0468 147.859 32.9357 147.7 33.6067 148.122C33.6007 148.117 33.5968 148.111 33.5908 148.106C33.6258 148.127 33.6608 148.149 33.6938 148.174C33.9478 148.359 34.1278 148.608 34.2278 148.883C34.3938 149.341 34.3377 149.871 34.0287 150.295L27.4677 159.325C27.1607 159.748 26.6747 159.966 26.1877 159.949Z" fill="#494949"/>
<path d="M26.9279 159.544L33.4889 150.514C33.9819 149.836 33.8309 148.886 33.1529 148.393C32.4749 147.9 31.5249 148.051 31.0319 148.729L24.4709 157.76C23.9779 158.438 24.1279 159.388 24.8069 159.881C25.4859 160.373 26.4359 160.223 26.9279 159.544Z" fill="#686868"/>
<path d="M26.7289 159.399L33.2899 150.369C33.7589 149.724 33.6449 148.835 33.0499 148.326C33.0849 148.347 33.1199 148.369 33.1539 148.394C33.8319 148.887 33.9829 149.836 33.4899 150.515L26.9289 159.545C26.4359 160.223 25.4859 160.374 24.8079 159.881C24.7739 159.856 24.7429 159.83 24.7119 159.803C25.3799 160.211 26.2599 160.044 26.7289 159.399Z" fill="#A8A8A8"/>
<path d="M24.744 157.957L31.305 148.927C31.514 148.639 31.806 148.447 32.123 148.358C32.698 148.198 33.281 148.622 33.306 149.218C33.32 149.548 33.227 149.885 33.017 150.172L26.456 159.202C26.247 159.49 25.956 159.683 25.638 159.771C25.063 159.931 24.48 159.507 24.455 158.911C24.441 158.582 24.535 158.245 24.744 157.957Z" fill="#A8A8A8"/>
<path d="M46.6188 170.57L45.3168 170.176L44.4258 171.334L45.2398 172.076L46.6188 170.57Z" fill="#A8A8A8"/>
<path d="M46.6189 170.57L45.3169 170.176L45.7929 169.666L47.5159 169.525L46.6189 170.57Z" fill="#494949"/>
<path d="M44.5886 173.319C44.6886 173.594 44.8686 173.843 45.1226 174.028C45.1566 174.052 45.1916 174.074 45.2266 174.096C45.2206 174.091 45.2166 174.085 45.2106 174.08C45.8816 174.502 46.7716 174.343 47.2436 173.693L53.8046 164.662C54.2776 164.012 54.1526 163.116 53.5446 162.609C53.5516 162.613 53.5586 162.615 53.5646 162.619C53.5336 162.592 53.5016 162.566 53.4686 162.541C53.2146 162.356 52.9216 162.262 52.6296 162.252C52.1426 162.235 51.6556 162.453 51.3476 162.877L44.7866 171.908C44.4786 172.331 44.4216 172.861 44.5886 173.319Z" fill="#494949"/>
<path d="M44.7446 172.489L51.3056 163.459C51.7986 162.781 52.7486 162.63 53.4266 163.123C54.1046 163.616 54.2556 164.566 53.7626 165.244L47.2016 174.274C46.7086 174.952 45.7586 175.103 45.0806 174.61C44.4026 174.117 44.2516 173.167 44.7446 172.489Z" fill="#686868"/>
<path d="M44.9446 172.634L51.5056 163.603C51.9736 162.958 52.8546 162.792 53.5226 163.2C53.4916 163.173 53.4596 163.147 53.4266 163.122C52.7486 162.629 51.7986 162.78 51.3056 163.458L44.7446 172.488C44.2516 173.166 44.4026 174.116 45.0806 174.609C45.1146 174.634 45.1496 174.655 45.1846 174.677C44.5896 174.168 44.4756 173.279 44.9446 172.634Z" fill="#A8A8A8"/>
<path d="M46.9299 174.076L53.4909 165.046C53.6999 164.758 53.7929 164.421 53.7799 164.092C53.7549 163.496 53.1709 163.072 52.5969 163.232C52.2789 163.321 51.9879 163.513 51.7789 163.801L45.2179 172.831C45.0089 173.119 44.9159 173.456 44.9289 173.785C44.9539 174.381 45.5369 174.805 46.1119 174.644C46.4299 174.557 46.7209 174.364 46.9299 174.076Z" fill="#A8A8A8"/>
<path d="M44.1249 171.995L27.5249 159.935L36.8569 147.431C37.4219 146.654 38.5099 146.482 39.2869 147.047L52.9089 156.944C53.6859 157.509 53.8589 158.596 53.2939 159.374L44.1249 171.995Z" fill="#686868"/>
<path d="M52.091 158.07L38.469 148.173C37.692 147.608 36.877 147.405 36.312 148.182C36.877 147.405 37.965 147.233 38.742 147.798L52.364 157.695C53.141 158.26 53.314 159.347 52.749 160.125C53.314 159.347 52.868 158.635 52.091 158.07Z" fill="#A8A8A8"/>
<path d="M52.364 157.695L38.742 147.798C37.965 147.233 36.877 147.406 36.312 148.182L36.858 147.431C37.423 146.654 38.511 146.482 39.288 147.047L52.91 156.944C53.687 157.509 53.86 158.596 53.295 159.374L52.749 160.126C53.314 159.347 53.141 158.259 52.364 157.695Z" fill="#494949"/>
<path d="M42.3438 169.157L30.8398 160.799C29.6848 159.96 29.3908 158.397 30.1818 157.308L35.4128 150.108C36.2038 149.019 37.7818 148.816 38.9368 149.655L50.4408 158.013C51.5958 158.852 51.8898 160.415 51.0988 161.505L45.8678 168.705C45.0768 169.793 43.4988 169.996 42.3438 169.157Z" fill="#A9A9A9"/>
<path d="M50.4421 158.012L38.9381 149.654C37.7831 148.815 36.2061 149.018 35.4141 150.107L34.9751 150.711C35.7661 149.622 37.3441 149.419 38.4991 150.258L50.0031 158.616C51.1581 159.455 51.4521 161.018 50.6611 162.107L51.0991 161.503C51.8911 160.414 51.5971 158.85 50.4421 158.012Z" fill="#D4D4D4"/>
<path d="M42.3448 169.157L30.8408 160.799C29.6858 159.96 29.3918 158.397 30.1828 157.308L30.6218 156.704C29.8298 157.793 30.1248 159.357 31.2798 160.196L42.7838 168.554C43.9388 169.393 45.5158 169.19 46.3078 168.101L45.8688 168.704C45.0768 169.793 43.4988 169.996 42.3448 169.157Z" fill="#494949"/>
<path d="M22.9878 162.129C24.2798 161.404 27.4848 159.089 28.3628 159.727L44.1208 171.176C44.9668 171.791 43.7318 175.44 43.4378 176.913L22.9878 162.129Z" fill="#494949"/>
<path d="M42.2758 174.953L25.2838 162.607C24.0068 161.68 22.2198 161.962 21.2928 163.239C20.3648 164.516 20.6478 166.302 21.9248 167.23L38.9168 179.576C40.1938 180.504 41.9808 180.221 42.9078 178.944C43.8358 177.667 43.5528 175.88 42.2758 174.953Z" fill="#686868"/>
<path d="M42.003 175.328L25.011 162.982C23.798 162.1 22.125 162.314 21.166 163.433C21.206 163.367 21.247 163.302 21.293 163.238C22.221 161.961 24.007 161.678 25.284 162.606L42.276 174.952C43.553 175.879 43.836 177.666 42.908 178.943C42.862 179.006 42.812 179.065 42.762 179.124C43.53 177.866 43.216 176.21 42.003 175.328Z" fill="#A8A8A8"/>
<path d="M39.289 179.064L22.297 166.718C21.755 166.324 21.393 165.776 21.226 165.178C20.924 164.097 21.722 162.999 22.843 162.952C23.464 162.926 24.097 163.101 24.639 163.495L41.631 175.841C42.173 176.234 42.535 176.783 42.702 177.381C43.004 178.462 42.206 179.56 41.085 179.607C40.464 179.633 39.831 179.457 39.289 179.064Z" fill="#A8A8A8"/>
<path d="M42.4458 177.258C42.7888 176.785 23.3318 162.649 22.9888 163.122C23.2418 164.258 23.0428 165.632 21.6758 165.776L23.6128 167.244C22.4888 165.921 23.5748 165.683 23.8048 165.391C24.1148 164.997 40.3158 176.763 40.0348 177.183C39.8278 177.492 39.9378 178.598 38.3318 177.938L40.3268 179.327C40.0418 177.983 41.2868 177.369 42.4458 177.258Z" fill="#D4D4D4"/>
<path d="M62.2046 175.634L63.4896 176.081L63.5296 177.541L62.4346 177.663L62.2046 175.634Z" fill="#A8A8A8"/>
<path d="M62.2047 175.634L63.4897 176.081L63.4037 175.388L62.0938 174.261L62.2047 175.634Z" fill="#494949"/>
<path d="M62.2318 179.051C61.9898 179.215 61.6968 179.31 61.3828 179.31C61.3408 179.31 61.2998 179.307 61.2598 179.304C61.2678 179.303 61.2748 179.301 61.2818 179.3C60.4908 179.247 59.8647 178.596 59.8647 177.792V166.63C59.8647 165.826 60.4918 165.175 61.2818 165.122C61.2738 165.121 61.2668 165.119 61.2598 165.118C61.3008 165.115 61.3418 165.112 61.3828 165.112C61.6968 165.112 61.9898 165.208 62.2318 165.371C62.6358 165.644 62.9008 166.106 62.9008 166.63V177.792C62.9008 178.316 62.6348 178.779 62.2318 179.051Z" fill="#494949"/>
<path d="M62.5926 178.288V167.126C62.5926 166.287 61.9126 165.608 61.0746 165.608C60.2356 165.608 59.5566 166.288 59.5566 167.126V178.288C59.5566 179.127 60.2366 179.806 61.0746 179.806C61.9126 179.806 62.5926 179.127 62.5926 178.288Z" fill="#686868"/>
<path d="M62.3457 178.288V167.126C62.3457 166.329 61.7317 165.677 60.9507 165.614C60.9917 165.611 61.0327 165.608 61.0737 165.608C61.9127 165.608 62.5917 166.288 62.5917 167.126V178.288C62.5917 179.127 61.9117 179.806 61.0737 179.806C61.0317 179.806 60.9907 179.803 60.9507 179.8C61.7317 179.737 62.3457 179.085 62.3457 178.288Z" fill="#A8A8A8"/>
<path d="M59.8916 178.288V167.126C59.8916 166.77 60.0136 166.443 60.2186 166.184C60.5896 165.716 61.3106 165.716 61.6806 166.184C61.8856 166.443 62.0076 166.77 62.0076 167.126V178.288C62.0076 178.644 61.8856 178.971 61.6806 179.23C61.3096 179.698 60.5886 179.698 60.2186 179.23C60.0146 178.971 59.8916 178.644 59.8916 178.288Z" fill="#A8A8A8"/>
<path d="M85.0037 175.634L83.7187 176.081L83.6777 177.541L84.7737 177.663L85.0037 175.634Z" fill="#A8A8A8"/>
<path d="M85.0038 175.634L83.7188 176.081L83.8037 175.388L85.1147 174.261L85.0038 175.634Z" fill="#494949"/>
<path d="M84.9766 179.051C85.2186 179.215 85.5116 179.31 85.8256 179.31C85.8676 179.31 85.9086 179.307 85.9486 179.304C85.9406 179.303 85.9336 179.301 85.9266 179.3C86.7166 179.247 87.3436 178.596 87.3436 177.792V166.63C87.3436 165.826 86.7166 165.175 85.9266 165.122C85.9346 165.121 85.9416 165.119 85.9486 165.118C85.9076 165.115 85.8666 165.112 85.8256 165.112C85.5116 165.112 85.2186 165.208 84.9766 165.371C84.5726 165.644 84.3076 166.106 84.3076 166.63V177.792C84.3066 178.316 84.5726 178.779 84.9766 179.051Z" fill="#494949"/>
<path d="M84.6157 178.288V167.126C84.6157 166.287 85.2957 165.608 86.1337 165.608C86.9727 165.608 87.6517 166.288 87.6517 167.126V178.288C87.6517 179.127 86.9717 179.806 86.1337 179.806C85.2947 179.806 84.6157 179.127 84.6157 178.288Z" fill="#686868"/>
<path d="M84.8617 178.288V167.126C84.8617 166.329 85.4757 165.677 86.2567 165.614C86.2157 165.611 86.1747 165.608 86.1337 165.608C85.2947 165.608 84.6157 166.288 84.6157 167.126V178.288C84.6157 179.127 85.2957 179.806 86.1337 179.806C86.1757 179.806 86.2167 179.803 86.2567 179.8C85.4767 179.737 84.8617 179.085 84.8617 178.288Z" fill="#A8A8A8"/>
<path d="M87.3157 178.288V167.126C87.3157 166.77 87.1937 166.443 86.9877 166.184C86.6177 165.716 85.8957 165.716 85.5257 166.184C85.3207 166.443 85.1987 166.77 85.1987 167.126V178.288C85.1987 178.644 85.3207 178.971 85.5257 179.23C85.8967 179.698 86.6177 179.698 86.9877 179.23C87.1937 178.971 87.3157 178.644 87.3157 178.288Z" fill="#A8A8A8"/>
<path d="M83.8237 178.253H63.3057L63.5057 162.652C63.5067 161.691 64.2847 160.913 65.2457 160.913H82.0837C83.0447 160.913 83.8237 161.692 83.8237 162.652V178.253Z" fill="#686868"/>
<path d="M82.0829 162.305H65.2449C64.2839 162.305 63.5059 162.619 63.5049 163.58C63.5059 162.619 64.2839 161.841 65.2449 161.841H82.0829C83.0439 161.841 83.8229 162.62 83.8229 163.58C83.8229 162.62 83.0439 162.305 82.0829 162.305Z" fill="#A8A8A8"/>
<path d="M82.0829 161.841H65.2449C64.2839 161.841 63.5059 162.62 63.5049 163.58V162.651C63.5059 161.69 64.2839 160.912 65.2449 160.912H82.0829C83.0439 160.912 83.8229 161.691 83.8229 162.651V163.58C83.8229 162.62 83.0439 161.841 82.0829 161.841Z" fill="#494949"/>
<path d="M80.7146 177.003H66.4946C65.0676 177.003 63.9106 175.911 63.9106 174.565V165.665C63.9106 164.319 65.0676 163.227 66.4946 163.227H80.7146C82.1416 163.227 83.2986 164.319 83.2986 165.665V174.565C83.2986 175.911 82.1416 177.003 80.7146 177.003Z" fill="#A9A9A9"/>
<path d="M80.7146 163.227H66.4946C65.0676 163.227 63.9106 164.319 63.9106 165.665V166.411C63.9106 165.064 65.0676 163.973 66.4946 163.973H80.7146C82.1416 163.973 83.2986 165.065 83.2986 166.411V165.665C83.2986 164.319 82.1416 163.227 80.7146 163.227Z" fill="#D4D4D4"/>
<path d="M80.7146 177.003H66.4946C65.0676 177.003 63.9106 175.911 63.9106 174.565V173.819C63.9106 175.165 65.0676 176.257 66.4946 176.257H80.7146C82.1416 176.257 83.2986 175.165 83.2986 173.819V174.565C83.2986 175.911 82.1416 177.003 80.7146 177.003Z" fill="#494949"/>
<path d="M60.9238 182.696C61.5428 181.35 62.7748 177.594 63.8608 177.594H83.3398C84.3858 177.594 85.5318 181.273 86.1598 182.637L60.9238 182.696Z" fill="#494949"/>
<path d="M84.0656 181.732H63.0616C61.4836 181.732 60.2046 183.011 60.2046 184.589C60.2046 186.167 61.4836 187.446 63.0616 187.446H84.0656C85.6436 187.446 86.9226 186.167 86.9226 184.589C86.9226 183.012 85.6436 181.732 84.0656 181.732Z" fill="#686868"/>
<path d="M84.0656 182.197H63.0616C61.5616 182.197 60.3346 183.353 60.2156 184.822C60.2096 184.745 60.2036 184.668 60.2036 184.59C60.2036 183.012 61.4826 181.733 63.0606 181.733H84.0646C85.6426 181.733 86.9216 183.012 86.9216 184.59C86.9216 184.668 86.9166 184.745 86.9096 184.822C86.7926 183.353 85.5656 182.197 84.0656 182.197Z" fill="#A8A8A8"/>
<path d="M84.0654 186.814H63.0614C62.3924 186.814 61.7764 186.584 61.2894 186.198C60.4094 185.501 60.4094 184.143 61.2894 183.446C61.7764 183.06 62.3924 182.83 63.0614 182.83H84.0654C84.7344 182.83 85.3504 183.06 85.8374 183.446C86.7174 184.143 86.7174 185.501 85.8374 186.198C85.3504 186.583 84.7354 186.814 84.0654 186.814Z" fill="#A8A8A8"/>
<path d="M85.5588 183.498C85.5588 182.914 61.5088 182.914 61.5088 183.498C62.3808 184.269 63.0278 185.498 62.0068 186.417L64.4368 186.466C62.7498 186.056 63.4888 185.226 63.5028 184.854C63.5218 184.353 83.5448 184.349 83.5648 184.854C83.5788 185.225 84.3188 186.056 82.6308 186.466L85.0608 186.417C84.0398 185.497 84.6868 184.269 85.5588 183.498Z" fill="#D4D4D4"/>
<path d="M73.8517 25.085C46.7607 25.085 24.7207 47.125 24.7207 74.216V113.899C24.7207 140.99 46.7607 163.03 73.8517 163.03C100.943 163.03 122.983 140.99 122.983 113.899V74.216C122.984 47.126 100.943 25.085 73.8517 25.085ZM80.7227 109.492C80.7227 113.281 77.6407 116.363 73.8517 116.363C70.0627 116.363 66.9807 113.281 66.9807 109.492V78.6229C66.9807 74.8339 70.0627 71.752 73.8517 71.752C77.6407 71.752 80.7227 74.8339 80.7227 78.6229V109.492Z" fill="#984626"/>
<path d="M73.8515 26.719C47.6615 26.719 26.3545 48.026 26.3545 74.216V113.899C26.3545 140.089 47.6615 161.396 73.8515 161.396C100.041 161.396 121.348 140.089 121.348 113.899V74.216C121.349 48.027 100.041 26.719 73.8515 26.719ZM81.9935 109.492C81.9935 113.982 78.3415 117.634 73.8515 117.634C69.3625 117.634 65.7095 113.982 65.7095 109.492V78.623C65.7095 74.133 69.3615 70.481 73.8515 70.481C78.3415 70.481 81.9935 74.133 81.9935 78.623V109.492Z" fill="#BF5F3D"/>
<path d="M73.8517 118.588C69.9567 118.588 66.4917 116.12 65.2017 112.67C66.1977 116.611 69.6057 119.541 73.8517 119.541C78.0977 119.541 81.5067 116.611 82.5017 112.67C81.2127 116.12 77.7477 118.588 73.8517 118.588Z" fill="#984626"/>
<path d="M73.8515 160.031C49.5305 160.031 29.6065 141.164 27.7905 117.299C30.1855 140.581 49.9485 158.805 73.8515 158.805C97.7555 158.805 117.519 140.58 119.913 117.299C118.098 141.164 98.1735 160.031 73.8515 160.031Z" fill="#FFC2AD"/>
<path d="M73.8517 69.528C69.9567 69.528 66.4917 71.996 65.2017 75.446C66.1977 71.505 69.6057 68.575 73.8517 68.575C78.0977 68.575 81.5067 71.505 82.5017 75.446C81.2127 71.996 77.7477 69.528 73.8517 69.528Z" fill="#FFC2AD"/>
<path d="M73.8515 28.085C49.5305 28.085 29.6065 46.952 27.7905 70.817C30.1855 47.536 49.9485 29.311 73.8515 29.311C97.7555 29.311 117.519 47.536 119.913 70.817C118.098 46.952 98.1735 28.085 73.8515 28.085Z" fill="#984626"/>
</svg>
