<svg width="126" height="162" viewBox="0 0 126 162" fill="none" xmlns="http://www.w3.org/2000/svg">
<path d="M51.5972 149.201L52.8822 149.647L52.9222 151.108L51.8272 151.23L51.5972 149.201Z" fill="#A8A8A8"/>
<path d="M51.5973 149.201L52.8823 149.647L52.7963 148.955L51.4863 147.828L51.5973 149.201Z" fill="#494949"/>
<path d="M51.6243 152.618C51.3823 152.782 51.0893 152.877 50.7753 152.877C50.7333 152.877 50.6923 152.874 50.6513 152.871C50.6593 152.87 50.6663 152.868 50.6733 152.867C49.8823 152.814 49.2563 152.163 49.2563 151.359V140.197C49.2563 139.393 49.8833 138.742 50.6733 138.689C50.6653 138.688 50.6583 138.686 50.6513 138.685C50.6923 138.682 50.7333 138.679 50.7753 138.679C51.0893 138.679 51.3823 138.775 51.6243 138.938C52.0283 139.211 52.2933 139.673 52.2933 140.197V151.359C52.2933 151.883 52.0273 152.345 51.6243 152.618Z" fill="#494949"/>
<path d="M51.9852 151.855V140.693C51.9852 139.854 51.3052 139.174 50.4672 139.174C49.6282 139.174 48.9492 139.854 48.9492 140.693V151.855C48.9492 152.694 49.6292 153.373 50.4672 153.373C51.3052 153.373 51.9852 152.693 51.9852 151.855Z" fill="#686868"/>
<path d="M51.7383 151.855V140.693C51.7383 139.896 51.1243 139.244 50.3433 139.181C50.3843 139.178 50.4253 139.175 50.4673 139.175C51.3063 139.175 51.9853 139.855 51.9853 140.694V151.856C51.9853 152.695 51.3053 153.374 50.4673 153.374C50.4253 153.374 50.3843 153.371 50.3433 153.368C51.1243 153.304 51.7383 152.652 51.7383 151.855Z" fill="#A8A8A8"/>
<path d="M49.2842 151.855V140.693C49.2842 140.337 49.4062 140.01 49.6112 139.751C49.9822 139.283 50.7032 139.283 51.0732 139.751C51.2782 140.01 51.4012 140.337 51.4012 140.693V151.855C51.4012 152.211 51.2792 152.538 51.0732 152.797C50.7032 153.265 49.9812 153.265 49.6112 152.797C49.4072 152.538 49.2842 152.21 49.2842 151.855Z" fill="#A8A8A8"/>
<path d="M74.3963 149.201L73.1113 149.647L73.0703 151.108L74.1663 151.23L74.3963 149.201Z" fill="#A8A8A8"/>
<path d="M74.3963 149.201L73.1113 149.647L73.1964 148.955L74.5073 147.828L74.3963 149.201Z" fill="#494949"/>
<path d="M74.3692 152.618C74.6112 152.782 74.9042 152.877 75.2182 152.877C75.2602 152.877 75.3002 152.874 75.3412 152.871C75.3332 152.87 75.3262 152.868 75.3192 152.867C76.1102 152.814 76.7362 152.163 76.7362 151.359V140.197C76.7362 139.393 76.1092 138.742 75.3192 138.689C75.3272 138.688 75.3342 138.686 75.3412 138.685C75.3002 138.682 75.2592 138.679 75.2182 138.679C74.9042 138.679 74.6112 138.775 74.3692 138.938C73.9652 139.211 73.7002 139.673 73.7002 140.197V151.359C73.6992 151.883 73.9652 152.345 74.3692 152.618Z" fill="#494949"/>
<path d="M74.0083 151.855V140.693C74.0083 139.854 74.6883 139.174 75.5263 139.174C76.3653 139.174 77.0443 139.854 77.0443 140.693V151.855C77.0443 152.694 76.3643 153.373 75.5263 153.373C74.6873 153.373 74.0083 152.693 74.0083 151.855Z" fill="#686868"/>
<path d="M74.2543 151.855V140.693C74.2543 139.896 74.8683 139.244 75.6493 139.181C75.6083 139.178 75.5673 139.175 75.5263 139.175C74.6873 139.175 74.0083 139.855 74.0083 140.694V151.856C74.0083 152.695 74.6883 153.374 75.5263 153.374C75.5683 153.374 75.6083 153.371 75.6493 153.368C74.8693 153.304 74.2543 152.652 74.2543 151.855Z" fill="#A8A8A8"/>
<path d="M76.7083 151.855V140.693C76.7083 140.337 76.5863 140.01 76.3813 139.751C76.0113 139.283 75.2893 139.283 74.9193 139.751C74.7143 140.01 74.5913 140.337 74.5913 140.693V151.855C74.5913 152.211 74.7133 152.538 74.9193 152.797C75.2893 153.265 76.0113 153.265 76.3813 152.797C76.5863 152.538 76.7083 152.21 76.7083 151.855Z" fill="#A8A8A8"/>
<path d="M73.2162 151.819H52.6982L52.8983 136.218C52.8993 135.257 53.6772 134.479 54.6382 134.479H71.4763C72.4373 134.479 73.2162 135.258 73.2162 136.218V151.819Z" fill="#686868"/>
<path d="M71.4755 135.872H54.6375C53.6765 135.872 52.8985 136.186 52.8975 137.147C52.8985 136.186 53.6765 135.408 54.6375 135.408H71.4755C72.4365 135.408 73.2155 136.187 73.2155 137.147C73.2155 136.186 72.4365 135.872 71.4755 135.872Z" fill="#A8A8A8"/>
<path d="M71.4755 135.407H54.6375C53.6765 135.407 52.8985 136.186 52.8975 137.146V136.217C52.8985 135.256 53.6765 134.478 54.6375 134.478H71.4755C72.4365 134.478 73.2155 135.257 73.2155 136.217V137.146C73.2155 136.186 72.4365 135.407 71.4755 135.407Z" fill="#494949"/>
<path d="M70.1072 150.57H55.8872C54.4602 150.57 53.3032 149.478 53.3032 148.132V139.232C53.3032 137.885 54.4602 136.794 55.8872 136.794H70.1072C71.5342 136.794 72.6912 137.885 72.6912 139.232V148.132C72.6912 149.478 71.5342 150.57 70.1072 150.57Z" fill="#A9A9A9"/>
<path d="M70.1072 136.794H55.8872C54.4602 136.794 53.3032 137.886 53.3032 139.232V139.978C53.3032 138.631 54.4602 137.54 55.8872 137.54H70.1072C71.5342 137.54 72.6912 138.631 72.6912 139.978V139.232C72.6912 137.885 71.5342 136.794 70.1072 136.794Z" fill="#D4D4D4"/>
<path d="M70.1072 150.57H55.8872C54.4602 150.57 53.3032 149.478 53.3032 148.132V147.386C53.3032 148.733 54.4602 149.824 55.8872 149.824H70.1072C71.5342 149.824 72.6912 148.733 72.6912 147.386V148.132C72.6912 149.478 71.5342 150.57 70.1072 150.57Z" fill="#494949"/>
<path d="M50.3164 156.262C50.9354 154.916 52.1674 151.16 53.2534 151.16H72.7324C73.7784 151.16 74.9244 154.839 75.5524 156.202L50.3164 156.262Z" fill="#494949"/>
<path d="M73.4582 155.299H52.4542C50.8762 155.299 49.5972 156.578 49.5972 158.156C49.5972 159.734 50.8762 161.013 52.4542 161.013H73.4582C75.0362 161.013 76.3152 159.734 76.3152 158.156C76.3152 156.578 75.0362 155.299 73.4582 155.299Z" fill="#686868"/>
<path d="M73.4582 155.763H52.4542C50.9542 155.763 49.7272 156.919 49.6082 158.388C49.6022 158.311 49.5962 158.234 49.5962 158.156C49.5962 156.578 50.8752 155.299 52.4532 155.299H73.4572C75.0352 155.299 76.3142 156.578 76.3142 158.156C76.3142 158.234 76.3092 158.311 76.3022 158.388C76.1852 156.919 74.9582 155.763 73.4582 155.763Z" fill="#A8A8A8"/>
<path d="M73.458 160.38H52.454C51.784 160.38 51.169 160.15 50.682 159.764C49.802 159.067 49.802 157.709 50.682 157.012C51.169 156.626 51.784 156.396 52.454 156.396H73.458C74.127 156.396 74.743 156.626 75.23 157.012C76.11 157.709 76.11 159.066 75.23 159.764C74.743 160.15 74.128 160.38 73.458 160.38Z" fill="#A8A8A8"/>
<path d="M74.9514 157.064C74.9514 156.48 50.9014 156.48 50.9014 157.064C51.7734 157.835 52.4204 159.063 51.3984 159.983L53.8284 160.032C52.1414 159.622 52.8804 158.792 52.8944 158.42C52.9134 157.919 72.9364 157.915 72.9564 158.42C72.9704 158.791 73.7104 159.622 72.0224 160.032L74.4524 159.983C73.4324 159.064 74.0794 157.835 74.9514 157.064Z" fill="#D4D4D4"/>
<path d="M51.5972 12.6459L52.8822 12.1999L52.9222 10.7389L51.8272 10.6179L51.5972 12.6459Z" fill="#A8A8A8"/>
<path d="M51.5973 12.646L52.8823 12.2L52.7963 12.8919L51.4863 14.02L51.5973 12.646Z" fill="#494949"/>
<path d="M51.6243 9.22897C51.3823 9.06497 51.0893 8.96997 50.7753 8.96997C50.7333 8.96997 50.6923 8.97297 50.6513 8.97597C50.6593 8.97697 50.6663 8.97897 50.6733 8.97997C49.8823 9.03297 49.2563 9.68397 49.2563 10.488V21.65C49.2563 22.454 49.8833 23.105 50.6733 23.158C50.6653 23.159 50.6583 23.161 50.6513 23.162C50.6923 23.165 50.7333 23.168 50.7753 23.168C51.0893 23.168 51.3823 23.072 51.6243 22.909C52.0283 22.636 52.2933 22.174 52.2933 21.65V10.488C52.2933 9.96397 52.0273 9.50197 51.6243 9.22897Z" fill="#494949"/>
<path d="M51.9852 9.99298V21.155C51.9852 21.994 51.3052 22.674 50.4672 22.674C49.6282 22.674 48.9492 21.994 48.9492 21.155V9.99298C48.9492 9.15398 49.6292 8.47498 50.4672 8.47498C51.3052 8.47398 51.9852 9.15398 51.9852 9.99298Z" fill="#686868"/>
<path d="M51.7383 9.99298V21.155C51.7383 21.952 51.1243 22.604 50.3433 22.667C50.3843 22.67 50.4253 22.673 50.4673 22.673C51.3063 22.673 51.9853 21.993 51.9853 21.154V9.99298C51.9853 9.15398 51.3053 8.47498 50.4673 8.47498C50.4253 8.47498 50.3843 8.47798 50.3433 8.48098C51.1243 8.54298 51.7383 9.19598 51.7383 9.99298Z" fill="#A8A8A8"/>
<path d="M49.2842 9.99295V21.155C49.2842 21.511 49.4062 21.838 49.6112 22.097C49.9822 22.565 50.7032 22.565 51.0732 22.097C51.2782 21.838 51.4012 21.511 51.4012 21.155V9.99295C51.4012 9.63695 51.2792 9.30995 51.0732 9.05095C50.7032 8.58295 49.9812 8.58295 49.6112 9.05095C49.4072 9.30995 49.2842 9.63695 49.2842 9.99295Z" fill="#A8A8A8"/>
<path d="M74.3963 12.6459L73.1113 12.1999L73.0703 10.7389L74.1663 10.6179L74.3963 12.6459Z" fill="#A8A8A8"/>
<path d="M74.3963 12.646L73.1113 12.2L73.1964 12.8919L74.5073 14.02L74.3963 12.646Z" fill="#494949"/>
<path d="M74.3692 9.22897C74.6112 9.06497 74.9042 8.96997 75.2182 8.96997C75.2602 8.96997 75.3002 8.97297 75.3412 8.97597C75.3332 8.97697 75.3262 8.97897 75.3192 8.97997C76.1102 9.03297 76.7362 9.68397 76.7362 10.488V21.65C76.7362 22.454 76.1092 23.105 75.3192 23.158C75.3272 23.159 75.3342 23.161 75.3412 23.162C75.3002 23.165 75.2592 23.168 75.2182 23.168C74.9042 23.168 74.6112 23.072 74.3692 22.909C73.9652 22.636 73.7002 22.174 73.7002 21.65V10.488C73.6992 9.96397 73.9652 9.50197 74.3692 9.22897Z" fill="#494949"/>
<path d="M74.0083 9.99298V21.155C74.0083 21.994 74.6883 22.674 75.5263 22.674C76.3653 22.674 77.0443 21.994 77.0443 21.155V9.99298C77.0443 9.15398 76.3643 8.47498 75.5263 8.47498C74.6873 8.47398 74.0083 9.15398 74.0083 9.99298Z" fill="#686868"/>
<path d="M74.2543 9.99298V21.155C74.2543 21.952 74.8683 22.604 75.6493 22.667C75.6083 22.67 75.5673 22.673 75.5263 22.673C74.6873 22.673 74.0083 21.993 74.0083 21.154V9.99298C74.0083 9.15398 74.6883 8.47498 75.5263 8.47498C75.5683 8.47498 75.6083 8.47798 75.6493 8.48098C74.8693 8.54298 74.2543 9.19598 74.2543 9.99298Z" fill="#A8A8A8"/>
<path d="M76.7083 9.99295V21.155C76.7083 21.511 76.5863 21.838 76.3813 22.097C76.0113 22.565 75.2893 22.565 74.9193 22.097C74.7143 21.838 74.5913 21.511 74.5913 21.155V9.99295C74.5913 9.63695 74.7133 9.30995 74.9193 9.05095C75.2893 8.58295 76.0113 8.58295 76.3813 9.05095C76.5863 9.30995 76.7083 9.63695 76.7083 9.99295Z" fill="#A8A8A8"/>
<path d="M73.2162 10.028H52.6982L52.8983 25.629C52.8993 26.59 53.6772 27.368 54.6382 27.368H71.4763C72.4373 27.368 73.2162 26.589 73.2162 25.629V10.028Z" fill="#686868"/>
<path d="M71.4755 25.9749H54.6375C53.6765 25.9749 52.8985 25.661 52.8975 24.7C52.8985 25.661 53.6765 26.4389 54.6375 26.4389H71.4755C72.4365 26.4389 73.2155 25.66 73.2155 24.7C73.2155 25.661 72.4365 25.9749 71.4755 25.9749Z" fill="#A8A8A8"/>
<path d="M71.4755 26.4399H54.6375C53.6765 26.4399 52.8985 25.661 52.8975 24.701V25.63C52.8985 26.591 53.6765 27.3689 54.6375 27.3689H71.4755C72.4365 27.3689 73.2155 26.59 73.2155 25.63V24.7C73.2155 25.661 72.4365 26.4399 71.4755 26.4399Z" fill="#494949"/>
<path d="M70.1072 11.278H55.8872C54.4602 11.278 53.3032 12.37 53.3032 13.716V22.616C53.3032 23.963 54.4602 25.054 55.8872 25.054H70.1072C71.5342 25.054 72.6912 23.962 72.6912 22.616V13.716C72.6912 12.369 71.5342 11.278 70.1072 11.278Z" fill="#A9A9A9"/>
<path d="M70.1072 25.054H55.8872C54.4602 25.054 53.3032 23.962 53.3032 22.616V21.87C53.3032 23.217 54.4602 24.308 55.8872 24.308H70.1072C71.5342 24.308 72.6912 23.217 72.6912 21.87V22.616C72.6912 23.962 71.5342 25.054 70.1072 25.054Z" fill="#D4D4D4"/>
<path d="M70.1072 11.278H55.8872C54.4602 11.278 53.3032 12.37 53.3032 13.716V14.462C53.3032 13.115 54.4602 12.024 55.8872 12.024H70.1072C71.5342 12.024 72.6912 13.115 72.6912 14.462V13.716C72.6912 12.369 71.5342 11.278 70.1072 11.278Z" fill="#494949"/>
<path d="M50.3164 5.58496C50.9354 6.93096 52.1674 10.687 53.2534 10.687H72.7324C73.7784 10.687 74.9244 7.00796 75.5524 5.64496L50.3164 5.58496Z" fill="#494949"/>
<path d="M73.4582 6.54799H52.4542C50.8762 6.54799 49.5972 5.26899 49.5972 3.69099C49.5972 2.11299 50.8762 0.833984 52.4542 0.833984H73.4582C75.0362 0.833984 76.3152 2.11299 76.3152 3.69099C76.3152 5.26899 75.0362 6.54799 73.4582 6.54799Z" fill="#686868"/>
<path d="M73.4582 6.08398H52.4542C50.9542 6.08398 49.7272 4.92798 49.6082 3.45898C49.6022 3.53598 49.5962 3.61299 49.5962 3.69099C49.5962 5.26899 50.8752 6.54799 52.4532 6.54799H73.4572C75.0352 6.54799 76.3142 5.26899 76.3142 3.69099C76.3142 3.61299 76.3092 3.53598 76.3022 3.45898C76.1852 4.92798 74.9582 6.08398 73.4582 6.08398Z" fill="#A8A8A8"/>
<path d="M73.458 1.46704H52.454C51.784 1.46704 51.169 1.69704 50.682 2.08304C49.802 2.78004 49.802 4.13804 50.682 4.83504C51.169 5.22104 51.784 5.45104 52.454 5.45104H73.458C74.127 5.45104 74.743 5.22104 75.23 4.83504C76.11 4.13804 76.11 2.78004 75.23 2.08304C74.743 1.69704 74.128 1.46704 73.458 1.46704Z" fill="#A8A8A8"/>
<path d="M74.9514 4.78294C74.9514 5.36694 50.9014 5.36694 50.9014 4.78294C51.7734 4.01194 52.4204 2.78394 51.3984 1.86394L53.8284 1.81494C52.1414 2.22394 52.8804 3.05494 52.8944 3.42694C52.9134 3.92794 72.9364 3.93194 72.9564 3.42694C72.9704 3.05594 73.7104 2.22494 72.0224 1.81494L74.4524 1.86394C73.4324 2.78294 74.0794 4.01194 74.9514 4.78294Z" fill="#D4D4D4"/>
<path d="M13.4438 109.866L13.2748 111.215L11.8548 111.559L11.5078 110.513L13.4438 109.866Z" fill="#A8A8A8"/>
<path d="M13.4439 109.866L13.2749 111.215L13.9339 110.988L14.7649 109.472L13.4439 109.866Z" fill="#494949"/>
<path d="M10.1081 110.603C9.89709 110.4 9.7431 110.134 9.6781 109.826C9.6691 109.785 9.66408 109.745 9.65808 109.704C9.66008 109.711 9.66408 109.718 9.66708 109.725C9.55408 108.941 10.0611 108.192 10.8481 108.025L21.7661 105.704C22.5521 105.537 23.3201 106.015 23.5361 106.777C23.5351 106.769 23.5361 106.762 23.5351 106.754C23.5471 106.793 23.5581 106.833 23.5671 106.873C23.6321 107.181 23.6001 107.486 23.4901 107.757C23.3071 108.209 22.9101 108.565 22.3981 108.674L11.4801 110.995C10.9661 111.105 10.4591 110.941 10.1081 110.603Z" fill="#494949"/>
<path d="M10.9301 110.797L21.8481 108.476C22.6681 108.302 23.1921 107.495 23.0181 106.675C22.8441 105.855 22.0371 105.331 21.2171 105.505L10.2991 107.826C9.47907 108 8.95506 108.807 9.12906 109.627C9.30306 110.448 10.1091 110.972 10.9301 110.797Z" fill="#686868"/>
<path d="M10.8779 110.556L21.7959 108.235C22.5759 108.069 23.0859 107.333 22.9849 106.556C22.9969 106.595 23.0079 106.635 23.0169 106.675C23.1909 107.495 22.6679 108.302 21.8469 108.476L10.9289 110.797C10.1089 110.971 9.3019 110.448 9.1279 109.627C9.1189 109.586 9.11391 109.546 9.10791 109.505C9.33291 110.256 10.0989 110.722 10.8779 110.556Z" fill="#A8A8A8"/>
<path d="M10.3678 108.156L21.2858 105.835C21.6338 105.761 21.9788 105.813 22.2748 105.959C22.8088 106.224 22.9588 106.93 22.5788 107.389C22.3688 107.643 22.0738 107.831 21.7258 107.905L10.8078 110.226C10.4598 110.3 10.1148 110.248 9.81883 110.102C9.28483 109.837 9.13485 109.131 9.51485 108.672C9.72485 108.418 10.0198 108.23 10.3678 108.156Z" fill="#A8A8A8"/>
<path d="M18.1849 132.167L17.4809 131.003L16.0439 131.267L16.153 132.363L18.1849 132.167Z" fill="#A8A8A8"/>
<path d="M18.185 132.167L17.481 131.003L18.176 130.942L19.551 131.99L18.185 132.167Z" fill="#494949"/>
<path d="M14.837 132.851C14.727 133.122 14.695 133.428 14.76 133.735C14.769 133.776 14.78 133.815 14.792 133.854C14.791 133.846 14.792 133.839 14.791 133.831C15.007 134.593 15.775 135.071 16.561 134.904L27.479 132.583C28.265 132.416 28.772 131.667 28.66 130.883C28.662 130.89 28.666 130.897 28.669 130.904C28.664 130.863 28.658 130.823 28.649 130.782C28.584 130.474 28.429 130.208 28.219 130.006C27.868 129.668 27.361 129.504 26.848 129.613L15.93 131.934C15.417 132.043 15.02 132.399 14.837 132.851Z" fill="#494949"/>
<path d="M15.508 132.339L26.426 130.018C27.246 129.844 28.053 130.367 28.227 131.188C28.401 132.008 27.878 132.815 27.057 132.989L16.139 135.31C15.319 135.484 14.512 134.961 14.338 134.141C14.164 133.32 14.688 132.513 15.508 132.339Z" fill="#686868"/>
<path d="M15.5599 132.58L26.4779 130.259C27.2579 130.093 28.0229 130.559 28.2469 131.309C28.2419 131.268 28.2359 131.228 28.2269 131.187C28.0529 130.367 27.2459 129.843 26.4259 130.017L15.5079 132.338C14.6879 132.512 14.1639 133.319 14.3389 134.139C14.3479 134.18 14.3589 134.219 14.3709 134.258C14.2699 133.482 14.7799 132.746 15.5599 132.58Z" fill="#A8A8A8"/>
<path d="M16.0701 134.98L26.9881 132.659C27.3361 132.585 27.63 132.397 27.841 132.143C28.221 131.683 28.071 130.978 27.537 130.713C27.241 130.566 26.896 130.514 26.548 130.589L15.6301 132.91C15.2821 132.984 14.9871 133.172 14.7771 133.426C14.3971 133.886 14.547 134.591 15.081 134.856C15.376 135.003 15.7221 135.054 16.0701 134.98Z" fill="#A8A8A8"/>
<path d="M15.3778 131.557L11.1118 111.487L26.4138 108.439C27.3538 108.24 28.2768 108.84 28.4768 109.779L31.9778 126.249C32.1778 127.189 31.5778 128.112 30.6388 128.313L15.3778 131.557Z" fill="#686868"/>
<path d="M30.6149 126.539L27.1139 110.069C26.9139 109.129 26.4449 108.433 25.5049 108.632C26.4449 108.433 27.3679 109.033 27.5679 109.972L31.0689 126.442C31.2689 127.382 30.6689 128.305 29.7299 128.506C30.6699 128.306 30.8149 127.479 30.6149 126.539Z" fill="#A8A8A8"/>
<path d="M31.0699 126.443L27.5688 109.973C27.3688 109.033 26.4459 108.433 25.5059 108.633L26.4149 108.44C27.3549 108.241 28.2778 108.841 28.4778 109.78L31.9789 126.25C32.1789 127.19 31.5789 128.113 30.6399 128.314L29.7308 128.507C30.6698 128.306 31.2689 127.382 31.0699 126.443Z" fill="#494949"/>
<path d="M15.9539 128.256L12.9969 114.347C12.6999 112.951 13.5279 111.592 14.8449 111.312L23.5499 109.462C24.8669 109.182 26.1749 110.087 26.4719 111.483L29.4279 125.392C29.7249 126.788 28.8979 128.147 27.5809 128.427L18.8759 130.277C17.5589 130.557 16.2509 129.652 15.9539 128.256Z" fill="#A9A9A9"/>
<path d="M29.4288 125.392L26.4728 111.483C26.1758 110.087 24.8678 109.182 23.5508 109.462L22.8208 109.617C24.1378 109.337 25.4458 110.242 25.7428 111.638L28.6998 125.547C28.9968 126.943 28.1698 128.302 26.8518 128.582L27.5818 128.427C28.8988 128.147 29.7258 126.788 29.4288 125.392Z" fill="#D4D4D4"/>
<path d="M15.9539 128.256L12.9969 114.347C12.6999 112.951 13.5269 111.592 14.8449 111.312L15.5749 111.157C14.2579 111.437 13.4309 112.796 13.7269 114.192L16.6839 128.101C16.9809 129.497 18.2889 130.402 19.6059 130.122L18.8759 130.277C17.5589 130.557 16.2509 129.652 15.9539 128.256Z" fill="#494949"/>
<path d="M6.271 110.081C7.716 110.407 11.647 110.831 11.873 111.893L15.923 130.946C16.14 131.969 12.781 133.854 11.577 134.753L6.271 110.081Z" fill="#494949"/>
<path d="M12.0249 132.518L7.65789 111.973C7.32989 110.429 5.81291 109.444 4.26891 109.772C2.72491 110.1 1.73989 111.617 2.06789 113.161L6.43489 133.706C6.76289 135.25 8.2799 136.235 9.8239 135.907C11.3679 135.578 12.3529 134.061 12.0249 132.518Z" fill="#686868"/>
<path d="M11.5709 132.614L7.20392 112.069C6.89192 110.602 5.50592 109.642 4.04492 109.831C4.11892 109.809 4.1929 109.788 4.2699 109.771C5.8139 109.443 7.33091 110.428 7.65891 111.972L12.0259 132.517C12.3539 134.061 11.3689 135.578 9.82492 135.906C9.74792 135.922 9.67191 135.933 9.59491 135.943C11.0069 135.522 11.8819 134.081 11.5709 132.614Z" fill="#A8A8A8"/>
<path d="M7.05494 133.574L2.68794 113.029C2.54894 112.374 2.64595 111.724 2.92195 111.168C3.42095 110.162 4.74896 109.88 5.61396 110.596C6.09296 110.992 6.44594 111.546 6.58494 112.201L10.9519 132.746C11.0909 133.401 10.9939 134.051 10.7179 134.607C10.2189 135.613 8.89095 135.895 8.02595 135.179C7.54695 134.783 7.19394 134.229 7.05494 133.574Z" fill="#A8A8A8"/>
<path d="M10.608 134.345C11.179 134.224 6.17897 110.699 5.60797 110.82C5.03497 111.833 3.96796 112.722 2.85596 111.914L3.31296 114.301C3.36296 112.566 4.32898 113.116 4.69498 113.053C5.18898 112.968 9.35597 132.552 8.86597 132.676C8.50597 132.767 7.84697 133.663 7.09497 132.098L7.64798 134.465C8.33698 133.275 9.67297 133.652 10.608 134.345Z" fill="#D4D4D4"/>
<path d="M107.809 29.6809L108.512 30.8439L109.95 30.5809L109.841 29.4839L107.809 29.6809Z" fill="#A8A8A8"/>
<path d="M107.808 29.6809L108.511 30.8439L107.817 30.9049L106.441 29.8569L107.808 29.6809Z" fill="#494949"/>
<path d="M111.156 28.9959C111.266 28.7249 111.298 28.4189 111.233 28.1119C111.224 28.0709 111.213 28.0319 111.201 27.9929C111.202 28.0009 111.201 28.0079 111.202 28.0159C110.986 27.2539 110.219 26.7759 109.432 26.9429L98.5143 29.2639C97.7283 29.4309 97.2213 30.1799 97.3333 30.9639C97.3313 30.9569 97.3273 30.9499 97.3253 30.9429C97.3303 30.9839 97.3363 31.0239 97.3453 31.0649C97.4103 31.3729 97.5653 31.6389 97.7753 31.8419C98.1263 32.1799 98.6333 32.3439 99.1463 32.2349L110.064 29.9139C110.576 29.8039 110.973 29.4479 111.156 28.9959Z" fill="#494949"/>
<path d="M110.484 29.5079L99.5663 31.8289C98.7463 32.0029 97.9393 31.4799 97.7653 30.6589C97.5913 29.8389 98.1143 29.0319 98.9353 28.8579L109.853 26.5369C110.673 26.3629 111.48 26.8859 111.654 27.7069C111.828 28.5279 111.305 29.3339 110.484 29.5079Z" fill="#686868"/>
<path d="M110.433 29.267L99.5151 31.588C98.7351 31.754 97.9701 31.288 97.7461 30.538C97.7511 30.579 97.7571 30.619 97.7661 30.66C97.9401 31.48 98.7471 32.004 99.5671 31.83L110.485 29.509C111.305 29.335 111.829 28.528 111.654 27.708C111.645 27.667 111.634 27.628 111.622 27.589C111.723 28.365 111.212 29.101 110.433 29.267Z" fill="#A8A8A8"/>
<path d="M109.924 26.867L99.0055 29.1879C98.6575 29.2619 98.3625 29.4499 98.1525 29.7039C97.7725 30.1639 97.9225 30.8689 98.4565 31.1339C98.7525 31.2809 99.0975 31.3319 99.4455 31.2589L110.364 28.9379C110.712 28.8639 111.007 28.676 111.217 28.422C111.597 27.962 111.447 27.257 110.913 26.991C110.617 26.845 110.272 26.793 109.924 26.867Z" fill="#A8A8A8"/>
<path d="M112.548 51.981L112.717 50.632L114.138 50.288L114.484 51.335L112.548 51.981Z" fill="#A8A8A8"/>
<path d="M112.548 51.981L112.717 50.632L112.058 50.859L111.228 52.376L112.548 51.981Z" fill="#494949"/>
<path d="M115.885 51.2449C116.096 51.4479 116.25 51.7139 116.315 52.0219C116.324 52.0629 116.329 52.1029 116.335 52.1439C116.333 52.1369 116.329 52.1299 116.326 52.1229C116.439 52.9069 115.932 53.6559 115.145 53.8229L104.227 56.1439C103.441 56.3109 102.673 55.8329 102.457 55.0709C102.458 55.0789 102.457 55.0859 102.458 55.0939C102.446 55.0549 102.435 55.0149 102.426 54.9749C102.361 54.6669 102.393 54.3619 102.503 54.0909C102.686 53.6389 103.083 53.2829 103.595 53.1739L114.513 50.8529C115.027 50.7429 115.534 50.9059 115.885 51.2449Z" fill="#494949"/>
<path d="M115.063 51.05L104.145 53.371C103.325 53.545 102.801 54.352 102.975 55.172C103.149 55.992 103.956 56.516 104.776 56.342L115.694 54.021C116.514 53.847 117.038 53.04 116.864 52.22C116.69 51.399 115.883 50.876 115.063 51.05Z" fill="#686868"/>
<path d="M115.114 51.291L104.196 53.612C103.416 53.778 102.906 54.514 103.007 55.291C102.995 55.252 102.984 55.212 102.975 55.172C102.801 54.352 103.324 53.545 104.145 53.371L115.063 51.05C115.883 50.876 116.69 51.399 116.864 52.22C116.873 52.261 116.878 52.301 116.884 52.342C116.66 51.591 115.894 51.126 115.114 51.291Z" fill="#A8A8A8"/>
<path d="M115.624 53.691L104.706 56.012C104.358 56.086 104.013 56.034 103.717 55.888C103.183 55.623 103.032 54.917 103.413 54.458C103.624 54.204 103.918 54.016 104.266 53.942L115.184 51.621C115.532 51.547 115.877 51.599 116.173 51.745C116.707 52.01 116.857 52.716 116.477 53.176C116.267 53.43 115.972 53.617 115.624 53.691Z" fill="#A8A8A8"/>
<path d="M114.864 50.283L110.598 30.213L95.3791 33.652C94.4391 33.852 93.8401 34.776 94.0391 35.716L97.5401 52.186C97.7401 53.126 98.6631 53.726 99.6031 53.526L114.864 50.283Z" fill="#686868"/>
<path d="M98.9034 51.896L95.4024 35.426C95.2024 34.486 95.3483 33.659 96.2873 33.459C95.3473 33.659 94.7483 34.583 94.9473 35.523L98.4483 51.993C98.6483 52.933 99.5713 53.533 100.511 53.333C99.5723 53.532 99.1034 52.836 98.9034 51.896Z" fill="#A8A8A8"/>
<path d="M98.4491 51.993L94.9481 35.523C94.7481 34.583 95.3481 33.66 96.2881 33.459L95.3791 33.652C94.4391 33.852 93.8401 34.776 94.0391 35.716L97.5401 52.186C97.7401 53.126 98.6631 53.726 99.6031 53.526L100.512 53.333C99.5721 53.532 98.6481 52.933 98.4491 51.993Z" fill="#494949"/>
<path d="M112.995 47.501L110.038 33.592C109.741 32.196 108.433 31.291 107.116 31.571L98.411 33.421C97.094 33.701 96.267 35.06 96.563 36.456L99.519 50.365C99.816 51.761 101.124 52.666 102.441 52.386L111.146 50.536C112.465 50.256 113.292 48.897 112.995 47.501Z" fill="#A9A9A9"/>
<path d="M99.5203 50.366L96.5643 36.457C96.2673 35.061 97.0943 33.702 98.4123 33.422L99.1423 33.267C97.8253 33.547 96.9983 34.906 97.2953 36.302L100.251 50.211C100.548 51.607 101.856 52.512 103.173 52.232L102.443 52.387C101.125 52.666 99.8173 51.762 99.5203 50.366Z" fill="#D4D4D4"/>
<path d="M112.995 47.501L110.038 33.592C109.741 32.196 108.433 31.291 107.116 31.571L106.386 31.726C107.703 31.446 109.011 32.351 109.308 33.747L112.265 47.656C112.562 49.052 111.735 50.411 110.417 50.691L111.147 50.536C112.465 50.256 113.292 48.897 112.995 47.501Z" fill="#494949"/>
<path d="M114.448 26.96C113.26 27.846 109.842 29.832 110.068 30.894L114.118 49.947C114.335 50.97 118.172 51.326 119.637 51.657L114.448 26.96Z" fill="#494949"/>
<path d="M118.318 49.796L113.951 29.251C113.623 27.707 114.608 26.19 116.152 25.862C117.695 25.534 119.213 26.519 119.541 28.063L123.908 48.608C124.236 50.152 123.251 51.669 121.707 51.997C120.163 52.325 118.646 51.34 118.318 49.796Z" fill="#686868"/>
<path d="M118.772 49.6999L114.405 29.1549C114.093 27.6879 114.969 26.2469 116.381 25.8259C116.304 25.8359 116.228 25.8469 116.151 25.8629C114.607 26.1909 113.622 27.7079 113.95 29.2519L118.317 49.7969C118.645 51.3409 120.162 52.3259 121.706 51.9979C121.783 51.9819 121.857 51.9599 121.931 51.9379C120.47 52.1269 119.084 51.1669 118.772 49.6999Z" fill="#A8A8A8"/>
<path d="M123.288 48.74L118.921 28.195C118.782 27.54 118.429 26.986 117.95 26.59C117.085 25.874 115.757 26.157 115.258 27.162C114.982 27.718 114.884 28.368 115.024 29.023L119.391 49.568C119.53 50.223 119.883 50.777 120.362 51.173C121.227 51.889 122.555 51.607 123.054 50.601C123.33 50.045 123.427 49.395 123.288 48.74Z" fill="#A8A8A8"/>
<path d="M120.355 50.8889C119.784 51.0099 114.783 27.4859 115.355 27.3639C116.29 28.0569 117.627 28.4339 118.314 27.2439L118.867 29.6109C118.116 28.0459 117.457 28.9419 117.096 29.0329C116.61 29.1559 120.769 48.7419 121.267 48.6559C121.633 48.5929 122.6 49.1429 122.649 47.4079L123.106 49.7949C121.995 48.9879 120.928 49.8759 120.355 50.8889Z" fill="#D4D4D4"/>
<path d="M13.4438 51.903L13.2748 50.554L11.8548 50.21L11.5078 51.257L13.4438 51.903Z" fill="#A8A8A8"/>
<path d="M13.4439 51.903L13.2749 50.554L13.9339 50.781L14.7649 52.298L13.4439 51.903Z" fill="#494949"/>
<path d="M10.1081 51.1669C9.89709 51.3699 9.7431 51.6359 9.6781 51.9429C9.6691 51.9839 9.66408 52.0239 9.65808 52.0649C9.66008 52.0579 9.66408 52.0509 9.66708 52.0439C9.55408 52.8279 10.0611 53.5769 10.8481 53.7439L21.7661 56.0649C22.5521 56.2319 23.3201 55.7539 23.5361 54.9919C23.5351 54.9999 23.5361 55.0069 23.5351 55.0149C23.5471 54.9759 23.5581 54.9359 23.5671 54.8959C23.6321 54.5879 23.6001 54.2829 23.4901 54.0119C23.3071 53.5599 22.9101 53.2039 22.3981 53.0949L11.4801 50.7739C10.9661 50.6649 10.4591 50.8279 10.1081 51.1669Z" fill="#494949"/>
<path d="M10.9301 50.972L21.8481 53.293C22.6681 53.467 23.1921 54.274 23.0181 55.094C22.8441 55.914 22.0371 56.438 21.2171 56.264L10.2991 53.943C9.47907 53.769 8.95506 52.962 9.12906 52.142C9.30306 51.321 10.1091 50.798 10.9301 50.972Z" fill="#686868"/>
<path d="M10.8779 51.213L21.7959 53.534C22.5759 53.7 23.0859 54.436 22.9849 55.213C22.9969 55.174 23.0079 55.134 23.0169 55.094C23.1909 54.274 22.6679 53.467 21.8469 53.293L10.9289 50.972C10.1089 50.798 9.3019 51.321 9.1279 52.142C9.1189 52.183 9.11391 52.223 9.10791 52.264C9.33291 51.513 10.0989 51.048 10.8779 51.213Z" fill="#A8A8A8"/>
<path d="M10.3678 53.6129L21.2858 55.9339C21.6338 56.0079 21.9788 55.9559 22.2748 55.8099C22.8088 55.5449 22.9588 54.8389 22.5788 54.3799C22.3688 54.1259 22.0738 53.9379 21.7258 53.8639L10.8078 51.5429C10.4598 51.4689 10.1148 51.5209 9.81883 51.6679C9.28483 51.9329 9.13485 52.6389 9.51485 53.0979C9.72485 53.3519 10.0198 53.5389 10.3678 53.6129Z" fill="#A8A8A8"/>
<path d="M18.1849 29.603L17.4809 30.766L16.0439 30.502L16.153 29.406L18.1849 29.603Z" fill="#A8A8A8"/>
<path d="M18.185 29.603L17.481 30.766L18.176 30.827L19.551 29.779L18.185 29.603Z" fill="#494949"/>
<path d="M14.837 28.918C14.727 28.647 14.695 28.341 14.76 28.034C14.769 27.993 14.78 27.954 14.792 27.915C14.791 27.923 14.792 27.93 14.791 27.938C15.007 27.176 15.775 26.698 16.561 26.865L27.479 29.186C28.265 29.353 28.772 30.102 28.66 30.886C28.662 30.879 28.666 30.872 28.669 30.865C28.664 30.906 28.658 30.946 28.649 30.987C28.584 31.295 28.429 31.561 28.219 31.764C27.868 32.102 27.361 32.266 26.848 32.157L15.93 29.836C15.417 29.726 15.02 29.37 14.837 28.918Z" fill="#494949"/>
<path d="M15.5079 29.431L26.4259 31.752C27.2459 31.926 28.0529 31.403 28.2269 30.582C28.4009 29.762 27.8779 28.955 27.0569 28.781L16.1399 26.46C15.3199 26.286 14.5129 26.809 14.3389 27.63C14.1639 28.45 14.6879 29.256 15.5079 29.431Z" fill="#686868"/>
<path d="M15.5599 29.189L26.4779 31.51C27.2579 31.676 28.0229 31.21 28.2469 30.46C28.2419 30.501 28.2359 30.541 28.2269 30.582C28.0529 31.402 27.2459 31.926 26.4259 31.752L15.5079 29.431C14.6879 29.257 14.1639 28.45 14.3389 27.63C14.3479 27.589 14.3589 27.55 14.3709 27.511C14.2699 28.287 14.7799 29.023 15.5599 29.189Z" fill="#A8A8A8"/>
<path d="M16.0701 26.789L26.9881 29.11C27.3361 29.184 27.63 29.372 27.841 29.626C28.221 30.086 28.071 30.791 27.537 31.057C27.241 31.204 26.896 31.255 26.548 31.182L15.6301 28.86C15.2821 28.786 14.9871 28.598 14.7771 28.344C14.3971 27.884 14.547 27.179 15.081 26.914C15.376 26.767 15.7221 26.715 16.0701 26.789Z" fill="#A8A8A8"/>
<path d="M15.3778 30.213L11.1118 50.283L26.4138 53.331C27.3538 53.53 28.2768 52.93 28.4768 51.991L31.9778 35.521C32.1778 34.581 31.5778 33.658 30.6388 33.457L15.3778 30.213Z" fill="#686868"/>
<path d="M30.6149 35.2301L27.1139 51.7001C26.9139 52.6401 26.4449 53.3361 25.5049 53.1371C26.4449 53.3361 27.3679 52.7361 27.5679 51.7971L31.0689 35.3271C31.2689 34.3871 30.6689 33.4641 29.7299 33.2631C30.6699 33.4631 30.8149 34.2901 30.6149 35.2301Z" fill="#A8A8A8"/>
<path d="M31.0699 35.3271L27.5688 51.7971C27.3688 52.7371 26.4459 53.3371 25.5059 53.1371L26.4149 53.3301C27.3549 53.5291 28.2778 52.9291 28.4778 51.9901L31.9789 35.5201C32.1789 34.5801 31.5789 33.6571 30.6399 33.4561L29.7308 33.2631C30.6698 33.4631 31.2689 34.3871 31.0699 35.3271Z" fill="#494949"/>
<path d="M15.9539 33.513L12.9969 47.422C12.6999 48.818 13.5279 50.177 14.8449 50.457L23.5499 52.307C24.8669 52.587 26.1749 51.682 26.4719 50.286L29.4279 36.377C29.7249 34.981 28.8979 33.622 27.5809 33.342L18.8759 31.492C17.5589 31.212 16.2509 32.117 15.9539 33.513Z" fill="#A9A9A9"/>
<path d="M29.4288 36.378L26.4728 50.287C26.1758 51.683 24.8678 52.588 23.5508 52.308L22.8208 52.153C24.1378 52.433 25.4458 51.528 25.7428 50.132L28.6998 36.223C28.9968 34.827 28.1698 33.468 26.8518 33.188L27.5818 33.343C28.8988 33.623 29.7258 34.981 29.4288 36.378Z" fill="#D4D4D4"/>
<path d="M15.9539 33.513L12.9969 47.422C12.6999 48.818 13.5269 50.177 14.8449 50.457L15.5749 50.612C14.2579 50.332 13.4309 48.973 13.7269 47.577L16.6839 33.668C16.9809 32.272 18.2889 31.367 19.6059 31.647L18.8759 31.492C17.5589 31.212 16.2509 32.117 15.9539 33.513Z" fill="#494949"/>
<path d="M6.271 51.688C7.716 51.362 11.647 50.938 11.873 49.876L15.923 30.823C16.14 29.8 12.781 27.914 11.577 27.016L6.271 51.688Z" fill="#494949"/>
<path d="M12.0249 29.252L7.65789 49.797C7.32989 51.34 5.81291 52.326 4.26891 51.998C2.72491 51.67 1.73989 50.153 2.06789 48.609L6.43489 28.064C6.76289 26.521 8.2799 25.535 9.8239 25.863C11.3679 26.191 12.3529 27.708 12.0249 29.252Z" fill="#686868"/>
<path d="M11.5709 29.155L7.20392 49.7C6.89192 51.167 5.50592 52.1271 4.04492 51.9381C4.11892 51.9601 4.1929 51.9821 4.2699 51.9981C5.8139 52.3261 7.33091 51.341 7.65891 49.797L12.0259 29.252C12.3539 27.708 11.3689 26.191 9.82492 25.863C9.74792 25.847 9.67191 25.836 9.59491 25.826C11.0069 26.247 11.8819 27.688 11.5709 29.155Z" fill="#A8A8A8"/>
<path d="M7.05494 28.195L2.68794 48.74C2.54894 49.395 2.64595 50.045 2.92195 50.601C3.42095 51.607 4.74896 51.889 5.61396 51.173C6.09296 50.777 6.44594 50.223 6.58494 49.568L10.9519 29.023C11.0909 28.368 10.9939 27.718 10.7179 27.162C10.2189 26.156 8.89095 25.874 8.02595 26.59C7.54695 26.986 7.19394 27.54 7.05494 28.195Z" fill="#A8A8A8"/>
<path d="M10.608 27.4251C11.179 27.5461 6.17897 51.0711 5.60797 50.9501C5.03497 49.9361 3.96796 49.0481 2.85596 49.8561L3.31296 47.4691C3.36296 49.2051 4.32898 48.6541 4.69498 48.7171C5.18898 48.8021 9.35597 29.2181 8.86597 29.0941C8.50597 29.0031 7.84697 28.1071 7.09497 29.6721L7.64798 27.3051C8.33698 28.4951 9.67297 28.1181 10.608 27.4251Z" fill="#D4D4D4"/>
<path d="M107.809 132.089L108.512 130.925L109.95 131.189L109.841 132.286L107.809 132.089Z" fill="#A8A8A8"/>
<path d="M107.808 132.089L108.511 130.925L107.817 130.864L106.441 131.912L107.808 132.089Z" fill="#494949"/>
<path d="M111.156 132.773C111.266 133.044 111.298 133.35 111.233 133.657C111.224 133.698 111.213 133.737 111.201 133.776C111.202 133.768 111.201 133.761 111.202 133.753C110.986 134.515 110.219 134.993 109.432 134.826L98.5143 132.505C97.7283 132.338 97.2213 131.589 97.3333 130.805C97.3313 130.812 97.3273 130.819 97.3253 130.826C97.3303 130.785 97.3363 130.745 97.3453 130.704C97.4103 130.396 97.5653 130.13 97.7753 129.927C98.1263 129.589 98.6333 129.425 99.1463 129.534L110.064 131.855C110.576 131.965 110.973 132.321 111.156 132.773Z" fill="#494949"/>
<path d="M110.484 132.261L99.5663 129.94C98.7463 129.766 97.9393 130.289 97.7653 131.11C97.5913 131.93 98.1143 132.737 98.9353 132.911L109.853 135.232C110.673 135.406 111.48 134.883 111.654 134.062C111.828 133.242 111.305 132.435 110.484 132.261Z" fill="#686868"/>
<path d="M110.433 132.502L99.5151 130.181C98.7351 130.015 97.9701 130.481 97.7461 131.231C97.7511 131.19 97.7571 131.15 97.7661 131.109C97.9401 130.289 98.7471 129.765 99.5671 129.939L110.485 132.26C111.305 132.434 111.829 133.241 111.654 134.061C111.645 134.102 111.634 134.141 111.622 134.181C111.723 133.404 111.212 132.668 110.433 132.502Z" fill="#A8A8A8"/>
<path d="M109.924 134.902L99.0055 132.581C98.6575 132.507 98.3625 132.319 98.1525 132.065C97.7725 131.605 97.9225 130.9 98.4565 130.635C98.7525 130.488 99.0975 130.436 99.4455 130.511L110.364 132.832C110.712 132.906 111.007 133.094 111.217 133.348C111.597 133.808 111.447 134.513 110.913 134.778C110.617 134.925 110.272 134.976 109.924 134.902Z" fill="#A8A8A8"/>
<path d="M112.548 109.788L112.717 111.138L114.138 111.481L114.484 110.435L112.548 109.788Z" fill="#A8A8A8"/>
<path d="M112.548 109.788L112.717 111.138L112.058 110.91L111.228 109.394L112.548 109.788Z" fill="#494949"/>
<path d="M115.885 110.525C116.096 110.322 116.25 110.056 116.315 109.748C116.324 109.707 116.329 109.667 116.335 109.626C116.333 109.633 116.329 109.64 116.326 109.647C116.439 108.863 115.932 108.114 115.145 107.947L104.227 105.626C103.441 105.459 102.673 105.937 102.457 106.699C102.458 106.691 102.457 106.684 102.458 106.676C102.446 106.715 102.435 106.755 102.426 106.796C102.361 107.104 102.393 107.409 102.503 107.68C102.686 108.132 103.083 108.488 103.595 108.597L114.513 110.918C115.027 111.027 115.534 110.863 115.885 110.525Z" fill="#494949"/>
<path d="M115.063 110.719L104.145 108.398C103.325 108.224 102.801 107.417 102.975 106.597C103.149 105.777 103.956 105.253 104.776 105.427L115.694 107.748C116.514 107.922 117.038 108.729 116.864 109.549C116.69 110.37 115.883 110.894 115.063 110.719Z" fill="#686868"/>
<path d="M115.114 110.478L104.196 108.157C103.416 107.991 102.906 107.255 103.007 106.478C102.995 106.517 102.984 106.557 102.975 106.597C102.801 107.417 103.324 108.224 104.145 108.398L115.063 110.719C115.883 110.893 116.69 110.37 116.864 109.549C116.873 109.508 116.878 109.468 116.884 109.427C116.66 110.178 115.894 110.644 115.114 110.478Z" fill="#A8A8A8"/>
<path d="M115.624 108.078L104.706 105.757C104.358 105.683 104.013 105.735 103.717 105.882C103.183 106.147 103.032 106.853 103.413 107.312C103.624 107.566 103.918 107.754 104.266 107.828L115.184 110.149C115.532 110.223 115.877 110.171 116.173 110.024C116.707 109.759 116.857 109.053 116.477 108.594C116.267 108.34 115.972 108.152 115.624 108.078Z" fill="#A8A8A8"/>
<path d="M114.864 111.487L110.598 131.557L95.3791 128.118C94.4391 127.918 93.8401 126.994 94.0391 126.054L97.5401 109.584C97.7401 108.644 98.6631 108.044 99.6031 108.244L114.864 111.487Z" fill="#686868"/>
<path d="M98.9034 109.873L95.4024 126.343C95.2024 127.283 95.3483 128.11 96.2873 128.31C95.3473 128.11 94.7483 127.186 94.9473 126.246L98.4483 109.776C98.6483 108.836 99.5713 108.236 100.511 108.436C99.5723 108.237 99.1034 108.933 98.9034 109.873Z" fill="#A8A8A8"/>
<path d="M98.4491 109.777L94.9481 126.247C94.7481 127.187 95.3481 128.11 96.2881 128.311L95.3791 128.118C94.4391 127.918 93.8401 126.994 94.0391 126.054L97.5401 109.584C97.7401 108.644 98.6631 108.044 99.6031 108.244L100.512 108.437C99.5721 108.237 98.6481 108.837 98.4491 109.777Z" fill="#494949"/>
<path d="M112.995 114.268L110.038 128.177C109.741 129.573 108.433 130.478 107.116 130.198L98.411 128.348C97.094 128.068 96.267 126.709 96.563 125.313L99.519 111.404C99.816 110.008 101.124 109.103 102.441 109.383L111.146 111.233C112.465 111.513 113.292 112.872 112.995 114.268Z" fill="#A9A9A9"/>
<path d="M99.5203 111.404L96.5643 125.313C96.2673 126.709 97.0943 128.068 98.4123 128.348L99.1423 128.503C97.8253 128.223 96.9983 126.864 97.2953 125.468L100.251 111.559C100.548 110.163 101.856 109.258 103.173 109.538L102.443 109.383C101.125 109.103 99.8173 110.008 99.5203 111.404Z" fill="#D4D4D4"/>
<path d="M112.995 114.268L110.038 128.177C109.741 129.573 108.433 130.478 107.116 130.198L106.386 130.043C107.703 130.323 109.011 129.418 109.308 128.022L112.265 114.113C112.562 112.717 111.735 111.358 110.417 111.078L111.147 111.233C112.465 111.513 113.292 112.872 112.995 114.268Z" fill="#494949"/>
<path d="M114.448 134.809C113.26 133.923 109.842 131.937 110.068 130.875L114.118 111.822C114.335 110.799 118.172 110.443 119.637 110.112L114.448 134.809Z" fill="#494949"/>
<path d="M118.318 111.973L113.951 132.518C113.623 134.062 114.608 135.579 116.152 135.907C117.695 136.235 119.213 135.25 119.541 133.706L123.908 113.161C124.236 111.617 123.251 110.1 121.707 109.772C120.163 109.444 118.646 110.429 118.318 111.973Z" fill="#686868"/>
<path d="M118.772 112.069L114.405 132.614C114.093 134.081 114.969 135.522 116.381 135.943C116.304 135.933 116.228 135.923 116.151 135.906C114.607 135.578 113.622 134.061 113.95 132.517L118.317 111.972C118.645 110.428 120.162 109.443 121.706 109.771C121.783 109.787 121.857 109.809 121.931 109.831C120.47 109.642 119.084 110.603 118.772 112.069Z" fill="#A8A8A8"/>
<path d="M123.288 113.029L118.921 133.574C118.782 134.229 118.429 134.783 117.95 135.179C117.085 135.895 115.757 135.613 115.258 134.607C114.982 134.051 114.884 133.401 115.024 132.746L119.391 112.201C119.53 111.546 119.883 110.992 120.362 110.596C121.227 109.88 122.555 110.162 123.054 111.168C123.33 111.725 123.427 112.374 123.288 113.029Z" fill="#A8A8A8"/>
<path d="M120.355 110.88C119.784 110.759 114.783 134.283 115.355 134.405C116.29 133.712 117.627 133.335 118.314 134.525L118.867 132.158C118.116 133.723 117.457 132.827 117.096 132.736C116.61 132.613 120.769 113.027 121.267 113.113C121.633 113.176 122.6 112.626 122.649 114.361L123.106 111.974C121.995 112.781 120.928 111.893 120.355 110.88Z" fill="#D4D4D4"/>
<path d="M12.6242 69.524L12.1772 70.809L10.7172 70.85L10.5952 69.754L12.6242 69.524Z" fill="#A8A8A8"/>
<path d="M12.6242 69.524L12.1772 70.809L12.8702 70.724L13.9973 69.413L12.6242 69.524Z" fill="#494949"/>
<path d="M9.20724 69.551C9.04324 69.309 8.94824 69.016 8.94824 68.702C8.94824 68.66 8.95125 68.619 8.95425 68.579C8.95525 68.587 8.95725 68.594 8.95825 68.601C9.01125 67.811 9.66225 67.184 10.4662 67.184H21.6282C22.4322 67.184 23.0832 67.811 23.1362 68.601C23.1372 68.593 23.1393 68.586 23.1403 68.579C23.1433 68.62 23.1462 68.661 23.1462 68.702C23.1462 69.017 23.0502 69.309 22.8872 69.551C22.6142 69.955 22.1522 70.22 21.6282 70.22H10.4662C9.94225 70.22 9.48024 69.955 9.20724 69.551Z" fill="#494949"/>
<path d="M9.97015 69.912H21.1321C21.9711 69.912 22.6501 69.232 22.6501 68.393C22.6501 67.554 21.9701 66.875 21.1321 66.875H9.97015C9.13115 66.875 8.45215 67.555 8.45215 68.393C8.45215 69.232 9.13115 69.912 9.97015 69.912Z" fill="#686868"/>
<path d="M9.97015 69.665H21.1321C21.9291 69.665 22.5812 69.051 22.6442 68.27C22.6472 68.311 22.6501 68.352 22.6501 68.393C22.6501 69.232 21.9701 69.912 21.1321 69.912H9.97015C9.13115 69.912 8.45215 69.232 8.45215 68.393C8.45215 68.351 8.45516 68.31 8.45816 68.27C8.52116 69.051 9.17315 69.665 9.97015 69.665Z" fill="#A8A8A8"/>
<path d="M9.97023 67.212H21.1322C21.4882 67.212 21.8152 67.334 22.0742 67.539C22.5422 67.909 22.5422 68.631 22.0742 69.001C21.8152 69.206 21.4882 69.328 21.1322 69.328H9.97023C9.61423 69.328 9.28725 69.205 9.02825 69.001C8.56025 68.631 8.56025 67.909 9.02825 67.539C9.28725 67.334 9.61423 67.212 9.97023 67.212Z" fill="#A8A8A8"/>
<path d="M12.6242 92.323L12.1772 91.038L10.7172 90.998L10.5952 92.093L12.6242 92.323Z" fill="#A8A8A8"/>
<path d="M12.6242 92.3231L12.1772 91.0381L12.8702 91.1241L13.9973 92.4341L12.6242 92.3231Z" fill="#494949"/>
<path d="M9.20724 92.2961C9.04324 92.5381 8.94824 92.8311 8.94824 93.1451C8.94824 93.1871 8.95125 93.2281 8.95425 93.2681C8.95525 93.2601 8.95725 93.2531 8.95825 93.2461C9.01125 94.0371 9.66225 94.6631 10.4662 94.6631H21.6282C22.4322 94.6631 23.0832 94.0361 23.1362 93.2461C23.1372 93.2541 23.1393 93.2611 23.1403 93.2681C23.1433 93.2271 23.1462 93.1861 23.1462 93.1451C23.1462 92.8311 23.0502 92.5381 22.8872 92.2961C22.6142 91.8921 22.1522 91.6261 21.6282 91.6261H10.4662C9.94225 91.6271 9.48024 91.8921 9.20724 92.2961Z" fill="#494949"/>
<path d="M9.97015 91.9351H21.1321C21.9711 91.9351 22.6501 92.6151 22.6501 93.4541C22.6501 94.2931 21.9701 94.9731 21.1321 94.9731H9.97015C9.13115 94.9731 8.45215 94.2931 8.45215 93.4541C8.45215 92.6151 9.13115 91.9351 9.97015 91.9351Z" fill="#686868"/>
<path d="M9.97015 92.1821H21.1321C21.9291 92.1821 22.5812 92.7961 22.6442 93.5771C22.6472 93.5361 22.6501 93.4951 22.6501 93.4541C22.6501 92.6151 21.9701 91.9351 21.1321 91.9351H9.97015C9.13115 91.9351 8.45215 92.6151 8.45215 93.4541C8.45215 93.4961 8.45516 93.5371 8.45816 93.5771C8.52116 92.7961 9.17315 92.1821 9.97015 92.1821Z" fill="#A8A8A8"/>
<path d="M9.97023 94.635H21.1322C21.4882 94.635 21.8152 94.513 22.0742 94.308C22.5422 93.938 22.5422 93.216 22.0742 92.846C21.8152 92.641 21.4882 92.519 21.1322 92.519H9.97023C9.61423 92.519 9.28725 92.641 9.02825 92.846C8.56025 93.217 8.56025 93.938 9.02825 94.308C9.28725 94.513 9.61423 94.635 9.97023 94.635Z" fill="#A8A8A8"/>
<path d="M10.0049 91.143V70.625L25.6059 70.825C26.5669 70.825 27.3449 71.604 27.3449 72.565V89.403C27.3449 90.364 26.5659 91.143 25.6059 91.143H10.0049Z" fill="#686868"/>
<path d="M25.9527 89.403V72.565C25.9527 71.604 25.6387 70.825 24.6777 70.825C25.6387 70.825 26.4167 71.604 26.4167 72.565V89.403C26.4167 90.364 25.6377 91.143 24.6777 91.143C25.6377 91.143 25.9527 90.364 25.9527 89.403Z" fill="#A8A8A8"/>
<path d="M26.4167 89.403V72.565C26.4167 71.604 25.6377 70.825 24.6777 70.825H25.6067C26.5677 70.825 27.3457 71.604 27.3457 72.565V89.403C27.3457 90.364 26.5667 91.143 25.6067 91.143H24.6777C25.6377 91.143 26.4167 90.364 26.4167 89.403Z" fill="#494949"/>
<path d="M11.2549 88.034V73.814C11.2549 72.387 12.3469 71.23 13.6929 71.23H22.5929C23.9399 71.23 25.0309 72.387 25.0309 73.814V88.034C25.0309 89.461 23.9399 90.618 22.5929 90.618H13.6929C12.3469 90.618 11.2549 89.461 11.2549 88.034Z" fill="#A9A9A9"/>
<path d="M25.0307 88.034V73.814C25.0307 72.387 23.9387 71.23 22.5927 71.23H21.8467C23.1937 71.23 24.2847 72.387 24.2847 73.814V88.034C24.2847 89.461 23.1937 90.618 21.8467 90.618H22.5927C23.9387 90.618 25.0307 89.461 25.0307 88.034Z" fill="#D4D4D4"/>
<path d="M11.2549 88.034V73.814C11.2549 72.387 12.3469 71.23 13.6929 71.23H14.4389C13.0919 71.23 12.0009 72.387 12.0009 73.814V88.034C12.0009 89.461 13.0919 90.618 14.4389 90.618H13.6929C12.3459 90.618 11.2549 89.461 11.2549 88.034Z" fill="#494949"/>
<path d="M5.56299 68.243C6.90899 68.862 10.665 70.094 10.665 71.18V90.659C10.665 91.705 6.98599 92.851 5.62299 93.479L5.56299 68.243Z" fill="#494949"/>
<path d="M6.526 91.386V70.382C6.526 68.804 5.24701 67.525 3.66901 67.525C2.09101 67.525 0.812012 68.804 0.812012 70.382V91.386C0.812012 92.964 2.09101 94.243 3.66901 94.243C5.24601 94.243 6.526 92.964 6.526 91.386Z" fill="#686868"/>
<path d="M6.06104 91.386V70.382C6.06104 68.882 4.90504 67.655 3.43604 67.537C3.51304 67.531 3.59003 67.525 3.66803 67.525C5.24603 67.525 6.52502 68.804 6.52502 70.382V91.386C6.52502 92.964 5.24603 94.243 3.66803 94.243C3.59003 94.243 3.51304 94.237 3.43604 94.231C4.90504 94.113 6.06104 92.885 6.06104 91.386Z" fill="#A8A8A8"/>
<path d="M1.44385 91.3861V70.3821C1.44385 69.7131 1.67384 69.0971 2.05984 68.6101C2.75684 67.7301 4.11486 67.7301 4.81186 68.6101C5.19786 69.0971 5.42786 69.7121 5.42786 70.3821V91.3861C5.42786 92.0561 5.19786 92.6711 4.81186 93.1581C4.11486 94.0381 2.75684 94.0381 2.05984 93.1581C1.67384 92.6711 1.44385 92.0551 1.44385 91.3861Z" fill="#A8A8A8"/>
<path d="M4.76001 92.878C5.34401 92.878 5.34401 68.828 4.76001 68.828C3.98901 69.7 2.761 70.347 1.841 69.326L1.79199 71.756C2.20099 70.069 3.03199 70.808 3.40399 70.822C3.90499 70.841 3.90899 90.864 3.40399 90.884C3.03299 90.898 2.20199 91.638 1.79199 89.95L1.841 92.38C2.761 91.359 3.98901 92.006 4.76001 92.878Z" fill="#D4D4D4"/>
<path d="M113.369 69.524L113.815 70.809L115.276 70.85L115.397 69.754L113.369 69.524Z" fill="#A8A8A8"/>
<path d="M113.369 69.524L113.815 70.809L113.123 70.724L111.996 69.413L113.369 69.524Z" fill="#494949"/>
<path d="M116.786 69.551C116.95 69.309 117.045 69.016 117.045 68.702C117.045 68.66 117.042 68.619 117.039 68.579C117.038 68.587 117.036 68.594 117.035 68.601C116.982 67.811 116.331 67.184 115.527 67.184H104.365C103.561 67.184 102.91 67.811 102.857 68.601C102.856 68.593 102.854 68.586 102.853 68.579C102.85 68.62 102.847 68.661 102.847 68.702C102.847 69.017 102.943 69.309 103.106 69.551C103.379 69.955 103.841 70.22 104.365 70.22H115.527C116.051 70.22 116.513 69.955 116.786 69.551Z" fill="#494949"/>
<path d="M116.022 69.912H104.86C104.021 69.912 103.341 69.232 103.341 68.393C103.341 67.554 104.021 66.875 104.86 66.875H116.022C116.861 66.875 117.54 67.555 117.54 68.393C117.541 69.232 116.861 69.912 116.022 69.912Z" fill="#686868"/>
<path d="M116.022 69.665H104.86C104.063 69.665 103.411 69.051 103.348 68.27C103.345 68.311 103.342 68.352 103.342 68.393C103.342 69.232 104.022 69.912 104.861 69.912H116.023C116.862 69.912 117.541 69.232 117.541 68.393C117.541 68.351 117.538 68.31 117.535 68.27C117.472 69.051 116.819 69.665 116.022 69.665Z" fill="#A8A8A8"/>
<path d="M116.022 67.212H104.86C104.504 67.212 104.177 67.334 103.918 67.539C103.45 67.909 103.45 68.631 103.918 69.001C104.177 69.206 104.504 69.328 104.86 69.328H116.022C116.378 69.328 116.705 69.205 116.964 69.001C117.432 68.631 117.432 67.909 116.964 67.539C116.705 67.334 116.378 67.212 116.022 67.212Z" fill="#A8A8A8"/>
<path d="M113.369 92.323L113.815 91.038L115.276 90.998L115.397 92.093L113.369 92.323Z" fill="#A8A8A8"/>
<path d="M113.369 92.3231L113.815 91.0381L113.123 91.1241L111.996 92.4341L113.369 92.3231Z" fill="#494949"/>
<path d="M116.786 92.2961C116.95 92.5381 117.045 92.8311 117.045 93.1451C117.045 93.1871 117.042 93.2281 117.039 93.2681C117.038 93.2601 117.036 93.2531 117.035 93.2461C116.982 94.0371 116.331 94.6631 115.527 94.6631H104.365C103.561 94.6631 102.91 94.0361 102.857 93.2461C102.856 93.2541 102.854 93.2611 102.853 93.2681C102.85 93.2271 102.847 93.1861 102.847 93.1451C102.847 92.8311 102.943 92.5381 103.106 92.2961C103.379 91.8921 103.841 91.6261 104.365 91.6261H115.527C116.051 91.6271 116.513 91.8921 116.786 92.2961Z" fill="#494949"/>
<path d="M116.022 91.9351H104.86C104.021 91.9351 103.341 92.6151 103.341 93.4541C103.341 94.2931 104.021 94.9731 104.86 94.9731H116.022C116.861 94.9731 117.54 94.2931 117.54 93.4541C117.541 92.6151 116.861 91.9351 116.022 91.9351Z" fill="#686868"/>
<path d="M116.022 92.1821H104.86C104.063 92.1821 103.411 92.7961 103.348 93.5771C103.345 93.5361 103.342 93.4951 103.342 93.4541C103.342 92.6151 104.022 91.9351 104.861 91.9351H116.023C116.862 91.9351 117.541 92.6151 117.541 93.4541C117.541 93.4961 117.538 93.5371 117.535 93.5771C117.472 92.7961 116.819 92.1821 116.022 92.1821Z" fill="#A8A8A8"/>
<path d="M116.022 94.635H104.86C104.504 94.635 104.177 94.513 103.918 94.308C103.45 93.938 103.45 93.216 103.918 92.846C104.177 92.641 104.504 92.519 104.86 92.519H116.022C116.378 92.519 116.705 92.641 116.964 92.846C117.432 93.217 117.432 93.938 116.964 94.308C116.705 94.513 116.378 94.635 116.022 94.635Z" fill="#A8A8A8"/>
<path d="M115.987 91.143V70.625L100.386 70.825C99.425 70.825 98.647 71.604 98.647 72.565V89.403C98.647 90.364 99.426 91.143 100.386 91.143H115.987Z" fill="#686868"/>
<path d="M100.04 89.403V72.565C100.04 71.604 100.354 70.825 101.315 70.825C100.354 70.825 99.5762 71.604 99.5762 72.565V89.403C99.5762 90.364 100.355 91.143 101.315 91.143C100.354 91.143 100.04 90.364 100.04 89.403Z" fill="#A8A8A8"/>
<path d="M99.575 89.403V72.565C99.575 71.604 100.354 70.825 101.314 70.825H100.385C99.424 70.825 98.646 71.604 98.646 72.565V89.403C98.646 90.364 99.425 91.143 100.385 91.143H101.314C100.354 91.143 99.575 90.364 99.575 89.403Z" fill="#494949"/>
<path d="M114.738 88.034V73.814C114.738 72.387 113.646 71.23 112.3 71.23H103.4C102.053 71.23 100.962 72.387 100.962 73.814V88.034C100.962 89.461 102.054 90.618 103.4 90.618H112.3C113.646 90.618 114.738 89.461 114.738 88.034Z" fill="#A9A9A9"/>
<path d="M100.961 88.034V73.814C100.961 72.387 102.053 71.23 103.399 71.23H104.145C102.798 71.23 101.707 72.387 101.707 73.814V88.034C101.707 89.461 102.799 90.618 104.145 90.618H103.4C102.053 90.618 100.961 89.461 100.961 88.034Z" fill="#D4D4D4"/>
<path d="M114.738 88.034V73.814C114.738 72.387 113.646 71.23 112.3 71.23H111.554C112.901 71.23 113.992 72.387 113.992 73.814V88.034C113.992 89.461 112.901 90.618 111.554 90.618H112.3C113.646 90.618 114.738 89.461 114.738 88.034Z" fill="#494949"/>
<path d="M120.43 68.243C119.084 68.862 115.328 70.094 115.328 71.18V90.659C115.328 91.705 119.007 92.851 120.371 93.479L120.43 68.243Z" fill="#494949"/>
<path d="M119.467 91.386V70.382C119.467 68.804 120.746 67.525 122.324 67.525C123.902 67.525 125.181 68.804 125.181 70.382V91.386C125.181 92.964 123.902 94.243 122.324 94.243C120.746 94.243 119.467 92.964 119.467 91.386Z" fill="#686868"/>
<path d="M119.931 91.386V70.382C119.931 68.882 121.087 67.655 122.556 67.537C122.479 67.531 122.402 67.525 122.324 67.525C120.746 67.525 119.467 68.804 119.467 70.382V91.386C119.467 92.964 120.746 94.243 122.324 94.243C122.402 94.243 122.479 94.237 122.556 94.231C121.087 94.113 119.931 92.885 119.931 91.386Z" fill="#A8A8A8"/>
<path d="M124.548 91.3861V70.3821C124.548 69.7131 124.318 69.0971 123.932 68.6101C123.235 67.7301 121.877 67.7301 121.18 68.6101C120.794 69.0971 120.564 69.7121 120.564 70.3821V91.3861C120.564 92.0561 120.794 92.6711 121.18 93.1581C121.877 94.0381 123.235 94.0381 123.932 93.1581C124.318 92.6711 124.548 92.0551 124.548 91.3861Z" fill="#A8A8A8"/>
<path d="M121.232 92.878C120.648 92.878 120.648 68.828 121.232 68.828C122.003 69.7 123.231 70.347 124.151 69.326L124.2 71.756C123.79 70.069 122.96 70.808 122.588 70.822C122.087 70.841 122.083 90.864 122.588 90.884C122.959 90.898 123.79 91.638 124.2 89.95L124.151 92.38C123.232 91.359 122.003 92.006 121.232 92.878Z" fill="#D4D4D4"/>
<path d="M62.9961 22.7319C54.9371 22.7319 46.7211 23.5399 38.5771 25.1339C33.8201 26.0649 30.1741 29.7439 29.2861 34.5079C23.4671 65.7409 23.4671 96.1069 29.2861 127.34C30.1731 132.104 33.8201 135.783 38.5771 136.714C46.7211 138.308 54.9371 139.116 62.9971 139.116C71.0561 139.116 79.2721 138.308 87.4161 136.714C92.1731 135.783 95.8191 132.104 96.7071 127.34C102.526 96.1069 102.526 65.7409 96.7071 34.5069C95.8191 29.7429 92.1731 26.0639 87.4161 25.1329C79.2711 23.5399 71.0551 22.7319 62.9961 22.7319ZM62.9961 110.966C61.2831 110.966 59.8901 109.573 59.8901 107.86V53.9869C59.8901 52.2739 61.2831 50.8809 62.9961 50.8809C64.7091 50.8809 66.1021 52.2739 66.1021 53.9869V107.86C66.1021 109.573 64.7091 110.966 62.9961 110.966Z" fill="#984626"/>
<path d="M87.129 26.5959C79.041 25.0129 71.018 24.2219 62.996 24.2219C54.973 24.2219 46.951 25.0129 38.863 26.5959C34.739 27.4029 31.521 30.6489 30.751 34.7799C24.967 65.8229 24.966 96.0149 30.751 127.066C31.521 131.197 34.739 134.443 38.863 135.25C46.951 136.833 54.974 137.624 62.996 137.624C71.019 137.624 79.041 136.833 87.129 135.25C91.253 134.443 94.471 131.197 95.241 127.066C101.026 96.0139 101.025 65.8229 95.241 34.7789C94.471 30.6489 91.253 27.4029 87.129 26.5959ZM67.593 107.86C67.593 110.399 65.535 112.457 62.996 112.457C60.457 112.457 58.399 110.399 58.399 107.86V53.9869C58.399 51.4479 60.457 49.3899 62.996 49.3899C65.535 49.3899 67.593 51.4479 67.593 53.9869V107.86Z" fill="#BF5F3D"/>
<path d="M62.996 48.3469C66.106 48.3469 68.636 50.8769 68.636 53.9869V52.8689C68.636 49.7589 66.106 47.2289 62.996 47.2289C59.886 47.2289 57.356 49.7589 57.356 52.8689V53.9869C57.356 50.8769 59.886 48.3469 62.996 48.3469Z" fill="#FFC2AD"/>
<path d="M86.9293 133.109C78.9453 134.671 70.8933 135.463 62.9973 135.463C55.1003 135.463 47.0483 134.671 39.0643 133.109C35.3343 132.379 32.4743 130.053 31.7783 126.316C32.4743 130.052 35.3343 133.497 39.0643 134.227C47.0483 135.789 55.1003 136.581 62.9973 136.581C70.8933 136.581 78.9453 135.789 86.9293 134.227C90.6593 133.497 93.5203 130.052 94.2163 126.316C93.5193 130.052 90.6593 132.378 86.9293 133.109Z" fill="#FFC2AD"/>
<path d="M62.996 113.082C66.106 113.082 68.636 110.552 68.636 107.442V108.56C68.636 111.67 66.106 114.2 62.996 114.2C59.886 114.2 57.356 111.67 57.356 108.56V107.442C57.356 110.551 59.886 113.082 62.996 113.082Z" fill="#984626"/>
<path d="M86.9293 28.3199C78.9453 26.7579 70.8933 25.9659 62.9973 25.9659C55.1003 25.9659 47.0483 26.7579 39.0643 28.3199C35.3343 29.0499 32.4743 31.3759 31.7783 35.1119C32.4743 31.3759 35.3343 27.9309 39.0643 27.2009C47.0483 25.6389 55.1003 24.8469 62.9973 24.8469C70.8933 24.8469 78.9453 25.6389 86.9293 27.2009C90.6593 27.9309 93.5203 31.3759 94.2163 35.1119C93.5193 31.3759 90.6593 29.0499 86.9293 28.3199Z" fill="#984626"/>
</svg>
