<svg width="233" height="125" viewBox="0 0 233 125" fill="none" xmlns="http://www.w3.org/2000/svg">
<path d="M12.529 51.615L12.083 52.9L10.622 52.94L10.501 51.845L12.529 51.615Z" fill="#A8A8A8"/>
<path d="M12.529 51.615L12.083 52.9L12.775 52.814L13.902 51.504L12.529 51.615Z" fill="#494949"/>
<path d="M9.11203 51.6421C8.94803 51.4001 8.85303 51.1071 8.85303 50.7931C8.85303 50.7511 8.85603 50.7101 8.85903 50.6691C8.86003 50.6771 8.86203 50.6841 8.86303 50.6911C8.91603 49.9001 9.56703 49.274 10.371 49.274H21.533C22.337 49.274 22.988 49.9011 23.041 50.6911C23.042 50.6831 23.044 50.6761 23.045 50.6691C23.048 50.7101 23.051 50.7511 23.051 50.7931C23.051 51.1071 22.955 51.4001 22.792 51.6421C22.519 52.0461 22.057 52.3111 21.533 52.3111H10.371C9.84703 52.3111 9.38503 52.0461 9.11203 51.6421Z" fill="#494949"/>
<path d="M9.87593 52.003H21.0379C21.8769 52.003 22.5569 51.323 22.5569 50.485C22.5569 49.646 21.8769 48.967 21.0379 48.967H9.87593C9.03693 48.967 8.35693 49.647 8.35693 50.485C8.35693 51.323 9.03693 52.003 9.87593 52.003Z" fill="#686868"/>
<path d="M9.87493 51.7561H21.0369C21.8339 51.7561 22.4859 51.1421 22.5489 50.3611C22.5519 50.4021 22.5549 50.4431 22.5549 50.4841C22.5549 51.3231 21.8749 52.0021 21.0359 52.0021H9.87493C9.03593 52.0021 8.35693 51.3221 8.35693 50.4841C8.35693 50.4421 8.35993 50.4011 8.36293 50.3611C8.42593 51.1421 9.07893 51.7561 9.87493 51.7561Z" fill="#A8A8A8"/>
<path d="M9.87503 49.302H21.037C21.393 49.302 21.72 49.424 21.979 49.629C22.447 50 22.447 50.721 21.979 51.091C21.72 51.296 21.393 51.419 21.037 51.419H9.87503C9.51903 51.419 9.19203 51.297 8.93303 51.091C8.46503 50.721 8.46503 49.999 8.93303 49.629C9.19303 49.425 9.52003 49.302 9.87503 49.302Z" fill="#A8A8A8"/>
<path d="M12.529 74.414L12.083 73.129L10.622 73.088L10.501 74.184L12.529 74.414Z" fill="#A8A8A8"/>
<path d="M12.529 74.414L12.083 73.129L12.775 73.214L13.902 74.525L12.529 74.414Z" fill="#494949"/>
<path d="M9.11203 74.387C8.94803 74.629 8.85303 74.922 8.85303 75.236C8.85303 75.278 8.85603 75.318 8.85903 75.359C8.86003 75.351 8.86203 75.344 8.86303 75.337C8.91603 76.128 9.56703 76.754 10.371 76.754H21.533C22.337 76.754 22.988 76.127 23.041 75.337C23.042 75.345 23.044 75.352 23.045 75.359C23.048 75.318 23.051 75.277 23.051 75.236C23.051 74.922 22.955 74.629 22.792 74.387C22.519 73.983 22.057 73.718 21.533 73.718H10.371C9.84703 73.718 9.38503 73.983 9.11203 74.387Z" fill="#494949"/>
<path d="M9.87593 74.026H21.0379C21.8769 74.026 22.5569 74.706 22.5569 75.544C22.5569 76.383 21.8769 77.062 21.0379 77.062H9.87593C9.03693 77.062 8.35693 76.382 8.35693 75.544C8.35693 74.706 9.03693 74.026 9.87593 74.026Z" fill="#686868"/>
<path d="M9.87493 74.272H21.0369C21.8339 74.272 22.4859 74.886 22.5489 75.667C22.5519 75.626 22.5549 75.585 22.5549 75.543C22.5549 74.704 21.8749 74.025 21.0359 74.025H9.87493C9.03593 74.025 8.35693 74.705 8.35693 75.543C8.35693 75.585 8.35993 75.626 8.36293 75.667C8.42593 74.887 9.07893 74.272 9.87493 74.272Z" fill="#A8A8A8"/>
<path d="M9.87503 76.726H21.037C21.393 76.726 21.72 76.604 21.979 76.399C22.447 76.028 22.447 75.307 21.979 74.937C21.72 74.732 21.393 74.609 21.037 74.609H9.87503C9.51903 74.609 9.19203 74.731 8.93303 74.937C8.46503 75.307 8.46503 76.029 8.93303 76.399C9.19303 76.604 9.52003 76.726 9.87503 76.726Z" fill="#A8A8A8"/>
<path d="M9.91064 73.2341V52.7161L25.5116 52.916C26.4726 52.917 27.2506 53.6951 27.2506 54.6561V71.494C27.2506 72.455 26.4716 73.2341 25.5116 73.2341H9.91064Z" fill="#686868"/>
<path d="M25.8575 71.494V54.656C25.8575 53.695 25.5435 52.916 24.5825 52.916C25.5435 52.917 26.3215 53.695 26.3215 54.656V71.494C26.3215 72.455 25.5425 73.234 24.5825 73.234C25.5435 73.233 25.8575 72.454 25.8575 71.494Z" fill="#A8A8A8"/>
<path d="M26.3225 71.494V54.656C26.3225 53.695 25.5435 52.916 24.5835 52.916H25.5125C26.4735 52.917 27.2515 53.695 27.2515 54.656V71.494C27.2515 72.455 26.4725 73.234 25.5125 73.234H24.5835C25.5435 73.233 26.3225 72.454 26.3225 71.494Z" fill="#494949"/>
<path d="M11.1597 70.125V55.905C11.1597 54.478 12.2517 53.321 13.5977 53.321H22.4977C23.8447 53.321 24.9357 54.478 24.9357 55.905V70.125C24.9357 71.552 23.8437 72.709 22.4977 72.709H13.5977C12.2517 72.709 11.1597 71.552 11.1597 70.125Z" fill="#A9A9A9"/>
<path d="M24.9364 70.125V55.905C24.9364 54.478 23.8444 53.321 22.4984 53.321H21.7524C23.0994 53.321 24.1904 54.478 24.1904 55.905V70.125C24.1904 71.552 23.0994 72.709 21.7524 72.709H22.4984C23.8444 72.709 24.9364 71.552 24.9364 70.125Z" fill="#D4D4D4"/>
<path d="M11.1597 70.125V55.905C11.1597 54.478 12.2517 53.321 13.5977 53.321H14.3437C12.9967 53.321 11.9057 54.478 11.9057 55.905V70.125C11.9057 71.552 12.9967 72.709 14.3437 72.709H13.5977C12.2517 72.709 11.1597 71.552 11.1597 70.125Z" fill="#494949"/>
<path d="M5.46777 50.334C6.81377 50.953 10.5698 52.185 10.5698 53.271V72.749C10.5698 73.795 6.89077 74.94 5.52777 75.569L5.46777 50.334Z" fill="#494949"/>
<path d="M6.4308 73.476V52.472C6.4308 50.894 5.1518 49.615 3.5738 49.615C1.9958 49.615 0.716797 50.894 0.716797 52.472V73.476C0.716797 75.054 1.9958 76.333 3.5738 76.333C5.1518 76.334 6.4308 75.054 6.4308 73.476Z" fill="#686868"/>
<path d="M5.9668 73.476V52.472C5.9668 50.972 4.8108 49.745 3.3418 49.626C3.4188 49.62 3.4958 49.614 3.5738 49.614C5.1518 49.614 6.4308 50.893 6.4308 52.471V73.475C6.4308 75.053 5.1518 76.332 3.5738 76.332C3.4958 76.332 3.4188 76.327 3.3418 76.32C4.8108 76.203 5.9668 74.976 5.9668 73.476Z" fill="#A8A8A8"/>
<path d="M1.34961 73.476V52.472C1.34961 51.802 1.57961 51.187 1.96561 50.7C2.66261 49.82 4.02061 49.82 4.71761 50.7C5.10361 51.187 5.33361 51.802 5.33361 52.472V73.476C5.33361 74.145 5.10361 74.761 4.71761 75.248C4.02061 76.128 2.66261 76.128 1.96561 75.248C1.57961 74.761 1.34961 74.146 1.34961 73.476Z" fill="#A8A8A8"/>
<path d="M4.66575 74.9691C5.24975 74.9691 5.24975 50.9191 4.66575 50.9191C3.89475 51.7911 2.66675 52.438 1.74675 51.416L1.69775 53.8461C2.10775 52.1591 2.93775 52.898 3.30975 52.912C3.81075 52.931 3.81475 72.9541 3.30975 72.9741C2.93875 72.9881 2.10775 73.7281 1.69775 72.0401L1.74675 74.4701C2.66575 73.4501 3.89475 74.0971 4.66575 74.9691Z" fill="#D4D4D4"/>
<path d="M221.149 51.615L221.595 52.9L223.055 52.94L223.177 51.845L221.149 51.615Z" fill="#A8A8A8"/>
<path d="M221.149 51.615L221.595 52.9L220.903 52.814L219.775 51.504L221.149 51.615Z" fill="#494949"/>
<path d="M224.566 51.6421C224.73 51.4001 224.825 51.1071 224.825 50.7931C224.825 50.7511 224.822 50.7101 224.819 50.6691C224.818 50.6771 224.816 50.6841 224.815 50.6911C224.762 49.9001 224.111 49.274 223.307 49.274H212.145C211.341 49.274 210.69 49.9011 210.637 50.6911C210.636 50.6831 210.634 50.6761 210.633 50.6691C210.63 50.7101 210.627 50.7511 210.627 50.7931C210.627 51.1071 210.723 51.4001 210.886 51.6421C211.159 52.0461 211.621 52.3111 212.145 52.3111H223.307C223.831 52.3111 224.293 52.0461 224.566 51.6421Z" fill="#494949"/>
<path d="M223.802 52.003H212.64C211.801 52.003 211.121 51.323 211.121 50.485C211.121 49.646 211.801 48.967 212.64 48.967H223.802C224.641 48.967 225.32 49.647 225.32 50.485C225.321 51.323 224.641 52.003 223.802 52.003Z" fill="#686868"/>
<path d="M223.802 51.7561H212.64C211.843 51.7561 211.191 51.1421 211.128 50.3611C211.125 50.4021 211.122 50.4431 211.122 50.4841C211.122 51.3231 211.802 52.0021 212.641 52.0021H223.803C224.642 52.0021 225.321 51.3221 225.321 50.4841C225.321 50.4421 225.318 50.4011 225.315 50.3611C225.251 51.1421 224.599 51.7561 223.802 51.7561Z" fill="#A8A8A8"/>
<path d="M223.802 49.302H212.64C212.284 49.302 211.957 49.424 211.698 49.629C211.23 50 211.23 50.721 211.698 51.091C211.957 51.296 212.284 51.419 212.64 51.419H223.802C224.158 51.419 224.485 51.297 224.744 51.091C225.212 50.721 225.212 49.999 224.744 49.629C224.485 49.425 224.158 49.302 223.802 49.302Z" fill="#A8A8A8"/>
<path d="M221.149 74.414L221.595 73.129L223.055 73.088L223.177 74.184L221.149 74.414Z" fill="#A8A8A8"/>
<path d="M221.149 74.414L221.595 73.129L220.903 73.214L219.775 74.525L221.149 74.414Z" fill="#494949"/>
<path d="M224.566 74.387C224.73 74.629 224.825 74.922 224.825 75.236C224.825 75.278 224.822 75.318 224.819 75.359C224.818 75.351 224.816 75.344 224.815 75.337C224.762 76.128 224.111 76.754 223.307 76.754H212.145C211.341 76.754 210.69 76.127 210.637 75.337C210.636 75.345 210.634 75.352 210.633 75.359C210.63 75.318 210.627 75.277 210.627 75.236C210.627 74.922 210.723 74.629 210.886 74.387C211.159 73.983 211.621 73.718 212.145 73.718H223.307C223.831 73.718 224.293 73.983 224.566 74.387Z" fill="#494949"/>
<path d="M223.802 74.026H212.64C211.801 74.026 211.121 74.706 211.121 75.544C211.121 76.383 211.801 77.062 212.64 77.062H223.802C224.641 77.062 225.32 76.382 225.32 75.544C225.321 74.706 224.641 74.026 223.802 74.026Z" fill="#686868"/>
<path d="M223.802 74.272H212.64C211.843 74.272 211.191 74.886 211.128 75.667C211.125 75.626 211.122 75.585 211.122 75.543C211.122 74.704 211.802 74.025 212.641 74.025H223.803C224.642 74.025 225.321 74.705 225.321 75.543C225.321 75.585 225.318 75.626 225.315 75.667C225.251 74.887 224.599 74.272 223.802 74.272Z" fill="#A8A8A8"/>
<path d="M223.802 76.726H212.64C212.284 76.726 211.957 76.604 211.698 76.399C211.23 76.028 211.23 75.307 211.698 74.937C211.957 74.732 212.284 74.609 212.64 74.609H223.802C224.158 74.609 224.485 74.731 224.744 74.937C225.212 75.307 225.212 76.029 224.744 76.399C224.485 76.604 224.158 76.726 223.802 76.726Z" fill="#A8A8A8"/>
<path d="M223.767 73.2341V52.7161L208.166 52.916C207.205 52.917 206.427 53.6951 206.427 54.6561V71.494C206.427 72.455 207.206 73.2341 208.166 73.2341H223.767Z" fill="#686868"/>
<path d="M207.82 71.494V54.656C207.82 53.695 208.134 52.916 209.095 52.916C208.134 52.917 207.356 53.695 207.356 54.656V71.494C207.356 72.455 208.135 73.234 209.095 73.234C208.134 73.233 207.82 72.454 207.82 71.494Z" fill="#A8A8A8"/>
<path d="M207.355 71.494V54.656C207.355 53.695 208.134 52.916 209.094 52.916H208.165C207.204 52.917 206.426 53.695 206.426 54.656V71.494C206.426 72.455 207.205 73.234 208.165 73.234H209.094C208.134 73.233 207.355 72.454 207.355 71.494Z" fill="#494949"/>
<path d="M222.517 70.125V55.905C222.517 54.478 221.425 53.321 220.079 53.321H211.179C209.832 53.321 208.741 54.478 208.741 55.905V70.125C208.741 71.552 209.833 72.709 211.179 72.709H220.079C221.426 72.709 222.517 71.552 222.517 70.125Z" fill="#A9A9A9"/>
<path d="M208.741 70.125V55.905C208.741 54.478 209.833 53.321 211.179 53.321H211.925C210.578 53.321 209.487 54.478 209.487 55.905V70.125C209.487 71.552 210.578 72.709 211.925 72.709H211.179C209.833 72.709 208.741 71.552 208.741 70.125Z" fill="#D4D4D4"/>
<path d="M222.517 70.125V55.905C222.517 54.478 221.425 53.321 220.079 53.321H219.333C220.68 53.321 221.771 54.478 221.771 55.905V70.125C221.771 71.552 220.679 72.709 219.333 72.709H220.079C221.426 72.709 222.517 71.552 222.517 70.125Z" fill="#494949"/>
<path d="M228.21 50.334C226.864 50.953 223.108 52.185 223.108 53.271V72.749C223.108 73.795 226.787 74.94 228.15 75.569L228.21 50.334Z" fill="#494949"/>
<path d="M227.247 73.476V52.472C227.247 50.894 228.526 49.615 230.104 49.615C231.682 49.615 232.961 50.894 232.961 52.472V73.476C232.961 75.054 231.682 76.333 230.104 76.333C228.526 76.334 227.247 75.054 227.247 73.476Z" fill="#686868"/>
<path d="M227.711 73.476V52.472C227.711 50.972 228.867 49.745 230.336 49.626C230.259 49.62 230.182 49.614 230.104 49.614C228.526 49.614 227.247 50.893 227.247 52.471V73.475C227.247 75.053 228.526 76.332 230.104 76.332C230.182 76.332 230.259 76.327 230.336 76.32C228.867 76.203 227.711 74.976 227.711 73.476Z" fill="#A8A8A8"/>
<path d="M232.328 73.476V52.472C232.328 51.802 232.098 51.187 231.712 50.7C231.015 49.82 229.657 49.82 228.96 50.7C228.574 51.187 228.344 51.802 228.344 52.472V73.476C228.344 74.145 228.574 74.761 228.96 75.248C229.657 76.128 231.015 76.128 231.712 75.248C232.098 74.761 232.328 74.146 232.328 73.476Z" fill="#A8A8A8"/>
<path d="M229.012 74.9691C228.428 74.9691 228.428 50.9191 229.012 50.9191C229.783 51.7911 231.011 52.438 231.931 51.416L231.98 53.8461C231.57 52.1591 230.74 52.898 230.368 52.912C229.867 52.931 229.863 72.9541 230.368 72.9741C230.739 72.9881 231.57 73.7281 231.98 72.0401L231.931 74.4701C231.012 73.4501 229.783 74.0971 229.012 74.9691Z" fill="#D4D4D4"/>
<path d="M91.5305 13.0989L90.2275 12.7079L90.1245 11.2499L91.2145 11.0819L91.5305 13.0989Z" fill="#A8A8A8"/>
<path d="M91.5305 13.099L90.2275 12.708L90.3425 13.396L91.7005 14.466L91.5305 13.099Z" fill="#494949"/>
<path d="M91.3575 9.68599C91.5925 9.51199 91.8805 9.40398 92.1945 9.39098C92.2365 9.38898 92.2775 9.38999 92.3185 9.39199C92.3105 9.39299 92.3035 9.39599 92.2965 9.39699C93.0885 9.41599 93.7425 10.04 93.7765 10.843L94.2535 21.995C94.2875 22.798 93.6895 23.476 92.9015 23.562C92.9095 23.562 92.9165 23.565 92.9235 23.565C92.8825 23.57 92.8425 23.575 92.8005 23.577C92.4865 23.59 92.1905 23.507 91.9415 23.354C91.5265 23.099 91.2415 22.648 91.2185 22.125L90.7415 10.973C90.7205 10.449 90.9655 9.97599 91.3575 9.68599Z" fill="#494949"/>
<path d="M91.0297 10.4639L91.5068 21.6159C91.5428 22.4539 92.2507 23.1039 93.0887 23.0679C93.9267 23.0319 94.5767 22.3239 94.5407 21.4859L94.0638 10.3339C94.0278 9.49595 93.3197 8.84592 92.4817 8.88192C91.6437 8.91792 90.9937 9.62592 91.0297 10.4639Z" fill="#686868"/>
<path d="M91.2753 10.453L91.7523 21.605C91.7863 22.401 92.4283 23.027 93.2103 23.056C93.1693 23.061 93.1293 23.066 93.0873 23.068C92.2493 23.104 91.5413 22.454 91.5053 21.616L91.0283 10.4639C90.9923 9.62595 91.6423 8.91795 92.4803 8.88195C92.5223 8.87995 92.5633 8.88095 92.6043 8.88295C91.8273 8.97895 91.2413 9.65696 91.2753 10.453Z" fill="#A8A8A8"/>
<path d="M93.7277 10.3489L94.2047 21.5009C94.2197 21.8559 94.1117 22.1889 93.9177 22.4559C93.5677 22.9389 92.8467 22.9699 92.4567 22.5189C92.2407 22.2689 92.1047 21.9479 92.0897 21.5919L91.6127 10.4399C91.5977 10.0849 91.7057 9.7519 91.8997 9.4849C92.2497 9.0019 92.9707 8.97092 93.3607 9.42292C93.5757 9.67192 93.7127 9.99291 93.7277 10.3489Z" fill="#A8A8A8"/>
<path d="M68.7524 14.0719L70.0164 13.5719L69.9954 12.1109L68.8954 12.0359L68.7524 14.0719Z" fill="#A8A8A8"/>
<path d="M68.7527 14.0719L70.0167 13.5719L69.9617 14.2669L68.6997 15.4489L68.7527 14.0719Z" fill="#494949"/>
<path d="M68.6337 10.6568C68.3847 10.5038 68.0887 10.4208 67.7747 10.4338C67.7327 10.4358 67.6927 10.4398 67.6517 10.4458C67.6597 10.4458 67.6667 10.4488 67.6737 10.4488C66.8857 10.5358 66.2877 11.2128 66.3217 12.0158L66.7987 23.1678C66.8327 23.9708 67.4867 24.5948 68.2787 24.6138C68.2707 24.6148 68.2647 24.6178 68.2567 24.6188C68.2977 24.6208 68.3387 24.6218 68.3797 24.6198C68.6937 24.6068 68.9817 24.4988 69.2167 24.3248C69.6087 24.0348 69.8537 23.5618 69.8317 23.0378L69.3547 11.8858C69.3337 11.3628 69.0487 10.9128 68.6337 10.6568Z" fill="#494949"/>
<path d="M69.0266 11.4048L69.5036 22.5568C69.5396 23.3948 68.8896 24.1028 68.0516 24.1388C67.2136 24.1748 66.5056 23.5249 66.4696 22.6869L65.9926 11.5348C65.9566 10.6968 66.6066 9.98884 67.4446 9.95284C68.2826 9.91684 68.9916 10.5668 69.0266 11.4048Z" fill="#686868"/>
<path d="M68.7808 11.4149L69.2578 22.5669C69.2918 23.3629 68.7058 24.0409 67.9288 24.1369C67.9698 24.1379 68.0108 24.1399 68.0528 24.1379C68.8908 24.1019 69.5408 23.3939 69.5048 22.5559L69.0278 11.4039C68.9918 10.5659 68.2838 9.91587 67.4458 9.95187C67.4038 9.95387 67.3638 9.95786 67.3228 9.96386C68.1048 9.99286 68.7468 10.6189 68.7808 11.4149Z" fill="#A8A8A8"/>
<path d="M66.3285 11.5198L66.8055 22.6719C66.8205 23.0269 66.9565 23.3489 67.1725 23.5989C67.5625 24.0499 68.2835 24.0199 68.6335 23.5359C68.8275 23.2689 68.9355 22.9368 68.9205 22.5808L68.4435 11.4288C68.4285 11.0738 68.2915 10.7519 68.0765 10.5019C67.6865 10.0509 66.9655 10.0809 66.6155 10.5639C66.4215 10.8319 66.3135 11.1638 66.3285 11.5198Z" fill="#A8A8A8"/>
<path d="M69.8198 11.4059L90.3188 10.5299L90.7848 26.1259C90.8258 27.0859 90.0808 27.8969 89.1208 27.9379L72.2978 28.6569C71.3378 28.6979 70.5268 27.9529 70.4848 26.9939L69.8198 11.4059Z" fill="#686868"/>
<path d="M72.2398 27.2649L89.0628 26.5459C90.0228 26.5049 90.7878 26.1579 90.7468 25.1979C90.7878 26.1579 90.0428 26.9689 89.0828 27.0099L72.2598 27.7289C71.2998 27.7699 70.4888 27.0249 70.4468 26.0649C70.4878 27.0249 71.2798 27.3059 72.2398 27.2649Z" fill="#A8A8A8"/>
<path d="M72.2588 27.7289L89.0818 27.0099C90.0418 26.9689 90.7868 26.1579 90.7458 25.1979L90.7858 26.1259C90.8268 27.0859 90.0818 27.8969 89.1218 27.9379L72.2988 28.6569C71.3388 28.6979 70.5278 27.9529 70.4858 26.9939L70.4458 26.0659C70.4878 27.0249 71.2988 27.7699 72.2588 27.7289Z" fill="#494949"/>
<path d="M72.9786 12.5219L87.1856 11.9149C88.6116 11.8539 89.8146 12.8949 89.8716 14.2409L90.2516 23.1329C90.3086 24.4779 89.1996 25.6179 87.7736 25.6789L73.5666 26.2859C72.1406 26.3469 70.9376 25.3059 70.8806 23.9599L70.5006 15.0679C70.4436 13.7229 71.5526 12.5829 72.9786 12.5219Z" fill="#A9A9A9"/>
<path d="M73.5676 26.285L87.7746 25.678C89.2006 25.617 90.3096 24.477 90.2526 23.132L90.2206 22.387C90.2786 23.732 89.1686 24.872 87.7426 24.933L73.5356 25.54C72.1096 25.601 70.9066 24.56 70.8496 23.214L70.8816 23.959C70.9386 25.305 72.1416 26.346 73.5676 26.285Z" fill="#D4D4D4"/>
<path d="M72.9786 12.5219L87.1856 11.9149C88.6116 11.8539 89.8146 12.8949 89.8716 14.2409L89.9036 14.9859C89.8466 13.6409 88.6436 12.5989 87.2176 12.6599L73.0106 13.2669C71.5846 13.3279 70.4756 14.4679 70.5326 15.8129L70.5006 15.0679C70.4436 13.7229 71.5526 12.5829 72.9786 12.5219Z" fill="#494949"/>
<path d="M92.5089 5.98901C91.9479 7.36001 90.8769 11.166 89.7919 11.212L70.3309 12.044C69.2859 12.089 67.9839 8.46201 67.2979 7.12601L92.5089 5.98901Z" fill="#494949"/>
<path d="M69.4288 7.93994L90.4128 7.04294C91.9898 6.97594 93.2128 5.64295 93.1458 4.06595C93.0788 2.48895 91.7458 1.26595 90.1688 1.33295L69.1848 2.22995C67.6078 2.29695 66.3848 3.62994 66.4518 5.20694C66.5198 6.78394 67.8518 8.00694 69.4288 7.93994Z" fill="#686868"/>
<path d="M69.4087 7.47598L90.3927 6.57898C91.8907 6.51498 93.0677 5.30796 93.1237 3.83496C93.1337 3.91196 93.1417 3.98796 93.1457 4.06696C93.2127 5.64396 91.9897 6.97598 90.4127 7.04398L69.4287 7.94098C67.8517 8.00798 66.5197 6.78498 66.4517 5.20798C66.4487 5.12998 66.4507 5.05198 66.4537 4.97498C66.6347 6.43798 67.9107 7.53998 69.4087 7.47598Z" fill="#A8A8A8"/>
<path d="M69.2116 2.86298L90.1956 1.96598C90.8646 1.93698 91.4896 2.14099 91.9926 2.50599C92.9016 3.16499 92.9596 4.52098 92.1106 5.25498C91.6406 5.66098 91.0356 5.91799 90.3666 5.94599L69.3816 6.84297C68.7126 6.87197 68.0876 6.66799 67.5846 6.30299C66.6756 5.64399 66.6176 4.28796 67.4666 3.55396C67.9376 3.14796 68.5426 2.89198 69.2116 2.86298Z" fill="#A8A8A8"/>
<path d="M67.8618 6.23987C67.8868 6.82387 91.9148 5.79689 91.8898 5.21289C90.9858 4.47989 90.2868 3.27987 91.2678 2.31787L88.8378 2.37286C90.5408 2.70986 89.8378 3.57187 89.8398 3.94287C89.8418 4.44387 69.8378 5.30387 69.7968 4.79987C69.7668 4.42987 68.9928 3.63087 70.6608 3.14987L68.2348 3.30289C69.2948 4.17689 68.7008 5.43187 67.8618 6.23987Z" fill="#D4D4D4"/>
<path d="M32.0347 16.8159L33.2737 16.2539L33.1807 14.7959L32.0787 14.7749L32.0347 16.8159Z" fill="#A8A8A8"/>
<path d="M32.0347 16.8159L33.2737 16.2539L33.2517 16.9519L32.0487 18.1939L32.0347 16.8159Z" fill="#494949"/>
<path d="M31.7508 13.4109C31.4948 13.2699 31.1948 13.2009 30.8818 13.2299C30.8398 13.2339 30.7998 13.2399 30.7598 13.2469C30.7678 13.2469 30.7748 13.2489 30.7828 13.2489C30.0008 13.3739 29.4358 14.0789 29.5088 14.8799L30.5248 25.9959C30.5978 26.7969 31.2818 27.3879 32.0738 27.3689C32.0658 27.3709 32.0598 27.3739 32.0518 27.3749C32.0928 27.3749 32.1338 27.3739 32.1748 27.3699C32.4878 27.3409 32.7698 27.2199 32.9968 27.0339C33.3738 26.7259 33.5968 26.2409 33.5488 25.7189L32.5328 14.6029C32.4838 14.0819 32.1778 13.6459 31.7508 13.4109Z" fill="#494949"/>
<path d="M32.1798 14.1379L33.1958 25.2539C33.2718 26.0889 32.6568 26.8279 31.8218 26.9039C30.9868 26.9799 30.2478 26.3649 30.1718 25.5299L29.1558 14.4139C29.0798 13.5789 29.6948 12.8399 30.5298 12.7639C31.3648 12.6879 32.1038 13.3029 32.1798 14.1379Z" fill="#686868"/>
<path d="M31.9337 14.1599L32.9497 25.2759C33.0217 26.0699 32.4697 26.7749 31.6977 26.9089C31.7387 26.9089 31.7797 26.9079 31.8217 26.9039C32.6567 26.8279 33.2717 26.0889 33.1957 25.2539L32.1797 14.1379C32.1037 13.3029 31.3647 12.6879 30.5297 12.7639C30.4887 12.7679 30.4477 12.7739 30.4077 12.7809C31.1907 12.7729 31.8617 13.3669 31.9337 14.1599Z" fill="#A8A8A8"/>
<path d="M29.4909 14.384L30.5069 25.5C30.5389 25.854 30.6909 26.1689 30.9189 26.4079C31.3299 26.8399 32.0489 26.7739 32.3749 26.2749C32.5559 25.9989 32.6479 25.662 32.6159 25.307L31.5999 14.191C31.5679 13.837 31.4159 13.5219 31.1879 13.2829C30.7759 12.8509 30.0579 12.9169 29.7319 13.4159C29.5509 13.6929 29.4579 14.029 29.4909 14.384Z" fill="#A8A8A8"/>
<path d="M54.7386 14.7409L53.4186 14.4139L53.2456 12.963L54.3256 12.7419L54.7386 14.7409Z" fill="#A8A8A8"/>
<path d="M54.7385 14.7411L53.4185 14.4141L53.5665 15.0961L54.9745 16.0991L54.7385 14.7411Z" fill="#494949"/>
<path d="M54.4015 11.341C54.6275 11.156 54.9105 11.034 55.2235 11.006C55.2645 11.002 55.3055 11.001 55.3465 11.001C55.3385 11.002 55.3325 11.005 55.3245 11.007C56.1165 10.988 56.8005 11.579 56.8735 12.38L57.8895 23.496C57.9625 24.297 57.3975 25.002 56.6155 25.127C56.6235 25.127 56.6305 25.129 56.6385 25.129C56.5985 25.136 56.5575 25.143 56.5165 25.146C56.2035 25.175 55.9035 25.106 55.6475 24.965C55.2205 24.73 54.9135 24.294 54.8665 23.772L53.8505 12.656C53.8015 12.134 54.0235 11.65 54.4015 11.341Z" fill="#494949"/>
<path d="M54.1108 12.134L55.1268 23.25C55.2028 24.085 55.9418 24.7 56.7768 24.624C57.6118 24.548 58.2268 23.809 58.1508 22.974L57.1348 11.858C57.0588 11.023 56.3198 10.408 55.4848 10.484C54.6498 10.56 54.0348 11.299 54.1108 12.134Z" fill="#686868"/>
<path d="M54.3568 12.112L55.3728 23.228C55.4448 24.022 56.1168 24.615 56.8998 24.607C56.8598 24.614 56.8188 24.621 56.7778 24.624C55.9428 24.7 55.2038 24.085 55.1278 23.25L54.1118 12.134C54.0358 11.299 54.6508 10.56 55.4858 10.484C55.5278 10.48 55.5688 10.479 55.6088 10.479C54.8368 10.613 54.2848 11.318 54.3568 12.112Z" fill="#A8A8A8"/>
<path d="M56.8008 11.888L57.8168 23.004C57.8488 23.358 57.7568 23.6949 57.5768 23.9719C57.2508 24.4709 56.5318 24.537 56.1208 24.105C55.8928 23.866 55.7418 23.5509 55.7088 23.1969L54.6928 12.0809C54.6608 11.7269 54.7528 11.39 54.9328 11.113C55.2588 10.614 55.9778 10.548 56.3888 10.98C56.6168 11.22 56.7678 11.534 56.8008 11.888Z" fill="#A8A8A8"/>
<path d="M53.3256 12.241L32.8926 14.108L34.5116 29.626C34.5996 30.583 35.4456 31.287 36.4026 31.2L53.1706 29.668C54.1276 29.581 54.8316 28.734 54.7456 27.777L53.3256 12.241Z" fill="#686868"/>
<path d="M53.0438 28.281L36.2758 29.813C35.3188 29.901 34.5148 29.658 34.4268 28.702C34.5148 29.659 35.3608 30.363 36.3178 30.276L53.0858 28.744C54.0428 28.657 54.7478 27.81 54.6608 26.854C54.7478 27.81 54.0008 28.194 53.0438 28.281Z" fill="#A8A8A8"/>
<path d="M53.0858 28.743L36.3178 30.2749C35.3608 30.3619 34.5148 29.6579 34.4268 28.7009L34.5118 29.6259C34.5998 30.5829 35.4458 31.287 36.4028 31.2L53.1708 29.6679C54.1278 29.5809 54.8318 28.7339 54.7458 27.7769L54.6608 26.8519C54.7478 27.8099 54.0428 28.656 53.0858 28.743Z" fill="#494949"/>
<path d="M50.3434 13.769L36.1824 15.063C34.7614 15.193 33.7084 16.385 33.8304 17.726L34.6404 26.589C34.7634 27.93 36.0144 28.912 37.4364 28.782L51.5974 27.488C53.0184 27.358 54.0714 26.166 53.9494 24.825L53.1394 15.962C53.0164 14.621 51.7644 13.639 50.3434 13.769Z" fill="#A9A9A9"/>
<path d="M51.5968 27.488L37.4358 28.782C36.0148 28.912 34.7628 27.93 34.6398 26.589L34.5718 25.846C34.6948 27.187 35.9458 28.169 37.3668 28.039L51.5278 26.745C52.9488 26.615 54.0018 25.423 53.8798 24.082L53.9478 24.825C54.0708 26.165 53.0188 27.358 51.5968 27.488Z" fill="#D4D4D4"/>
<path d="M50.3434 13.769L36.1824 15.063C34.7614 15.193 33.7084 16.385 33.8304 17.726L33.8984 18.469C33.7754 17.128 34.8284 15.936 36.2504 15.806L50.4114 14.512C51.8324 14.382 53.0844 15.364 53.2074 16.705L53.1394 15.962C53.0164 14.621 51.7644 13.639 50.3434 13.769Z" fill="#494949"/>
<path d="M30.1167 9.90103C30.8557 11.185 32.4247 14.814 33.5057 14.715L52.9037 12.943C53.9457 12.848 54.7517 9.08004 55.2527 7.66504L30.1167 9.90103Z" fill="#494949"/>
<path d="M53.2509 8.75395L32.3339 10.665C30.7629 10.809 29.3719 9.65094 29.2289 8.07994C29.0849 6.50794 30.2429 5.11796 31.8139 4.97496L52.7309 3.06395C54.3019 2.92095 55.6929 4.07795 55.8359 5.64995C55.9799 7.21995 54.8229 8.61095 53.2509 8.75395Z" fill="#686868"/>
<path d="M53.2087 8.29193L32.2917 10.2029C30.7987 10.3389 29.4708 9.29993 29.2188 7.84793C29.2198 7.92493 29.2207 8.00193 29.2277 8.07993C29.3717 9.65193 30.7617 10.8089 32.3327 10.6649L53.2497 8.75394C54.8207 8.60994 55.9787 7.21993 55.8347 5.64893C55.8277 5.57093 55.8148 5.49495 55.8018 5.41895C55.8188 6.89195 54.7017 8.15493 53.2087 8.29193Z" fill="#A8A8A8"/>
<path d="M52.789 3.69396L31.872 5.60497C31.205 5.66597 30.613 5.95097 30.164 6.37997C29.351 7.15397 29.475 8.50596 30.414 9.11996C30.934 9.45996 31.568 9.63295 32.235 9.57195L53.152 7.66097C53.819 7.59997 54.411 7.31495 54.861 6.88595C55.674 6.11195 55.55 4.75996 54.611 4.14596C54.089 3.80596 53.455 3.63296 52.789 3.69396Z" fill="#A8A8A8"/>
<path d="M54.577 6.86002C54.63 7.44202 30.68 9.63003 30.627 9.04803C31.426 8.20103 31.958 6.91904 30.857 6.09604L33.273 5.82602C31.63 6.38702 32.442 7.14802 32.49 7.51602C32.555 8.01302 52.495 6.19604 52.469 5.69104C52.45 5.32004 53.11 4.42502 51.393 4.17102L53.818 3.99902C52.882 5.00702 53.638 6.17202 54.577 6.86002Z" fill="#D4D4D4"/>
<path d="M142.228 13.0989L143.531 12.7079L143.634 11.2499L142.545 11.0819L142.228 13.0989Z" fill="#A8A8A8"/>
<path d="M142.228 13.099L143.531 12.708L143.416 13.396L142.059 14.466L142.228 13.099Z" fill="#494949"/>
<path d="M142.401 9.68599C142.166 9.51199 141.878 9.40398 141.564 9.39098C141.522 9.38898 141.481 9.38999 141.44 9.39199C141.448 9.39299 141.455 9.39599 141.462 9.39699C140.67 9.41599 140.016 10.04 139.982 10.843L139.505 21.995C139.471 22.798 140.069 23.476 140.857 23.562C140.849 23.562 140.842 23.565 140.834 23.565C140.875 23.57 140.915 23.575 140.957 23.577C141.271 23.59 141.567 23.507 141.816 23.354C142.231 23.099 142.516 22.648 142.539 22.125L143.016 10.973C143.038 10.449 142.793 9.97599 142.401 9.68599Z" fill="#494949"/>
<path d="M142.729 10.4639L142.252 21.6159C142.216 22.4539 141.508 23.1039 140.67 23.0679C139.832 23.0319 139.182 22.3239 139.218 21.4859L139.695 10.3339C139.731 9.49595 140.439 8.84592 141.277 8.88192C142.115 8.91792 142.765 9.62592 142.729 10.4639Z" fill="#686868"/>
<path d="M142.483 10.453L142.006 21.605C141.972 22.401 141.33 23.027 140.548 23.056C140.589 23.061 140.629 23.066 140.671 23.068C141.509 23.104 142.217 22.454 142.253 21.616L142.73 10.4639C142.766 9.62595 142.116 8.91795 141.278 8.88195C141.236 8.87995 141.195 8.88095 141.154 8.88295C141.931 8.97895 142.517 9.65696 142.483 10.453Z" fill="#A8A8A8"/>
<path d="M140.031 10.3489L139.554 21.5009C139.539 21.8559 139.647 22.1889 139.841 22.4559C140.191 22.9389 140.912 22.9699 141.302 22.5189C141.518 22.2689 141.654 21.9479 141.669 21.5919L142.146 10.4399C142.161 10.0849 142.053 9.7519 141.859 9.4849C141.509 9.0019 140.788 8.97092 140.398 9.42292C140.183 9.67192 140.047 9.99291 140.031 10.3489Z" fill="#A8A8A8"/>
<path d="M165.006 14.0719L163.742 13.5719L163.764 12.1109L164.863 12.0359L165.006 14.0719Z" fill="#A8A8A8"/>
<path d="M165.006 14.0719L163.742 13.5719L163.798 14.2669L165.059 15.4489L165.006 14.0719Z" fill="#494949"/>
<path d="M165.126 10.6568C165.375 10.5038 165.671 10.4208 165.985 10.4338C166.027 10.4358 166.067 10.4398 166.108 10.4458C166.1 10.4458 166.093 10.4488 166.085 10.4488C166.873 10.5358 167.471 11.2128 167.437 12.0158L166.96 23.1678C166.926 23.9708 166.272 24.5948 165.48 24.6138C165.488 24.6148 165.494 24.6178 165.502 24.6188C165.461 24.6208 165.42 24.6218 165.378 24.6198C165.064 24.6068 164.776 24.4988 164.541 24.3248C164.149 24.0348 163.904 23.5618 163.926 23.0378L164.403 11.8858C164.425 11.3628 164.71 10.9128 165.126 10.6568Z" fill="#494949"/>
<path d="M164.732 11.4048L164.255 22.5568C164.219 23.3948 164.869 24.1028 165.707 24.1388C166.545 24.1748 167.253 23.5249 167.289 22.6869L167.766 11.5348C167.802 10.6968 167.152 9.98884 166.314 9.95284C165.476 9.91684 164.768 10.5668 164.732 11.4048Z" fill="#686868"/>
<path d="M164.979 11.4149L164.502 22.5669C164.468 23.3629 165.054 24.0409 165.831 24.1369C165.79 24.1379 165.749 24.1399 165.707 24.1379C164.869 24.1019 164.219 23.3939 164.255 22.5559L164.732 11.4039C164.768 10.5659 165.476 9.91587 166.314 9.95187C166.356 9.95387 166.396 9.95786 166.437 9.96386C165.654 9.99286 165.013 10.6189 164.979 11.4149Z" fill="#A8A8A8"/>
<path d="M167.43 11.5198L166.953 22.6719C166.938 23.0269 166.801 23.3489 166.586 23.5989C166.196 24.0499 165.475 24.0199 165.125 23.5359C164.931 23.2689 164.823 22.9368 164.838 22.5808L165.315 11.4288C165.33 11.0738 165.467 10.7519 165.682 10.5019C166.072 10.0509 166.793 10.0809 167.143 10.5639C167.337 10.8319 167.445 11.1638 167.43 11.5198Z" fill="#A8A8A8"/>
<path d="M163.939 11.4059L143.44 10.5299L142.974 26.1259C142.933 27.0859 143.678 27.8969 144.638 27.9379L161.461 28.6569C162.421 28.6979 163.232 27.9529 163.274 26.9939L163.939 11.4059Z" fill="#686868"/>
<path d="M161.52 27.2649L144.697 26.5459C143.737 26.5049 142.972 26.1579 143.013 25.1979C142.972 26.1579 143.717 26.9689 144.677 27.0099L161.5 27.7289C162.46 27.7699 163.271 27.0249 163.313 26.0649C163.271 27.0249 162.48 27.3059 161.52 27.2649Z" fill="#A8A8A8"/>
<path d="M161.5 27.7289L144.677 27.0099C143.717 26.9689 142.972 26.1579 143.013 25.1979L142.973 26.1259C142.932 27.0859 143.677 27.8969 144.637 27.9379L161.46 28.6569C162.42 28.6979 163.231 27.9529 163.273 26.9939L163.313 26.0659C163.271 27.0249 162.46 27.7699 161.5 27.7289Z" fill="#494949"/>
<path d="M160.78 12.5219L146.573 11.9149C145.147 11.8539 143.944 12.8949 143.887 14.2409L143.507 23.1329C143.45 24.4779 144.559 25.6179 145.985 25.6789L160.192 26.2859C161.618 26.3469 162.821 25.3059 162.878 23.9599L163.258 15.0679C163.315 13.7229 162.206 12.5829 160.78 12.5219Z" fill="#A9A9A9"/>
<path d="M160.191 26.285L145.984 25.678C144.558 25.617 143.449 24.477 143.506 23.132L143.538 22.387C143.481 23.732 144.59 24.872 146.016 24.933L160.223 25.54C161.649 25.601 162.852 24.56 162.909 23.214L162.877 23.959C162.82 25.305 161.617 26.346 160.191 26.285Z" fill="#D4D4D4"/>
<path d="M160.78 12.5219L146.573 11.9149C145.147 11.8539 143.944 12.8949 143.887 14.2409L143.855 14.9859C143.912 13.6409 145.115 12.5989 146.541 12.6599L160.748 13.2669C162.174 13.3279 163.283 14.4679 163.226 15.8129L163.258 15.0679C163.315 13.7229 162.206 12.5829 160.78 12.5219Z" fill="#494949"/>
<path d="M141.251 5.98901C141.812 7.36001 142.883 11.166 143.968 11.212L163.429 12.044C164.474 12.089 165.776 8.46201 166.462 7.12601L141.251 5.98901Z" fill="#494949"/>
<path d="M164.33 7.93994L143.346 7.04294C141.769 6.97594 140.546 5.64295 140.613 4.06595C140.68 2.48895 142.013 1.26595 143.59 1.33295L164.574 2.22995C166.151 2.29695 167.374 3.62994 167.307 5.20694C167.24 6.78394 165.907 8.00694 164.33 7.93994Z" fill="#686868"/>
<path d="M164.35 7.47598L143.366 6.57898C141.868 6.51498 140.691 5.30796 140.635 3.83496C140.626 3.91196 140.617 3.98796 140.613 4.06696C140.546 5.64396 141.769 6.97598 143.346 7.04398L164.33 7.94098C165.907 8.00798 167.239 6.78498 167.307 5.20798C167.31 5.12998 167.308 5.05198 167.305 4.97498C167.124 6.43798 165.848 7.53998 164.35 7.47598Z" fill="#A8A8A8"/>
<path d="M164.547 2.86298L143.562 1.96598C142.893 1.93698 142.268 2.14099 141.765 2.50599C140.856 3.16499 140.798 4.52098 141.647 5.25498C142.117 5.66098 142.722 5.91799 143.391 5.94599L164.376 6.84297C165.045 6.87197 165.67 6.66799 166.173 6.30299C167.082 5.64399 167.14 4.28796 166.29 3.55396C165.821 3.14796 165.216 2.89198 164.547 2.86298Z" fill="#A8A8A8"/>
<path d="M165.897 6.23987C165.872 6.82387 141.844 5.79689 141.869 5.21289C142.773 4.47989 143.472 3.27987 142.491 2.31787L144.921 2.37286C143.218 2.70986 143.921 3.57187 143.919 3.94287C143.917 4.44387 163.921 5.30387 163.962 4.79987C163.992 4.42987 164.766 3.63087 163.098 3.14987L165.524 3.30289C164.465 4.17689 165.058 5.43187 165.897 6.23987Z" fill="#D4D4D4"/>
<path d="M201.724 16.8159L200.485 16.2539L200.578 14.7959L201.68 14.7749L201.724 16.8159Z" fill="#A8A8A8"/>
<path d="M201.724 16.8159L200.485 16.2539L200.507 16.9519L201.71 18.1939L201.724 16.8159Z" fill="#494949"/>
<path d="M202.008 13.4109C202.264 13.2699 202.564 13.2009 202.877 13.2299C202.919 13.2339 202.959 13.2399 202.999 13.2469C202.991 13.2469 202.984 13.2489 202.976 13.2489C203.758 13.3739 204.323 14.0789 204.25 14.8799L203.234 25.9959C203.161 26.7969 202.477 27.3879 201.685 27.3689C201.692 27.3709 201.699 27.3739 201.707 27.3749C201.666 27.3749 201.625 27.3739 201.584 27.3699C201.271 27.3409 200.989 27.2199 200.762 27.0339C200.385 26.7259 200.162 26.2409 200.21 25.7189L201.226 14.6029C201.275 14.0819 201.581 13.6459 202.008 13.4109Z" fill="#494949"/>
<path d="M201.579 14.1379L200.563 25.2539C200.487 26.0889 201.102 26.8279 201.937 26.9039C202.772 26.9799 203.511 26.3649 203.587 25.5299L204.603 14.4139C204.679 13.5789 204.064 12.8399 203.229 12.7639C202.394 12.6879 201.655 13.3029 201.579 14.1379Z" fill="#686868"/>
<path d="M201.825 14.1599L200.809 25.2759C200.737 26.0699 201.289 26.7749 202.061 26.9089C202.02 26.9089 201.979 26.9079 201.937 26.9039C201.102 26.8279 200.487 26.0889 200.563 25.2539L201.579 14.1379C201.655 13.3029 202.394 12.6879 203.229 12.7639C203.27 12.7679 203.311 12.7739 203.351 12.7809C202.569 12.7729 201.897 13.3669 201.825 14.1599Z" fill="#A8A8A8"/>
<path d="M204.268 14.384L203.252 25.5C203.22 25.854 203.068 26.1689 202.84 26.4079C202.429 26.8399 201.71 26.7739 201.384 26.2749C201.203 25.9989 201.111 25.662 201.143 25.307L202.159 14.191C202.191 13.837 202.343 13.5219 202.571 13.2829C202.983 12.8509 203.701 12.9169 204.027 13.4159C204.209 13.6929 204.301 14.029 204.268 14.384Z" fill="#A8A8A8"/>
<path d="M179.02 14.7409L180.34 14.4139L180.513 12.963L179.434 12.7419L179.02 14.7409Z" fill="#A8A8A8"/>
<path d="M179.02 14.7411L180.34 14.4141L180.192 15.0961L178.784 16.0991L179.02 14.7411Z" fill="#494949"/>
<path d="M179.357 11.341C179.131 11.156 178.848 11.034 178.535 11.006C178.494 11.002 178.453 11.001 178.412 11.001C178.42 11.002 178.426 11.005 178.434 11.007C177.642 10.988 176.958 11.579 176.885 12.38L175.869 23.496C175.796 24.297 176.361 25.002 177.143 25.127C177.135 25.127 177.128 25.129 177.12 25.129C177.16 25.136 177.201 25.143 177.242 25.146C177.555 25.175 177.855 25.106 178.111 24.965C178.538 24.73 178.845 24.294 178.892 23.772L179.908 12.656C179.957 12.134 179.735 11.65 179.357 11.341Z" fill="#494949"/>
<path d="M179.648 12.134L178.632 23.25C178.556 24.085 177.817 24.7 176.982 24.624C176.147 24.548 175.532 23.809 175.608 22.974L176.624 11.858C176.7 11.023 177.439 10.408 178.274 10.484C179.109 10.56 179.724 11.299 179.648 12.134Z" fill="#686868"/>
<path d="M179.402 12.112L178.386 23.228C178.313 24.022 177.642 24.615 176.859 24.607C176.899 24.614 176.94 24.621 176.981 24.624C177.816 24.7 178.555 24.085 178.631 23.25L179.647 12.134C179.723 11.299 179.108 10.56 178.273 10.484C178.232 10.48 178.191 10.479 178.15 10.479C178.922 10.613 179.475 11.318 179.402 12.112Z" fill="#A8A8A8"/>
<path d="M176.958 11.888L175.942 23.004C175.91 23.358 176.002 23.6949 176.182 23.9719C176.508 24.4709 177.227 24.537 177.638 24.105C177.866 23.866 178.017 23.5509 178.05 23.1969L179.066 12.0809C179.098 11.7269 179.006 11.39 178.826 11.113C178.5 10.614 177.781 10.548 177.37 10.98C177.143 11.22 176.991 11.534 176.958 11.888Z" fill="#A8A8A8"/>
<path d="M180.433 12.241L200.866 14.108L199.247 29.626C199.159 30.583 198.313 31.287 197.356 31.2L180.588 29.668C179.631 29.581 178.927 28.734 179.014 27.777L180.433 12.241Z" fill="#686868"/>
<path d="M180.715 28.281L197.483 29.813C198.44 29.901 199.244 29.658 199.332 28.702C199.244 29.659 198.398 30.363 197.441 30.276L180.673 28.744C179.716 28.657 179.011 27.81 179.098 26.854C179.011 27.81 179.758 28.194 180.715 28.281Z" fill="#A8A8A8"/>
<path d="M180.673 28.743L197.441 30.2749C198.398 30.3619 199.244 29.6579 199.332 28.7009L199.247 29.6259C199.159 30.5829 198.313 31.287 197.356 31.2L180.588 29.6679C179.631 29.5809 178.927 28.7339 179.014 27.7769L179.098 26.8519C179.011 27.8099 179.716 28.656 180.673 28.743Z" fill="#494949"/>
<path d="M183.416 13.769L197.577 15.063C198.998 15.193 200.051 16.385 199.929 17.726L199.119 26.589C198.997 27.93 197.745 28.912 196.323 28.782L182.162 27.488C180.741 27.358 179.688 26.166 179.81 24.825L180.62 15.962C180.743 14.621 181.994 13.639 183.416 13.769Z" fill="#A9A9A9"/>
<path d="M182.162 27.488L196.323 28.782C197.744 28.912 198.996 27.93 199.119 26.589L199.187 25.846C199.064 27.187 197.813 28.169 196.391 28.039L182.23 26.745C180.809 26.615 179.756 25.423 179.878 24.082L179.81 24.825C179.688 26.165 180.741 27.358 182.162 27.488Z" fill="#D4D4D4"/>
<path d="M183.416 13.769L197.577 15.063C198.998 15.193 200.051 16.385 199.929 17.726L199.861 18.469C199.983 17.128 198.931 15.936 197.509 15.806L183.348 14.512C181.927 14.382 180.675 15.364 180.552 16.705L180.62 15.962C180.743 14.621 181.994 13.639 183.416 13.769Z" fill="#494949"/>
<path d="M203.642 9.90103C202.903 11.185 201.334 14.814 200.253 14.715L180.855 12.943C179.813 12.848 179.007 9.08004 178.506 7.66504L203.642 9.90103Z" fill="#494949"/>
<path d="M180.508 8.75395L201.424 10.665C202.996 10.809 204.386 9.65094 204.529 8.07994C204.673 6.50794 203.515 5.11796 201.944 4.97496L181.027 3.06395C179.455 2.92095 178.065 4.07795 177.922 5.64995C177.779 7.21995 178.937 8.61095 180.508 8.75395Z" fill="#686868"/>
<path d="M180.55 8.29193L201.467 10.2029C202.96 10.3389 204.288 9.29993 204.54 7.84793C204.539 7.92493 204.538 8.00193 204.531 8.07993C204.387 9.65193 202.997 10.8089 201.426 10.6649L180.509 8.75394C178.938 8.60994 177.78 7.21993 177.924 5.64893C177.931 5.57093 177.944 5.49495 177.957 5.41895C177.94 6.89195 179.057 8.15493 180.55 8.29193Z" fill="#A8A8A8"/>
<path d="M180.971 3.69396L201.888 5.60497C202.555 5.66597 203.147 5.95097 203.596 6.37997C204.409 7.15397 204.285 8.50596 203.346 9.11996C202.826 9.45996 202.192 9.63295 201.525 9.57195L180.608 7.66097C179.941 7.59997 179.349 7.31495 178.9 6.88595C178.087 6.11195 178.211 4.75996 179.15 4.14596C179.67 3.80596 180.304 3.63296 180.971 3.69396Z" fill="#A8A8A8"/>
<path d="M179.182 6.86002C179.129 7.44202 203.079 9.63003 203.133 9.04803C202.335 8.20103 201.802 6.91904 202.903 6.09604L200.487 5.82602C202.13 6.38702 201.318 7.14802 201.27 7.51602C201.205 8.01302 181.265 6.19604 181.291 5.69104C181.31 5.32004 180.65 4.42502 182.368 4.17102L179.943 3.99902C180.877 5.00702 180.121 6.17202 179.182 6.86002Z" fill="#D4D4D4"/>
<path d="M128.238 12.642L126.954 12.195L126.913 10.735L128.008 10.613L128.238 12.642Z" fill="#A8A8A8"/>
<path d="M128.238 12.6421L126.954 12.1951L127.039 12.8881L128.35 14.0151L128.238 12.6421Z" fill="#494949"/>
<path d="M128.212 9.22507C128.454 9.06107 128.747 8.96606 129.061 8.96606C129.103 8.96606 129.144 8.96905 129.184 8.97205C129.176 8.97305 129.169 8.97507 129.162 8.97607C129.952 9.02907 130.579 9.68007 130.579 10.4841V21.6461C130.579 22.4501 129.952 23.1011 129.162 23.1541C129.17 23.1551 129.177 23.1571 129.184 23.1581C129.143 23.1611 129.102 23.1641 129.061 23.1641C128.747 23.1641 128.454 23.0681 128.212 22.9051C127.808 22.6321 127.543 22.1701 127.543 21.6461V10.4841C127.542 9.96007 127.808 9.49807 128.212 9.22507Z" fill="#494949"/>
<path d="M127.85 9.98798V21.15C127.85 21.989 128.53 22.669 129.369 22.669C130.208 22.669 130.887 21.989 130.887 21.15V9.98798C130.887 9.14898 130.207 8.46997 129.369 8.46997C128.53 8.46997 127.85 9.14998 127.85 9.98798Z" fill="#686868"/>
<path d="M128.097 9.98801V21.15C128.097 21.947 128.711 22.599 129.492 22.662C129.451 22.665 129.41 22.668 129.369 22.668C128.53 22.668 127.85 21.988 127.85 21.149V9.987C127.85 9.148 128.53 8.46899 129.369 8.46899C129.411 8.46899 129.452 8.47201 129.492 8.47501C128.711 8.53901 128.097 9.19101 128.097 9.98801Z" fill="#A8A8A8"/>
<path d="M130.551 9.98796V21.15C130.551 21.506 130.429 21.833 130.224 22.092C129.854 22.56 129.132 22.56 128.762 22.092C128.557 21.833 128.435 21.506 128.435 21.15V9.98796C128.435 9.63196 128.557 9.30495 128.762 9.04595C129.133 8.57795 129.854 8.57795 130.224 9.04595C130.428 9.30495 130.551 9.63196 130.551 9.98796Z" fill="#A8A8A8"/>
<path d="M105.439 12.642L106.724 12.195L106.765 10.735L105.669 10.613L105.439 12.642Z" fill="#A8A8A8"/>
<path d="M105.439 12.6421L106.724 12.1951L106.639 12.8881L105.328 14.0151L105.439 12.6421Z" fill="#494949"/>
<path d="M105.466 9.22507C105.224 9.06107 104.931 8.96606 104.617 8.96606C104.575 8.96606 104.534 8.96905 104.494 8.97205C104.502 8.97305 104.509 8.97507 104.516 8.97607C103.725 9.02907 103.099 9.68007 103.099 10.4841V21.6461C103.099 22.4501 103.726 23.1011 104.516 23.1541C104.508 23.1551 104.501 23.1571 104.494 23.1581C104.535 23.1611 104.576 23.1641 104.617 23.1641C104.931 23.1641 105.224 23.0681 105.466 22.9051C105.87 22.6321 106.136 22.1701 106.136 21.6461V10.4841C106.136 9.96007 105.87 9.49807 105.466 9.22507Z" fill="#494949"/>
<path d="M105.828 9.98798V21.15C105.828 21.989 105.148 22.669 104.309 22.669C103.47 22.669 102.791 21.989 102.791 21.15V9.98798C102.791 9.14898 103.471 8.46997 104.309 8.46997C105.148 8.46997 105.828 9.14998 105.828 9.98798Z" fill="#686868"/>
<path d="M105.581 9.98801V21.15C105.581 21.947 104.967 22.599 104.186 22.662C104.227 22.665 104.268 22.668 104.309 22.668C105.148 22.668 105.828 21.988 105.828 21.149V9.987C105.828 9.148 105.148 8.46899 104.309 8.46899C104.267 8.46899 104.226 8.47201 104.186 8.47501C104.966 8.53901 105.581 9.19101 105.581 9.98801Z" fill="#A8A8A8"/>
<path d="M103.127 9.98796V21.15C103.127 21.506 103.249 21.833 103.454 22.092C103.824 22.56 104.546 22.56 104.916 22.092C105.121 21.833 105.243 21.506 105.243 21.15V9.98796C105.243 9.63196 105.12 9.30495 104.916 9.04595C104.545 8.57795 103.824 8.57795 103.454 9.04595C103.249 9.30495 103.127 9.63196 103.127 9.98796Z" fill="#A8A8A8"/>
<path d="M106.62 10.0229H127.138L126.938 25.6239C126.938 26.5849 126.159 27.3629 125.198 27.3629H108.36C107.399 27.3629 106.62 26.5839 106.62 25.6239V10.0229Z" fill="#686868"/>
<path d="M108.36 25.9709H125.198C126.159 25.9709 126.938 25.6569 126.938 24.6959C126.938 25.6569 126.159 26.4349 125.198 26.4349H108.36C107.399 26.4349 106.62 25.6559 106.62 24.6959C106.62 25.6569 107.399 25.9709 108.36 25.9709Z" fill="#A8A8A8"/>
<path d="M108.36 26.4349H125.198C126.159 26.4349 126.938 25.6559 126.938 24.6959V25.6249C126.938 26.5859 126.159 27.3639 125.198 27.3639H108.36C107.399 27.3639 106.62 26.5849 106.62 25.6249V24.6959C106.62 25.6569 107.399 26.4349 108.36 26.4349Z" fill="#494949"/>
<path d="M109.729 11.2729H123.949C125.376 11.2729 126.533 12.3649 126.533 13.7109V22.6109C126.533 23.9579 125.376 25.049 123.949 25.049H109.729C108.302 25.049 107.145 23.9569 107.145 22.6109V13.7109C107.144 12.3649 108.301 11.2729 109.729 11.2729Z" fill="#A9A9A9"/>
<path d="M109.728 25.049H123.948C125.375 25.049 126.532 23.957 126.532 22.611V21.865C126.532 23.212 125.375 24.303 123.948 24.303H109.728C108.301 24.303 107.144 23.211 107.144 21.865V22.611C107.144 23.957 108.301 25.049 109.728 25.049Z" fill="#D4D4D4"/>
<path d="M109.728 11.2729H123.948C125.375 11.2729 126.532 12.3649 126.532 13.7109V14.4569C126.532 13.1099 125.375 12.019 123.948 12.019H109.728C108.301 12.019 107.144 13.1099 107.144 14.4569V13.7109C107.144 12.3649 108.301 11.2729 109.728 11.2729Z" fill="#494949"/>
<path d="M129.519 5.58093C128.9 6.92693 127.668 10.683 126.582 10.683H107.103C106.057 10.683 104.911 7.00395 104.283 5.63995L129.519 5.58093Z" fill="#494949"/>
<path d="M106.377 6.54398H127.381C128.959 6.54398 130.238 5.26498 130.238 3.68698C130.238 2.10898 128.959 0.829956 127.381 0.829956H106.377C104.799 0.829956 103.52 2.10898 103.52 3.68698C103.52 5.26498 104.799 6.54398 106.377 6.54398Z" fill="#686868"/>
<path d="M106.377 6.07898H127.381C128.881 6.07898 130.108 4.92298 130.226 3.45398C130.232 3.53098 130.238 3.60797 130.238 3.68597C130.238 5.26397 128.959 6.54297 127.381 6.54297H106.377C104.799 6.54297 103.52 5.26397 103.52 3.68597C103.52 3.60797 103.526 3.53098 103.532 3.45398C103.65 4.92298 104.877 6.07898 106.377 6.07898Z" fill="#A8A8A8"/>
<path d="M106.377 1.46191H127.381C128.05 1.46191 128.666 1.69191 129.153 2.07791C130.033 2.77491 130.033 4.13289 129.153 4.8299C128.666 5.2159 128.05 5.44592 127.381 5.44592H106.377C105.707 5.44592 105.092 5.2159 104.605 4.8299C103.725 4.13289 103.725 2.77491 104.605 2.07791C105.092 1.69291 105.707 1.46191 106.377 1.46191Z" fill="#A8A8A8"/>
<path d="M104.884 4.77795C104.884 5.36195 128.934 5.36195 128.934 4.77795C128.062 4.00695 127.415 2.77895 128.436 1.85895L126.006 1.80994C127.693 2.21994 126.954 3.04994 126.94 3.42194C126.921 3.92294 106.898 3.92694 106.878 3.42194C106.864 3.05094 106.124 2.21994 107.812 1.80994L105.382 1.85895C106.403 2.77895 105.757 4.00795 104.884 4.77795Z" fill="#D4D4D4"/>
<path d="M91.5305 112.281L90.2275 112.672L90.1245 114.129L91.2145 114.298L91.5305 112.281Z" fill="#A8A8A8"/>
<path d="M91.5305 112.281L90.2275 112.672L90.3425 111.984L91.7005 110.914L91.5305 112.281Z" fill="#494949"/>
<path d="M91.3575 115.694C91.5925 115.868 91.8805 115.976 92.1945 115.989C92.2365 115.991 92.2775 115.99 92.3185 115.988C92.3105 115.987 92.3035 115.984 92.2965 115.983C93.0885 115.964 93.7425 115.34 93.7765 114.537L94.2535 103.385C94.2875 102.582 93.6895 101.904 92.9015 101.817C92.9095 101.817 92.9165 101.814 92.9235 101.814C92.8825 101.809 92.8425 101.804 92.8005 101.803C92.4865 101.79 92.1905 101.873 91.9415 102.026C91.5265 102.281 91.2415 102.732 91.2185 103.255L90.7415 114.407C90.7205 114.931 90.9655 115.404 91.3575 115.694Z" fill="#494949"/>
<path d="M91.0297 114.915L91.5068 103.763C91.5428 102.925 92.2507 102.275 93.0887 102.311C93.9267 102.347 94.5767 103.055 94.5407 103.893L94.0638 115.045C94.0278 115.883 93.3197 116.533 92.4817 116.497C91.6437 116.462 90.9937 115.753 91.0297 114.915Z" fill="#686868"/>
<path d="M91.2753 114.926L91.7523 103.774C91.7863 102.978 92.4283 102.352 93.2103 102.323C93.1693 102.318 93.1293 102.313 93.0873 102.312C92.2493 102.276 91.5413 102.926 91.5053 103.764L91.0283 114.916C90.9923 115.754 91.6423 116.462 92.4803 116.498C92.5223 116.5 92.5633 116.499 92.6043 116.497C91.8273 116.4 91.2413 115.722 91.2753 114.926Z" fill="#A8A8A8"/>
<path d="M93.7277 115.031L94.2047 103.879C94.2197 103.524 94.1117 103.191 93.9177 102.924C93.5677 102.441 92.8467 102.41 92.4567 102.861C92.2407 103.111 92.1047 103.432 92.0897 103.788L91.6127 114.94C91.5977 115.295 91.7057 115.628 91.8997 115.895C92.2497 116.378 92.9707 116.409 93.3607 115.958C93.5757 115.708 93.7127 115.386 93.7277 115.031Z" fill="#A8A8A8"/>
<path d="M68.7524 111.307L70.0164 111.808L69.9954 113.269L68.8954 113.344L68.7524 111.307Z" fill="#A8A8A8"/>
<path d="M68.7527 111.307L70.0167 111.808L69.9617 111.113L68.6997 109.93L68.7527 111.307Z" fill="#494949"/>
<path d="M68.6337 114.722C68.3847 114.875 68.0887 114.958 67.7747 114.945C67.7327 114.943 67.6927 114.938 67.6517 114.933C67.6597 114.933 67.6667 114.93 67.6737 114.93C66.8857 114.843 66.2877 114.166 66.3217 113.362L66.7987 102.21C66.8327 101.407 67.4867 100.783 68.2787 100.764C68.2707 100.763 68.2647 100.76 68.2567 100.759C68.2977 100.757 68.3387 100.756 68.3797 100.758C68.6937 100.771 68.9817 100.879 69.2167 101.053C69.6087 101.343 69.8537 101.816 69.8317 102.34L69.3547 113.492C69.3337 114.016 69.0487 114.467 68.6337 114.722Z" fill="#494949"/>
<path d="M69.0266 113.975L69.5036 102.823C69.5396 101.985 68.8896 101.277 68.0516 101.241C67.2136 101.205 66.5056 101.855 66.4696 102.693L65.9926 113.845C65.9566 114.683 66.6066 115.391 67.4446 115.427C68.2826 115.463 68.9916 114.813 69.0266 113.975Z" fill="#686868"/>
<path d="M68.7808 113.964L69.2578 102.812C69.2918 102.016 68.7058 101.338 67.9288 101.242C67.9698 101.24 68.0108 101.239 68.0528 101.241C68.8908 101.277 69.5408 101.985 69.5048 102.823L69.0278 113.975C68.9918 114.813 68.2838 115.463 67.4458 115.427C67.4038 115.425 67.3638 115.42 67.3228 115.416C68.1048 115.386 68.7468 114.761 68.7808 113.964Z" fill="#A8A8A8"/>
<path d="M66.3285 113.86L66.8055 102.708C66.8205 102.353 66.9565 102.031 67.1725 101.781C67.5625 101.33 68.2835 101.36 68.6335 101.843C68.8275 102.11 68.9355 102.442 68.9205 102.798L68.4435 113.95C68.4285 114.305 68.2915 114.627 68.0765 114.877C67.6865 115.328 66.9655 115.298 66.6155 114.814C66.4215 114.547 66.3135 114.215 66.3285 113.86Z" fill="#A8A8A8"/>
<path d="M69.8198 113.974L90.3188 114.85L90.7848 99.2539C90.8258 98.2939 90.0808 97.4829 89.1208 97.4419L72.2978 96.7229C71.3378 96.6819 70.5268 97.4269 70.4848 98.3869L69.8198 113.974Z" fill="#686868"/>
<path d="M72.2398 98.1149L89.0628 98.8339C90.0228 98.8749 90.7878 99.2219 90.7468 100.182C90.7878 99.2219 90.0428 98.4109 89.0828 98.3699L72.2598 97.6509C71.2998 97.6099 70.4888 98.3549 70.4468 99.3139C70.4878 98.3549 71.2798 98.0739 72.2398 98.1149Z" fill="#A8A8A8"/>
<path d="M72.2588 97.6509L89.0818 98.3699C90.0418 98.4109 90.7868 99.2219 90.7458 100.182L90.7858 99.2539C90.8268 98.2939 90.0818 97.4829 89.1218 97.4419L72.2988 96.7229C71.3388 96.6819 70.5278 97.4269 70.4858 98.3869L70.4458 99.3149C70.4878 98.3549 71.2988 97.6099 72.2588 97.6509Z" fill="#494949"/>
<path d="M72.9786 112.858L87.1856 113.465C88.6116 113.526 89.8146 112.485 89.8716 111.139L90.2516 102.247C90.3086 100.902 89.1996 99.7619 87.7736 99.7009L73.5666 99.0939C72.1406 99.0329 70.9376 100.074 70.8806 101.42L70.5006 110.312C70.4436 111.657 71.5526 112.797 72.9786 112.858Z" fill="#A9A9A9"/>
<path d="M73.5676 99.094L87.7746 99.701C89.2006 99.762 90.3096 100.902 90.2526 102.247L90.2206 102.992C90.2786 101.647 89.1686 100.507 87.7426 100.446L73.5356 99.839C72.1096 99.778 70.9066 100.819 70.8496 102.165L70.8816 101.42C70.9386 100.075 72.1416 99.033 73.5676 99.094Z" fill="#D4D4D4"/>
<path d="M72.9786 112.858L87.1856 113.465C88.6116 113.526 89.8146 112.485 89.8716 111.139L89.9036 110.394C89.8466 111.739 88.6436 112.781 87.2176 112.72L73.0106 112.113C71.5846 112.052 70.4756 110.912 70.5326 109.567L70.5006 110.312C70.4436 111.657 71.5526 112.797 72.9786 112.858Z" fill="#494949"/>
<path d="M92.5089 119.39C91.9479 118.019 90.8769 114.213 89.7919 114.167L70.3309 113.335C69.2859 113.29 67.9839 116.917 67.2979 118.252L92.5089 119.39Z" fill="#494949"/>
<path d="M69.4288 117.44L90.4128 118.337C91.9898 118.404 93.2128 119.737 93.1458 121.314C93.0788 122.891 91.7458 124.114 90.1688 124.047L69.1848 123.15C67.6078 123.083 66.3848 121.75 66.4518 120.173C66.5198 118.596 67.8518 117.372 69.4288 117.44Z" fill="#686868"/>
<path d="M69.4087 117.904L90.3927 118.801C91.8907 118.865 93.0677 120.072 93.1237 121.545C93.1337 121.468 93.1417 121.392 93.1457 121.313C93.2127 119.736 91.9897 118.404 90.4127 118.336L69.4287 117.439C67.8517 117.372 66.5197 118.595 66.4517 120.172C66.4487 120.25 66.4507 120.327 66.4537 120.404C66.6347 118.942 67.9107 117.84 69.4087 117.904Z" fill="#A8A8A8"/>
<path d="M69.2116 122.517L90.1956 123.414C90.8646 123.443 91.4896 123.239 91.9926 122.874C92.9016 122.215 92.9596 120.859 92.1106 120.125C91.6406 119.719 91.0356 119.462 90.3666 119.434L69.3816 118.537C68.7126 118.508 68.0876 118.712 67.5846 119.077C66.6756 119.736 66.6176 121.092 67.4666 121.826C67.9376 122.232 68.5426 122.488 69.2116 122.517Z" fill="#A8A8A8"/>
<path d="M67.8618 119.14C67.8868 118.556 91.9148 119.584 91.8898 120.167C90.9858 120.9 90.2868 122.1 91.2678 123.062L88.8378 123.007C90.5408 122.67 89.8378 121.808 89.8398 121.437C89.8418 120.936 69.8378 120.076 69.7968 120.58C69.7668 120.95 68.9928 121.749 70.6608 122.23L68.2348 122.077C69.2948 121.202 68.7008 119.947 67.8618 119.14Z" fill="#D4D4D4"/>
<path d="M32.0347 108.564L33.2737 109.125L33.1807 110.583L32.0787 110.605L32.0347 108.564Z" fill="#A8A8A8"/>
<path d="M32.0347 108.564L33.2737 109.125L33.2517 108.428L32.0487 107.186L32.0347 108.564Z" fill="#494949"/>
<path d="M31.7508 111.969C31.4948 112.11 31.1948 112.179 30.8818 112.15C30.8398 112.146 30.7998 112.14 30.7598 112.133C30.7678 112.133 30.7748 112.131 30.7828 112.131C30.0008 112.006 29.4358 111.301 29.5088 110.5L30.5248 99.3839C30.5978 98.5829 31.2818 97.9919 32.0738 98.0109C32.0658 98.0099 32.0598 98.0059 32.0518 98.0049C32.0928 98.0059 32.1338 98.0059 32.1748 98.0099C32.4878 98.0389 32.7698 98.1599 32.9968 98.3459C33.3738 98.6549 33.5968 99.1389 33.5488 99.6609L32.5328 110.777C32.4838 111.298 32.1778 111.734 31.7508 111.969Z" fill="#494949"/>
<path d="M32.1798 111.241L33.1958 100.125C33.2718 99.2898 32.6568 98.5509 31.8218 98.4749C30.9868 98.3989 30.2478 99.0138 30.1718 99.8488L29.1558 110.965C29.0798 111.8 29.6948 112.539 30.5298 112.615C31.3648 112.692 32.1038 112.077 32.1798 111.241Z" fill="#686868"/>
<path d="M31.9337 111.219L32.9497 100.103C33.0217 99.3088 32.4697 98.6038 31.6977 98.4698C31.7387 98.4698 31.7797 98.4709 31.8217 98.4749C32.6567 98.5509 33.2717 99.2898 33.1957 100.125L32.1797 111.241C32.1037 112.076 31.3647 112.691 30.5297 112.615C30.4887 112.611 30.4477 112.605 30.4077 112.598C31.1907 112.606 31.8617 112.013 31.9337 111.219Z" fill="#A8A8A8"/>
<path d="M29.4909 110.996L30.5069 99.8799C30.5389 99.5259 30.6909 99.2109 30.9189 98.9719C31.3299 98.5399 32.0489 98.6059 32.3749 99.1049C32.5559 99.3809 32.6479 99.7179 32.6159 100.073L31.5999 111.189C31.5679 111.543 31.4159 111.858 31.1879 112.097C30.7759 112.529 30.0579 112.463 29.7319 111.964C29.5509 111.687 29.4579 111.35 29.4909 110.996Z" fill="#A8A8A8"/>
<path d="M54.7386 110.638L53.4186 110.966L53.2456 112.416L54.3256 112.637L54.7386 110.638Z" fill="#A8A8A8"/>
<path d="M54.7385 110.638L53.4185 110.966L53.5665 110.284L54.9745 109.281L54.7385 110.638Z" fill="#494949"/>
<path d="M54.4015 114.038C54.6275 114.223 54.9105 114.345 55.2235 114.374C55.2645 114.378 55.3055 114.379 55.3465 114.379C55.3385 114.378 55.3325 114.374 55.3245 114.373C56.1165 114.392 56.8005 113.801 56.8735 113L57.8895 101.884C57.9625 101.083 57.3975 100.378 56.6155 100.253C56.6235 100.253 56.6305 100.251 56.6385 100.251C56.5985 100.244 56.5575 100.237 56.5165 100.234C56.2035 100.205 55.9035 100.274 55.6475 100.415C55.2205 100.65 54.9135 101.086 54.8665 101.608L53.8505 112.724C53.8015 113.246 54.0235 113.73 54.4015 114.038Z" fill="#494949"/>
<path d="M54.1108 113.245L55.1268 102.129C55.2028 101.294 55.9418 100.679 56.7768 100.755C57.6118 100.831 58.2268 101.57 58.1508 102.405L57.1348 113.521C57.0588 114.356 56.3198 114.971 55.4848 114.895C54.6498 114.819 54.0348 114.08 54.1108 113.245Z" fill="#686868"/>
<path d="M54.3568 113.268L55.3728 102.152C55.4448 101.358 56.1168 100.765 56.8998 100.773C56.8598 100.766 56.8188 100.759 56.7778 100.756C55.9428 100.68 55.2038 101.295 55.1278 102.13L54.1118 113.246C54.0358 114.081 54.6508 114.82 55.4858 114.896C55.5278 114.9 55.5688 114.901 55.6088 114.901C54.8368 114.767 54.2848 114.061 54.3568 113.268Z" fill="#A8A8A8"/>
<path d="M56.8008 113.491L57.8168 102.375C57.8488 102.021 57.7568 101.684 57.5768 101.408C57.2508 100.908 56.5318 100.843 56.1208 101.275C55.8928 101.514 55.7418 101.829 55.7088 102.183L54.6928 113.299C54.6608 113.653 54.7528 113.99 54.9328 114.266C55.2588 114.766 55.9778 114.831 56.3888 114.399C56.6168 114.16 56.7678 113.845 56.8008 113.491Z" fill="#A8A8A8"/>
<path d="M53.3256 113.138L32.8926 111.271L34.5116 95.7529C34.5996 94.7959 35.4456 94.0919 36.4026 94.1789L53.1706 95.7109C54.1276 95.7979 54.8316 96.6449 54.7456 97.6009L53.3256 113.138Z" fill="#686868"/>
<path d="M53.0438 97.0989L36.2758 95.5669C35.3188 95.4799 34.5148 95.722 34.4268 96.678C34.5148 95.721 35.3608 95.0169 36.3178 95.1039L53.0858 96.6359C54.0428 96.7229 54.7478 97.57 54.6608 98.527C54.7478 97.57 54.0008 97.1859 53.0438 97.0989Z" fill="#A8A8A8"/>
<path d="M53.0858 96.6359L36.3178 95.1039C35.3608 95.0169 34.5148 95.7209 34.4268 96.6779L34.5118 95.7529C34.5998 94.7959 35.4458 94.0919 36.4028 94.1789L53.1708 95.7109C54.1278 95.7979 54.8318 96.6449 54.7458 97.6009L54.6608 98.5259C54.7478 97.5699 54.0428 96.7229 53.0858 96.6359Z" fill="#494949"/>
<path d="M50.3434 111.611L36.1824 110.317C34.7614 110.187 33.7084 108.995 33.8304 107.654L34.6404 98.7909C34.7634 97.4499 36.0144 96.4679 37.4364 96.5979L51.5974 97.8919C53.0184 98.0219 54.0714 99.2139 53.9494 100.555L53.1394 109.418C53.0164 110.759 51.7644 111.741 50.3434 111.611Z" fill="#A9A9A9"/>
<path d="M51.5968 97.8919L37.4358 96.5979C36.0148 96.4679 34.7628 97.4499 34.6398 98.7909L34.5718 99.5339C34.6948 98.1929 35.9458 97.2109 37.3668 97.3409L51.5278 98.6349C52.9488 98.7649 54.0018 99.9569 53.8798 101.298L53.9478 100.555C54.0708 99.2139 53.0188 98.0219 51.5968 97.8919Z" fill="#D4D4D4"/>
<path d="M50.3434 111.611L36.1824 110.317C34.7614 110.187 33.7084 108.995 33.8304 107.654L33.8984 106.911C33.7754 108.252 34.8284 109.444 36.2504 109.574L50.4114 110.868C51.8324 110.998 53.0844 110.016 53.2074 108.675L53.1394 109.418C53.0164 110.759 51.7644 111.741 50.3434 111.611Z" fill="#494949"/>
<path d="M30.1167 115.479C30.8557 114.195 32.4247 110.566 33.5057 110.665L52.9037 112.437C53.9457 112.532 54.7517 116.3 55.2527 117.715L30.1167 115.479Z" fill="#494949"/>
<path d="M53.2509 116.625L32.3339 114.714C30.7629 114.571 29.3719 115.728 29.2289 117.3C29.0849 118.872 30.2429 120.262 31.8139 120.405L52.7309 122.316C54.3019 122.46 55.6929 121.302 55.8359 119.731C55.9799 118.159 54.8229 116.769 53.2509 116.625Z" fill="#686868"/>
<path d="M53.2087 117.088L32.2917 115.177C30.7987 115.04 29.4708 116.08 29.2188 117.532C29.2198 117.455 29.2207 117.378 29.2277 117.3C29.3717 115.728 30.7617 114.571 32.3327 114.714L53.2497 116.625C54.8207 116.769 55.9787 118.159 55.8347 119.73C55.8277 119.808 55.8148 119.884 55.8018 119.96C55.8188 118.487 54.7017 117.224 53.2087 117.088Z" fill="#A8A8A8"/>
<path d="M52.789 121.686L31.872 119.775C31.205 119.714 30.613 119.429 30.164 119C29.351 118.226 29.475 116.874 30.414 116.26C30.934 115.92 31.568 115.747 32.235 115.808L53.152 117.719C53.819 117.78 54.411 118.065 54.861 118.494C55.674 119.268 55.55 120.62 54.611 121.234C54.089 121.573 53.455 121.747 52.789 121.686Z" fill="#A8A8A8"/>
<path d="M54.577 118.519C54.63 117.937 30.68 115.749 30.627 116.331C31.426 117.178 31.958 118.46 30.857 119.283L33.273 119.553C31.63 118.992 32.442 118.231 32.49 117.863C32.555 117.366 52.495 119.183 52.469 119.688C52.45 120.059 53.11 120.954 51.393 121.208L53.818 121.38C52.882 120.372 53.638 119.208 54.577 118.519Z" fill="#D4D4D4"/>
<path d="M142.228 112.281L143.531 112.672L143.634 114.129L142.545 114.298L142.228 112.281Z" fill="#A8A8A8"/>
<path d="M142.228 112.281L143.531 112.672L143.416 111.984L142.059 110.914L142.228 112.281Z" fill="#494949"/>
<path d="M142.401 115.694C142.166 115.868 141.878 115.976 141.564 115.989C141.522 115.991 141.481 115.99 141.44 115.988C141.448 115.987 141.455 115.984 141.462 115.983C140.67 115.964 140.016 115.34 139.982 114.537L139.505 103.385C139.471 102.582 140.069 101.904 140.857 101.817C140.849 101.817 140.842 101.814 140.834 101.814C140.875 101.809 140.915 101.804 140.957 101.803C141.271 101.79 141.567 101.873 141.816 102.026C142.231 102.281 142.516 102.732 142.539 103.255L143.016 114.407C143.038 114.931 142.793 115.404 142.401 115.694Z" fill="#494949"/>
<path d="M142.729 114.915L142.252 103.763C142.216 102.925 141.508 102.275 140.67 102.311C139.832 102.347 139.182 103.055 139.218 103.893L139.695 115.045C139.731 115.883 140.439 116.533 141.277 116.497C142.115 116.462 142.765 115.753 142.729 114.915Z" fill="#686868"/>
<path d="M142.483 114.926L142.006 103.774C141.972 102.978 141.33 102.352 140.548 102.323C140.589 102.318 140.629 102.313 140.671 102.312C141.509 102.276 142.217 102.926 142.253 103.764L142.73 114.916C142.766 115.754 142.116 116.462 141.278 116.498C141.236 116.5 141.195 116.499 141.154 116.497C141.931 116.4 142.517 115.722 142.483 114.926Z" fill="#A8A8A8"/>
<path d="M140.031 115.031L139.554 103.879C139.539 103.524 139.647 103.191 139.841 102.924C140.191 102.441 140.912 102.41 141.302 102.861C141.518 103.111 141.654 103.432 141.669 103.788L142.146 114.94C142.161 115.295 142.053 115.628 141.859 115.895C141.509 116.378 140.788 116.409 140.398 115.958C140.183 115.708 140.047 115.386 140.031 115.031Z" fill="#A8A8A8"/>
<path d="M165.006 111.307L163.742 111.808L163.764 113.269L164.863 113.344L165.006 111.307Z" fill="#A8A8A8"/>
<path d="M165.006 111.307L163.742 111.808L163.798 111.113L165.059 109.93L165.006 111.307Z" fill="#494949"/>
<path d="M165.126 114.722C165.375 114.875 165.671 114.958 165.985 114.945C166.027 114.943 166.067 114.938 166.108 114.933C166.1 114.933 166.093 114.93 166.085 114.93C166.873 114.843 167.471 114.166 167.437 113.362L166.96 102.21C166.926 101.407 166.272 100.783 165.48 100.764C165.488 100.763 165.494 100.76 165.502 100.759C165.461 100.757 165.42 100.756 165.378 100.758C165.064 100.771 164.776 100.879 164.541 101.053C164.149 101.343 163.904 101.816 163.926 102.34L164.403 113.492C164.425 114.016 164.71 114.467 165.126 114.722Z" fill="#494949"/>
<path d="M164.732 113.975L164.255 102.823C164.219 101.985 164.869 101.277 165.707 101.241C166.545 101.205 167.253 101.855 167.289 102.693L167.766 113.845C167.802 114.683 167.152 115.391 166.314 115.427C165.476 115.463 164.768 114.813 164.732 113.975Z" fill="#686868"/>
<path d="M164.979 113.964L164.502 102.812C164.468 102.016 165.054 101.338 165.831 101.242C165.79 101.24 165.749 101.239 165.707 101.241C164.869 101.277 164.219 101.985 164.255 102.823L164.732 113.975C164.768 114.813 165.476 115.463 166.314 115.427C166.356 115.425 166.396 115.42 166.437 115.416C165.654 115.386 165.013 114.761 164.979 113.964Z" fill="#A8A8A8"/>
<path d="M167.43 113.86L166.953 102.708C166.938 102.353 166.801 102.031 166.586 101.781C166.196 101.33 165.475 101.36 165.125 101.843C164.931 102.11 164.823 102.442 164.838 102.798L165.315 113.95C165.33 114.305 165.467 114.627 165.682 114.877C166.072 115.328 166.793 115.298 167.143 114.814C167.337 114.547 167.445 114.215 167.43 113.86Z" fill="#A8A8A8"/>
<path d="M163.939 113.974L143.44 114.85L142.974 99.2539C142.933 98.2939 143.678 97.4829 144.638 97.4419L161.461 96.7229C162.421 96.6819 163.232 97.4269 163.274 98.3869L163.939 113.974Z" fill="#686868"/>
<path d="M161.52 98.1149L144.697 98.8339C143.737 98.8749 142.972 99.2219 143.013 100.182C142.972 99.2219 143.717 98.4109 144.677 98.3699L161.5 97.6509C162.46 97.6099 163.271 98.3549 163.313 99.3139C163.271 98.3549 162.48 98.0739 161.52 98.1149Z" fill="#A8A8A8"/>
<path d="M161.5 97.6509L144.677 98.3699C143.717 98.4109 142.972 99.2219 143.013 100.182L142.973 99.2539C142.932 98.2939 143.677 97.4829 144.637 97.4419L161.46 96.7229C162.42 96.6819 163.231 97.4269 163.273 98.3869L163.313 99.3149C163.271 98.3549 162.46 97.6099 161.5 97.6509Z" fill="#494949"/>
<path d="M160.78 112.858L146.573 113.465C145.147 113.526 143.944 112.485 143.887 111.139L143.507 102.247C143.45 100.902 144.559 99.7619 145.985 99.7009L160.192 99.0939C161.618 99.0329 162.821 100.074 162.878 101.42L163.258 110.312C163.315 111.657 162.206 112.797 160.78 112.858Z" fill="#A9A9A9"/>
<path d="M160.191 99.094L145.984 99.701C144.558 99.762 143.449 100.902 143.506 102.247L143.538 102.992C143.481 101.647 144.59 100.507 146.016 100.446L160.223 99.839C161.649 99.778 162.852 100.819 162.909 102.165L162.877 101.42C162.82 100.075 161.617 99.033 160.191 99.094Z" fill="#D4D4D4"/>
<path d="M160.78 112.858L146.573 113.465C145.147 113.526 143.944 112.485 143.887 111.139L143.855 110.394C143.912 111.739 145.115 112.781 146.541 112.72L160.748 112.113C162.174 112.052 163.283 110.912 163.226 109.567L163.258 110.312C163.315 111.657 162.206 112.797 160.78 112.858Z" fill="#494949"/>
<path d="M141.251 119.39C141.812 118.019 142.883 114.213 143.968 114.167L163.429 113.335C164.474 113.29 165.776 116.917 166.462 118.252L141.251 119.39Z" fill="#494949"/>
<path d="M164.33 117.44L143.346 118.337C141.769 118.404 140.546 119.737 140.613 121.314C140.68 122.891 142.013 124.114 143.59 124.047L164.574 123.15C166.151 123.083 167.374 121.75 167.307 120.173C167.24 118.596 165.907 117.372 164.33 117.44Z" fill="#686868"/>
<path d="M164.35 117.904L143.366 118.801C141.868 118.865 140.691 120.072 140.635 121.545C140.626 121.468 140.617 121.392 140.613 121.313C140.546 119.736 141.769 118.404 143.346 118.336L164.33 117.439C165.907 117.372 167.239 118.595 167.307 120.172C167.31 120.25 167.308 120.327 167.305 120.404C167.124 118.942 165.848 117.84 164.35 117.904Z" fill="#A8A8A8"/>
<path d="M164.547 122.517L143.562 123.414C142.893 123.443 142.268 123.239 141.765 122.874C140.856 122.215 140.798 120.859 141.647 120.125C142.117 119.719 142.722 119.462 143.391 119.434L164.376 118.537C165.045 118.508 165.67 118.712 166.173 119.077C167.082 119.736 167.14 121.092 166.29 121.826C165.821 122.232 165.216 122.488 164.547 122.517Z" fill="#A8A8A8"/>
<path d="M165.897 119.14C165.872 118.556 141.844 119.584 141.869 120.167C142.773 120.9 143.472 122.1 142.491 123.062L144.921 123.007C143.218 122.67 143.921 121.808 143.919 121.437C143.917 120.936 163.921 120.076 163.962 120.58C163.992 120.95 164.766 121.749 163.098 122.23L165.524 122.077C164.465 121.202 165.058 119.947 165.897 119.14Z" fill="#D4D4D4"/>
<path d="M201.724 108.564L200.485 109.125L200.578 110.583L201.68 110.605L201.724 108.564Z" fill="#A8A8A8"/>
<path d="M201.724 108.564L200.485 109.125L200.507 108.428L201.71 107.186L201.724 108.564Z" fill="#494949"/>
<path d="M202.008 111.969C202.264 112.11 202.564 112.179 202.877 112.15C202.919 112.146 202.959 112.14 202.999 112.133C202.991 112.133 202.984 112.131 202.976 112.131C203.758 112.006 204.323 111.301 204.25 110.5L203.234 99.3839C203.161 98.5829 202.477 97.9919 201.685 98.0109C201.692 98.0099 201.699 98.0059 201.707 98.0049C201.666 98.0059 201.625 98.0059 201.584 98.0099C201.271 98.0389 200.989 98.1599 200.762 98.3459C200.385 98.6549 200.162 99.1389 200.21 99.6609L201.226 110.777C201.275 111.298 201.581 111.734 202.008 111.969Z" fill="#494949"/>
<path d="M201.579 111.241L200.563 100.125C200.487 99.2898 201.102 98.5509 201.937 98.4749C202.772 98.3989 203.511 99.0138 203.587 99.8488L204.603 110.965C204.679 111.8 204.064 112.539 203.229 112.615C202.394 112.692 201.655 112.077 201.579 111.241Z" fill="#686868"/>
<path d="M201.825 111.219L200.809 100.103C200.737 99.3088 201.289 98.6038 202.061 98.4698C202.02 98.4698 201.979 98.4709 201.937 98.4749C201.102 98.5509 200.487 99.2898 200.563 100.125L201.579 111.241C201.655 112.076 202.394 112.691 203.229 112.615C203.27 112.611 203.311 112.605 203.351 112.598C202.569 112.606 201.897 112.013 201.825 111.219Z" fill="#A8A8A8"/>
<path d="M204.268 110.996L203.252 99.8799C203.22 99.5259 203.068 99.2109 202.84 98.9719C202.429 98.5399 201.71 98.6059 201.384 99.1049C201.203 99.3809 201.111 99.7179 201.143 100.073L202.159 111.189C202.191 111.543 202.343 111.858 202.571 112.097C202.983 112.529 203.701 112.463 204.027 111.964C204.209 111.687 204.301 111.35 204.268 110.996Z" fill="#A8A8A8"/>
<path d="M179.02 110.638L180.34 110.966L180.513 112.416L179.434 112.637L179.02 110.638Z" fill="#A8A8A8"/>
<path d="M179.02 110.638L180.34 110.966L180.192 110.284L178.784 109.281L179.02 110.638Z" fill="#494949"/>
<path d="M179.357 114.038C179.131 114.223 178.848 114.345 178.535 114.374C178.494 114.378 178.453 114.379 178.412 114.379C178.42 114.378 178.426 114.374 178.434 114.373C177.642 114.392 176.958 113.801 176.885 113L175.869 101.884C175.796 101.083 176.361 100.378 177.143 100.253C177.135 100.253 177.128 100.251 177.12 100.251C177.16 100.244 177.201 100.237 177.242 100.234C177.555 100.205 177.855 100.274 178.111 100.415C178.538 100.65 178.845 101.086 178.892 101.608L179.908 112.724C179.957 113.246 179.735 113.73 179.357 114.038Z" fill="#494949"/>
<path d="M179.648 113.245L178.632 102.129C178.556 101.294 177.817 100.679 176.982 100.755C176.147 100.831 175.532 101.57 175.608 102.405L176.624 113.521C176.7 114.356 177.439 114.971 178.274 114.895C179.109 114.819 179.724 114.08 179.648 113.245Z" fill="#686868"/>
<path d="M179.402 113.268L178.386 102.152C178.313 101.358 177.642 100.765 176.859 100.773C176.899 100.766 176.94 100.759 176.981 100.756C177.816 100.68 178.555 101.295 178.631 102.13L179.647 113.246C179.723 114.081 179.108 114.82 178.273 114.896C178.232 114.9 178.191 114.901 178.15 114.901C178.922 114.767 179.475 114.061 179.402 113.268Z" fill="#A8A8A8"/>
<path d="M176.958 113.491L175.942 102.375C175.91 102.021 176.002 101.684 176.182 101.408C176.508 100.908 177.227 100.843 177.638 101.275C177.866 101.514 178.017 101.829 178.05 102.183L179.066 113.299C179.098 113.653 179.006 113.99 178.826 114.266C178.5 114.766 177.781 114.831 177.37 114.399C177.143 114.16 176.991 113.845 176.958 113.491Z" fill="#A8A8A8"/>
<path d="M180.433 113.138L200.866 111.271L199.247 95.7529C199.159 94.7959 198.313 94.0919 197.356 94.1789L180.588 95.7109C179.631 95.7979 178.927 96.6449 179.014 97.6009L180.433 113.138Z" fill="#686868"/>
<path d="M180.715 97.0989L197.483 95.5669C198.44 95.4799 199.244 95.722 199.332 96.678C199.244 95.721 198.398 95.0169 197.441 95.1039L180.673 96.6359C179.716 96.7229 179.011 97.57 179.098 98.527C179.011 97.57 179.758 97.1859 180.715 97.0989Z" fill="#A8A8A8"/>
<path d="M180.673 96.6359L197.441 95.1039C198.398 95.0169 199.244 95.7209 199.332 96.6779L199.247 95.7529C199.159 94.7959 198.313 94.0919 197.356 94.1789L180.588 95.7109C179.631 95.7979 178.927 96.6449 179.014 97.6009L179.098 98.5259C179.011 97.5699 179.716 96.7229 180.673 96.6359Z" fill="#494949"/>
<path d="M183.416 111.611L197.577 110.317C198.998 110.187 200.051 108.995 199.929 107.654L199.119 98.7909C198.997 97.4499 197.745 96.4679 196.323 96.5979L182.162 97.8919C180.741 98.0219 179.688 99.2139 179.81 100.555L180.62 109.418C180.743 110.759 181.994 111.741 183.416 111.611Z" fill="#A9A9A9"/>
<path d="M182.162 97.8919L196.323 96.5979C197.744 96.4679 198.996 97.4499 199.119 98.7909L199.187 99.5339C199.064 98.1929 197.813 97.2109 196.391 97.3409L182.23 98.6349C180.809 98.7649 179.756 99.9569 179.878 101.298L179.81 100.555C179.688 99.2139 180.741 98.0219 182.162 97.8919Z" fill="#D4D4D4"/>
<path d="M183.416 111.611L197.577 110.317C198.998 110.187 200.051 108.995 199.929 107.654L199.861 106.911C199.983 108.252 198.931 109.444 197.509 109.574L183.348 110.868C181.927 110.998 180.675 110.016 180.552 108.675L180.62 109.418C180.743 110.759 181.994 111.741 183.416 111.611Z" fill="#494949"/>
<path d="M203.642 115.479C202.903 114.195 201.334 110.566 200.253 110.665L180.855 112.437C179.813 112.532 179.007 116.3 178.506 117.715L203.642 115.479Z" fill="#494949"/>
<path d="M180.508 116.625L201.424 114.714C202.996 114.571 204.386 115.728 204.529 117.3C204.673 118.872 203.515 120.262 201.944 120.405L181.027 122.316C179.455 122.46 178.065 121.302 177.922 119.731C177.779 118.159 178.937 116.769 180.508 116.625Z" fill="#686868"/>
<path d="M180.55 117.088L201.467 115.177C202.96 115.04 204.288 116.08 204.54 117.532C204.539 117.455 204.538 117.378 204.531 117.3C204.387 115.728 202.997 114.571 201.426 114.714L180.509 116.625C178.938 116.769 177.78 118.159 177.924 119.73C177.931 119.808 177.944 119.884 177.957 119.96C177.94 118.487 179.057 117.224 180.55 117.088Z" fill="#A8A8A8"/>
<path d="M180.971 121.686L201.888 119.775C202.555 119.714 203.147 119.429 203.596 119C204.409 118.226 204.285 116.874 203.346 116.26C202.826 115.92 202.192 115.747 201.525 115.808L180.608 117.719C179.941 117.78 179.349 118.065 178.9 118.494C178.087 119.268 178.211 120.62 179.15 121.234C179.67 121.573 180.304 121.747 180.971 121.686Z" fill="#A8A8A8"/>
<path d="M179.182 118.519C179.129 117.937 203.079 115.749 203.133 116.331C202.335 117.178 201.802 118.46 202.903 119.283L200.487 119.553C202.13 118.992 201.318 118.231 201.27 117.863C201.205 117.366 181.265 119.183 181.291 119.688C181.31 120.059 180.65 120.954 182.368 121.208L179.943 121.38C180.877 120.372 180.121 119.208 179.182 118.519Z" fill="#D4D4D4"/>
<path d="M128.238 112.738L126.954 113.184L126.913 114.645L128.008 114.766L128.238 112.738Z" fill="#A8A8A8"/>
<path d="M128.238 112.738L126.954 113.184L127.039 112.492L128.35 111.365L128.238 112.738Z" fill="#494949"/>
<path d="M128.212 116.155C128.454 116.319 128.747 116.414 129.061 116.414C129.103 116.414 129.144 116.411 129.184 116.408C129.176 116.407 129.169 116.405 129.162 116.404C129.952 116.351 130.579 115.7 130.579 114.896V103.734C130.579 102.93 129.952 102.279 129.162 102.226C129.17 102.225 129.177 102.223 129.184 102.222C129.143 102.219 129.102 102.216 129.061 102.216C128.747 102.216 128.454 102.312 128.212 102.475C127.808 102.748 127.543 103.21 127.543 103.734V114.896C127.542 115.42 127.808 115.882 128.212 116.155Z" fill="#494949"/>
<path d="M127.85 115.391V104.229C127.85 103.39 128.53 102.711 129.369 102.711C130.208 102.711 130.887 103.391 130.887 104.229V115.391C130.887 116.23 130.207 116.91 129.369 116.91C128.53 116.91 127.85 116.23 127.85 115.391Z" fill="#686868"/>
<path d="M128.097 115.391V104.229C128.097 103.432 128.711 102.78 129.492 102.717C129.451 102.714 129.41 102.711 129.369 102.711C128.53 102.711 127.85 103.391 127.85 104.229V115.391C127.85 116.23 128.53 116.91 129.369 116.91C129.411 116.91 129.452 116.907 129.492 116.904C128.711 116.841 128.097 116.188 128.097 115.391Z" fill="#A8A8A8"/>
<path d="M130.551 115.391V104.229C130.551 103.873 130.429 103.546 130.224 103.287C129.854 102.819 129.132 102.819 128.762 103.287C128.557 103.546 128.435 103.873 128.435 104.229V115.391C128.435 115.747 128.557 116.074 128.762 116.333C129.133 116.801 129.854 116.801 130.224 116.333C130.428 116.074 130.551 115.747 130.551 115.391Z" fill="#A8A8A8"/>
<path d="M105.439 112.738L106.724 113.184L106.765 114.645L105.669 114.766L105.439 112.738Z" fill="#A8A8A8"/>
<path d="M105.439 112.738L106.724 113.184L106.639 112.492L105.328 111.365L105.439 112.738Z" fill="#494949"/>
<path d="M105.466 116.155C105.224 116.319 104.931 116.414 104.617 116.414C104.575 116.414 104.534 116.411 104.494 116.408C104.502 116.407 104.509 116.405 104.516 116.404C103.725 116.351 103.099 115.7 103.099 114.896V103.734C103.099 102.93 103.726 102.279 104.516 102.226C104.508 102.225 104.501 102.223 104.494 102.222C104.535 102.219 104.576 102.216 104.617 102.216C104.931 102.216 105.224 102.312 105.466 102.475C105.87 102.748 106.136 103.21 106.136 103.734V114.896C106.136 115.42 105.87 115.882 105.466 116.155Z" fill="#494949"/>
<path d="M105.828 115.391V104.229C105.828 103.39 105.148 102.711 104.309 102.711C103.47 102.711 102.791 103.391 102.791 104.229V115.391C102.791 116.23 103.471 116.91 104.309 116.91C105.148 116.91 105.828 116.23 105.828 115.391Z" fill="#686868"/>
<path d="M105.581 115.391V104.229C105.581 103.432 104.967 102.78 104.186 102.717C104.227 102.714 104.268 102.711 104.309 102.711C105.148 102.711 105.828 103.391 105.828 104.229V115.391C105.828 116.23 105.148 116.91 104.309 116.91C104.267 116.91 104.226 116.907 104.186 116.904C104.966 116.841 105.581 116.188 105.581 115.391Z" fill="#A8A8A8"/>
<path d="M103.127 115.391V104.229C103.127 103.873 103.249 103.546 103.454 103.287C103.824 102.819 104.546 102.819 104.916 103.287C105.121 103.546 105.243 103.873 105.243 104.229V115.391C105.243 115.747 105.12 116.074 104.916 116.333C104.545 116.801 103.824 116.801 103.454 116.333C103.249 116.074 103.127 115.747 103.127 115.391Z" fill="#A8A8A8"/>
<path d="M106.62 115.356H127.138L126.938 99.755C126.938 98.794 126.159 98.016 125.198 98.016H108.36C107.399 98.016 106.62 98.795 106.62 99.755V115.356Z" fill="#686868"/>
<path d="M108.36 99.4091H125.198C126.159 99.4091 126.938 99.7231 126.938 100.684C126.938 99.7231 126.159 98.9451 125.198 98.9451H108.36C107.399 98.9451 106.62 99.7241 106.62 100.684C106.62 99.7231 107.399 99.4091 108.36 99.4091Z" fill="#A8A8A8"/>
<path d="M108.36 98.944H125.198C126.159 98.944 126.938 99.723 126.938 100.683V99.754C126.938 98.793 126.159 98.015 125.198 98.015H108.36C107.399 98.015 106.62 98.794 106.62 99.754V100.683C106.62 99.723 107.399 98.944 108.36 98.944Z" fill="#494949"/>
<path d="M109.729 114.107H123.949C125.376 114.107 126.533 113.015 126.533 111.669V102.769C126.533 101.423 125.376 100.331 123.949 100.331H109.729C108.302 100.331 107.145 101.423 107.145 102.769V111.669C107.144 113.015 108.301 114.107 109.729 114.107Z" fill="#A9A9A9"/>
<path d="M109.728 100.331H123.948C125.375 100.331 126.532 101.423 126.532 102.769V103.515C126.532 102.169 125.375 101.077 123.948 101.077H109.728C108.301 101.077 107.144 102.169 107.144 103.515V102.769C107.144 101.422 108.301 100.331 109.728 100.331Z" fill="#D4D4D4"/>
<path d="M109.728 114.107H123.948C125.375 114.107 126.532 113.015 126.532 111.669V110.923C126.532 112.269 125.375 113.361 123.948 113.361H109.728C108.301 113.361 107.144 112.269 107.144 110.923V111.669C107.144 113.015 108.301 114.107 109.728 114.107Z" fill="#494949"/>
<path d="M129.519 119.799C128.9 118.453 127.668 114.696 126.582 114.696H107.103C106.057 114.696 104.911 118.375 104.283 119.739L129.519 119.799Z" fill="#494949"/>
<path d="M106.377 118.836H127.381C128.959 118.836 130.238 120.115 130.238 121.693C130.238 123.271 128.959 124.55 127.381 124.55H106.377C104.799 124.55 103.52 123.271 103.52 121.693C103.52 120.115 104.799 118.836 106.377 118.836Z" fill="#686868"/>
<path d="M106.377 119.3H127.381C128.881 119.3 130.108 120.456 130.226 121.925C130.232 121.848 130.238 121.771 130.238 121.693C130.238 120.115 128.959 118.836 127.381 118.836H106.377C104.799 118.836 103.52 120.115 103.52 121.693C103.52 121.771 103.526 121.848 103.532 121.925C103.65 120.456 104.877 119.3 106.377 119.3Z" fill="#A8A8A8"/>
<path d="M106.377 123.917H127.381C128.05 123.917 128.666 123.687 129.153 123.301C130.033 122.604 130.033 121.246 129.153 120.549C128.666 120.163 128.05 119.933 127.381 119.933H106.377C105.707 119.933 105.092 120.163 104.605 120.549C103.725 121.246 103.725 122.604 104.605 123.301C105.092 123.687 105.707 123.917 106.377 123.917Z" fill="#A8A8A8"/>
<path d="M104.884 120.601C104.884 120.017 128.934 120.017 128.934 120.601C128.062 121.372 127.415 122.6 128.436 123.52L126.006 123.569C127.693 123.159 126.954 122.329 126.94 121.957C126.921 121.456 106.898 121.452 106.878 121.957C106.864 122.328 106.124 123.159 107.812 123.569L105.382 123.52C106.403 122.601 105.757 121.372 104.884 120.601Z" fill="#D4D4D4"/>
<path d="M210.062 63.014C210.062 54.955 209.254 46.739 207.66 38.595C206.729 33.838 203.05 30.1919 198.286 29.3039C167.053 23.4849 66.6237 23.4849 35.3907 29.3039C30.6267 30.1909 26.9477 33.838 26.0167 38.595C24.4227 46.739 23.6147 54.955 23.6147 63.015C23.6147 71.074 24.4227 79.29 26.0167 87.434C26.9477 92.191 30.6267 95.837 35.3907 96.725C66.6237 102.544 167.053 102.544 198.287 96.725C203.051 95.838 206.73 92.191 207.661 87.434C209.254 79.289 210.062 71.073 210.062 63.014ZM51.7647 63.014C51.7647 61.301 53.1577 59.908 54.8707 59.908H178.807C180.52 59.908 181.913 61.301 181.913 63.014C181.913 64.727 180.52 66.12 178.807 66.12H54.8707C53.1577 66.12 51.7647 64.727 51.7647 63.014Z" fill="#984626"/>
<path d="M206.198 87.147C207.78 79.059 208.572 71.036 208.572 63.014C208.572 54.992 207.781 46.969 206.198 38.881C205.391 34.757 202.145 31.539 198.014 30.769C166.971 24.985 66.7159 24.984 35.6649 30.769C31.5339 31.539 28.2879 34.757 27.4809 38.881C25.8979 46.969 25.1069 54.992 25.1069 63.014C25.1069 71.036 25.8979 79.059 27.4809 87.147C28.2879 91.271 31.5339 94.489 35.6649 95.259C66.7159 101.044 166.971 101.043 198.014 95.259C202.145 94.489 205.391 91.271 206.198 87.147ZM54.8709 67.611C52.3319 67.611 50.2739 65.553 50.2739 63.014C50.2739 60.475 52.3319 58.417 54.8709 58.417H178.807C181.346 58.417 183.404 60.475 183.404 63.014C183.404 65.553 181.346 67.611 178.807 67.611H54.8709Z" fill="#BF5F3D"/>
<path d="M205.119 85.935C204.393 89.642 201.526 92.485 197.812 93.177C183.51 95.841 152.481 97.496 116.837 97.496C116.835 97.496 116.835 97.496 116.833 97.496C81.1896 97.496 50.1656 95.841 35.8646 93.177C32.1516 92.485 29.2836 89.642 28.5586 85.935C27.0296 78.122 26.9966 78.954 28.5586 86.936C29.2846 90.643 32.1516 93.486 35.8646 94.178C50.1646 96.842 81.1896 98.497 116.833 98.497C116.835 98.497 116.835 98.497 116.837 98.497C152.481 98.497 183.51 96.842 197.812 94.178C201.525 93.486 204.393 90.643 205.119 86.936C206.68 78.957 206.647 78.124 205.119 85.935Z" fill="#FFC2AD"/>
<path d="M178.807 56.3169H54.8708C51.7298 56.3169 49.1738 58.8719 49.1738 62.0129C49.1738 62.1819 49.1848 62.3479 49.1988 62.5129C49.4538 59.6049 51.8978 57.3169 54.8698 57.3169H178.806C181.778 57.3169 184.223 59.6049 184.477 62.5129C184.491 62.3479 184.502 62.1819 184.502 62.0129C184.504 58.8719 181.948 56.3169 178.807 56.3169Z" fill="#FFC2AD"/>
<path d="M205.119 40.048C204.393 36.341 201.526 33.498 197.812 32.806C183.51 30.142 152.481 28.487 116.837 28.487C116.835 28.487 116.835 28.487 116.833 28.487C81.1896 28.487 50.1656 30.142 35.8646 32.806C32.1516 33.498 29.2836 36.341 28.5586 40.048C27.0296 47.861 26.9966 47.029 28.5586 39.047C29.2846 35.34 32.1516 32.497 35.8646 31.805C50.1646 29.141 81.1896 27.486 116.833 27.486C116.835 27.486 116.835 27.486 116.837 27.486C152.481 27.486 183.51 29.141 197.812 31.805C201.525 32.497 204.393 35.34 205.119 39.047C206.68 47.027 206.647 47.859 205.119 40.048Z" fill="#984626"/>
<path d="M178.807 69.666H54.8708C51.7298 69.666 49.1738 67.111 49.1738 63.97C49.1738 63.801 49.1848 63.635 49.1988 63.47C49.4538 66.378 51.8978 68.666 54.8698 68.666H178.806C181.778 68.666 184.223 66.378 184.477 63.47C184.491 63.635 184.502 63.802 184.502 63.97C184.504 67.112 181.948 69.666 178.807 69.666Z" fill="#984626"/>
</svg>
