<svg width="144" height="86" viewBox="0 0 144 86" fill="none" xmlns="http://www.w3.org/2000/svg">
<path d="M12.2421 54.534L13.3001 51.796L11.5931 51.748L9.87109 54.265L12.2421 54.534Z" fill="#A8A8A8"/>
<path d="M12.2422 54.534L13.3002 51.796L14.1092 51.895L13.8472 54.664L12.2422 54.534Z" fill="#494949"/>
<path d="M8.24879 54.502C8.05779 54.785 7.9458 55.127 7.9458 55.494C7.9458 55.543 7.9488 55.591 7.9528 55.638C7.9538 55.629 7.95679 55.621 7.95779 55.612C8.01979 56.536 8.78079 57.269 9.72079 57.269H22.7658C23.7058 57.269 24.4668 56.536 24.5288 55.612C24.5298 55.621 24.5328 55.629 24.5338 55.638C24.5378 55.59 24.5408 55.542 24.5408 55.494C24.5408 55.126 24.4288 54.785 24.2378 54.502C23.9188 54.03 23.3788 53.72 22.7668 53.72H9.7198C9.1078 53.72 8.56779 54.03 8.24879 54.502Z" fill="#494949"/>
<path d="M9.14122 54.0801H22.1862C23.1662 54.0801 23.9612 54.8741 23.9612 55.8551C23.9612 56.8351 23.1662 57.6301 22.1862 57.6301H9.14122C8.16122 57.6301 7.36621 56.8351 7.36621 55.8551C7.36621 54.8741 8.16122 54.0801 9.14122 54.0801Z" fill="#686868"/>
<path d="M9.14075 54.368H22.1857C23.1167 54.368 23.8797 55.086 23.9527 55.998C23.9567 55.95 23.9597 55.902 23.9597 55.854C23.9597 54.874 23.1647 54.079 22.1847 54.079H9.13974C8.15974 54.079 7.36475 54.873 7.36475 55.854C7.36475 55.903 7.36773 55.951 7.37173 55.998C7.44673 55.086 8.20975 54.368 9.14075 54.368Z" fill="#A8A8A8"/>
<path d="M9.14088 57.236H22.1859C22.6019 57.236 22.9839 57.093 23.2859 56.853C23.8329 56.42 23.8329 55.577 23.2859 55.144C22.9839 54.904 22.6009 54.761 22.1859 54.761H9.14088C8.72488 54.761 8.34287 54.904 8.03987 55.144C7.49387 55.577 7.49387 56.42 8.03987 56.853C8.34287 57.093 8.72488 57.236 9.14088 57.236Z" fill="#A8A8A8"/>
<path d="M12.2421 30.236L13.3001 32.974L11.5931 33.022L9.87109 30.505L12.2421 30.236Z" fill="#A8A8A8"/>
<path d="M12.2422 30.236L13.3002 32.974L14.1092 32.875L13.8472 30.106L12.2422 30.236Z" fill="#494949"/>
<path d="M8.24879 30.268C8.05779 29.985 7.9458 29.643 7.9458 29.276C7.9458 29.227 7.9488 29.179 7.9528 29.132C7.9538 29.141 7.95679 29.149 7.95779 29.158C8.01979 28.234 8.78079 27.502 9.72079 27.502H22.7658C23.7058 27.502 24.4668 28.234 24.5288 29.158C24.5298 29.149 24.5328 29.141 24.5338 29.132C24.5378 29.18 24.5408 29.228 24.5408 29.276C24.5408 29.644 24.4288 29.985 24.2378 30.268C23.9188 30.74 23.3788 31.05 22.7668 31.05H9.7198C9.1078 31.05 8.56779 30.74 8.24879 30.268Z" fill="#494949"/>
<path d="M9.14122 30.69H22.1862C23.1662 30.69 23.9612 29.896 23.9612 28.915C23.9612 27.935 23.1662 27.14 22.1862 27.14H9.14122C8.16122 27.14 7.36621 27.934 7.36621 28.915C7.36621 29.896 8.16122 30.69 9.14122 30.69Z" fill="#686868"/>
<path d="M9.14075 30.402H22.1857C23.1167 30.402 23.8797 29.684 23.9527 28.772C23.9567 28.82 23.9597 28.868 23.9597 28.916C23.9597 29.896 23.1647 30.691 22.1847 30.691H9.13974C8.15974 30.691 7.36475 29.897 7.36475 28.916C7.36475 28.867 7.36773 28.819 7.37173 28.772C7.44673 29.684 8.20975 30.402 9.14075 30.402Z" fill="#A8A8A8"/>
<path d="M9.14088 27.5341H22.1859C22.6019 27.5341 22.9839 27.6771 23.2859 27.9171C23.8329 28.3501 23.8329 29.1931 23.2859 29.6261C22.9839 29.8661 22.6009 30.0091 22.1859 30.0091H9.14088C8.72488 30.0091 8.34287 29.8661 8.03987 29.6261C7.49387 29.1931 7.49387 28.3501 8.03987 27.9171C8.34287 27.6771 8.72488 27.5341 9.14088 27.5341Z" fill="#A8A8A8"/>
<path d="M6.45117 37.302L11.2192 38.423V47.264L6.45117 48.384V37.302Z" fill="#4A4A4A"/>
<path d="M6.45117 38.895L11.2192 39.693V45.993L6.45117 46.791V38.895Z" fill="#696969"/>
<path d="M29.6091 50.999C30.7961 44.34 30.7961 40.456 29.6091 33.797C29.4711 33.025 28.8661 32.414 28.0941 32.273C21.6071 31.088 19.1081 31.088 12.6211 32.273C11.8491 32.414 11.2441 33.025 11.1061 33.797C9.91907 40.456 9.91907 44.34 11.1061 50.999C11.2441 51.771 11.8491 52.382 12.6211 52.523C19.1081 53.708 21.6071 53.708 28.0941 52.523C28.8651 52.382 29.4711 51.771 29.6091 50.999Z" fill="#4A4A4A"/>
<path d="M28.7898 50.238C29.8718 44.168 29.8718 40.628 28.7898 34.558C28.6638 33.854 28.1118 33.297 27.4088 33.169C21.4958 32.089 19.2178 32.089 13.3048 33.169C12.6018 33.297 12.0488 33.854 11.9238 34.558C10.8418 40.628 10.8418 44.168 11.9238 50.238C12.0498 50.942 12.6018 51.499 13.3048 51.627C19.2178 52.707 21.4958 52.707 27.4088 51.627C28.1118 51.499 28.6648 50.942 28.7898 50.238Z" fill="#A9A9A9"/>
<path d="M26.5369 51.627C27.2399 51.499 27.7929 50.942 27.9179 50.238C28.9999 44.168 28.9999 40.628 27.9179 34.558C27.7929 33.854 27.2399 33.297 26.5369 33.169C23.7889 32.667 21.8269 32.402 19.9199 32.366C22.1179 32.325 24.2429 32.591 27.4089 33.169C28.1119 33.297 28.6649 33.854 28.7899 34.558C29.8719 40.628 29.8719 44.168 28.7899 50.238C28.6639 50.942 28.1119 51.499 27.4089 51.627C24.2429 52.205 22.1189 52.471 19.9209 52.43C21.8279 52.394 23.7899 52.129 26.5369 51.627Z" fill="#D4D4D4"/>
<path d="M14.1768 51.627C13.4738 51.499 12.9218 50.942 12.7958 50.238C11.7138 44.168 11.7138 40.628 12.7958 34.558C12.9208 33.854 13.4738 33.297 14.1768 33.169C16.9248 32.667 18.8868 32.402 20.7938 32.366C18.5958 32.325 16.4708 32.591 13.3048 33.169C12.6018 33.297 12.0488 33.854 11.9238 34.558C10.8418 40.628 10.8418 44.168 11.9238 50.238C12.0488 50.942 12.6018 51.499 13.3048 51.627C16.4708 52.205 18.5958 52.471 20.7928 52.43C18.8858 52.394 16.9238 52.129 14.1768 51.627Z" fill="#696969"/>
<path d="M6.17799 54.941L4.049 56.105C4.049 56.105 2.896 52.127 2.896 42.394C2.896 32.661 4.061 28.691 4.061 28.691L6.177 29.848C6.673 30.119 6.981 30.639 6.981 31.204V53.585C6.982 54.15 6.67399 54.67 6.17799 54.941Z" fill="#828282"/>
<path d="M0.313965 42.384C0.313965 49.612 1.14896 53.672 1.53796 55.174C1.64096 55.572 1.99497 55.876 2.40297 55.927L3.86096 56.155C4.10796 56.155 4.28496 55.923 4.21896 55.685C3.85296 54.37 2.91197 50.225 2.91197 42.384C2.91197 34.543 3.85296 30.398 4.21896 29.083C4.28496 28.845 4.10796 28.613 3.86096 28.613L2.40297 28.84C1.99497 28.891 1.64096 29.195 1.53796 29.593C1.14896 31.097 0.313965 35.156 0.313965 42.384Z" fill="#A9A9A9"/>
<path d="M1.69182 29.782C2.16582 30.561 3.04682 30.29 3.65582 29.816C3.65582 29.816 2.74481 32.197 2.57481 39.749C2.40581 47.301 2.60581 50.033 3.82481 55.316C3.82481 55.316 2.63982 53.894 1.89482 55.011C1.89482 55.011 1.58982 54.266 1.45482 53.385C1.45482 53.385 2.57882 54.774 2.87682 53.656C2.96182 53.34 2.44282 51.392 2.26282 49.567C1.82782 45.157 1.81182 38.683 2.31982 34.924C2.82782 31.165 2.76381 31.017 2.52681 30.949C2.28981 30.881 1.83582 30.31 1.36182 31.36L1.69182 29.782Z" fill="#D4D4D4"/>
<path d="M131.1 54.534L130.042 51.796L131.749 51.748L133.47 54.265L131.1 54.534Z" fill="#A8A8A8"/>
<path d="M131.1 54.534L130.042 51.796L129.233 51.895L129.495 54.664L131.1 54.534Z" fill="#494949"/>
<path d="M135.093 54.502C135.284 54.785 135.396 55.127 135.396 55.494C135.396 55.543 135.393 55.591 135.389 55.638C135.388 55.629 135.385 55.621 135.384 55.612C135.322 56.536 134.561 57.269 133.621 57.269H120.576C119.636 57.269 118.875 56.536 118.813 55.612C118.812 55.621 118.809 55.629 118.808 55.638C118.804 55.59 118.801 55.542 118.801 55.494C118.801 55.126 118.913 54.785 119.104 54.502C119.423 54.03 119.963 53.72 120.576 53.72H133.621C134.234 53.72 134.774 54.03 135.093 54.502Z" fill="#494949"/>
<path d="M134.201 54.0801H121.156C120.176 54.0801 119.381 54.8741 119.381 55.8551C119.381 56.8351 120.175 57.6301 121.156 57.6301H134.201C135.181 57.6301 135.976 56.8351 135.976 55.8551C135.975 54.8741 135.181 54.0801 134.201 54.0801Z" fill="#686868"/>
<path d="M134.201 54.368H121.156C120.225 54.368 119.462 55.086 119.389 55.998C119.385 55.95 119.382 55.902 119.382 55.854C119.382 54.874 120.176 54.079 121.157 54.079H134.202C135.182 54.079 135.977 54.873 135.977 55.854C135.977 55.903 135.974 55.951 135.97 55.998C135.895 55.086 135.132 54.368 134.201 54.368Z" fill="#A8A8A8"/>
<path d="M134.201 57.236H121.156C120.74 57.236 120.358 57.093 120.056 56.853C119.509 56.42 119.509 55.577 120.056 55.144C120.358 54.904 120.741 54.761 121.156 54.761H134.201C134.617 54.761 134.999 54.904 135.302 55.144C135.849 55.577 135.849 56.42 135.302 56.853C134.999 57.093 134.617 57.236 134.201 57.236Z" fill="#A8A8A8"/>
<path d="M131.1 30.236L130.042 32.974L131.749 33.022L133.47 30.505L131.1 30.236Z" fill="#A8A8A8"/>
<path d="M131.1 30.236L130.042 32.974L129.233 32.875L129.495 30.106L131.1 30.236Z" fill="#494949"/>
<path d="M135.093 30.268C135.284 29.985 135.396 29.643 135.396 29.276C135.396 29.227 135.393 29.179 135.389 29.132C135.388 29.141 135.385 29.149 135.384 29.158C135.322 28.234 134.561 27.502 133.621 27.502H120.576C119.636 27.502 118.875 28.234 118.813 29.158C118.812 29.149 118.809 29.141 118.808 29.132C118.804 29.18 118.801 29.228 118.801 29.276C118.801 29.644 118.913 29.985 119.104 30.268C119.423 30.74 119.963 31.05 120.576 31.05H133.621C134.234 31.05 134.774 30.74 135.093 30.268Z" fill="#494949"/>
<path d="M134.201 30.69H121.156C120.176 30.69 119.381 29.896 119.381 28.915C119.381 27.935 120.175 27.14 121.156 27.14H134.201C135.181 27.14 135.976 27.934 135.976 28.915C135.975 29.896 135.181 30.69 134.201 30.69Z" fill="#686868"/>
<path d="M134.201 30.402H121.156C120.225 30.402 119.462 29.684 119.389 28.772C119.385 28.82 119.382 28.868 119.382 28.916C119.382 29.896 120.176 30.691 121.157 30.691H134.202C135.182 30.691 135.977 29.897 135.977 28.916C135.977 28.867 135.974 28.819 135.97 28.772C135.895 29.684 135.132 30.402 134.201 30.402Z" fill="#A8A8A8"/>
<path d="M134.201 27.5341H121.156C120.74 27.5341 120.358 27.6771 120.056 27.9171C119.509 28.3501 119.509 29.1931 120.056 29.6261C120.358 29.8661 120.741 30.0091 121.156 30.0091H134.201C134.617 30.0091 134.999 29.8661 135.302 29.6261C135.849 29.1931 135.849 28.3501 135.302 27.9171C134.999 27.6771 134.617 27.5341 134.201 27.5341Z" fill="#A8A8A8"/>
<path d="M136.891 37.302L132.122 38.423V47.264L136.891 48.384V37.302Z" fill="#4A4A4A"/>
<path d="M136.891 38.895L132.122 39.693V45.993L136.891 46.791V38.895Z" fill="#696969"/>
<path d="M113.733 50.999C112.546 44.34 112.546 40.456 113.733 33.797C113.871 33.025 114.476 32.414 115.248 32.273C121.735 31.088 124.234 31.088 130.721 32.273C131.493 32.414 132.098 33.025 132.236 33.797C133.423 40.456 133.423 44.34 132.236 50.999C132.098 51.771 131.493 52.382 130.721 52.523C124.234 53.708 121.735 53.708 115.248 52.523C114.477 52.382 113.871 51.771 113.733 50.999Z" fill="#4A4A4A"/>
<path d="M114.552 50.238C113.47 44.168 113.47 40.628 114.552 34.558C114.677 33.854 115.23 33.297 115.933 33.169C121.847 32.089 124.124 32.089 130.037 33.169C130.74 33.297 131.293 33.854 131.418 34.558C132.5 40.628 132.5 44.168 131.418 50.238C131.293 50.942 130.74 51.499 130.037 51.627C124.124 52.707 121.846 52.707 115.933 51.627C115.229 51.499 114.677 50.942 114.552 50.238Z" fill="#A9A9A9"/>
<path d="M116.805 51.627C116.102 51.499 115.55 50.942 115.424 50.238C114.342 44.168 114.342 40.628 115.424 34.558C115.549 33.854 116.102 33.297 116.805 33.169C119.553 32.667 121.515 32.402 123.422 32.366C121.224 32.325 119.099 32.591 115.933 33.169C115.23 33.297 114.677 33.854 114.552 34.558C113.47 40.628 113.47 44.168 114.552 50.238C114.677 50.942 115.23 51.499 115.933 51.627C119.099 52.205 121.224 52.471 123.421 52.43C121.514 52.394 119.552 52.129 116.805 51.627Z" fill="#D4D4D4"/>
<path d="M129.165 51.627C129.868 51.499 130.421 50.942 130.546 50.238C131.628 44.168 131.628 40.628 130.546 34.558C130.421 33.854 129.868 33.297 129.165 33.169C126.417 32.667 124.455 32.402 122.548 32.366C124.746 32.325 126.871 32.591 130.037 33.169C130.74 33.297 131.293 33.854 131.418 34.558C132.5 40.628 132.5 44.168 131.418 50.238C131.293 50.942 130.74 51.499 130.037 51.627C126.871 52.205 124.746 52.471 122.549 52.43C124.456 52.394 126.418 52.129 129.165 51.627Z" fill="#696969"/>
<path d="M137.164 54.941L139.293 56.105C139.293 56.105 140.446 52.127 140.446 42.394C140.446 32.661 139.281 28.691 139.281 28.691L137.165 29.848C136.669 30.119 136.361 30.639 136.361 31.204V53.585C136.36 54.15 136.668 54.67 137.164 54.941Z" fill="#828282"/>
<path d="M143.028 42.384C143.028 49.612 142.193 53.672 141.804 55.174C141.701 55.572 141.347 55.876 140.939 55.927L139.481 56.155C139.234 56.155 139.057 55.923 139.123 55.685C139.489 54.37 140.429 50.225 140.429 42.384C140.429 34.543 139.488 30.398 139.123 29.083C139.057 28.845 139.234 28.613 139.481 28.613L140.939 28.84C141.347 28.891 141.701 29.195 141.804 29.593C142.193 31.097 143.028 35.156 143.028 42.384Z" fill="#A9A9A9"/>
<path d="M141.65 29.782C141.176 30.561 140.296 30.29 139.686 29.816C139.686 29.816 140.597 32.197 140.767 39.749C140.936 47.301 140.736 50.033 139.517 55.316C139.517 55.316 140.702 53.894 141.447 55.011C141.447 55.011 141.752 54.266 141.887 53.385C141.887 53.385 140.763 54.774 140.465 53.656C140.38 53.34 140.899 51.392 141.079 49.567C141.514 45.157 141.53 38.683 141.022 34.924C140.514 31.165 140.578 31.017 140.815 30.949C141.052 30.881 141.506 30.31 141.98 31.36L141.65 29.782Z" fill="#D4D4D4"/>
<path d="M24.8472 12.125L27.5852 13.183L27.6322 11.477L25.1162 9.755L24.8472 12.125Z" fill="#A8A8A8"/>
<path d="M24.8468 12.125L27.5848 13.183L27.4848 13.993L24.7168 13.73L24.8468 12.125Z" fill="#494949"/>
<path d="M24.8779 8.13198C24.5949 7.94098 24.2528 7.82898 23.8858 7.82898C23.8368 7.82898 23.7889 7.83198 23.7419 7.83598C23.7509 7.83698 23.7589 7.83998 23.7679 7.84098C22.8439 7.90298 22.1108 8.66398 22.1108 9.60398V22.649C22.1108 23.589 22.8439 24.35 23.7679 24.412C23.7589 24.413 23.7509 24.416 23.7419 24.417C23.7899 24.421 23.8378 24.424 23.8858 24.424C24.2538 24.424 24.5949 24.312 24.8779 24.121C25.3499 23.802 25.6599 23.262 25.6599 22.649V9.60398C25.6609 8.99098 25.3499 8.45098 24.8779 8.13198Z" fill="#494949"/>
<path d="M25.301 9.02402V22.069C25.301 23.049 24.506 23.844 23.526 23.844C22.546 23.844 21.751 23.049 21.751 22.069V9.02402C21.751 8.04402 22.546 7.24902 23.526 7.24902C24.506 7.25002 25.301 8.04402 25.301 9.02402Z" fill="#686868"/>
<path d="M25.0118 9.02402V22.069C25.0118 23 24.2938 23.763 23.3818 23.836C23.4298 23.84 23.4778 23.843 23.5258 23.843C24.5058 23.843 25.3008 23.048 25.3008 22.068V9.02402C25.3008 8.04402 24.5058 7.24902 23.5258 7.24902C23.4768 7.24902 23.4288 7.25302 23.3818 7.25602C24.2938 7.33102 25.0118 8.09302 25.0118 9.02402Z" fill="#A8A8A8"/>
<path d="M22.145 9.02405V22.069C22.145 22.485 22.288 22.867 22.528 23.169C22.961 23.716 23.804 23.716 24.237 23.169C24.477 22.867 24.62 22.484 24.62 22.069V9.02405C24.62 8.60805 24.477 8.22605 24.237 7.92305C23.804 7.37705 22.961 7.37705 22.528 7.92305C22.288 8.22605 22.145 8.60805 22.145 9.02405Z" fill="#A8A8A8"/>
<path d="M49.1439 12.125L46.4059 13.183L46.3589 11.477L48.8749 9.755L49.1439 12.125Z" fill="#A8A8A8"/>
<path d="M49.1438 12.125L46.4058 13.183L46.5058 13.993L49.2738 13.73L49.1438 12.125Z" fill="#494949"/>
<path d="M49.1131 8.13198C49.3961 7.94098 49.7381 7.82898 50.1051 7.82898C50.1541 7.82898 50.2021 7.83198 50.2491 7.83598C50.2401 7.83698 50.2321 7.83998 50.2231 7.84098C51.1471 7.90298 51.8791 8.66398 51.8791 9.60398V22.649C51.8791 23.589 51.1471 24.35 50.2231 24.412C50.2321 24.413 50.2401 24.416 50.2491 24.417C50.2011 24.421 50.1531 24.424 50.1051 24.424C49.7381 24.424 49.3961 24.312 49.1131 24.121C48.6411 23.802 48.3311 23.262 48.3311 22.649V9.60398C48.3301 8.99098 48.6411 8.45098 49.1131 8.13198Z" fill="#494949"/>
<path d="M48.6909 9.02402V22.069C48.6909 23.049 49.4849 23.844 50.4659 23.844C51.4459 23.844 52.2409 23.049 52.2409 22.069V9.02402C52.2409 8.04402 51.4469 7.24902 50.4659 7.24902C49.4849 7.25002 48.6909 8.04402 48.6909 9.02402Z" fill="#686868"/>
<path d="M48.9789 9.02402V22.069C48.9789 23 49.6969 23.763 50.6089 23.836C50.5609 23.84 50.5139 23.843 50.4649 23.843C49.4849 23.843 48.6899 23.048 48.6899 22.068V9.02402C48.6899 8.04402 49.4839 7.24902 50.4649 7.24902C50.5139 7.24902 50.5609 7.25302 50.6089 7.25602C49.6969 7.33102 48.9789 8.09302 48.9789 9.02402Z" fill="#A8A8A8"/>
<path d="M51.8471 9.02405V22.069C51.8471 22.485 51.7041 22.867 51.4641 23.169C51.0311 23.716 50.1881 23.716 49.7551 23.169C49.5151 22.867 49.3721 22.484 49.3721 22.069V9.02405C49.3721 8.60805 49.5151 8.22605 49.7551 7.92305C50.1881 7.37705 51.0311 7.37705 51.4641 7.92305C51.7041 8.22605 51.8471 8.60805 51.8471 9.02405Z" fill="#A8A8A8"/>
<path d="M42.0781 6.33398L40.9581 11.103H32.1171L30.9971 6.33398H42.0781Z" fill="#4A4A4A"/>
<path d="M40.4849 6.33398L39.6869 11.103H33.3879L32.5889 6.33398H40.4849Z" fill="#696969"/>
<path d="M28.382 29.492C35.041 30.679 38.925 30.679 45.584 29.492C46.356 29.354 46.967 28.749 47.108 27.977C48.293 21.49 48.293 18.991 47.108 12.504C46.967 11.732 46.356 11.127 45.584 10.989C38.925 9.802 35.041 9.802 28.382 10.989C27.61 11.127 26.999 11.732 26.858 12.504C25.673 18.991 25.673 21.49 26.858 27.977C26.999 28.749 27.61 29.354 28.382 29.492Z" fill="#4A4A4A"/>
<path d="M29.1429 28.674C35.2129 29.756 38.7528 29.756 44.8228 28.674C45.5268 28.549 46.0839 27.996 46.2119 27.293C47.2919 21.38 47.2919 19.102 46.2119 13.189C46.0839 12.486 45.5268 11.933 44.8228 11.808C38.7528 10.726 35.2129 10.726 29.1429 11.808C28.4389 11.933 27.8818 12.486 27.7538 13.189C26.6738 19.102 26.6738 21.38 27.7538 27.293C27.8818 27.996 28.4389 28.548 29.1429 28.674Z" fill="#A9A9A9"/>
<path d="M27.7539 26.4211C27.8819 27.1241 28.4399 27.6771 29.1429 27.8021C35.2129 28.8841 38.7529 28.8841 44.8229 27.8021C45.5269 27.6771 46.0839 27.1241 46.2119 26.4211C46.7139 23.6731 46.9789 21.7111 47.0149 19.8041C47.0559 22.0021 46.7899 24.1271 46.2119 27.2931C46.0829 27.9961 45.5259 28.5491 44.8229 28.6741C38.7529 29.7561 35.2129 29.7561 29.1429 28.6741C28.4389 28.5491 27.8819 27.9961 27.7539 27.2931C27.1759 24.1271 26.9099 22.0021 26.9509 19.8051C26.9859 21.7111 27.2519 23.6731 27.7539 26.4211Z" fill="#D4D4D4"/>
<path d="M27.7539 14.06C27.8819 13.357 28.4399 12.805 29.1429 12.679C35.2129 11.597 38.7529 11.597 44.8229 12.679C45.5269 12.804 46.0839 13.357 46.2119 14.06C46.7139 16.808 46.9789 18.77 47.0149 20.677C47.0559 18.479 46.7899 16.354 46.2119 13.188C46.0829 12.485 45.5259 11.932 44.8229 11.807C38.7529 10.725 35.2129 10.725 29.1429 11.807C28.4389 11.932 27.8819 12.485 27.7539 13.188C27.1759 16.354 26.9099 18.479 26.9509 20.676C26.9859 18.769 27.2519 16.807 27.7539 14.06Z" fill="#696969"/>
<path d="M24.4399 6.06105L23.2759 3.93205C23.2759 3.93205 27.2539 2.77905 36.9869 2.77905C46.7199 2.77905 50.6899 3.94405 50.6899 3.94405L49.5329 6.06005C49.2619 6.55605 48.7419 6.86405 48.1769 6.86405H25.7959C25.2309 6.86505 24.7109 6.55705 24.4399 6.06105Z" fill="#828282"/>
<path d="M36.9961 0.197021C29.7681 0.197021 25.7081 1.03202 24.2061 1.42102C23.8081 1.52402 23.5041 1.87802 23.4531 2.28602L23.2251 3.74402C23.2251 3.99102 23.4571 4.16802 23.6951 4.10202C25.0101 3.73602 29.1551 2.79602 36.9961 2.79602C44.8371 2.79602 48.9821 3.73702 50.2971 4.10202C50.5351 4.16802 50.7671 3.99102 50.7671 3.74402L50.5401 2.28602C50.4891 1.87802 50.1851 1.52402 49.7871 1.42102C48.2841 1.03202 44.2241 0.197021 36.9961 0.197021Z" fill="#A9A9A9"/>
<path d="M49.5989 1.575C48.8199 2.049 49.0909 2.93 49.5649 3.539C49.5649 3.539 47.1839 2.628 39.6319 2.458C32.0799 2.289 29.3479 2.489 24.0649 3.708C24.0649 3.708 25.4869 2.523 24.3699 1.778C24.3699 1.778 25.1149 1.473 25.9959 1.338C25.9959 1.338 24.6069 2.46199 25.7249 2.75999C26.0409 2.84399 27.9889 2.326 29.8139 2.146C34.2239 1.711 40.6979 1.695 44.4569 2.203C48.2159 2.711 48.3639 2.647 48.4319 2.41C48.4999 2.173 49.0709 1.719 48.0209 1.245L49.5989 1.575Z" fill="#D4D4D4"/>
<path d="M24.8472 73.371L27.5852 72.313L27.6322 74.02L25.1162 75.742L24.8472 73.371Z" fill="#A8A8A8"/>
<path d="M24.8468 73.371L27.5848 72.313L27.4848 71.504L24.7168 71.766L24.8468 73.371Z" fill="#494949"/>
<path d="M24.8779 77.364C24.5949 77.555 24.2528 77.667 23.8858 77.667C23.8368 77.667 23.7889 77.664 23.7419 77.66C23.7509 77.659 23.7589 77.656 23.7679 77.655C22.8439 77.593 22.1108 76.832 22.1108 75.892V62.848C22.1108 61.908 22.8439 61.147 23.7679 61.085C23.7589 61.084 23.7509 61.081 23.7419 61.08C23.7899 61.076 23.8378 61.073 23.8858 61.073C24.2538 61.073 24.5949 61.185 24.8779 61.376C25.3499 61.695 25.6599 62.235 25.6599 62.848V75.893C25.6609 76.505 25.3499 77.045 24.8779 77.364Z" fill="#494949"/>
<path d="M25.301 76.472V63.427C25.301 62.447 24.506 61.652 23.526 61.652C22.546 61.652 21.751 62.447 21.751 63.427V76.472C21.751 77.452 22.546 78.247 23.526 78.247C24.506 78.247 25.301 77.452 25.301 76.472Z" fill="#686868"/>
<path d="M25.0118 76.4721V63.4271C25.0118 62.4961 24.2938 61.7331 23.3818 61.6601C23.4298 61.6561 23.4778 61.6531 23.5258 61.6531C24.5058 61.6531 25.3008 62.4481 25.3008 63.4281V76.4731C25.3008 77.4531 24.5058 78.2481 23.5258 78.2481C23.4768 78.2481 23.4288 78.2451 23.3818 78.2411C24.2938 78.1661 25.0118 77.4041 25.0118 76.4721Z" fill="#A8A8A8"/>
<path d="M22.145 76.472V63.427C22.145 63.011 22.288 62.629 22.528 62.326C22.961 61.779 23.804 61.779 24.237 62.326C24.477 62.628 24.62 63.011 24.62 63.427V76.472C24.62 76.888 24.477 77.27 24.237 77.573C23.804 78.12 22.961 78.12 22.528 77.573C22.288 77.27 22.145 76.888 22.145 76.472Z" fill="#A8A8A8"/>
<path d="M49.1439 73.371L46.4059 72.313L46.3589 74.02L48.8749 75.742L49.1439 73.371Z" fill="#A8A8A8"/>
<path d="M49.1438 73.371L46.4058 72.313L46.5058 71.504L49.2738 71.766L49.1438 73.371Z" fill="#494949"/>
<path d="M49.1131 77.364C49.3961 77.555 49.7381 77.667 50.1051 77.667C50.1541 77.667 50.2021 77.664 50.2491 77.66C50.2401 77.659 50.2321 77.656 50.2231 77.655C51.1471 77.593 51.8791 76.832 51.8791 75.892V62.848C51.8791 61.908 51.1471 61.147 50.2231 61.085C50.2321 61.084 50.2401 61.081 50.2491 61.08C50.2011 61.076 50.1531 61.073 50.1051 61.073C49.7381 61.073 49.3961 61.185 49.1131 61.376C48.6411 61.695 48.3311 62.235 48.3311 62.848V75.893C48.3301 76.505 48.6411 77.045 49.1131 77.364Z" fill="#494949"/>
<path d="M48.6909 76.472V63.427C48.6909 62.447 49.4849 61.652 50.4659 61.652C51.4459 61.652 52.2409 62.447 52.2409 63.427V76.472C52.2409 77.452 51.4469 78.247 50.4659 78.247C49.4849 78.247 48.6909 77.452 48.6909 76.472Z" fill="#686868"/>
<path d="M48.9789 76.4721V63.4271C48.9789 62.4961 49.6969 61.7331 50.6089 61.6601C50.5609 61.6561 50.5139 61.6531 50.4649 61.6531C49.4849 61.6531 48.6899 62.4481 48.6899 63.4281V76.4731C48.6899 77.4531 49.4839 78.2481 50.4649 78.2481C50.5139 78.2481 50.5609 78.2451 50.6089 78.2411C49.6969 78.1661 48.9789 77.4041 48.9789 76.4721Z" fill="#A8A8A8"/>
<path d="M51.8471 76.472V63.427C51.8471 63.011 51.7041 62.629 51.4641 62.326C51.0311 61.779 50.1881 61.779 49.7551 62.326C49.5151 62.628 49.3721 63.011 49.3721 63.427V76.472C49.3721 76.888 49.5151 77.27 49.7551 77.573C50.1881 78.12 51.0311 78.12 51.4641 77.573C51.7041 77.27 51.8471 76.888 51.8471 76.472Z" fill="#A8A8A8"/>
<path d="M42.0781 79.162L40.9581 74.394H32.1171L30.9971 79.162H42.0781Z" fill="#4A4A4A"/>
<path d="M40.4849 79.162L39.6869 74.394H33.3879L32.5889 79.162H40.4849Z" fill="#696969"/>
<path d="M28.382 56.004C35.041 54.817 38.925 54.817 45.584 56.004C46.356 56.142 46.967 56.747 47.108 57.519C48.293 64.006 48.293 66.505 47.108 72.992C46.967 73.764 46.356 74.37 45.584 74.507C38.925 75.694 35.041 75.694 28.382 74.507C27.61 74.369 26.999 73.764 26.858 72.992C25.673 66.505 25.673 64.006 26.858 57.519C26.999 56.748 27.61 56.142 28.382 56.004Z" fill="#4A4A4A"/>
<path d="M29.1429 56.823C35.2129 55.741 38.7528 55.741 44.8228 56.823C45.5268 56.948 46.0839 57.501 46.2119 58.204C47.2919 64.117 47.2919 66.395 46.2119 72.308C46.0839 73.011 45.5268 73.564 44.8228 73.689C38.7528 74.771 35.2129 74.771 29.1429 73.689C28.4389 73.564 27.8818 73.011 27.7538 72.308C26.6738 66.395 26.6738 64.117 27.7538 58.204C27.8818 57.501 28.4389 56.948 29.1429 56.823Z" fill="#A9A9A9"/>
<path d="M27.7539 59.076C27.8819 58.373 28.4399 57.82 29.1429 57.695C35.2129 56.613 38.7529 56.613 44.8229 57.695C45.5269 57.82 46.0839 58.373 46.2119 59.076C46.7139 61.824 46.9789 63.786 47.0149 65.693C47.0559 63.495 46.7899 61.37 46.2119 58.204C46.0829 57.501 45.5259 56.948 44.8229 56.823C38.7529 55.741 35.2129 55.741 29.1429 56.823C28.4389 56.948 27.8819 57.501 27.7539 58.204C27.1759 61.37 26.9099 63.495 26.9509 65.692C26.9859 63.785 27.2519 61.823 27.7539 59.076Z" fill="#D4D4D4"/>
<path d="M27.7539 71.436C27.8819 72.139 28.4399 72.692 29.1429 72.817C35.2129 73.899 38.7529 73.899 44.8229 72.817C45.5269 72.692 46.0839 72.139 46.2119 71.436C46.7139 68.688 46.9789 66.726 47.0149 64.819C47.0559 67.017 46.7899 69.142 46.2119 72.308C46.0829 73.011 45.5259 73.564 44.8229 73.689C38.7529 74.771 35.2129 74.771 29.1429 73.689C28.4389 73.563 27.8819 73.011 27.7539 72.308C27.1759 69.142 26.9099 67.017 26.9509 64.82C26.9859 66.727 27.2519 68.689 27.7539 71.436Z" fill="#696969"/>
<path d="M24.4399 79.4351L23.2759 81.5641C23.2759 81.5641 27.2539 82.7171 36.9869 82.7171C46.7199 82.7171 50.6899 81.5521 50.6899 81.5521L49.5329 79.4361C49.2619 78.9401 48.7419 78.6321 48.1769 78.6321H25.7959C25.2309 78.6311 24.7109 78.9391 24.4399 79.4351Z" fill="#828282"/>
<path d="M36.9961 85.299C29.7681 85.299 25.7081 84.464 24.2061 84.075C23.8081 83.972 23.5041 83.618 23.4531 83.21L23.2251 81.752C23.2251 81.505 23.4571 81.328 23.6951 81.394C25.0101 81.76 29.1551 82.701 36.9961 82.701C44.8371 82.701 48.9821 81.76 50.2971 81.394C50.5351 81.328 50.7671 81.505 50.7671 81.752L50.5401 83.21C50.4891 83.618 50.1851 83.972 49.7871 84.075C48.2841 84.464 44.2241 85.299 36.9961 85.299Z" fill="#A9A9A9"/>
<path d="M49.5989 83.9211C48.8199 83.4471 49.0909 82.5661 49.5649 81.9571C49.5649 81.9571 47.1839 82.8681 39.6319 83.0381C32.0799 83.2071 29.3479 83.0071 24.0649 81.7881C24.0649 81.7881 25.4869 82.9731 24.3699 83.7181C24.3699 83.7181 25.1149 84.0231 25.9959 84.1581C25.9959 84.1581 24.6069 83.0341 25.7249 82.7361C26.0409 82.6511 27.9889 83.1701 29.8139 83.3501C34.2239 83.7851 40.6979 83.8011 44.4569 83.2931C48.2159 82.7851 48.3639 82.8491 48.4319 83.0861C48.4999 83.3231 49.0709 83.7771 48.0209 84.2511L49.5989 83.9211Z" fill="#D4D4D4"/>
<path d="M59.5132 12.125L62.2502 13.183L62.2982 11.477L59.7812 9.755L59.5132 12.125Z" fill="#A8A8A8"/>
<path d="M59.5128 12.125L62.2498 13.183L62.1508 13.993L59.3818 13.73L59.5128 12.125Z" fill="#494949"/>
<path d="M59.5438 8.13198C59.2608 7.94098 58.9188 7.82898 58.5518 7.82898C58.5028 7.82898 58.4558 7.83198 58.4078 7.83598C58.4168 7.83698 58.4248 7.83998 58.4338 7.84098C57.5098 7.90298 56.7778 8.66398 56.7778 9.60398V22.649C56.7778 23.589 57.5108 24.35 58.4338 24.412C58.4248 24.413 58.4168 24.416 58.4078 24.417C58.4558 24.421 58.5038 24.424 58.5518 24.424C58.9198 24.424 59.2608 24.312 59.5438 24.121C60.0158 23.802 60.3258 23.262 60.3258 22.649V9.60398C60.3258 8.99098 60.0158 8.45098 59.5438 8.13198Z" fill="#494949"/>
<path d="M59.966 9.02402V22.069C59.966 23.049 59.172 23.844 58.191 23.844C57.211 23.844 56.416 23.049 56.416 22.069V9.02402C56.416 8.04402 57.21 7.24902 58.191 7.24902C59.172 7.25002 59.966 8.04402 59.966 9.02402Z" fill="#686868"/>
<path d="M59.6778 9.02402V22.069C59.6778 23 58.9599 23.763 58.0479 23.836C58.0959 23.84 58.1438 23.843 58.1918 23.843C59.1718 23.843 59.9668 23.048 59.9668 22.068V9.02402C59.9668 8.04402 59.1718 7.24902 58.1918 7.24902C58.1428 7.24902 58.0949 7.25302 58.0479 7.25602C58.9599 7.33102 59.6778 8.09302 59.6778 9.02402Z" fill="#A8A8A8"/>
<path d="M56.8101 9.02405V22.069C56.8101 22.485 56.9531 22.867 57.1931 23.169C57.6261 23.716 58.4691 23.716 58.9021 23.169C59.1421 22.867 59.2851 22.484 59.2851 22.069V9.02405C59.2851 8.60805 59.1421 8.22605 58.9021 7.92305C58.4691 7.37705 57.6261 7.37705 57.1931 7.92305C56.9531 8.22605 56.8101 8.60805 56.8101 9.02405Z" fill="#A8A8A8"/>
<path d="M83.8099 12.125L81.0719 13.183L81.0239 11.477L83.5409 9.755L83.8099 12.125Z" fill="#A8A8A8"/>
<path d="M83.8103 12.125L81.0723 13.183L81.1713 13.993L83.9403 13.73L83.8103 12.125Z" fill="#494949"/>
<path d="M83.7781 8.13198C84.0611 7.94098 84.4031 7.82898 84.7701 7.82898C84.8191 7.82898 84.8661 7.83198 84.9141 7.83598C84.9051 7.83698 84.8971 7.83998 84.8881 7.84098C85.8121 7.90298 86.5451 8.66398 86.5451 9.60398V22.649C86.5451 23.589 85.8121 24.35 84.8881 24.412C84.8971 24.413 84.9051 24.416 84.9141 24.417C84.8661 24.421 84.8181 24.424 84.7701 24.424C84.4021 24.424 84.0611 24.312 83.7781 24.121C83.3061 23.802 82.9961 23.262 82.9961 22.649V9.60398C82.9961 8.99098 83.3061 8.45098 83.7781 8.13198Z" fill="#494949"/>
<path d="M83.356 9.02402V22.069C83.356 23.049 84.151 23.844 85.131 23.844C86.111 23.844 86.906 23.049 86.906 22.069V9.02402C86.906 8.04402 86.111 7.24902 85.131 7.24902C84.151 7.25002 83.356 8.04402 83.356 9.02402Z" fill="#686868"/>
<path d="M83.645 9.02402V22.069C83.645 23 84.3629 23.763 85.2749 23.836C85.2269 23.84 85.179 23.843 85.131 23.843C84.151 23.843 83.356 23.048 83.356 22.068V9.02402C83.356 8.04402 84.151 7.24902 85.131 7.24902C85.18 7.24902 85.2269 7.25302 85.2749 7.25602C84.3619 7.33102 83.645 8.09302 83.645 9.02402Z" fill="#A8A8A8"/>
<path d="M86.5121 9.02405V22.069C86.5121 22.485 86.3691 22.867 86.1291 23.169C85.6961 23.716 84.8531 23.716 84.4201 23.169C84.1801 22.867 84.0371 22.484 84.0371 22.069V9.02405C84.0371 8.60805 84.1801 8.22605 84.4201 7.92305C84.8531 7.37705 85.6961 7.37705 86.1291 7.92305C86.3691 8.22605 86.5121 8.60805 86.5121 9.02405Z" fill="#A8A8A8"/>
<path d="M76.7441 6.33398L75.6231 11.103H66.7821L65.6621 6.33398H76.7441Z" fill="#4A4A4A"/>
<path d="M75.1509 6.33398L74.3529 11.103H68.0529L67.2549 6.33398H75.1509Z" fill="#696969"/>
<path d="M63.047 29.492C69.706 30.679 73.59 30.679 80.249 29.492C81.021 29.354 81.632 28.749 81.773 27.977C82.958 21.49 82.958 18.991 81.773 12.504C81.632 11.732 81.021 11.127 80.249 10.989C73.59 9.802 69.706 9.802 63.047 10.989C62.275 11.127 61.664 11.732 61.523 12.504C60.338 18.991 60.338 21.49 61.523 27.977C61.664 28.749 62.275 29.354 63.047 29.492Z" fill="#4A4A4A"/>
<path d="M63.8079 28.674C69.8779 29.756 73.4179 29.756 79.4879 28.674C80.1919 28.549 80.7489 27.996 80.8769 27.293C81.9569 21.38 81.9569 19.102 80.8769 13.189C80.7489 12.486 80.1909 11.933 79.4879 11.808C73.4179 10.726 69.8779 10.726 63.8079 11.808C63.1039 11.933 62.5469 12.486 62.4189 13.189C61.3389 19.102 61.3389 21.38 62.4189 27.293C62.5479 27.996 63.1039 28.548 63.8079 28.674Z" fill="#A9A9A9"/>
<path d="M62.4189 26.4211C62.5469 27.1241 63.1039 27.6771 63.8079 27.8021C69.8779 28.8841 73.4179 28.8841 79.4879 27.8021C80.1919 27.6771 80.7489 27.1241 80.8769 26.4211C81.3789 23.6731 81.6439 21.7111 81.6799 19.8041C81.7209 22.0021 81.4549 24.1271 80.8769 27.2931C80.7489 27.9961 80.1909 28.5491 79.4879 28.6741C73.4179 29.7561 69.8779 29.7561 63.8079 28.6741C63.1039 28.5491 62.5469 27.9961 62.4189 27.2931C61.8409 24.1271 61.5749 22.0021 61.6159 19.8051C61.6519 21.7111 61.9169 23.6731 62.4189 26.4211Z" fill="#D4D4D4"/>
<path d="M62.4189 14.06C62.5469 13.357 63.1039 12.805 63.8079 12.679C69.8779 11.597 73.4179 11.597 79.4879 12.679C80.1919 12.804 80.7489 13.357 80.8769 14.06C81.3789 16.808 81.6439 18.77 81.6799 20.677C81.7209 18.479 81.4549 16.354 80.8769 13.188C80.7489 12.485 80.1909 11.932 79.4879 11.807C73.4179 10.725 69.8779 10.725 63.8079 11.807C63.1039 11.932 62.5469 12.485 62.4189 13.188C61.8409 16.354 61.5749 18.479 61.6159 20.676C61.6519 18.769 61.9169 16.807 62.4189 14.06Z" fill="#696969"/>
<path d="M59.1049 6.06105L57.9409 3.93205C57.9409 3.93205 61.9189 2.77905 71.6519 2.77905C81.3849 2.77905 85.3549 3.94405 85.3549 3.94405L84.1979 6.06005C83.9269 6.55605 83.4069 6.86405 82.8419 6.86405H60.4609C59.8959 6.86505 59.3759 6.55705 59.1049 6.06105Z" fill="#828282"/>
<path d="M71.6621 0.197021C64.4341 0.197021 60.3741 1.03202 58.8721 1.42102C58.4741 1.52402 58.1701 1.87802 58.1191 2.28602L57.8911 3.74402C57.8911 3.99102 58.1231 4.16802 58.3611 4.10202C59.6761 3.73602 63.8211 2.79602 71.6621 2.79602C79.5031 2.79602 83.6481 3.73702 84.9631 4.10202C85.2011 4.16802 85.4331 3.99102 85.4331 3.74402L85.2061 2.28602C85.1551 1.87802 84.8511 1.52402 84.4531 1.42102C82.9501 1.03202 78.8901 0.197021 71.6621 0.197021Z" fill="#A9A9A9"/>
<path d="M84.265 1.575C83.486 2.049 83.757 2.93 84.231 3.539C84.231 3.539 81.85 2.628 74.298 2.458C66.746 2.289 64.014 2.489 58.731 3.708C58.731 3.708 60.1529 2.523 59.0359 1.778C59.0359 1.778 59.781 1.473 60.662 1.338C60.662 1.338 59.273 2.46199 60.391 2.75999C60.707 2.84399 62.6549 2.326 64.4799 2.146C68.8899 1.711 75.364 1.695 79.123 2.203C82.882 2.711 83.03 2.647 83.098 2.41C83.166 2.173 83.737 1.719 82.687 1.245L84.265 1.575Z" fill="#D4D4D4"/>
<path d="M59.5132 73.371L62.2502 72.313L62.2982 74.02L59.7812 75.742L59.5132 73.371Z" fill="#A8A8A8"/>
<path d="M59.5128 73.371L62.2498 72.313L62.1508 71.504L59.3818 71.766L59.5128 73.371Z" fill="#494949"/>
<path d="M59.5438 77.364C59.2608 77.555 58.9188 77.667 58.5518 77.667C58.5028 77.667 58.4558 77.664 58.4078 77.66C58.4168 77.659 58.4248 77.656 58.4338 77.655C57.5098 77.593 56.7778 76.832 56.7778 75.892V62.848C56.7778 61.908 57.5108 61.147 58.4338 61.085C58.4248 61.084 58.4168 61.081 58.4078 61.08C58.4558 61.076 58.5038 61.073 58.5518 61.073C58.9198 61.073 59.2608 61.185 59.5438 61.376C60.0158 61.695 60.3258 62.235 60.3258 62.848V75.893C60.3258 76.505 60.0158 77.045 59.5438 77.364Z" fill="#494949"/>
<path d="M59.966 76.472V63.427C59.966 62.447 59.172 61.652 58.191 61.652C57.211 61.652 56.416 62.447 56.416 63.427V76.472C56.416 77.452 57.21 78.247 58.191 78.247C59.172 78.247 59.966 77.452 59.966 76.472Z" fill="#686868"/>
<path d="M59.6778 76.4721V63.4271C59.6778 62.4961 58.9599 61.7331 58.0479 61.6601C58.0959 61.6561 58.1438 61.6531 58.1918 61.6531C59.1718 61.6531 59.9668 62.4481 59.9668 63.4281V76.4731C59.9668 77.4531 59.1718 78.2481 58.1918 78.2481C58.1428 78.2481 58.0949 78.2451 58.0479 78.2411C58.9599 78.1661 59.6778 77.4041 59.6778 76.4721Z" fill="#A8A8A8"/>
<path d="M56.8101 76.472V63.427C56.8101 63.011 56.9531 62.629 57.1931 62.326C57.6261 61.779 58.4691 61.779 58.9021 62.326C59.1421 62.628 59.2851 63.011 59.2851 63.427V76.472C59.2851 76.888 59.1421 77.27 58.9021 77.573C58.4691 78.12 57.6261 78.12 57.1931 77.573C56.9531 77.27 56.8101 76.888 56.8101 76.472Z" fill="#A8A8A8"/>
<path d="M83.8099 73.371L81.0719 72.313L81.0239 74.02L83.5409 75.742L83.8099 73.371Z" fill="#A8A8A8"/>
<path d="M83.8103 73.371L81.0723 72.313L81.1713 71.504L83.9403 71.766L83.8103 73.371Z" fill="#494949"/>
<path d="M83.7781 77.364C84.0611 77.555 84.4031 77.667 84.7701 77.667C84.8191 77.667 84.8661 77.664 84.9141 77.66C84.9051 77.659 84.8971 77.656 84.8881 77.655C85.8121 77.593 86.5451 76.832 86.5451 75.892V62.848C86.5451 61.908 85.8121 61.147 84.8881 61.085C84.8971 61.084 84.9051 61.081 84.9141 61.08C84.8661 61.076 84.8181 61.073 84.7701 61.073C84.4021 61.073 84.0611 61.185 83.7781 61.376C83.3061 61.695 82.9961 62.235 82.9961 62.848V75.893C82.9961 76.505 83.3061 77.045 83.7781 77.364Z" fill="#494949"/>
<path d="M83.356 76.472V63.427C83.356 62.447 84.151 61.652 85.131 61.652C86.111 61.652 86.906 62.447 86.906 63.427V76.472C86.906 77.452 86.111 78.247 85.131 78.247C84.151 78.247 83.356 77.452 83.356 76.472Z" fill="#686868"/>
<path d="M83.645 76.4721V63.4271C83.645 62.4961 84.3629 61.7331 85.2749 61.6601C85.2269 61.6561 85.179 61.6531 85.131 61.6531C84.151 61.6531 83.356 62.4481 83.356 63.4281V76.4731C83.356 77.4531 84.151 78.2481 85.131 78.2481C85.18 78.2481 85.2269 78.2451 85.2749 78.2411C84.3619 78.1661 83.645 77.4041 83.645 76.4721Z" fill="#A8A8A8"/>
<path d="M86.5121 76.472V63.427C86.5121 63.011 86.3691 62.629 86.1291 62.326C85.6961 61.779 84.8531 61.779 84.4201 62.326C84.1801 62.628 84.0371 63.011 84.0371 63.427V76.472C84.0371 76.888 84.1801 77.27 84.4201 77.573C84.8531 78.12 85.6961 78.12 86.1291 77.573C86.3691 77.27 86.5121 76.888 86.5121 76.472Z" fill="#A8A8A8"/>
<path d="M76.7441 79.162L75.6231 74.394H66.7821L65.6621 79.162H76.7441Z" fill="#4A4A4A"/>
<path d="M75.1509 79.162L74.3529 74.394H68.0529L67.2549 79.162H75.1509Z" fill="#696969"/>
<path d="M63.047 56.004C69.706 54.817 73.59 54.817 80.249 56.004C81.021 56.142 81.632 56.747 81.773 57.519C82.958 64.006 82.958 66.505 81.773 72.992C81.632 73.764 81.021 74.37 80.249 74.507C73.59 75.694 69.706 75.694 63.047 74.507C62.275 74.369 61.664 73.764 61.523 72.992C60.338 66.505 60.338 64.006 61.523 57.519C61.664 56.748 62.275 56.142 63.047 56.004Z" fill="#4A4A4A"/>
<path d="M63.8079 56.823C69.8779 55.741 73.4179 55.741 79.4879 56.823C80.1919 56.948 80.7489 57.501 80.8769 58.204C81.9569 64.117 81.9569 66.395 80.8769 72.308C80.7489 73.011 80.1909 73.564 79.4879 73.689C73.4179 74.771 69.8779 74.771 63.8079 73.689C63.1039 73.564 62.5469 73.011 62.4189 72.308C61.3389 66.395 61.3389 64.117 62.4189 58.204C62.5479 57.501 63.1039 56.948 63.8079 56.823Z" fill="#A9A9A9"/>
<path d="M62.4189 59.076C62.5469 58.373 63.1039 57.82 63.8079 57.695C69.8779 56.613 73.4179 56.613 79.4879 57.695C80.1919 57.82 80.7489 58.373 80.8769 59.076C81.3789 61.824 81.6439 63.786 81.6799 65.693C81.7209 63.495 81.4549 61.37 80.8769 58.204C80.7489 57.501 80.1909 56.948 79.4879 56.823C73.4179 55.741 69.8779 55.741 63.8079 56.823C63.1039 56.948 62.5469 57.501 62.4189 58.204C61.8409 61.37 61.5749 63.495 61.6159 65.692C61.6519 63.785 61.9169 61.823 62.4189 59.076Z" fill="#D4D4D4"/>
<path d="M62.4189 71.436C62.5469 72.139 63.1039 72.692 63.8079 72.817C69.8779 73.899 73.4179 73.899 79.4879 72.817C80.1919 72.692 80.7489 72.139 80.8769 71.436C81.3789 68.688 81.6439 66.726 81.6799 64.819C81.7209 67.017 81.4549 69.142 80.8769 72.308C80.7489 73.011 80.1909 73.564 79.4879 73.689C73.4179 74.771 69.8779 74.771 63.8079 73.689C63.1039 73.563 62.5469 73.011 62.4189 72.308C61.8409 69.142 61.5749 67.017 61.6159 64.82C61.6519 66.727 61.9169 68.689 62.4189 71.436Z" fill="#696969"/>
<path d="M59.1049 79.4351L57.9409 81.5641C57.9409 81.5641 61.9189 82.7171 71.6519 82.7171C81.3849 82.7171 85.3549 81.5521 85.3549 81.5521L84.1979 79.4361C83.9269 78.9401 83.4069 78.6321 82.8419 78.6321H60.4609C59.8959 78.6311 59.3759 78.9391 59.1049 79.4351Z" fill="#828282"/>
<path d="M71.6621 85.299C64.4341 85.299 60.3741 84.464 58.8721 84.075C58.4741 83.972 58.1701 83.618 58.1191 83.21L57.8911 81.752C57.8911 81.505 58.1231 81.328 58.3611 81.394C59.6761 81.76 63.8211 82.701 71.6621 82.701C79.5031 82.701 83.6481 81.76 84.9631 81.394C85.2011 81.328 85.4331 81.505 85.4331 81.752L85.2061 83.21C85.1551 83.618 84.8511 83.972 84.4531 84.075C82.9501 84.464 78.8901 85.299 71.6621 85.299Z" fill="#A9A9A9"/>
<path d="M84.265 83.9211C83.486 83.4471 83.757 82.5661 84.231 81.9571C84.231 81.9571 81.85 82.8681 74.298 83.0381C66.746 83.2071 64.014 83.0071 58.731 81.7881C58.731 81.7881 60.1529 82.9731 59.0359 83.7181C59.0359 83.7181 59.781 84.0231 60.662 84.1581C60.662 84.1581 59.273 83.0341 60.391 82.7361C60.707 82.6511 62.6549 83.1701 64.4799 83.3501C68.8899 83.7851 75.364 83.8011 79.123 83.2931C82.882 82.7851 83.03 82.8491 83.098 83.0861C83.166 83.3231 83.737 83.7771 82.687 84.2511L84.265 83.9211Z" fill="#D4D4D4"/>
<path d="M94.1782 12.125L96.9162 13.183L96.9632 11.477L94.4472 9.755L94.1782 12.125Z" fill="#A8A8A8"/>
<path d="M94.1778 12.125L96.9158 13.183L96.8159 13.993L94.0479 13.73L94.1778 12.125Z" fill="#494949"/>
<path d="M94.2089 8.13198C93.9259 7.94098 93.5839 7.82898 93.2169 7.82898C93.1679 7.82898 93.1209 7.83198 93.0729 7.83598C93.0819 7.83698 93.0899 7.83998 93.0989 7.84098C92.1749 7.90298 91.4429 8.66398 91.4429 9.60398V22.649C91.4429 23.589 92.1749 24.35 93.0989 24.412C93.0899 24.413 93.0819 24.416 93.0729 24.417C93.1209 24.421 93.1679 24.424 93.2169 24.424C93.5839 24.424 93.9259 24.312 94.2089 24.121C94.6809 23.802 94.9909 23.262 94.9909 22.649V9.60398C94.9919 8.99098 94.6809 8.45098 94.2089 8.13198Z" fill="#494949"/>
<path d="M94.632 9.02402V22.069C94.632 23.049 93.838 23.844 92.857 23.844C91.877 23.844 91.082 23.049 91.082 22.069V9.02402C91.082 8.04402 91.877 7.24902 92.857 7.24902C93.837 7.25002 94.632 8.04402 94.632 9.02402Z" fill="#686868"/>
<path d="M94.3429 9.02402V22.069C94.3429 23 93.6249 23.763 92.7129 23.836C92.7609 23.84 92.8089 23.843 92.8569 23.843C93.8369 23.843 94.6319 23.048 94.6319 22.068V9.02402C94.6319 8.04402 93.8379 7.24902 92.8569 7.24902C92.8079 7.24902 92.7609 7.25302 92.7129 7.25602C93.6249 7.33102 94.3429 8.09302 94.3429 9.02402Z" fill="#A8A8A8"/>
<path d="M91.4751 9.02405V22.069C91.4751 22.485 91.6181 22.867 91.8581 23.169C92.2911 23.716 93.1341 23.716 93.5671 23.169C93.8071 22.867 93.9501 22.484 93.9501 22.069V9.02405C93.9501 8.60805 93.8071 8.22605 93.5671 7.92305C93.1341 7.37705 92.2911 7.37705 91.8581 7.92305C91.6191 8.22605 91.4751 8.60805 91.4751 9.02405Z" fill="#A8A8A8"/>
<path d="M118.475 12.125L115.737 13.183L115.69 11.477L118.206 9.755L118.475 12.125Z" fill="#A8A8A8"/>
<path d="M118.475 12.125L115.737 13.183L115.837 13.993L118.605 13.73L118.475 12.125Z" fill="#494949"/>
<path d="M118.444 8.13198C118.727 7.94098 119.069 7.82898 119.436 7.82898C119.485 7.82898 119.532 7.83198 119.58 7.83598C119.571 7.83698 119.563 7.83998 119.554 7.84098C120.478 7.90298 121.21 8.66398 121.21 9.60398V22.649C121.21 23.589 120.477 24.35 119.554 24.412C119.563 24.413 119.571 24.416 119.58 24.417C119.532 24.421 119.484 24.424 119.436 24.424C119.068 24.424 118.727 24.312 118.444 24.121C117.972 23.802 117.662 23.262 117.662 22.649V9.60398C117.661 8.99098 117.972 8.45098 118.444 8.13198Z" fill="#494949"/>
<path d="M118.021 9.02402V22.069C118.021 23.049 118.816 23.844 119.796 23.844C120.776 23.844 121.571 23.049 121.571 22.069V9.02402C121.571 8.04402 120.777 7.24902 119.796 7.24902C118.816 7.25002 118.021 8.04402 118.021 9.02402Z" fill="#686868"/>
<path d="M118.31 9.02402V22.069C118.31 23 119.028 23.763 119.94 23.836C119.892 23.84 119.844 23.843 119.796 23.843C118.816 23.843 118.021 23.048 118.021 22.068V9.02402C118.021 8.04402 118.816 7.24902 119.796 7.24902C119.845 7.24902 119.893 7.25302 119.94 7.25602C119.028 7.33102 118.31 8.09302 118.31 9.02402Z" fill="#A8A8A8"/>
<path d="M121.178 9.02405V22.069C121.178 22.485 121.035 22.867 120.795 23.169C120.362 23.716 119.519 23.716 119.086 23.169C118.846 22.867 118.703 22.484 118.703 22.069V9.02405C118.703 8.60805 118.846 8.22605 119.086 7.92305C119.519 7.37705 120.362 7.37705 120.795 7.92305C121.034 8.22605 121.178 8.60805 121.178 9.02405Z" fill="#A8A8A8"/>
<path d="M111.409 6.33398L110.289 11.103H101.448L100.328 6.33398H111.409Z" fill="#4A4A4A"/>
<path d="M109.816 6.33398L109.018 11.103H102.719L101.92 6.33398H109.816Z" fill="#696969"/>
<path d="M97.7131 29.492C104.372 30.679 108.256 30.679 114.915 29.492C115.687 29.354 116.298 28.749 116.439 27.977C117.624 21.49 117.624 18.991 116.439 12.504C116.298 11.732 115.687 11.127 114.915 10.989C108.256 9.802 104.372 9.802 97.7131 10.989C96.9411 11.127 96.33 11.732 96.189 12.504C95.004 18.991 95.004 21.49 96.189 27.977C96.33 28.749 96.9411 29.354 97.7131 29.492Z" fill="#4A4A4A"/>
<path d="M98.4739 28.674C104.544 29.756 108.084 29.756 114.154 28.674C114.858 28.549 115.415 27.996 115.543 27.293C116.623 21.38 116.623 19.102 115.543 13.189C115.414 12.486 114.858 11.933 114.154 11.808C108.084 10.726 104.544 10.726 98.4739 11.808C97.7699 11.933 97.2129 12.486 97.0849 13.189C96.0049 19.102 96.0049 21.38 97.0849 27.293C97.2129 27.996 97.7699 28.548 98.4739 28.674Z" fill="#A9A9A9"/>
<path d="M97.0849 26.4211C97.2139 27.1241 97.7699 27.6771 98.4739 27.8021C104.544 28.8841 108.084 28.8841 114.154 27.8021C114.858 27.6771 115.415 27.1241 115.543 26.4211C116.045 23.6731 116.31 21.7111 116.346 19.8041C116.387 22.0021 116.121 24.1271 115.543 27.2931C115.415 27.9961 114.857 28.5491 114.154 28.6741C108.084 29.7561 104.544 29.7561 98.4739 28.6741C97.7699 28.5491 97.2129 27.9961 97.0849 27.2931C96.5069 24.1271 96.2409 22.0021 96.2819 19.8051C96.3169 21.7111 96.5829 23.6731 97.0849 26.4211Z" fill="#D4D4D4"/>
<path d="M97.0849 14.06C97.2139 13.357 97.7699 12.805 98.4739 12.679C104.544 11.597 108.084 11.597 114.154 12.679C114.858 12.804 115.415 13.357 115.543 14.06C116.045 16.808 116.31 18.77 116.346 20.677C116.387 18.479 116.121 16.354 115.543 13.188C115.415 12.485 114.857 11.932 114.154 11.807C108.084 10.725 104.544 10.725 98.4739 11.807C97.7699 11.932 97.2129 12.485 97.0849 13.188C96.5069 16.354 96.2409 18.479 96.2819 20.676C96.3169 18.769 96.5829 16.807 97.0849 14.06Z" fill="#696969"/>
<path d="M93.7709 6.06105L92.6069 3.93205C92.6069 3.93205 96.5849 2.77905 106.318 2.77905C116.051 2.77905 120.021 3.94405 120.021 3.94405L118.864 6.06005C118.593 6.55605 118.073 6.86405 117.508 6.86405H95.127C94.562 6.86505 94.0419 6.55705 93.7709 6.06105Z" fill="#828282"/>
<path d="M106.327 0.197021C99.0991 0.197021 95.0392 1.03202 93.5372 1.42102C93.1392 1.52402 92.8351 1.87802 92.7841 2.28602L92.5562 3.74402C92.5562 3.99102 92.7882 4.16802 93.0262 4.10202C94.3412 3.73602 98.4861 2.79602 106.327 2.79602C114.168 2.79602 118.313 3.73702 119.628 4.10202C119.866 4.16802 120.098 3.99102 120.098 3.74402L119.871 2.28602C119.82 1.87802 119.516 1.52402 119.118 1.42102C117.615 1.03202 113.555 0.197021 106.327 0.197021Z" fill="#A9A9A9"/>
<path d="M118.93 1.575C118.151 2.049 118.422 2.93 118.896 3.539C118.896 3.539 116.515 2.628 108.963 2.458C101.411 2.289 98.679 2.489 93.396 3.708C93.396 3.708 94.818 2.523 93.701 1.778C93.701 1.778 94.446 1.473 95.327 1.338C95.327 1.338 93.938 2.46199 95.056 2.75999C95.372 2.84399 97.32 2.326 99.145 2.146C103.555 1.711 110.029 1.695 113.788 2.203C117.547 2.711 117.695 2.647 117.763 2.41C117.831 2.173 118.402 1.719 117.352 1.245L118.93 1.575Z" fill="#D4D4D4"/>
<path d="M94.1782 73.371L96.9162 72.313L96.9632 74.02L94.4472 75.742L94.1782 73.371Z" fill="#A8A8A8"/>
<path d="M94.1778 73.371L96.9158 72.313L96.8159 71.504L94.0479 71.766L94.1778 73.371Z" fill="#494949"/>
<path d="M94.2089 77.364C93.9259 77.555 93.5839 77.667 93.2169 77.667C93.1679 77.667 93.1209 77.664 93.0729 77.66C93.0819 77.659 93.0899 77.656 93.0989 77.655C92.1749 77.593 91.4429 76.832 91.4429 75.892V62.848C91.4429 61.908 92.1749 61.147 93.0989 61.085C93.0899 61.084 93.0819 61.081 93.0729 61.08C93.1209 61.076 93.1679 61.073 93.2169 61.073C93.5839 61.073 93.9259 61.185 94.2089 61.376C94.6809 61.695 94.9909 62.235 94.9909 62.848V75.893C94.9919 76.505 94.6809 77.045 94.2089 77.364Z" fill="#494949"/>
<path d="M94.632 76.472V63.427C94.632 62.447 93.838 61.652 92.857 61.652C91.877 61.652 91.082 62.447 91.082 63.427V76.472C91.082 77.452 91.877 78.247 92.857 78.247C93.837 78.247 94.632 77.452 94.632 76.472Z" fill="#686868"/>
<path d="M94.3429 76.4721V63.4271C94.3429 62.4961 93.6249 61.7331 92.7129 61.6601C92.7609 61.6561 92.8089 61.6531 92.8569 61.6531C93.8369 61.6531 94.6319 62.4481 94.6319 63.4281V76.4731C94.6319 77.4531 93.8379 78.2481 92.8569 78.2481C92.8079 78.2481 92.7609 78.2451 92.7129 78.2411C93.6249 78.1661 94.3429 77.4041 94.3429 76.4721Z" fill="#A8A8A8"/>
<path d="M91.4751 76.472V63.427C91.4751 63.011 91.6181 62.629 91.8581 62.326C92.2911 61.779 93.1341 61.779 93.5671 62.326C93.8071 62.628 93.9501 63.011 93.9501 63.427V76.472C93.9501 76.888 93.8071 77.27 93.5671 77.573C93.1341 78.12 92.2911 78.12 91.8581 77.573C91.6191 77.27 91.4751 76.888 91.4751 76.472Z" fill="#A8A8A8"/>
<path d="M118.475 73.371L115.737 72.313L115.69 74.02L118.206 75.742L118.475 73.371Z" fill="#A8A8A8"/>
<path d="M118.475 73.371L115.737 72.313L115.837 71.504L118.605 71.766L118.475 73.371Z" fill="#494949"/>
<path d="M118.444 77.364C118.727 77.555 119.069 77.667 119.436 77.667C119.485 77.667 119.532 77.664 119.58 77.66C119.571 77.659 119.563 77.656 119.554 77.655C120.478 77.593 121.21 76.832 121.21 75.892V62.848C121.21 61.908 120.477 61.147 119.554 61.085C119.563 61.084 119.571 61.081 119.58 61.08C119.532 61.076 119.484 61.073 119.436 61.073C119.068 61.073 118.727 61.185 118.444 61.376C117.972 61.695 117.662 62.235 117.662 62.848V75.893C117.661 76.505 117.972 77.045 118.444 77.364Z" fill="#494949"/>
<path d="M118.021 76.472V63.427C118.021 62.447 118.816 61.652 119.796 61.652C120.776 61.652 121.571 62.447 121.571 63.427V76.472C121.571 77.452 120.777 78.247 119.796 78.247C118.816 78.247 118.021 77.452 118.021 76.472Z" fill="#686868"/>
<path d="M118.31 76.4721V63.4271C118.31 62.4961 119.028 61.7331 119.94 61.6601C119.892 61.6561 119.844 61.6531 119.796 61.6531C118.816 61.6531 118.021 62.4481 118.021 63.4281V76.4731C118.021 77.4531 118.816 78.2481 119.796 78.2481C119.845 78.2481 119.893 78.2451 119.94 78.2411C119.028 78.1661 118.31 77.4041 118.31 76.4721Z" fill="#A8A8A8"/>
<path d="M121.178 76.472V63.427C121.178 63.011 121.035 62.629 120.795 62.326C120.362 61.779 119.519 61.779 119.086 62.326C118.846 62.628 118.703 63.011 118.703 63.427V76.472C118.703 76.888 118.846 77.27 119.086 77.573C119.519 78.12 120.362 78.12 120.795 77.573C121.034 77.27 121.178 76.888 121.178 76.472Z" fill="#A8A8A8"/>
<path d="M111.409 79.162L110.289 74.394H101.448L100.328 79.162H111.409Z" fill="#4A4A4A"/>
<path d="M109.816 79.162L109.018 74.394H102.719L101.92 79.162H109.816Z" fill="#696969"/>
<path d="M97.7131 56.004C104.372 54.817 108.256 54.817 114.915 56.004C115.687 56.142 116.298 56.747 116.439 57.519C117.624 64.006 117.624 66.505 116.439 72.992C116.298 73.764 115.687 74.37 114.915 74.507C108.256 75.694 104.372 75.694 97.7131 74.507C96.9411 74.369 96.33 73.764 96.189 72.992C95.004 66.505 95.004 64.006 96.189 57.519C96.33 56.748 96.9411 56.142 97.7131 56.004Z" fill="#4A4A4A"/>
<path d="M98.4739 56.823C104.544 55.741 108.084 55.741 114.154 56.823C114.858 56.948 115.415 57.501 115.543 58.204C116.623 64.117 116.623 66.395 115.543 72.308C115.414 73.011 114.858 73.564 114.154 73.689C108.084 74.771 104.544 74.771 98.4739 73.689C97.7699 73.564 97.2129 73.011 97.0849 72.308C96.0049 66.395 96.0049 64.117 97.0849 58.204C97.2129 57.501 97.7699 56.948 98.4739 56.823Z" fill="#A9A9A9"/>
<path d="M97.0849 59.076C97.2139 58.373 97.7699 57.82 98.4739 57.695C104.544 56.613 108.084 56.613 114.154 57.695C114.858 57.82 115.415 58.373 115.543 59.076C116.045 61.824 116.31 63.786 116.346 65.693C116.387 63.495 116.121 61.37 115.543 58.204C115.415 57.501 114.857 56.948 114.154 56.823C108.084 55.741 104.544 55.741 98.4739 56.823C97.7699 56.948 97.2129 57.501 97.0849 58.204C96.5069 61.37 96.2409 63.495 96.2819 65.692C96.3169 63.785 96.5829 61.823 97.0849 59.076Z" fill="#D4D4D4"/>
<path d="M97.0849 71.436C97.2139 72.139 97.7699 72.692 98.4739 72.817C104.544 73.899 108.084 73.899 114.154 72.817C114.858 72.692 115.415 72.139 115.543 71.436C116.045 68.688 116.31 66.726 116.346 64.819C116.387 67.017 116.121 69.142 115.543 72.308C115.415 73.011 114.857 73.564 114.154 73.689C108.084 74.771 104.544 74.771 98.4739 73.689C97.7699 73.563 97.2129 73.011 97.0849 72.308C96.5069 69.142 96.2409 67.017 96.2819 64.82C96.3169 66.727 96.5829 68.689 97.0849 71.436Z" fill="#696969"/>
<path d="M93.7709 79.4351L92.6069 81.5641C92.6069 81.5641 96.5849 82.7171 106.318 82.7171C116.051 82.7171 120.021 81.5521 120.021 81.5521L118.864 79.4361C118.593 78.9401 118.073 78.6321 117.508 78.6321H95.127C94.562 78.6311 94.0419 78.9391 93.7709 79.4351Z" fill="#828282"/>
<path d="M106.327 85.299C99.0991 85.299 95.0392 84.464 93.5372 84.075C93.1392 83.972 92.8351 83.618 92.7841 83.21L92.5562 81.752C92.5562 81.505 92.7882 81.328 93.0262 81.394C94.3412 81.76 98.4861 82.701 106.327 82.701C114.168 82.701 118.313 81.76 119.628 81.394C119.866 81.328 120.098 81.505 120.098 81.752L119.871 83.21C119.82 83.618 119.516 83.972 119.118 84.075C117.615 84.464 113.555 85.299 106.327 85.299Z" fill="#A9A9A9"/>
<path d="M118.93 83.9211C118.151 83.4471 118.422 82.5661 118.896 81.9571C118.896 81.9571 116.515 82.8681 108.963 83.0381C101.411 83.2071 98.679 83.0071 93.396 81.7881C93.396 81.7881 94.818 82.9731 93.701 83.7181C93.701 83.7181 94.446 84.0231 95.327 84.1581C95.327 84.1581 93.938 83.0341 95.056 82.7361C95.372 82.6511 97.32 83.1701 99.145 83.3501C103.555 83.7851 110.029 83.8011 113.788 83.2931C117.547 82.7851 117.695 82.8491 117.763 83.0861C117.831 83.3231 118.402 83.7771 117.352 84.2511L118.93 83.9211Z" fill="#D4D4D4"/>
<path d="M124.407 71.114H20.3871C17.0871 71.114 14.4121 68.439 14.4121 65.139V20.924C14.4121 17.624 17.0871 14.949 20.3871 14.949H124.407C127.707 14.949 130.382 17.624 130.382 20.924V65.139C130.382 68.439 127.707 71.114 124.407 71.114Z" fill="#984626"/>
<path d="M124.465 69.759H20.3279C17.7559 69.759 15.6699 67.674 15.6699 65.101V20.962C15.6699 18.39 17.7549 16.304 20.3279 16.304H124.465C127.037 16.304 129.123 18.389 129.123 20.962V65.101C129.123 67.674 127.038 69.759 124.465 69.759Z" fill="#BF5F3D"/>
<path d="M124.978 68.2669H19.8153C17.9203 68.2669 16.3843 66.7129 16.3843 64.7949V65.5409C16.3843 67.4579 17.9203 69.0129 19.8153 69.0129H124.978C126.873 69.0129 128.409 67.4589 128.409 65.5409V64.7949C128.409 66.7129 126.873 68.2669 124.978 68.2669Z" fill="#FFC2AD"/>
<path d="M124.978 17.797H19.8153C17.9203 17.797 16.3843 19.351 16.3843 21.269V20.523C16.3843 18.606 17.9203 17.051 19.8153 17.051H124.978C126.873 17.051 128.409 18.605 128.409 20.523V21.269C128.409 19.351 126.873 17.797 124.978 17.797Z" fill="#984626"/>
</svg>
